# Wavafront OBJ file of BodyParts3D
# BodyParts3D, Copyright(C) 2010-2011 The Database Center for Life Science licensed under CC Attribution-Share Alike 2.1 Japan.
vn -0.718979 0.604603 -0.342817
v -15.3623 -131.37 1443.76
vn -0.780745 -0.165587 -0.602509
v -15.3544 -131.576 1443.79
vn -0.669827 0.65327 -0.352945
v -15.1738 -131.255 1443.73
vn -0.572208 0.430355 -0.69812
v -15.0557 -131.302 1443.58
vn -0.602808 0.785301 0.141158
v -15.131 -131.206 1443.87
vn -0.999765 -0.00507159 0.0210543
v -15.0738 -131.173 1443.41
vn -0.977284 0.169573 0.127128
v -15.0493 -131.152 1443.56
vn -0.674821 0.356739 -0.646029
v -15.0794 -131.122 1443.7
vn -0.670026 0.0350425 -0.74151
v -15.0619 -131.626 1443.48
vn -0.927508 -0.12774 -0.351299
v -14.993 -131.539 1443.16
vn -0.876099 -0.133133 -0.463386
v -14.7454 -132.357 1443.17
vn -0.950921 -0.207806 0.229273
v -15.2744 -131.462 1444.22
vn -0.604553 0.724992 0.330004
v -15.1493 -131.322 1444.2
vn -0.57057 -0.398856 0.717889
v -14.6999 -131.496 1444.66
vn -0.526684 0.754514 0.391551
v -14.488 -131.078 1444.62
vn 0.326111 -0.00252479 0.945328
v -14.3405 -131.105 1444.62
vn 0.75404 0.425768 0.500145
v -14.1978 -131.152 1444.51
vn -0.99676 -0.0100009 -0.0798063
v -15.0612 -131.049 1443.24
vn -0.797543 0.59313 0.110101
v -15.0598 -131.025 1443.38
vn -0.584111 0.756891 0.293139
v -14.9442 -131.009 1443.6
vn -0.494382 0.867407 -0.0564884
v -14.769 -130.866 1443.19
vn -0.483612 0.863663 0.142146
v -14.6214 -130.781 1443.48
vn 0.0345265 0.628283 -0.777218
v -14.2577 -130.597 1443.43
vn -0.232608 0.936495 0.262432
v -14.2633 -130.645 1443.75
vn 0.322912 0.841842 0.432469
v -14.1112 -130.648 1443.74
vn -0.997898 0.0647789 -0.00195331
v -14.2684 -137.421 1442.1
vn -0.943991 0.107874 -0.311841
v -14.0957 -136.7 1441.97
vn -0.87577 0.0675755 -0.477975
v -13.9812 -135.467 1442.07
vn -0.983378 0.0124653 0.181141
v -13.9287 -136.207 1443.26
vn -0.984665 -0.129572 -0.116818
v -14.1881 -134.677 1442.87
vn -0.944157 -0.100056 -0.313937
v -14.1575 -134.431 1442.52
vn -0.791874 0.0308526 -0.609904
v -14.1441 -133.983 1442.45
vn -0.841068 -0.0404573 -0.539414
v -13.6498 -134.15 1442
vn -0.87817 -0.397832 0.265607
v -14.4237 -133.73 1443.64
vn -0.980268 -0.176825 0.0883629
v -14.2133 -134.411 1443.5
vn -0.324709 -0.193071 0.925898
v -13.9744 -134.764 1443.51
vn -0.0918227 -0.171594 0.980879
v -13.7034 -134.152 1443.77
vn -0.80033 -0.0822894 -0.593885
v -14.0762 -132.799 1442.2
vn -0.885235 -0.248204 -0.393387
v -13.7613 -133.827 1441.95
vn 0.354712 -0.0938139 0.930257
v -13.3321 -133.108 1443.95
vn -0.0482079 0.411024 -0.910349
v -13.397 -132.315 1442.15
vn 0.1384 0.580483 -0.802425
v -13.2093 -131.474 1442.77
vn 0.559207 0.787753 -0.258328
v -13.3082 -131.214 1443.19
vn -0.982154 0.00803207 -0.187906
v -14.2306 -143.776 1441.14
vn -0.820361 0.0512152 -0.569548
v -13.8056 -142.324 1440.13
vn -0.831241 0.1182 -0.543201
v -13.8531 -141.035 1440.38
vn -0.731642 -0.0329238 0.680894
v -13.9855 -140.612 1442.75
vn -0.769017 0.20046 -0.606983
v -13.7367 -137.52 1441.18
vn -0.675222 0.189144 -0.712951
v -13.4172 -137.32 1440.88
vn -0.261455 -0.190449 0.94624
v -13.5441 -135.301 1443.55
vn -0.427629 0.190456 -0.883663
v -13.4705 -134.407 1441.59
vn 0.11785 -0.12938 0.984567
v -12.7936 -134.979 1443.54
vn -0.343329 0.231392 -0.910265
v -13.4127 -134.103 1441.62
vn -0.557451 0.0253003 -0.829824
v -12.2446 -133.568 1441.5
vn 0.804569 0.229273 0.547817
v -12.1242 -133.711 1442.63
vn 0.741792 0.138113 0.656254
v -13.192 -133.06 1443.78
vn 0.456925 -0.0956875 0.884343
v -13.0484 -133.089 1443.46
vn 0.516862 -0.144448 0.843794
v -13.0199 -132.938 1443.47
vn 0.460647 -0.107339 0.881069
v -12.9207 -132.809 1443.43
vn 0.390118 -0.0906761 0.916289
v -12.9035 -133.126 1443.4
vn 0.399417 -0.0504396 0.915381
v -12.6996 -133.655 1443.24
vn 0.358655 -0.1052 0.927523
v -12.6093 -133.52 1443.23
vn 0.271462 0.629545 -0.727998
v -12.8083 -132.55 1442.17
vn 0.334618 0.598417 -0.727962
v -12.7094 -132.053 1442.64
vn 0.796999 0.288622 0.530556
v -12.6098 -132.347 1442.84
vn -0.910296 0.00611717 -0.413912
v -14.0669 -147.796 1440.41
vn -0.983954 -0.015515 0.177748
v -14.1431 -144.672 1442.34
vn -0.311105 0.000327779 0.950375
v -13.5631 -144.685 1442.91
vn -0.571997 0.033407 -0.819575
v -13.3297 -144.058 1439.53
vn -0.207243 -0.0214079 0.978055
v -13.0434 -143.547 1442.9
vn -0.179147 -0.0679109 0.981476
v -13.4978 -141.912 1442.92
vn -0.323341 -0.0510873 0.944903
v -12.9345 -142.165 1442.96
vn -0.578392 0.140364 -0.803592
v -13.3977 -141.203 1439.89
vn -0.309388 -0.0635721 0.948809
v -12.5806 -141.111 1443.18
vn -0.25631 0.164143 -0.952556
v -12.9933 -140.673 1439.81
vn -0.20691 0.253166 -0.945037
v -12.5499 -136.753 1440.62
vn 0.284698 -0.0273032 0.958228
v -12.4371 -136.315 1443.35
vn 0.635332 0.119895 0.762875
v -12.0969 -136.115 1443.08
vn 0.613782 0.132536 0.778271
v -12.0474 -135.842 1442.91
vn 0.579667 0.183278 0.793974
v -11.837 -136.345 1442.91
vn 0.352548 0.0358262 0.935108
v -11.6662 -136.243 1442.8
vn 0.598067 0.124884 0.791656
v -11.4922 -136.127 1442.76
vn -0.470041 0.0593319 -0.880648
v -11.8642 -134.771 1441.21
vn 0.281957 -0.0554505 0.957823
v -12.2309 -134.395 1443.04
vn -0.652703 -0.0489438 -0.756031
v -11.7836 -134.339 1441.11
vn 0.873477 0.486813 -0.00710581
v -11.416 -134.036 1441.59
vn 0.455436 0.604052 -0.653987
v -11.3399 -134.419 1441.19
vn 0.72265 0.193379 0.663612
v -11.8287 -134.268 1442.4
vn -0.970828 -0.0262773 -0.238333
v -13.9145 -155.326 1440.86
vn -0.996912 -0.0168913 0.0766862
v -14.0027 -155.263 1442.06
vn -0.995435 -0.0690098 -0.0659237
v -14.0018 -154.483 1440.26
vn -0.677481 0.0679487 -0.732395
v -13.7451 -154.349 1439.5
vn -0.998455 -0.0434736 -0.034603
v -14.0512 -154.776 1441.22
vn -0.999446 -0.0316087 -0.0103762
v -13.9085 -154.728 1441.66
vn -0.630199 -0.0883316 0.771393
v -13.7849 -153.95 1442.75
vn -0.846448 -0.0213504 0.532043
v -13.954 -153.015 1442.61
vn -0.999669 -0.0199119 0.0162844
v -14.0348 -152.447 1442.21
vn -0.994645 -0.0410138 0.0948667
v -14.0314 -152.347 1441.89
vn -0.447684 0.0337655 -0.893554
v -13.4515 -149.57 1439.74
vn -0.28632 0.017161 -0.95798
v -13.2161 -149.936 1439.66
vn -0.63659 0.000147291 -0.771202
v -12.9188 -149.142 1439.19
vn -0.313278 0.0152979 -0.949538
v -12.3073 -145.889 1438.98
vn -0.00868884 -0.013628 0.999869
v -12.0861 -144.151 1443.13
vn -0.260323 -0.0261192 0.965168
v -12.5965 -142.813 1443.16
vn 0.341379 0.0419622 0.938989
v -10.9806 -138.261 1442.59
vn -0.00696813 0.266957 -0.963683
v -11.2247 -137.808 1440.41
vn 0.907214 0.4087 0.0996383
v -10.7673 -136.249 1441.92
vn 0.650061 0.111058 0.751722
v -10.862 -136.8 1442.21
vn 0.625546 0.119602 0.770966
v -10.7206 -136.384 1442.09
vn 0.620979 0.0934772 0.778233
v -10.45 -136.201 1441.63
vn 0.839775 0.28636 0.461277
v -10.3035 -136.222 1441.44
vn -0.595712 -0.0285378 -0.802691
v -11.1411 -135.764 1440.71
vn 0.135212 0.350335 -0.926813
v -10.5853 -136.046 1440.56
vn 0.694238 0.615833 -0.372536
v -10.9521 -134.783 1441.23
vn 0.912534 0.39935 0.0883244
v -10.9759 -135.758 1441.85
vn 0.57765 0.000189631 0.816285
v -10.8894 -135.307 1441.86
vn 0.531113 0.551311 -0.643409
v -10.7232 -135.184 1440.98
vn 0.621334 0.0643195 0.780902
v -10.7181 -135.202 1441.76
vn 0.741565 0.145473 0.654919
v -11.0838 -135.543 1442.12
vn -0.977914 0.0226404 -0.207779
v -13.5571 -158.354 1438.89
vn -0.082426 -0.139542 -0.98678
v -13.3908 -158.887 1438.66
vn -0.0410235 -0.158432 -0.986517
v -13.5113 -158.722 1438.64
vn -0.716208 -0.582979 0.383642
v -13.4847 -158.694 1438.78
vn -0.539828 0.394451 -0.743636
v -13.4473 -158.392 1438.79
vn -0.082426 -0.139542 -0.98678
v -13.3274 -158.749 1438.63
vn -0.99676 -0.0286087 -0.0751735
v -13.694 -157.903 1439.58
vn -0.937663 0.0544705 -0.34325
v -13.6537 -157.308 1439.48
vn -0.456436 0.195133 -0.868095
v -13.3257 -157.76 1439
vn -0.835411 -0.521793 0.172688
v -13.6327 -157.639 1440.29
vn -0.989496 -0.137517 -0.0445804
v -13.6928 -157.502 1440.12
vn -0.998717 0.0123849 -0.0491006
v -14.018 -156.866 1441.71
vn -0.859092 -0.507589 0.0656906
v -13.7156 -157.374 1440.86
vn -0.95701 -0.285278 0.0524188
v -13.7963 -157.208 1440.84
vn -0.823961 -0.165539 0.541927
v -13.9132 -156.987 1442.03
vn -0.534486 -0.172213 0.827446
v -13.6102 -156.237 1442.5
vn -0.375375 -0.269462 0.886839
v -13.4825 -157.169 1442.34
vn -0.994304 -0.101495 -0.032518
v -13.7839 -155.729 1440.45
vn -0.220555 -0.159801 0.962195
v -13.3923 -155.099 1442.79
vn -0.378674 0.1418 -0.914603
v -13.225 -154.809 1439.18
vn 0.22773 0.158036 -0.960814
v -12.9646 -155.051 1439.24
vn -0.254717 0.135237 -0.957512
v -13.0762 -154.032 1439.37
vn -0.576399 -0.0125639 -0.817072
v -12.9293 -153.78 1439.19
vn -0.177818 -0.0939874 0.979565
v -13.4124 -153.598 1442.98
vn -0.149759 0.0852446 -0.985041
v -11.6063 -146.207 1438.79
vn -0.133144 -0.0277079 0.990709
v -11.8414 -145.281 1443.12
vn 0.510133 0.0874479 0.855638
v -10.8756 -145.011 1443.03
vn 0.370067 0.058915 0.927135
v -10.5341 -143.166 1442.43
vn -0.0152674 0.209309 -0.97773
v -10.9706 -141.261 1439.48
vn 0.592656 0.12547 0.795623
v -9.84036 -140.273 1442.01
vn 0.643348 0.132191 0.754075
v -10.4614 -138.728 1442.3
vn -0.244325 0.137917 -0.959835
v -10.1799 -137.912 1440.04
vn 0.769847 0.270212 0.578205
v -10.2325 -137.328 1441.61
vn 0.665397 0.170886 0.726667
v -10.0965 -138.388 1441.9
vn 0.701603 0.185508 0.687997
v -9.80182 -137.604 1441.37
vn 0.568136 0.472523 -0.673753
v -9.78805 -136.676 1440.57
vn 0.878802 0.320528 0.35351
v -9.71997 -136.646 1440.72
vn -0.637287 -0.564669 -0.524418
v -12.321 -159.699 1438.7
vn 0.190519 0.252527 -0.948648
v -12.9764 -159.123 1438.64
vn -0.677695 -0.672336 -0.297814
v -12.5604 -159.348 1438.68
vn -0.59489 -0.56012 -0.576517
v -12.2988 -159.573 1438.55
vn -0.005211 0.273372 -0.961894
v -13.1216 -158.287 1438.85
vn -0.0644997 0.131808 -0.989175
v -12.8908 -158.677 1438.76
vn -0.62474 -0.696849 0.35228
v -12.7675 -158.87 1439.39
vn -0.6174 -0.670398 0.411564
v -12.5652 -159.384 1438.86
vn -0.0725792 0.128998 -0.988985
v -12.3761 -158.372 1438.69
vn 0.234036 -0.398144 0.886966
v -12.516 -158.496 1441.96
vn 0.461263 -0.208364 0.862451
v -12.3363 -158.348 1441.87
vn 0.0826503 -0.447525 0.890444
v -12.1444 -158.934 1441.61
vn -0.780479 -0.625047 -0.0130068
v -13.0472 -158.088 1442.17
vn -0.17602 -0.372129 0.911338
v -11.9925 -158.102 1442.13
vn -0.0825454 0.130462 -0.988011
v -12.7464 -157.913 1438.78
vn 0.161345 -0.213107 0.963615
v -12.8901 -157.269 1442.4
vn 0.0351236 -0.263558 0.964004
v -12.3259 -156.704 1442.37
vn -0.243937 0.0901552 -0.965591
v -12.5906 -156.178 1439.1
vn -0.182822 0.0499664 -0.981875
v -12.3684 -155.924 1439.02
vn 0.106874 -0.205168 0.972874
v -12.5397 -156.229 1442.54
vn 0.031241 -0.238888 0.970544
v -12.304 -155.794 1442.63
vn 0.0313376 -0.190247 0.981236
v -12.0951 -154.703 1442.91
vn -0.0713102 -0.0444218 0.996465
v -11.6195 -150.578 1443.14
vn -0.20727 -0.011685 -0.978214
v -10.7819 -150.726 1438.58
vn 0.147228 0.00751099 0.989074
v -10.9695 -147.135 1443.18
vn -0.201436 -0.0197799 0.979302
v -10.5074 -147.101 1442.97
vn -0.304238 -0.0452899 0.951519
v -10.0232 -147.782 1443.14
vn -0.00153522 0.0291773 -0.999573
v -10.811 -146.84 1438.67
vn 0.540838 0.0453215 0.839905
v -10.6896 -146.449 1442.97
vn -0.0306451 0.0728927 0.996869
v -10.5139 -146.327 1442.97
vn 0.594389 0.250474 0.764175
v -10.117 -145.826 1442.71
vn 0.487794 0.199924 0.849757
v -9.98242 -146.746 1442.96
vn 0.0376166 0.127518 -0.991123
v -10.2279 -145.377 1438.82
vn 0.41324 0.152723 0.897724
v -10.6433 -145.39 1442.88
vn 0.522391 0.19287 0.830607
v -10.0132 -145.263 1442.49
vn -0.264137 -0.000829575 0.964485
v -9.785 -145.294 1442.56
vn -0.170515 -0.017675 0.985197
v -10.2667 -143.368 1442.45
vn -0.206013 -0.0241941 0.97825
v -9.96922 -143.413 1442.51
vn -0.134513 0.141984 -0.980687
v -9.40721 -141.072 1439.58
vn 0.544167 0.382762 -0.746576
v -8.8496 -138.949 1439.99
vn 0.400793 0.267702 -0.876185
v -8.79206 -139.444 1439.83
vn 0.876546 0.279137 0.392109
v -8.7269 -139.318 1440.65
vn 0.941679 0.316566 -0.114137
v -8.60938 -139.414 1440.2
vn 0.388506 0.343924 -0.854856
v -9.17226 -138.58 1439.94
vn 0.364603 0.137389 -0.920972
v -11.4999 -160.191 1438.52
vn -0.456461 -0.496218 -0.738519
v -11.4029 -160.495 1438.67
vn 0.225412 -0.357599 -0.906263
v -11.3768 -160.353 1438.62
vn 0.159637 0.141606 -0.976967
v -11.2887 -159.892 1438.7
vn -0.699485 -0.693228 0.173652
v -11.1844 -160.684 1438.7
vn -0.736533 -0.673657 0.0608721
v -12.0517 -159.239 1441.4
vn -0.238964 0.00820253 -0.970994
v -11.0549 -158.664 1438.9
vn -0.139792 -0.484172 0.863733
v -11.9396 -158.666 1441.76
vn -0.110259 -0.351052 0.929842
v -11.1945 -158.766 1441.82
vn 0.0325439 0.0387048 -0.998721
v -11.6348 -157.689 1438.85
vn 0.124184 0.028011 -0.991864
v -11.2833 -158.156 1438.91
vn -0.0438011 0.00767195 -0.999011
v -11.602 -156.706 1438.84
vn -0.188211 0.00938823 -0.982084
v -11.3719 -156.295 1438.84
vn -0.241625 -0.0100854 -0.970317
v -11.075 -157.142 1438.73
vn -0.236129 -0.205705 0.949699
v -10.7787 -155.621 1442.59
vn -0.431077 -0.0809495 -0.898677
v -10.6407 -155.657 1438.85
vn -0.661844 -0.111733 -0.741268
v -10.537 -155.094 1438.63
vn -0.167832 0.00913678 -0.985773
v -10.9404 -154.82 1438.89
vn -0.518988 -0.0694307 -0.851957
v -10.8042 -154.092 1438.78
vn 0.0898314 -0.0146896 0.995849
v -10.21 -152.826 1443.29
vn -0.271798 -0.0408175 -0.961488
v -9.88177 -151.631 1438.8
vn 0.333003 0.0092954 0.94288
v -9.29597 -151.184 1443.03
vn 0.291377 0.0670087 0.954259
v -10.1867 -150.256 1442.96
vn -0.196163 -0.0286013 0.980154
v -9.95232 -149.826 1443.02
vn 0.599798 0.120946 0.790958
v -9.57967 -148.66 1443.01
vn 0.703841 0.212456 0.677842
v -9.60763 -147.168 1442.65
vn -0.0168195 0.11081 0.993699
v -9.4878 -147.343 1442.67
vn 0.53815 0.0895408 0.838079
v -9.3442 -144.946 1442.36
vn -0.0393361 0.119977 -0.991997
v -8.54419 -144.56 1439.11
vn 0.652713 0.126598 0.746953
v -9.07719 -143.51 1442
vn 0.155252 0.167534 -0.973565
v -8.49977 -141.909 1439.29
vn 0.858804 0.20634 0.468914
v -7.97335 -141.944 1440.58
vn 0.939904 0.289234 -0.181451
v -8.18632 -141.08 1439.69
vn -0.572913 -0.812611 0.106933
v -10.2474 -161.015 1441.61
vn -0.561292 -0.824424 0.0726378
v -10.1171 -161.126 1441.47
vn -0.745479 -0.665954 -0.0276906
v -11.1423 -160.725 1438.56
vn 0.0727188 -0.0604004 -0.995522
v -11.0222 -160.897 1438.54
vn 0.086472 0.0569743 -0.994624
v -10.9943 -160.748 1438.53
vn -0.669397 -0.731902 -0.127383
v -10.8787 -160.957 1438.74
vn -0.410143 -0.465982 -0.783992
v -10.7231 -160.935 1438.64
vn -0.640166 -0.540531 0.545907
v -10.8923 -160.375 1441.38
vn -0.640166 -0.540531 0.545907
v -10.4658 -160.56 1441.7
vn 0.124807 0.0983547 -0.987294
v -10.6699 -159.849 1438.72
vn -0.155808 -0.187499 0.969829
v -10.0838 -156.975 1442.67
vn 0.161257 -0.123728 0.979126
v -9.5042 -156.325 1442.58
vn 0.0686393 -0.14828 0.986561
v -9.32829 -156.202 1442.59
vn -0.584898 -0.216028 0.78181
v -9.14417 -156.047 1442.79
vn -0.50123 -0.1962 0.842778
v -9.4163 -155.064 1442.82
vn -0.430517 -0.184681 0.883486
v -9.32187 -154.572 1442.97
vn 0.430759 -0.0498956 0.901087
v -9.03415 -154.66 1442.88
vn 0.256304 -0.0940283 0.962012
v -9.59408 -153.594 1443.08
vn -0.0691993 -0.0401792 -0.996793
v -9.06211 -152.129 1438.59
vn -0.0937641 -0.0945072 -0.991099
v -8.44661 -152.1 1438.53
vn 0.635845 0.074335 0.768229
v -8.52085 -151.109 1442.5
vn 0.393623 0.0552334 -0.917611
v -8.58354 -149.592 1438.57
vn 0.586935 0.0745475 -0.806195
v -8.33672 -149.914 1438.77
vn 0.122795 0.0669746 -0.99017
v -8.88638 -148.768 1438.54
vn 0.371632 0.114469 -0.921296
v -8.65061 -147.533 1438.79
vn -0.0348731 0.0461919 -0.998324
v -8.41404 -147.095 1438.9
vn 0.194938 0.0687703 -0.978402
v -7.95169 -146.26 1438.86
vn 0.190781 0.121985 -0.974024
v -7.92764 -144.527 1439.07
vn 0.663943 0.178404 -0.72619
v -7.10659 -145.092 1439.38
vn 0.508321 0.0937868 0.856045
v -7.76848 -144.589 1440.72
vn 0.565158 0.101709 0.818689
v -7.38808 -144.992 1440.58
vn -0.699636 -0.668775 -0.251493
v -9.83931 -161.927 1438.85
vn -0.6441 -0.606152 0.4666
v -9.64807 -162.179 1438.88
vn -0.699636 -0.668775 -0.251493
v -9.70753 -162.033 1438.76
vn -0.392727 -0.175452 -0.902764
v -9.6065 -162.305 1438.75
vn -0.269306 -0.0631884 -0.96098
v -9.56334 -162.073 1438.68
vn -0.647034 -0.67012 0.363711
v -10.0319 -161.361 1439.37
vn -0.616152 -0.784866 0.0658863
v -9.30766 -161.718 1440.16
vn -0.50445 -0.848748 0.158612
v -9.81965 -161.222 1441.62
vn -0.19165 -0.170497 0.966541
v -9.60261 -160.84 1441.71
vn -0.360982 -0.198592 0.911183
v -9.22477 -161.268 1441.76
vn -0.0485247 0.0121401 -0.998748
v -9.80542 -160.933 1438.76
vn -0.620091 -0.181426 -0.763264
v -9.44236 -159.004 1438.67
vn 0.261073 -0.105061 0.959585
v -8.76394 -158.051 1442.34
vn 0.418329 -0.0546026 0.906653
v -8.19051 -156.621 1442.19
vn -0.00596826 -0.0112463 -0.999919
v -9.0242 -155.981 1438.72
vn 0.609848 0.0451934 0.791228
v -7.66879 -153.84 1441.92
vn 0.133006 -0.0073542 -0.991088
v -8.23288 -152.59 1438.61
vn 0.346665 0.0601946 -0.936056
v -8.2665 -151.961 1438.64
vn -0.0748894 0.0320288 -0.996677
v -8.12382 -151.207 1438.68
vn 0.683727 0.0614791 0.727144
v -7.12772 -150.687 1441.04
vn 0.0950878 0.0377902 -0.994751
v -7.89999 -150.018 1438.64
vn 0.302149 0.0180024 -0.953091
v -7.16237 -147.755 1439.12
vn 0.491362 0.0689664 -0.868221
v -6.71552 -147.821 1439.23
vn 0.574046 0.0898696 0.813876
v -7.39908 -147.724 1440.88
vn 0.835248 0.165647 0.524331
v -6.75653 -146.866 1440.26
vn 0.592454 0.138487 0.793612
v -6.72893 -147.926 1440.43
vn 0.969012 0.232295 -0.0839975
v -6.99322 -145.267 1439.56
vn -0.542419 -0.811211 0.218447
v -8.9547 -162.9 1438.82
vn -0.0988064 -0.0718171 -0.992512
v -8.67409 -163.021 1438.63
vn -0.548505 -0.766664 0.33372
v -7.99467 -162.734 1439.97
vn -0.585059 -0.810521 -0.0275885
v -8.13492 -162.776 1441.8
vn -0.325353 -0.236025 0.915662
v -8.57462 -161.075 1442.04
vn 0.171885 0.163705 -0.97142
v -8.04604 -160.503 1438.67
vn -0.0767548 0.0687354 -0.994678
v -7.89827 -160.529 1438.68
vn 0.359592 -0.0629829 0.930982
v -8.11469 -159.963 1441.81
vn 0.282212 0.173709 -0.943494
v -8.31345 -160.301 1438.65
vn 0.11792 0.0198626 -0.992824
v -8.52392 -159.798 1438.65
vn 0.0588312 0.113185 -0.991831
v -8.13257 -160.159 1438.78
vn -0.233808 -0.0666457 -0.969996
v -7.78716 -159.938 1438.64
vn 0.0468142 -0.040279 -0.998091
v -7.87794 -158.848 1438.58
vn 0.366988 -0.0216736 0.929973
v -7.33795 -158.555 1441.84
vn 0.184332 -0.00508758 -0.982851
v -7.38947 -157.835 1438.71
vn 0.0390664 -0.00714254 -0.999211
v -7.46485 -155.808 1438.72
vn 0.071966 -0.00266995 -0.997404
v -7.05829 -155.27 1438.7
vn 0.647901 0.117391 0.752625
v -6.77803 -153.102 1440.86
vn 0.287046 -0.024864 0.957594
v -6.68342 -151.775 1440.58
vn 0.10729 0.0246191 0.993923
v -6.44415 -152.126 1440.6
vn 0.305844 0.0946304 0.947367
v -6.4359 -152.894 1440.64
vn 0.330638 -0.0868961 0.939749
v -6.62505 -151.469 1440.63
vn 0.144122 -0.048942 0.988349
v -6.47814 -151.498 1440.61
vn 0.652713 0.121158 0.747854
v -6.07675 -150.98 1440.46
vn 0.930816 0.178002 -0.319211
v -6.04323 -150.212 1439.55
vn -0.344971 -0.872269 -0.346614
v -7.25493 -163.591 1438.66
vn -0.512438 -0.854478 -0.0852962
v -7.27094 -163.131 1440.46
vn -0.0666328 -0.11042 0.991649
v -7.68009 -162.802 1441.96
vn -0.53498 -0.844845 0.00570359
v -7.18542 -163.401 1441.7
vn -0.139706 -0.279572 0.949906
v -7.17875 -163.376 1441.87
vn -0.496747 -0.865999 -0.0573446
v -6.91134 -163.568 1441.73
vn 0.180207 0.0457268 0.982565
v -6.88472 -163.434 1441.84
vn -0.240976 0.0302204 0.970061
v -6.79909 -162.982 1441.87
vn 0.240334 0.0586968 -0.968914
v -7.52963 -162.618 1438.62
vn 0.692222 0.0513048 -0.719859
v -7.46993 -162.306 1438.7
vn 0.654334 0.12217 -0.746272
v -7.34627 -162.466 1438.81
vn -0.185002 -0.108332 -0.976749
v -7.16989 -162.341 1438.83
vn -0.433566 -0.106185 -0.894844
v -7.05216 -162.524 1438.79
vn -0.190625 -0.0946367 -0.97709
v -6.85328 -162.272 1438.67
vn 0.358373 0.12271 0.925479
v -7.49471 -161.803 1441.67
vn 0.237208 -0.0252223 -0.971131
v -7.50421 -161.679 1438.71
vn -0.198683 -0.144458 -0.969359
v -7.20904 -161.733 1438.72
vn -0.0257177 -0.00158397 0.999668
v -7.47531 -160.887 1441.62
vn -0.619333 -0.0926331 -0.779645
v -6.48649 -160.329 1438.68
vn 0.117201 -0.0116426 -0.99304
v -7.04738 -159.266 1438.85
vn -0.274383 -0.0240322 -0.96132
v -6.84553 -159.003 1438.81
vn 0.543447 -0.0502596 0.837938
v -6.10162 -157.229 1440.98
vn 0.588189 -0.087992 0.803923
v -6.09119 -157.555 1440.9
vn 0.233179 -0.0585756 0.970668
v -5.94824 -157.6 1440.79
vn 0.353348 -0.138698 0.925153
v -5.89567 -157.324 1440.84
vn 0.0777833 -0.00403324 0.996962
v -5.77119 -157.473 1440.82
vn 0.364301 0.0569677 -0.929537
v -6.37142 -156.496 1438.9
vn 0.40552 0.099644 0.908639
v -5.88177 -155.622 1440.67
vn 0.480062 0.0606564 -0.875135
v -5.77241 -154.958 1439.22
vn 0.884707 0.204154 0.419064
v -5.36944 -153.05 1439.98
vn -0.431956 -0.810175 0.396271
v -6.21516 -163.926 1441.76
vn -0.41155 -0.902836 0.124556
v -5.95246 -164.035 1442.07
vn -0.417916 -0.905766 0.0702358
v -6.84194 -163.842 1438.88
vn 0.027606 -0.105531 -0.994033
v -6.80616 -163.649 1438.81
vn -0.418672 -0.839617 -0.346059
v -6.13496 -164.151 1439.05
vn -0.00974305 -0.132144 -0.991183
v -6.12328 -164.078 1438.86
vn -0.513169 -0.659187 0.549664
v -6.61407 -163.623 1441.94
vn -0.396964 -0.0109549 0.917769
v -6.14004 -163.543 1442.02
vn 0.00203761 0.193103 0.981176
v -6.05573 -163.096 1442.02
vn -0.439403 -0.0475162 0.897032
v -6.01687 -163.705 1442.12
vn 0.61659 0.317349 0.720491
v -5.50662 -162.939 1441.72
vn 0.00773932 -0.0146274 -0.999863
v -6.28784 -162.517 1438.76
vn 0.616467 0.169897 0.768833
v -5.37054 -161.836 1441.07
vn -0.222687 0.0138657 0.974791
v -6.39082 -161.668 1441.86
vn -0.552737 -0.0793994 -0.829565
v -6.32365 -161.896 1438.73
vn 0.18445 0.0249736 -0.982525
v -6.15535 -160.194 1438.72
vn 0.40529 0.0719228 0.911354
v -4.93388 -159.502 1440.72
vn 0.722987 0.138595 -0.676817
v -4.96483 -158.776 1439.36
vn 0.840292 0.166444 0.515951
v -5.02989 -158.284 1440.5
vn 0.967774 0.0727982 0.24107
v -4.78294 -158.556 1440.08
vn 0.920474 0.124675 0.370384
v -4.82979 -158.522 1440.22
vn 0.975546 0.150094 0.160565
v -4.71029 -158.745 1439.95
vn 0.978718 0.162491 -0.125334
v -4.75401 -158.501 1439.91
vn 0.456623 0.135275 0.879315
v -5.84852 -158.693 1440.84
vn 0.163515 0.109684 0.980424
v -5.58318 -158.902 1440.81
vn 0.893883 0.0520758 0.445265
v -4.75391 -158.26 1440.03
vn 0.934263 0.092868 -0.34428
v -4.95134 -156.391 1439.89
vn 0.47965 0.075261 0.874227
v -5.48819 -156.774 1440.69
vn 0.986876 0.143053 -0.0749054
v -5.13739 -155 1439.67
vn 0.72449 0.0938677 0.682863
v -5.10642 -155.532 1440.22
vn -0.394423 -0.675706 -0.622777
v -5.31694 -164.664 1438.95
vn -0.237553 -0.960522 0.144798
v -5.36615 -164.3 1442.08
vn 0.118284 0.189661 0.974699
v -5.33636 -164.277 1442.23
vn -0.154789 -0.977417 0.143859
v -5.21677 -164.319 1442.12
vn 0.487307 -0.616594 0.618339
v -5.04986 -164.24 1442.06
vn -0.309149 -0.594362 -0.742402
v -5.29559 -164.545 1438.84
vn 0.639252 0.185593 0.746266
v -4.81147 -162.906 1440.85
vn 0.987589 0.156604 -0.0119808
v -4.27837 -162.089 1439.86
vn 0.932376 0.121078 0.340609
v -4.73999 -159.292 1440.34
vn 0.971508 0.140579 -0.190814
v -4.67555 -159.103 1439.7
vn 0.21418 0.0419102 -0.975895
v -4.46465 -164.999 1438.91
vn -0.382831 -0.873515 0.300684
v -4.32208 -165.065 1439.12
vn -0.361417 -0.881849 -0.302853
v -4.04552 -165.212 1439.03
vn 0.261196 0.0219413 -0.965036
v -4.01733 -165.062 1439.03
vn -0.412765 -0.833372 0.36758
v -3.95943 -164.82 1440.13
vn 0.977726 0.0611973 -0.200766
v -3.79071 -164.841 1439.67
vn 0.155776 -0.961134 0.227937
v -3.86607 -164.702 1440.41
vn 0.821082 0.200919 0.53428
v -4.10727 -163.578 1440.4
vn -0.983046 -0.00890153 0.183144
v -15.3623 -131.37 1443.76
vn -0.950921 -0.207806 0.229273
v -15.3544 -131.576 1443.79
vn -0.997524 -0.00964802 -0.0696652
v -15.0557 -131.302 1443.58
vn -0.727205 0.627892 -0.277355
v -15.0493 -131.152 1443.56
vn -0.979497 0.00974553 -0.201222
v -15.0794 -131.122 1443.7
vn -0.607827 0.768002 0.20179
v -15.0794 -131.122 1443.7
vn -0.727205 0.627892 -0.277355
v -15.0794 -131.122 1443.7
vn -0.966621 -0.105193 -0.233618
v -15.0619 -131.626 1443.48
vn -0.898618 -0.301383 -0.318831
v -14.7454 -132.357 1443.17
vn -0.626841 0.565905 0.535558
v -15.2744 -131.462 1444.22
vn -0.57057 -0.398856 0.717889
v -15.2744 -131.462 1444.22
vn -0.553535 0.354503 0.753609
v -14.6999 -131.496 1444.66
vn 0.0921589 -0.170003 0.981125
v -14.6999 -131.496 1444.66
vn 0.00129031 0.0965321 0.995329
v -14.488 -131.078 1444.62
vn 0.0922867 0.878208 0.469291
v -14.488 -131.078 1444.62
vn 0.388252 0.772918 0.501855
v -14.3405 -131.105 1444.62
vn 0.771321 0.181845 0.609915
v -14.1978 -131.152 1444.51
vn 0.520447 -0.146088 0.841305
v -14.1978 -131.152 1444.51
vn -0.716767 0.00875232 -0.697258
v -15.0612 -131.049 1443.24
vn -0.540892 0.830541 -0.132803
v -15.0612 -131.049 1443.24
vn -0.334472 0.332947 -0.881632
v -15.0612 -131.049 1443.24
vn -0.727205 0.627892 -0.277355
v -14.9442 -131.009 1443.6
vn -0.152956 0.486569 -0.860148
v -14.769 -130.866 1443.19
vn -0.297352 0.950784 0.0871286
v -14.2577 -130.597 1443.43
vn 0.478324 0.838783 -0.260093
v -14.2577 -130.597 1443.43
vn 0.521864 0.846011 -0.109196
v -14.1112 -130.648 1443.74
vn -0.403533 -0.132524 0.905317
v -13.9287 -136.207 1443.26
vn -0.946876 -0.301691 -0.111398
v -14.4237 -133.73 1443.64
vn -0.57057 -0.398856 0.717889
v -14.4237 -133.73 1443.64
vn -0.262749 -0.265572 0.927596
v -14.4237 -133.73 1443.64
vn -0.384269 -0.241141 0.891173
v -14.2133 -134.411 1443.5
vn -0.33275 0.28486 -0.898961
v -14.0762 -132.799 1442.2
vn 0.572397 0.750018 -0.331412
v -13.2093 -131.474 1442.77
vn 0.793414 0.454033 0.405399
v -13.3082 -131.214 1443.19
vn -0.920327 -0.143357 -0.363934
v -13.4705 -134.407 1441.59
vn 0.751078 0.071538 0.656326
v -12.7936 -134.979 1443.54
vn 0.333753 0.627608 -0.703361
v -12.2446 -133.568 1441.5
vn 0.885038 0.288839 0.365075
v -13.0484 -133.089 1443.46
vn 0.820777 0.285867 0.494576
v -12.9207 -132.809 1443.43
vn 0.790956 0.199342 0.578491
v -12.6093 -133.52 1443.23
vn 0.703871 0.665679 -0.247863
v -12.7094 -132.053 1442.64
vn 0.862071 0.452918 0.227374
v -12.7094 -132.053 1442.64
vn 0.127492 0.0180106 0.991676
v -12.5806 -141.111 1443.18
vn 0.798521 0.224241 0.558642
v -12.2309 -134.395 1443.04
vn 0.151936 0.419582 -0.894912
v -11.7836 -134.339 1441.11
vn 0.503591 0.646833 -0.572715
v -11.416 -134.036 1441.59
vn 0.871667 0.427006 0.240547
v -11.416 -134.036 1441.59
vn -0.817856 -0.00307177 -0.575414
v -13.2161 -149.936 1439.66
vn 0.916026 0.367083 0.161699
v -10.7206 -136.384 1442.09
vn 0.827298 0.444901 -0.342989
v -10.3035 -136.222 1441.44
vn -0.129644 0.228711 -0.964823
v -11.1411 -135.764 1440.71
vn 0.843687 0.426509 0.326009
v -10.9521 -134.783 1441.23
vn 0.359337 -0.0174441 0.933045
v -10.9759 -135.758 1441.85
vn 0.85712 -0.183523 0.481316
v -10.9759 -135.758 1441.85
vn 0.859331 0.496322 -0.12335
v -10.7181 -135.202 1441.76
vn 0.917443 0.394461 0.0519456
v -11.0838 -135.543 1442.12
vn -0.552632 0.38417 -0.739602
v -13.5571 -158.354 1438.89
vn -0.622565 -0.675124 0.395753
v -13.3908 -158.887 1438.66
vn -0.823633 -0.510152 0.247739
v -13.5113 -158.722 1438.64
vn -0.521849 0.429619 -0.736954
v -13.5113 -158.722 1438.64
vn -0.979208 0.0139551 -0.20238
v -13.5113 -158.722 1438.64
vn 0.0444186 0.401654 -0.914714
v -13.5113 -158.722 1438.64
vn 0.0667361 0.351171 -0.93393
v -13.4473 -158.392 1438.79
vn 0.175749 0.347552 -0.921043
v -13.3274 -158.749 1438.63
vn -0.705814 -0.612695 0.355571
v -13.694 -157.903 1439.58
vn -0.808868 -0.587925 0.00879286
v -14.018 -156.866 1441.71
vn -0.963557 0.0440082 -0.26386
v -13.7963 -157.208 1440.84
vn -0.787387 -0.615918 0.0258294
v -13.9132 -156.987 1442.03
vn 0.372777 0.165206 -0.913096
v -13.225 -154.809 1439.18
vn 0.189116 0.142153 -0.971611
v -13.0762 -154.032 1439.37
vn -0.7546 -0.0303028 -0.655484
v -13.0762 -154.032 1439.37
vn 0.733553 0.506073 -0.453641
v -9.71997 -136.646 1440.72
vn -0.588447 -0.680688 0.436341
v -12.321 -159.699 1438.7
vn -0.123658 -0.120364 -0.984998
v -12.9764 -159.123 1438.64
vn -0.540329 -0.741222 0.398291
v -12.9764 -159.123 1438.64
vn -0.452948 -0.871841 -0.186364
v -12.9764 -159.123 1438.64
vn -0.108489 0.114661 -0.987463
v -12.5604 -159.348 1438.68
vn -0.16597 0.0976654 -0.981283
v -12.2988 -159.573 1438.55
vn -0.652602 -0.739468 -0.165221
v -12.5652 -159.384 1438.86
vn -0.245319 -0.420504 0.873496
v -12.3363 -158.348 1441.87
vn -0.00120976 -0.277244 0.960799
v -13.0472 -158.088 1442.17
vn -0.644114 -0.425278 0.635811
v -13.0472 -158.088 1442.17
vn -0.247707 -0.676923 0.693121
v -13.0472 -158.088 1442.17
vn 0.348789 0.117771 0.929772
v -10.0232 -147.782 1443.14
vn -0.0357814 0.0264829 0.999009
v -10.6896 -146.449 1442.97
vn -0.158394 0.0231596 0.987104
v -10.0132 -145.263 1442.49
vn 0.360563 0.0801922 0.929281
v -9.785 -145.294 1442.56
vn 0.36003 0.0582515 0.93112
v -9.96922 -143.413 1442.51
vn 0.897005 0.322372 -0.30242
v -8.8496 -138.949 1439.99
vn 0.851549 0.294096 -0.434018
v -8.79206 -139.444 1439.83
vn -0.480197 -0.557913 -0.676864
v -11.4999 -160.191 1438.52
vn 0.225412 -0.357599 -0.906263
v -11.4999 -160.191 1438.52
vn 0.225412 -0.357599 -0.906263
v -11.4029 -160.495 1438.67
vn -0.639005 -0.72119 0.267503
v -11.4029 -160.495 1438.67
vn -0.521226 -0.193432 -0.831208
v -11.4029 -160.495 1438.67
vn 0.626553 0.0220437 -0.779067
v -11.3768 -160.353 1438.62
vn -0.521226 -0.193432 -0.831208
v -11.3768 -160.353 1438.62
vn 0.0224936 0.174532 -0.984395
v -11.3768 -160.353 1438.62
vn -0.134376 -0.519074 0.844101
v -12.0517 -159.239 1441.4
vn -0.618097 -0.638376 0.458728
v -12.0517 -159.239 1441.4
vn -0.00431071 -0.0114471 -0.999925
v -10.537 -155.094 1438.63
vn 0.313994 0.0349112 -0.948783
v -9.88177 -151.631 1438.8
vn -0.151327 -0.0108449 0.988424
v -10.1867 -150.256 1442.96
vn 0.233394 0.233208 0.944003
v -9.57967 -148.66 1443.01
vn 0.123584 0.160651 0.979244
v -9.60763 -147.168 1442.65
vn 0.562604 0.100784 0.820561
v -9.4878 -147.343 1442.67
vn 0.493876 0.223148 -0.840411
v -8.18632 -141.08 1439.69
vn -0.160158 -0.261193 0.951907
v -10.2474 -161.015 1441.61
vn -0.650928 -0.433139 0.623444
v -10.2474 -161.015 1441.61
vn -0.521226 -0.193432 -0.831208
v -11.1423 -160.725 1438.56
vn -0.0965477 0.102277 -0.99006
v -11.1423 -160.725 1438.56
vn -0.754586 -0.649253 0.0952369
v -11.0222 -160.897 1438.54
vn -0.0317219 -0.961739 -0.272126
v -11.0222 -160.897 1438.54
vn -0.64194 -0.678604 0.356944
v -10.8787 -160.957 1438.74
vn -0.410143 -0.465982 -0.783992
v -10.8787 -160.957 1438.74
vn -0.0317219 -0.961739 -0.272126
v -10.8787 -160.957 1438.74
vn 0.241322 0.0042775 -0.970436
v -10.7231 -160.935 1438.64
vn -0.0317219 -0.961739 -0.272126
v -10.7231 -160.935 1438.64
vn -0.690608 -0.716408 -0.099099
v -10.8923 -160.375 1441.38
vn -0.189392 -0.203051 0.960677
v -10.4658 -160.56 1441.7
vn -0.647429 -0.0940008 -0.756306
v -10.6699 -159.849 1438.72
vn -0.578892 -0.23247 0.781564
v -9.32829 -156.202 1442.59
vn 0.352236 -0.11091 0.929316
v -9.14417 -156.047 1442.79
vn 0.264029 -0.0605713 0.962611
v -9.32187 -154.572 1442.97
vn 0.0949526 -0.0107373 0.995424
v -9.59408 -153.594 1443.08
vn -0.421253 -0.209168 0.882493
v -9.59408 -153.594 1443.08
vn 0.48359 0.0523846 -0.873726
v -8.44661 -152.1 1438.53
vn -0.135023 0.0512802 -0.989515
v -8.33672 -149.914 1438.77
vn -0.70999 -0.5933 0.379354
v -9.83931 -161.927 1438.85
vn -0.715671 -0.592071 -0.370496
v -9.64807 -162.179 1438.88
vn -0.936255 -0.349019 0.0401526
v -9.64807 -162.179 1438.88
vn -0.410143 -0.465982 -0.783992
v -9.70753 -162.033 1438.76
vn 0.123027 0.00445209 -0.992393
v -9.70753 -162.033 1438.76
vn -0.499032 -0.0949031 -0.861371
v -9.70753 -162.033 1438.76
vn -0.936255 -0.349019 0.0401526
v -9.70753 -162.033 1438.76
vn -0.936255 -0.349019 0.0401526
v -9.6065 -162.305 1438.75
vn -0.635787 -0.64853 0.418549
v -9.6065 -162.305 1438.75
vn -0.579012 -0.68535 -0.441634
v -9.6065 -162.305 1438.75
vn -0.20344 -0.174681 0.963379
v -9.81965 -161.222 1441.62
vn 0.173015 0.0154932 -0.984797
v -9.44236 -159.004 1438.67
vn -0.247812 0.00176831 -0.968807
v -9.44236 -159.004 1438.67
vn 0.00375385 -0.0100712 -0.999942
v -9.44236 -159.004 1438.67
vn -0.597496 -0.283632 0.750034
v -8.76394 -158.051 1442.34
vn -0.455471 -0.845814 -0.277752
v -8.67409 -163.021 1438.63
vn -0.325294 -0.336968 0.883536
v -8.13492 -162.776 1441.8
vn 0.337018 0.00429217 0.941489
v -8.57462 -161.075 1442.04
vn 0.235632 0.0375552 -0.971116
v -7.78716 -159.938 1438.64
vn 0.920129 0.164985 -0.355166
v -6.04323 -150.212 1439.55
vn 0.204479 -0.114727 -0.972124
v -7.25493 -163.591 1438.66
vn -0.527724 -0.835019 0.155724
v -7.17875 -163.376 1441.87
vn -0.0733758 -0.64592 0.759871
v -7.17875 -163.376 1441.87
vn -0.0733758 -0.64592 0.759871
v -6.91134 -163.568 1441.73
vn -0.513169 -0.659187 0.549664
v -6.91134 -163.568 1441.73
vn -0.0733758 -0.64592 0.759871
v -6.88472 -163.434 1441.84
vn -0.301815 0.00284877 0.953362
v -6.88472 -163.434 1441.84
vn -0.567223 -0.473313 0.673968
v -6.88472 -163.434 1441.84
vn 0.120289 -0.0273412 -0.992362
v -7.34627 -162.466 1438.81
vn -0.209446 0.0408564 0.976966
v -7.49471 -161.803 1441.67
vn 0.113096 0.0485861 -0.992395
v -6.48649 -160.329 1438.68
vn 0.97774 0.140656 -0.155696
v -5.36944 -153.05 1439.98
vn -0.4287 -0.899311 -0.0863495
v -6.21516 -163.926 1441.76
vn -0.781123 -0.246891 0.573491
v -6.21516 -163.926 1441.76
vn -0.050084 -0.565024 0.823553
v -6.21516 -163.926 1441.76
vn -0.775744 -0.244087 0.581931
v -5.95246 -164.035 1442.07
vn -0.328386 -0.206008 0.921804
v -5.95246 -164.035 1442.07
vn 0.0703101 -0.33747 -0.938707
v -6.84194 -163.842 1438.88
vn -0.299451 -0.885139 -0.35617
v -6.84194 -163.842 1438.88
vn 0.0782244 0.0327333 -0.996398
v -6.80616 -163.649 1438.81
vn -0.447168 -0.796822 0.406344
v -6.13496 -164.151 1439.05
vn -0.403604 -0.773139 -0.489245
v -6.12328 -164.078 1438.86
vn -0.255006 0.0305393 0.966457
v -6.61407 -163.623 1441.94
vn -0.050084 -0.565024 0.823553
v -6.61407 -163.623 1441.94
vn -0.050084 -0.565024 0.823553
v -6.14004 -163.543 1442.02
vn 0.484131 0.206672 0.850238
v -6.39082 -161.668 1441.86
vn 0.182293 -0.0252904 -0.982919
v -6.32365 -161.896 1438.73
vn 0.882501 0.145403 0.44727
v -4.93388 -159.502 1440.72
vn 0.966612 0.13601 -0.217168
v -4.75391 -158.26 1440.03
vn 0.580802 0.0202326 -0.813793
v -5.13739 -155 1439.67
vn 0.987489 0.123655 0.0978497
v -5.10642 -155.532 1440.22
vn -0.417633 -0.84847 0.325086
v -5.31694 -164.664 1438.95
vn -0.361417 -0.881849 -0.302853
v -5.31694 -164.664 1438.95
vn -0.28693 -0.936192 0.203018
v -5.33636 -164.277 1442.23
vn 0.477068 -0.548982 0.686312
v -5.33636 -164.277 1442.23
vn 0.487307 -0.616594 0.618339
v -5.21677 -164.319 1442.12
vn 0.637024 0.397181 0.660642
v -5.04986 -164.24 1442.06
vn 0.191765 0.0215929 -0.981203
v -5.29559 -164.545 1438.84
vn -0.361417 -0.881849 -0.302853
v -4.46465 -164.999 1438.91
vn -0.274596 -0.604941 -0.747424
v -4.46465 -164.999 1438.91
vn -0.372417 -0.886116 0.27587
v -4.04552 -165.212 1439.03
vn 0.25177 -0.0475049 -0.966621
v -4.04552 -165.212 1439.03
vn 0.946174 -0.178528 -0.269967
v -4.04552 -165.212 1439.03
vn 0.553409 -0.797942 0.238803
v -4.04552 -165.212 1439.03
vn 0.949358 0.0559515 -0.309176
v -4.01733 -165.062 1439.03
vn -0.437371 -0.895692 -0.0802665
v -3.95943 -164.82 1440.13
vn 0.391155 -0.880045 0.269294
v -3.95943 -164.82 1440.13
vn 0.508726 -0.831304 0.223902
v -3.79071 -164.841 1439.67
vn 0.493016 -0.678474 0.544618
v -3.86607 -164.702 1440.41
vn 0.890901 0.243773 0.383236
v -3.86607 -164.702 1440.41
f 1//1 9//9 2//2
f 396//396 12//12 395//395
f 34//34 12//12 396//396
f 11//11 422//422 2//2
f 9//9 1//1 4//4
f 1//1 3//3 4//4
f 5//5 3//3 1//1
f 1//1 13//13 5//5
f 10//10 397//397 6//6
f 397//397 7//7 6//6
f 3//3 8//8 4//4
f 399//399 7//7 397//397
f 5//5 400//400 3//3
f 10//10 6//6 18//18
f 6//6 19//19 18//18
f 6//6 7//7 19//19
f 7//7 20//20 19//19
f 401//401 416//416 398//398
f 400//400 5//5 15//15
f 5//5 13//13 15//15
f 11//11 2//2 9//9
f 402//402 397//397 10//10
f 10//10 413//413 38//38
f 15//15 20//20 400//400
f 10//10 403//403 402//402
f 1//1 404//404 13//13
f 404//404 15//15 13//13
f 14//14 405//405 423//423
f 404//404 406//406 15//15
f 407//407 16//16 408//408
f 410//410 25//25 409//409
f 424//424 40//40 407//407
f 40//40 16//16 407//407
f 17//17 25//25 410//410
f 40//40 411//411 16//16
f 21//21 414//414 19//19
f 426//426 415//415 417//417
f 21//21 19//19 22//22
f 22//22 19//19 20//20
f 15//15 22//22 20//20
f 42//42 417//417 23//23
f 21//21 22//22 418//418
f 22//22 24//24 418//418
f 22//22 15//15 24//24
f 419//419 43//43 427//427
f 418//418 24//24 25//25
f 409//409 25//25 24//24
f 17//17 428//428 25//25
f 49//49 27//27 28//28
f 28//28 33//33 49//49
f 27//27 35//35 30//30
f 29//29 35//35 27//27
f 30//30 28//28 27//27
f 29//29 27//27 26//26
f 425//425 421//421 36//36
f 50//50 36//36 421//421
f 426//426 53//53 51//51
f 30//30 35//35 422//422
f 32//32 31//31 11//11
f 11//11 31//31 30//30
f 32//32 28//28 31//31
f 28//28 30//30 31//31
f 32//32 33//33 28//28
f 30//30 422//422 11//11
f 50//50 424//424 425//425
f 36//36 50//50 425//425
f 424//424 50//50 37//37
f 52//52 37//37 50//50
f 38//38 429//429 39//39
f 39//39 429//429 33//33
f 10//10 39//39 403//403
f 11//11 33//33 32//32
f 33//33 403//403 39//39
f 39//39 10//10 38//38
f 41//41 53//53 426//426
f 424//424 37//37 40//40
f 52//52 40//40 37//37
f 411//411 40//40 56//56
f 41//41 417//417 42//42
f 41//41 426//426 417//417
f 64//64 41//41 42//42
f 43//43 435//435 427//427
f 420//420 43//43 419//419
f 44//44 46//46 45//45
f 45//45 46//46 73//73
f 44//44 26//26 46//46
f 44//44 67//67 26//26
f 47//47 26//26 67//67
f 46//46 49//49 73//73
f 49//49 46//46 48//48
f 26//26 47//47 29//29
f 421//421 47//47 71//71
f 46//46 26//26 27//27
f 46//46 27//27 48//48
f 421//421 71//71 50//50
f 77//77 52//52 71//71
f 49//49 48//48 27//27
f 50//50 71//71 52//52
f 49//49 33//33 429//429
f 76//76 51//51 53//53
f 51//51 76//76 49//49
f 41//41 76//76 53//53
f 430//430 56//56 40//40
f 83//83 41//41 54//54
f 84//84 62//62 61//61
f 55//55 434//434 438//438
f 57//57 58//58 412//412
f 432//432 411//411 56//56
f 58//58 59//59 412//412
f 57//57 59//59 58//58
f 57//57 60//60 59//59
f 57//57 79//79 61//61
f 56//56 79//79 432//432
f 434//434 55//55 433//433
f 60//60 62//62 59//59
f 55//55 17//17 433//433
f 57//57 61//61 62//62
f 62//62 60//60 57//57
f 41//41 64//64 63//63
f 41//41 63//63 431//431
f 63//63 64//64 431//431
f 65//65 86//86 436//436
f 431//431 64//64 440//440
f 65//65 436//436 428//428
f 65//65 428//428 17//17
f 65//65 17//17 55//55
f 91//91 67//67 66//66
f 96//96 68//68 67//67
f 44//44 45//45 66//66
f 69//69 66//66 45//45
f 67//67 44//44 66//66
f 67//67 68//68 47//47
f 71//71 47//47 68//68
f 71//71 68//68 70//70
f 70//70 72//72 71//71
f 45//45 73//73 69//69
f 69//69 73//73 75//75
f 72//72 74//74 71//71
f 104//104 74//74 72//72
f 73//73 49//49 75//75
f 74//74 77//77 71//71
f 75//75 49//49 76//76
f 148//148 75//75 76//76
f 77//77 56//56 52//52
f 78//78 56//56 77//77
f 79//79 56//56 78//78
f 79//79 81//81 84//84
f 80//80 81//81 79//79
f 78//78 80//80 79//79
f 82//82 84//84 81//81
f 78//78 105//105 80//80
f 105//105 81//81 80//80
f 82//82 81//81 105//105
f 83//83 54//54 85//85
f 112//112 83//83 85//85
f 439//439 87//87 117//117
f 84//84 61//61 79//79
f 88//88 438//438 82//82
f 88//88 116//116 65//65
f 118//118 65//65 116//116
f 82//82 109//109 119//119
f 119//119 88//88 82//82
f 439//439 431//431 87//87
f 440//440 87//87 431//431
f 440//440 114//114 87//87
f 446//446 441//441 111//111
f 86//86 65//65 449//449
f 88//88 55//55 438//438
f 55//55 88//88 65//65
f 94//94 131//131 90//90
f 130//130 137//137 91//91
f 93//93 89//89 130//130
f 90//90 96//96 97//97
f 90//90 97//97 94//94
f 134//134 96//96 90//90
f 91//91 89//89 67//67
f 89//89 93//93 67//67
f 96//96 134//134 95//95
f 134//134 135//135 95//95
f 99//99 141//141 92//92
f 98//98 67//67 93//93
f 98//98 94//94 97//97
f 94//94 98//98 93//93
f 96//96 95//95 143//143
f 67//67 98//98 97//97
f 96//96 143//143 68//68
f 92//92 66//66 99//99
f 91//91 66//66 92//92
f 97//97 96//96 67//67
f 69//69 102//102 101//101
f 99//99 66//66 69//69
f 69//69 100//100 99//99
f 101//101 442//442 69//69
f 68//68 145//145 70//70
f 75//75 102//102 69//69
f 75//75 144//144 102//102
f 70//70 104//104 72//72
f 145//145 103//103 104//104
f 103//103 437//437 104//104
f 145//145 104//104 70//70
f 145//145 437//437 103//103
f 144//144 75//75 189//189
f 147//147 77//77 437//437
f 77//77 147//147 78//78
f 148//148 106//106 195//195
f 228//228 150//150 105//105
f 106//106 148//148 76//76
f 76//76 41//41 106//106
f 106//106 41//41 83//83
f 108//108 150//150 153//153
f 108//108 153//153 109//109
f 105//105 150//150 82//82
f 117//117 155//155 113//113
f 83//83 112//112 151//151
f 113//113 151//151 445//445
f 115//115 443//443 107//107
f 115//115 107//107 152//152
f 116//116 447//447 110//110
f 110//110 447//447 152//152
f 156//156 111//111 110//110
f 107//107 443//443 152//152
f 118//118 110//110 111//111
f 150//150 108//108 82//82
f 108//108 109//109 82//82
f 445//445 439//439 113//113
f 113//113 439//439 117//117
f 117//117 466//466 155//155
f 87//87 114//114 117//117
f 446//446 111//111 156//156
f 443//443 115//115 450//450
f 444//444 86//86 449//449
f 114//114 466//466 117//117
f 110//110 118//118 116//116
f 119//119 448//448 116//116
f 88//88 119//119 116//116
f 121//121 122//122 125//125
f 126//126 127//127 120//120
f 453//453 123//123 459//459
f 124//124 454//454 451//451
f 120//120 455//455 126//126
f 452//452 123//123 453//453
f 452//452 163//163 123//123
f 163//163 459//459 123//123
f 161//161 456//456 457//457
f 161//161 158//158 458//458
f 121//121 125//125 468//468
f 163//163 452//452 469//469
f 458//458 456//456 161//161
f 462//462 460//460 169//169
f 132//132 206//206 460//460
f 136//136 475//475 172//172
f 128//128 127//127 92//92
f 128//128 124//124 451//451
f 451//451 127//127 128//128
f 161//161 457//457 128//128
f 128//128 171//171 161//161
f 132//132 133//133 130//130
f 129//129 130//130 126//126
f 132//132 130//130 129//129
f 130//130 127//127 126//126
f 206//206 132//132 129//129
f 131//131 94//94 461//461
f 134//134 90//90 131//131
f 133//133 94//94 93//93
f 93//93 130//130 133//133
f 133//133 132//132 460//460
f 135//135 134//134 136//136
f 476//476 136//136 134//134
f 135//135 136//136 138//138
f 172//172 138//138 136//136
f 139//139 128//128 92//92
f 128//128 139//139 171//171
f 174//174 171//171 140//140
f 89//89 91//91 137//137
f 127//127 130//130 91//91
f 92//92 127//127 91//91
f 130//130 89//89 137//137
f 143//143 138//138 172//172
f 172//172 176//176 143//143
f 463//463 464//464 140//140
f 171//171 463//463 140//140
f 174//174 142//142 175//175
f 139//139 92//92 141//141
f 464//464 174//174 140//140
f 142//142 174//174 465//465
f 143//143 95//95 138//138
f 95//95 135//135 138//138
f 102//102 175//175 142//142
f 101//101 102//102 142//142
f 141//141 99//99 100//100
f 142//142 442//442 101//101
f 465//465 442//442 142//142
f 175//175 102//102 218//218
f 68//68 143//143 179//179
f 218//218 102//102 219//219
f 219//219 102//102 180//180
f 68//68 181//181 145//145
f 102//102 144//144 180//180
f 145//145 181//181 437//437
f 180//180 144//144 184//184
f 181//181 146//146 437//437
f 185//185 146//146 181//181
f 185//185 190//190 146//146
f 184//184 144//144 189//189
f 146//146 190//190 147//147
f 146//146 147//147 437//437
f 191//191 190//190 187//187
f 75//75 148//148 189//189
f 190//190 191//191 147//147
f 147//147 480//480 193//193
f 193//193 480//480 192//192
f 193//193 105//105 147//147
f 194//194 105//105 193//193
f 195//195 189//189 148//148
f 78//78 147//147 105//105
f 228//228 149//149 150//150
f 150//150 149//149 153//153
f 153//153 149//149 230//230
f 152//152 153//153 154//154
f 152//152 443//443 153//153
f 152//152 154//154 110//110
f 200//200 113//113 155//155
f 113//113 200//200 151//151
f 466//466 200//200 155//155
f 154//154 156//156 110//110
f 157//157 159//159 160//160
f 163//163 469//469 164//164
f 129//129 459//459 163//163
f 162//162 158//158 161//161
f 162//162 161//161 171//171
f 162//162 171//171 165//165
f 473//473 470//470 159//159
f 471//471 158//158 162//162
f 162//162 165//165 471//471
f 472//472 471//471 165//165
f 473//473 159//159 157//157
f 163//163 164//164 467//467
f 165//165 204//204 201//201
f 163//163 206//206 129//129
f 460//460 206//206 169//169
f 477//477 493//493 166//166
f 167//167 172//172 166//166
f 166//166 493//493 168//168
f 167//167 166//166 168//168
f 208//208 170//170 474//474
f 474//474 168//168 208//208
f 475//475 166//166 172//172
f 170//170 173//173 474//474
f 178//178 173//173 170//170
f 171//171 174//174 165//165
f 210//210 204//204 175//175
f 167//167 173//173 172//172
f 165//165 174//174 175//175
f 175//175 204//204 165//165
f 213//213 175//175 218//218
f 212//212 175//175 213//213
f 172//172 173//173 176//176
f 173//173 177//177 176//176
f 177//177 143//143 176//176
f 177//177 173//173 178//178
f 178//178 215//215 179//179
f 178//178 143//143 177//177
f 178//178 179//179 143//143
f 223//223 179//179 220//220
f 223//223 181//181 179//179
f 68//68 179//179 181//181
f 185//185 181//181 223//223
f 224//224 182//182 497//497
f 182//182 224//224 183//183
f 225//225 188//188 478//478
f 225//225 226//226 188//188
f 479//479 497//497 182//182
f 182//182 186//186 479//479
f 186//186 190//190 479//479
f 183//183 186//186 182//182
f 478//478 188//188 186//186
f 188//188 190//190 186//186
f 188//188 187//187 190//190
f 188//188 226//226 187//187
f 226//226 191//191 187//187
f 499//499 227//227 480//480
f 480//480 227//227 192//192
f 192//192 194//194 193//193
f 228//228 482//482 481//481
f 195//195 229//229 189//189
f 228//228 105//105 482//482
f 231//231 229//229 195//195
f 154//154 230//230 288//288
f 195//195 106//106 83//83
f 195//195 83//83 151//151
f 151//151 231//231 195//195
f 200//200 231//231 151//151
f 231//231 200//200 197//197
f 149//149 228//228 230//230
f 230//230 154//154 153//153
f 197//197 200//200 196//196
f 484//484 483//483 199//199
f 199//199 483//483 156//156
f 198//198 156//156 154//154
f 199//199 156//156 198//198
f 466//466 196//196 200//200
f 157//157 160//160 485//485
f 202//202 157//157 485//485
f 487//487 486//486 203//203
f 204//204 490//490 201//201
f 236//236 205//205 488//488
f 491//491 504//504 489//489
f 505//505 492//492 204//204
f 163//163 467//467 488//488
f 163//163 488//488 205//205
f 494//494 241//241 242//242
f 493//493 514//514 209//209
f 201//201 472//472 165//165
f 204//204 211//211 207//207
f 243//243 204//204 207//207
f 209//209 168//168 493//493
f 209//209 208//208 168//168
f 170//170 208//208 209//209
f 211//211 204//204 210//210
f 211//211 210//210 212//212
f 212//212 213//213 211//211
f 207//207 211//211 213//213
f 213//213 214//214 207//207
f 214//214 515//515 207//207
f 215//215 178//178 209//209
f 170//170 209//209 178//178
f 210//210 175//175 212//212
f 213//213 218//218 214//214
f 217//217 216//216 219//219
f 216//216 218//218 219//219
f 216//216 217//217 276//276
f 179//179 215//215 244//244
f 217//217 219//219 180//180
f 220//220 179//179 244//244
f 244//244 251//251 220//220
f 245//245 251//251 244//244
f 495//495 180//180 534//534
f 535//535 221//221 252//252
f 184//184 496//496 534//534
f 534//534 180//180 184//184
f 252//252 221//221 184//184
f 251//251 223//223 220//220
f 222//222 224//224 519//519
f 224//224 497//497 519//519
f 222//222 183//183 224//224
f 225//225 478//478 222//222
f 257//257 252//252 184//184
f 257//257 184//184 189//189
f 499//499 498//498 227//227
f 500//500 225//225 284//284
f 284//284 228//228 500//500
f 258//258 257//257 189//189
f 500//500 228//228 481//481
f 189//189 229//229 260//260
f 230//230 228//228 288//288
f 231//231 262//262 261//261
f 288//288 263//263 154//154
f 261//261 229//229 231//231
f 264//264 232//232 263//263
f 233//233 199//199 232//232
f 263//263 232//232 154//154
f 484//484 199//199 233//233
f 197//197 501//501 231//231
f 198//198 232//232 199//199
f 232//232 198//198 154//154
f 267//267 265//265 239//239
f 508//508 523//523 270//270
f 509//509 240//240 526//526
f 527//527 511//511 275//275
f 275//275 269//269 528//528
f 266//266 270//270 523//523
f 270//270 271//271 163//163
f 235//235 513//513 271//271
f 235//235 234//234 513//513
f 234//234 235//235 272//272
f 533//533 514//514 502//502
f 514//514 533//533 273//273
f 237//237 505//505 238//238
f 506//506 205//205 236//236
f 238//238 505//505 204//204
f 510//510 507//507 512//512
f 238//238 511//511 237//237
f 506//506 508//508 205//205
f 508//508 163//163 205//205
f 275//275 511//511 243//243
f 243//243 511//511 238//238
f 204//204 243//243 238//238
f 270//270 163//163 508//508
f 513//513 206//206 271//271
f 163//163 271//271 206//206
f 209//209 514//514 215//215
f 241//241 503//503 242//242
f 275//275 243//243 214//214
f 216//216 536//536 275//275
f 274//274 244//244 215//215
f 214//214 218//218 275//275
f 275//275 218//218 216//216
f 274//274 296//296 244//244
f 540//540 277//277 245//245
f 540//540 245//245 244//244
f 246//246 245//245 277//277
f 537//537 247//247 516//516
f 279//279 301//301 536//536
f 246//246 251//251 245//245
f 520//520 516//516 248//248
f 248//248 249//249 520//520
f 248//248 247//247 249//249
f 517//517 250//250 518//518
f 248//248 516//516 247//247
f 518//518 250//250 519//519
f 250//250 222//222 519//519
f 252//252 279//279 536//536
f 280//280 254//254 222//222
f 253//253 281//281 252//252
f 252//252 255//255 253//253
f 521//521 255//255 282//282
f 284//284 254//254 280//280
f 255//255 256//256 282//282
f 522//522 283//283 282//282
f 254//254 225//225 222//222
f 254//254 284//284 225//225
f 255//255 252//252 257//257
f 258//258 256//256 255//255
f 256//256 258//258 259//259
f 522//522 259//259 283//283
f 285//285 283//283 259//259
f 255//255 257//257 258//258
f 285//285 259//259 260//260
f 259//259 258//258 189//189
f 259//259 189//189 260//260
f 284//284 288//288 228//228
f 261//261 260//260 229//229
f 262//262 260//260 261//261
f 262//262 233//233 291//291
f 233//233 232//232 291//291
f 291//291 232//232 289//289
f 316//316 262//262 291//291
f 263//263 288//288 264//264
f 231//231 501//501 262//262
f 289//289 232//232 264//264
f 269//269 293//293 268//268
f 528//528 269//269 268//268
f 267//267 524//524 265//265
f 529//529 530//530 525//525
f 325//325 293//293 269//269
f 292//292 266//266 531//531
f 294//294 270//270 266//266
f 271//271 270//270 294//294
f 273//273 533//533 274//274
f 274//274 215//215 273//273
f 272//272 235//235 271//271
f 274//274 533//533 319//319
f 325//325 269//269 275//275
f 325//325 275//275 536//536
f 215//215 514//514 273//273
f 296//296 274//274 319//319
f 536//536 301//301 325//325
f 299//299 277//277 540//540
f 278//278 299//299 305//305
f 279//279 304//304 301//301
f 299//299 517//517 277//277
f 517//517 299//299 250//250
f 299//299 278//278 250//250
f 250//250 278//278 280//280
f 252//252 304//304 279//279
f 252//252 281//281 304//304
f 250//250 280//280 222//222
f 281//281 521//521 282//282
f 281//281 282//282 283//283
f 308//308 281//281 283//283
f 308//308 283//283 285//285
f 290//290 288//288 315//315
f 289//289 290//290 315//315
f 286//286 345//345 260//260
f 260//260 287//287 286//286
f 345//345 286//286 287//287
f 345//345 287//287 316//316
f 316//316 289//289 315//315
f 288//288 290//290 289//289
f 260//260 262//262 287//287
f 287//287 262//262 316//316
f 288//288 289//289 264//264
f 289//289 316//316 291//291
f 292//292 532//532 538//538
f 349//349 292//292 538//538
f 317//317 349//349 538//538
f 391//391 292//292 349//349
f 391//391 294//294 292//292
f 294//294 588//588 318//318
f 295//295 272//272 271//271
f 321//321 319//319 539//539
f 293//293 325//325 543//543
f 292//292 294//294 266//266
f 271//271 294//294 318//318
f 533//533 539//539 319//319
f 540//540 331//331 299//299
f 319//319 331//331 540//540
f 302//302 297//297 300//300
f 300//300 297//297 325//325
f 332//332 297//297 298//298
f 303//303 332//332 298//298
f 325//325 297//297 332//332
f 297//297 302//302 298//298
f 305//305 299//299 334//334
f 299//299 331//331 334//334
f 301//301 300//300 325//325
f 302//302 300//300 301//301
f 301//301 304//304 302//302
f 302//302 304//304 303//303
f 302//302 303//303 298//298
f 305//305 280//280 278//278
f 281//281 306//306 304//304
f 306//306 281//281 307//307
f 307//307 281//281 308//308
f 307//307 308//308 306//306
f 343//343 308//308 285//285
f 343//343 285//285 345//345
f 309//309 280//280 344//344
f 312//312 309//309 344//344
f 284//284 309//309 310//310
f 310//310 313//313 284//284
f 312//312 310//310 309//309
f 311//311 310//310 312//312
f 314//314 310//310 311//311
f 280//280 309//309 284//284
f 285//285 260//260 345//345
f 313//313 288//288 284//284
f 314//314 313//313 310//310
f 314//314 288//288 313//313
f 315//315 288//288 314//314
f 315//315 314//314 311//311
f 346//346 316//316 315//315
f 560//560 543//543 350//350
f 325//325 350//350 543//543
f 318//318 295//295 271//271
f 319//319 323//323 331//331
f 323//323 319//319 321//321
f 295//295 320//320 544//544
f 295//295 318//318 320//320
f 544//544 320//320 322//322
f 322//322 320//320 318//318
f 545//545 546//546 548//548
f 552//552 549//549 324//324
f 324//324 354//354 552//552
f 354//354 334//334 552//552
f 547//547 347//347 353//353
f 322//322 318//318 555//555
f 547//547 353//353 550//550
f 565//565 324//324 549//549
f 325//325 326//326 327//327
f 325//325 332//332 326//326
f 326//326 332//332 327//327
f 325//325 327//327 350//350
f 328//328 551//551 332//332
f 328//328 333//333 330//330
f 328//328 332//332 333//333
f 330//330 333//333 303//303
f 562//562 551//551 328//328
f 328//328 329//329 350//350
f 330//330 329//329 328//328
f 330//330 350//350 329//329
f 334//334 354//354 360//360
f 333//333 332//332 303//303
f 541//541 336//336 358//358
f 334//334 360//360 305//305
f 541//541 304//304 336//336
f 358//358 336//336 337//337
f 361//361 358//358 337//337
f 361//361 337//337 335//335
f 337//337 362//362 553//553
f 304//304 306//306 336//336
f 336//336 306//306 308//308
f 308//308 337//337 336//336
f 362//362 337//337 308//308
f 305//305 568//568 370//370
f 370//370 339//339 305//305
f 340//340 339//339 370//370
f 343//343 345//345 362//362
f 305//305 338//338 280//280
f 338//338 305//305 339//339
f 341//341 339//339 340//340
f 339//339 341//341 338//338
f 374//374 338//338 341//341
f 342//342 341//341 340//340
f 374//374 341//341 342//342
f 308//308 343//343 362//362
f 344//344 280//280 338//338
f 374//374 344//344 338//338
f 374//374 311//311 344//344
f 374//374 376//376 315//315
f 311//311 312//312 344//344
f 374//374 315//315 311//311
f 554//554 573//573 375//375
f 346//346 315//315 376//376
f 572//572 345//345 316//316
f 554//554 375//375 542//542
f 555//555 588//588 378//378
f 555//555 378//378 348//348
f 354//354 556//556 558//558
f 350//350 352//352 560//560
f 352//352 350//350 330//330
f 564//564 351//351 561//561
f 349//349 563//563 391//391
f 377//377 564//564 382//382
f 580//580 352//352 358//358
f 351//351 564//564 377//377
f 362//362 580//580 358//358
f 391//391 563//563 574//574
f 588//588 555//555 318//318
f 557//557 567//567 566//566
f 354//354 324//324 565//565
f 355//355 360//360 354//354
f 354//354 356//356 355//355
f 379//379 356//356 559//559
f 356//356 354//354 558//558
f 355//355 356//356 379//379
f 355//355 379//379 357//357
f 358//358 330//330 541//541
f 352//352 330//330 358//358
f 359//359 357//357 383//383
f 355//355 357//357 568//568
f 359//359 568//568 357//357
f 358//358 569//569 362//362
f 362//362 569//569 553//553
f 580//580 362//362 345//345
f 364//364 580//580 345//345
f 359//359 363//363 568//568
f 568//568 371//371 370//370
f 363//363 371//371 568//568
f 580//580 364//364 387//387
f 365//365 570//570 385//385
f 374//374 570//570 365//365
f 367//367 365//365 385//385
f 366//366 367//367 368//368
f 369//369 366//366 368//368
f 369//369 372//372 366//366
f 366//366 372//372 367//367
f 367//367 372//372 365//365
f 364//364 369//369 386//386
f 368//368 367//367 385//385
f 369//369 368//368 386//386
f 371//371 340//340 370//370
f 371//371 342//342 340//340
f 371//371 363//363 342//342
f 374//374 342//342 363//363
f 365//365 372//372 374//374
f 369//369 364//364 571//571
f 373//373 364//364 345//345
f 372//372 376//376 374//374
f 364//364 373//373 571//571
f 571//571 373//373 573//573
f 373//373 375//375 573//573
f 572//572 373//373 345//345
f 388//388 391//391 574//574
f 575//575 581//581 389//389
f 574//574 583//583 388//388
f 589//589 393//393 378//378
f 348//348 378//378 576//576
f 380//380 576//576 378//378
f 393//393 380//380 378//378
f 578//578 381//381 577//577
f 578//578 591//591 381//381
f 582//582 377//377 382//382
f 592//592 394//394 357//357
f 379//379 579//579 357//357
f 579//579 592//592 357//357
f 359//359 383//383 363//363
f 383//383 394//394 363//363
f 394//394 383//383 357//357
f 384//384 570//570 394//394
f 384//384 364//364 386//386
f 384//384 386//386 385//385
f 384//384 385//385 570//570
f 385//385 386//386 368//368
f 387//387 390//390 584//584
f 587//587 392//392 585//585
f 583//583 391//391 388//388
f 586//586 590//590 589//589
f 393//393 589//589 590//590
f 387//387 364//364 390//390
f 587//587 364//364 384//384
f 392//392 587//587 384//384
f 392//392 384//384 592//592
f 384//384 394//394 592//592
