# Wavafront OBJ file of BodyParts3D
# BodyParts3D, Copyright(C) 2010-2011 The Database Center for Life Science licensed under CC Attribution-Share Alike 2.1 Japan.
vn -0.998831 0.0193112 -0.0443119
v 2.51189 -164.775 1439.71
vn -0.919104 0.142097 0.367499
v 2.60182 -164.668 1440.45
vn -0.983347 0.151577 -0.100268
v 2.60337 -163.538 1439.81
vn -0.873547 0.129332 -0.469244
v 2.70859 -163.608 1439.51
vn -0.969166 0.090757 0.229087
v 2.56354 -164.535 1440.27
vn -0.942668 0.178917 -0.28172
v 3.11145 -161.827 1439.51
vn -0.896779 0.20359 0.39286
v 3.04056 -162.166 1440.18
vn -0.800917 0.114957 0.587636
v 3.60561 -159.412 1440.63
vn -0.982092 0.109786 0.153109
v 3.46892 -158.407 1440.01
vn -0.911992 0.118362 -0.392761
v 3.49774 -158.449 1439.79
vn -0.786869 0.0405603 -0.615785
v 3.69017 -156.466 1439.85
vn -0.989697 -0.00951521 0.14286
v 3.65023 -156.433 1439.99
vn -0.597557 0.0729439 0.798501
v 4.11041 -156.871 1440.66
vn -0.998232 0.0564565 -0.0186155
v 3.60786 -156.124 1439.95
vn -0.913026 0.0604067 0.403404
v 3.62549 -156.103 1440.09
vn -0.964965 0.20271 0.166589
v 3.68906 -155.813 1440.05
vn -0.976681 0.207259 -0.0560225
v 3.69216 -155.839 1439.9
vn -0.760244 0.157043 0.63037
v 3.78039 -155.806 1440.19
vn -0.868123 0.147957 0.473784
v 3.95143 -154.006 1440.05
vn -0.626931 0.0540951 -0.777194
v 4.71635 -153.574 1439.19
vn -0.904205 0.144441 -0.401933
v 4.08306 -153.152 1439.75
vn 0.019235 0.0180854 -0.999651
v 5.06571 -151.724 1439.22
vn -0.486256 0.0898857 0.869181
v 4.76892 -151.756 1440.54
vn -0.209582 0.0374344 0.977074
v 5.09472 -151.651 1440.6
vn -0.569748 0.0833882 -0.817578
v 4.77217 -150.864 1439.41
vn -0.260298 0.0439889 -0.964526
v 5.0204 -151.095 1439.23
vn -0.376568 0.0544468 -0.924788
v 5.14444 -150.499 1439.24
vn -0.22247 -0.0144388 -0.974833
v 5.17882 -151.125 1439.23
vn -0.521388 0.0494863 0.851884
v 5.32161 -150.451 1440.64
vn -0.965119 0.198761 -0.170411
v 4.80711 -149.75 1439.64
vn -0.656863 0.126573 -0.74331
v 5.52831 -146.849 1439.29
vn -0.891758 0.187551 0.411816
v 5.41559 -147.13 1440.25
vn -0.974024 0.220213 -0.0527597
v 5.81182 -145.021 1439.44
vn -0.874044 0.205313 0.440333
v 6.32703 -143.237 1440.5
vn -0.537894 0.0848111 0.838736
v 6.75461 -142.05 1440.68
vn -0.557848 0.231793 -0.796918
v 6.99286 -141.525 1439.47
vn -0.919099 0.344066 -0.192031
v 7.35404 -139.315 1440.14
vn -0.814646 -0.575667 0.0704269
v 2.69747 -165.089 1439.29
vn -0.884969 -0.463354 -0.0461878
v 2.69867 -165.07 1439.08
vn -0.0747523 -0.814966 -0.574667
v 2.84172 -165.124 1439.14
vn -0.84251 0.117179 -0.525781
v 2.87133 -164.96 1439.01
vn -0.0747523 -0.814966 -0.574667
v 3.19178 -165.028 1438.96
vn 0.107182 -0.965973 0.235388
v 3.12552 -164.539 1441.01
vn -0.73726 0.286084 0.612049
v 2.90766 -164.35 1440.84
vn -0.529402 0.171572 0.830841
v 3.11442 -163.776 1440.8
vn -0.546648 -0.587177 0.596992
v 3.17057 -164.318 1441.32
vn -0.49825 -0.457612 0.736436
v 3.89398 -164.337 1442.01
vn -0.585047 0.112311 0.803185
v 3.81854 -164.163 1442.04
vn -0.701444 0.0930594 0.706623
v 3.28194 -162.886 1440.76
vn -0.661435 0.291887 0.690873
v 3.52542 -163.221 1440.88
vn -0.474785 0.0440485 0.878999
v 3.6949 -162.323 1440.89
vn -0.760463 0.413567 0.500658
v 3.58606 -163.349 1441.11
vn -0.752905 0.261268 0.604047
v 3.75971 -162.93 1441.03
vn -0.613049 0.380737 0.69225
v 4.11178 -163.324 1441.84
vn -0.560627 0.18009 0.808248
v 4.23972 -161.888 1441.32
vn -0.283892 0.099168 0.953714
v 3.86529 -160.622 1441.08
vn -0.267849 0.0660944 0.961191
v 3.92545 -158.669 1440.8
vn -0.0449096 0.0786818 0.995888
v 4.31222 -159.048 1440.82
vn -0.274454 0.0808479 0.958195
v 4.4804 -159.076 1440.84
vn -0.54969 0.10793 -0.828367
v 4.03033 -158.022 1439.25
vn -0.0556259 0.0186305 0.998278
v 4.33354 -158.125 1440.81
vn -0.318358 0.0697781 0.945399
v 4.50243 -157.229 1440.81
vn -0.296239 0.0448295 -0.954061
v 4.68413 -155.364 1439.22
vn -0.6124 0.0892448 0.785494
v 5.50546 -155.176 1441.25
vn -0.465108 0.0697045 -0.882505
v 4.91363 -154.954 1439.16
vn 0.0878237 -0.0267535 -0.995777
v 4.81798 -153.845 1439.21
vn 0.105123 -0.00551821 -0.994444
v 4.93099 -153.247 1439.21
vn -0.175589 0.0226134 -0.984204
v 4.97553 -153.82 1439.22
vn -0.482095 0.0451376 0.874956
v 5.48397 -152.02 1440.68
vn -0.718292 -0.000568781 0.695741
v 5.63967 -151.716 1440.83
vn -0.679128 0.106376 0.726271
v 5.54669 -152.504 1440.81
vn -0.102702 0.00431012 -0.994703
v 5.24171 -151.601 1439.23
vn -0.414982 0.0470791 -0.908611
v 6.15044 -149.993 1438.76
vn 0.138092 0.0390024 -0.989651
v 6.72926 -149.346 1438.65
vn -0.734455 0.123371 0.66735
v 6.63525 -145.68 1441.04
vn -0.386615 0.107712 -0.91593
v 6.8549 -145.46 1438.91
vn -0.659887 0.115424 0.742446
v 7.64742 -143.863 1441.93
vn -0.318784 -0.0102006 0.947773
v 6.99635 -142.391 1440.76
vn -0.150466 0.173505 -0.973271
v 7.22392 -141.908 1439.29
vn -0.664487 0.0965429 0.741037
v 7.3499 -141.339 1440.97
vn -0.718893 0.15252 0.678182
v 7.53242 -141.634 1441.26
vn 0.197146 0.113926 -0.973732
v 8.04878 -140.786 1439.52
vn -0.36573 0.317414 -0.874923
v 7.84235 -138.668 1439.93
vn -0.0213126 0.192817 -0.981003
v 7.987 -139.506 1439.7
vn -0.806228 0.210497 0.55289
v 7.65546 -138.946 1440.83
vn -0.747784 0.190453 0.63604
v 8.39627 -139.263 1441.61
vn 0.205451 0.157949 -0.965837
v 8.87119 -138.074 1440.01
vn -0.884609 0.380696 0.269329
v 8.03515 -137.637 1440.75
vn -0.823367 0.313292 0.473197
v 8.48935 -137.322 1441.29
vn -0.763336 0.226023 0.605172
v 9.03693 -137.2 1441.71
vn -0.833872 0.404171 0.375902
v 8.5445 -137.056 1441.09
vn -0.856444 0.45599 -0.242027
v 8.52944 -136.681 1440.55
vn -0.885947 0.461461 0.0463899
v 8.80869 -136.605 1441.32
vn -0.857134 0.507588 -0.0876152
v 8.79989 -136.079 1440.93
vn -0.595853 0.131569 0.792243
v 8.89058 -136.439 1441.47
vn -0.554196 0.108287 0.825312
v 8.95729 -136.9 1441.56
vn -0.833545 0.500318 -0.234273
v 9.14691 -136.041 1441.36
vn -0.810346 0.56926 -0.13886
v 8.99407 -135.786 1440.87
vn -0.737377 0.324494 0.592435
v 9.29971 -135.342 1441.09
vn -0.175868 0.385589 -0.905755
v 9.26938 -135.998 1440.59
vn -0.740656 0.336277 0.581676
v 9.41867 -135.339 1441.24
vn -0.802188 0.479998 -0.355101
v 9.46466 -135.274 1441.68
vn -0.130611 -0.0310651 -0.990947
v 4.23907 -164.17 1438.79
vn 0.457748 -0.874371 0.161068
v 4.85731 -164.145 1439.05
vn 0.15025 -0.260517 -0.953706
v 5.02406 -164.061 1438.88
vn -0.167211 -0.0500685 0.984649
v 4.29581 -164.07 1442.21
vn -0.21267 0.25725 0.942653
v 4.3516 -163.774 1442.19
vn 0.430923 -0.878488 0.206309
v 4.59549 -164.085 1441.94
vn 0.337962 0.0455896 0.940055
v 4.67309 -163.686 1442.15
vn 0.471003 -0.882131 0.000538901
v 4.87491 -163.944 1441.76
vn 0.353225 -0.0232888 0.935248
v 4.84335 -163.585 1442.02
vn 0.499571 -0.574095 0.648725
v 4.93964 -163.876 1441.9
vn -0.00500592 -0.0698195 -0.997547
v 4.88786 -163.972 1438.85
vn 0.451005 -0.819588 -0.353371
v 5.2061 -163.896 1438.73
vn 0.432265 -0.888456 0.154252
v 5.13839 -163.69 1439.88
vn -0.170042 0.313981 0.934078
v 4.57843 -163.373 1442.07
vn 0.256558 0.151359 0.954604
v 4.72582 -163.401 1442.06
vn -0.0470837 0.132193 0.990105
v 5.0646 -162.406 1441.92
vn 0.0577054 -0.0274603 -0.997956
v 4.99033 -162.614 1438.76
vn -0.191027 0.0174548 -0.98143
v 5.19399 -162.344 1438.75
vn -0.263209 0.0618517 0.962754
v 5.50853 -160.043 1441.75
vn 0.130701 -0.0300752 -0.990966
v 5.51239 -158.228 1438.75
vn -0.107322 -0.00417111 -0.994216
v 5.84566 -158.894 1438.83
vn -0.203167 -0.022197 -0.978892
v 6.06653 -157.717 1438.72
vn -0.0428296 -0.0231222 -0.998815
v 5.58049 -156.244 1438.66
vn -0.101789 0.0378194 -0.994087
v 6.37238 -152.851 1438.57
vn -0.672621 0.0560175 0.737864
v 6.7837 -152.495 1442.07
vn 0.248172 0.0010522 -0.968715
v 6.8344 -151.218 1438.68
vn -0.153091 0.04651 -0.987117
v 7.09646 -151.44 1438.56
vn -0.572409 0.0477881 0.818574
v 7.60863 -151.403 1442.83
vn -0.261661 0.085167 -0.961395
v 7.03411 -150.163 1438.73
vn -0.0574923 0.0345361 -0.997748
v 7.877 -149.731 1438.56
vn 0.368209 0.05012 -0.928391
v 6.93751 -149.058 1438.76
vn -0.426647 0.126959 0.895463
v 8.05011 -146.62 1442.54
vn -0.152263 0.0732031 0.985625
v 8.51464 -145.776 1442.55
vn 0.0301036 0.168767 -0.985196
v 8.29248 -144.319 1439.01
vn -0.23149 0.0461146 0.971744
v 8.43525 -143.765 1442.47
vn -0.066662 0.0129238 0.997692
v 9.04604 -142.954 1442.45
vn 0.293291 0.133272 -0.946689
v 8.676 -139.911 1439.9
vn -0.0351689 0.21486 -0.976011
v 8.67613 -140.711 1439.74
vn -0.262857 0.0141623 0.964731
v 9.529 -140.4 1442.54
vn -0.101803 0.287023 -0.952499
v 9.47263 -138.939 1440.13
vn -0.396815 0.0581953 0.916052
v 9.25238 -139.434 1442.46
vn -0.00534739 0.291402 -0.956586
v 10.4276 -136.352 1440.94
vn -0.797807 0.308625 0.517933
v 9.579 -136.023 1441.95
vn -0.574125 0.0628403 0.816353
v 9.54383 -135.423 1441.8
vn -0.744484 0.323927 0.583794
v 9.77958 -134.906 1441.46
vn -0.684278 0.116815 0.719804
v 9.72732 -135.599 1441.88
vn -0.698917 0.100863 0.708055
v 9.81255 -134.82 1442.01
vn -0.683764 0.0446006 0.728339
v 9.92472 -135.135 1442.1
vn -0.624391 0.127128 0.770697
v 10.6211 -135.441 1442.89
vn -0.72798 0.271448 0.629572
v 9.87161 -134.471 1441.39
vn -0.848483 0.495747 -0.185234
v 9.98185 -134.242 1441.95
vn -0.523679 0.600015 -0.604766
v 10.0315 -134.423 1441.22
vn -0.0597095 0.411353 -0.909518
v 10.5702 -133.999 1441.29
vn 0.36009 0.163514 -0.918476
v 10.658 -134.338 1441.21
vn -0.296711 0.601972 -0.741345
v 11.0061 -133.326 1441.61
vn 0.158986 -0.303646 -0.939427
v 5.56059 -163.64 1438.81
vn 0.435961 -0.882488 -0.176502
v 5.7 -163.719 1438.95
vn 0.272157 -0.864209 -0.42317
v 6.37563 -163.356 1438.64
vn 0.229581 -0.331528 0.915086
v 5.98284 -163.201 1441.89
vn -0.148312 -0.0118933 -0.988869
v 6.19001 -161.917 1438.72
vn 0.279073 -0.0440567 0.959259
v 5.87312 -161.347 1441.75
vn 0.158626 0.0878688 0.983421
v 6.02503 -162.158 1441.7
vn -0.10243 0.031082 -0.994254
v 6.73784 -161.43 1438.54
vn 0.479201 -0.113594 0.870323
v 6.13037 -160.789 1441.68
vn 0.286561 -0.0585841 0.956269
v 6.21554 -160.338 1441.7
vn 0.443831 -0.10732 0.889661
v 6.35949 -160.38 1441.61
vn 0.329194 -0.0390337 0.943455
v 6.01246 -160.611 1441.78
vn 0.134267 -0.00720977 -0.990919
v 6.49738 -160.284 1438.65
vn 0.334154 -0.0822408 -0.938924
v 6.63862 -159.536 1438.66
vn 0.254997 0.0204888 -0.966725
v 6.77367 -159.857 1438.74
vn 0.103861 -0.00924263 -0.994549
v 6.91024 -159.721 1438.78
vn 0.0256239 -0.0309801 -0.999192
v 6.45236 -158.899 1438.56
vn 0.247466 -0.104732 -0.963219
v 6.99349 -159.278 1438.75
vn -0.501104 -0.118477 0.857238
v 7.13084 -157.936 1442.07
vn 0.0683639 -0.0517766 -0.996316
v 7.3917 -157.973 1438.67
vn -0.367916 -0.0858863 0.925884
v 6.70707 -156.951 1442.15
vn -0.124312 -0.193969 0.973099
v 6.82498 -157.133 1442.12
vn -0.481789 -0.146474 0.863959
v 7.27702 -157.497 1442.3
vn -0.0223546 -0.16538 0.985977
v 7.78318 -156.933 1442.53
vn -0.150283 -0.152422 0.976823
v 7.7546 -155.485 1442.84
vn 0.275881 -0.202274 0.939667
v 8.04584 -155.554 1442.75
vn 0.031855 -0.11513 0.99284
v 8.13327 -154.295 1442.98
vn -0.0868787 -0.0936894 0.991804
v 8.42439 -153.565 1443.04
vn -0.128799 0.0231526 0.9914
v 8.58791 -151.891 1443.06
vn -0.155189 -0.00297386 0.98788
v 8.26028 -151.203 1443.11
vn 0.0877682 0.0126871 0.99606
v 8.62487 -149.268 1443.07
vn -0.139448 0.0483163 0.98905
v 8.86666 -150.409 1442.99
vn -0.336271 0.0823471 0.938158
v 8.29256 -148.598 1443
vn 0.0579883 0.00313113 0.998312
v 9.1359 -147.364 1443
vn -0.224672 0.0166474 0.974292
v 9.34676 -147.866 1443.01
vn -0.265544 0.0872723 0.960141
v 9.18497 -146.294 1442.98
vn 0.0371938 0.0804918 -0.996061
v 9.02597 -146.078 1438.72
vn -0.425561 0.150133 0.892389
v 8.89626 -145.375 1442.6
vn -0.341879 0.0790522 0.936413
v 9.65756 -145.42 1443.18
vn -0.374436 0.0841268 0.923429
v 9.30649 -143.195 1442.5
vn -0.355153 0.0703991 0.932154
v 10.1564 -142.764 1442.98
vn -0.0199715 0.210618 -0.977364
v 9.67036 -141.091 1439.51
vn -0.429116 0.0344568 0.902592
v 9.979 -140.453 1442.73
vn 0.0166135 0.29685 -0.95478
v 10.8576 -137.283 1440.48
vn 0.469672 0.237361 -0.850334
v 11.9962 -134.543 1441.48
vn -0.61552 0.0634409 0.785564
v 11.3114 -134.57 1443.32
vn -0.269759 -0.0383435 0.962164
v 11.6735 -134.756 1443.54
vn 0.370914 0.139747 -0.918092
v 11.2892 -133.448 1441.69
vn 0.206348 0.279727 -0.937642
v 12.178 -133.598 1441.79
vn -0.525687 0.704249 -0.477166
v 11.9801 -131.469 1442.79
vn 0.122469 0.424466 -0.897123
v 12.274 -132.305 1442.22
vn -0.786174 0.340284 0.515886
v 11.5983 -131.889 1443.03
vn -0.724689 0.115856 0.679267
v 12.4762 -132.16 1444.23
vn -0.739461 0.6178 0.267431
v 12.7493 -130.673 1443.55
vn 0.549604 -0.71324 0.435
v 6.82279 -162.789 1441.8
vn 0.322115 -0.946426 -0.0228084
v 6.99824 -163.136 1438.8
vn 0.329055 -0.92424 0.193657
v 7.02251 -163.116 1438.95
vn 0.276751 -0.649113 -0.708563
v 7.34461 -163.083 1438.78
vn 0.462862 -0.767839 0.442925
v 7.36135 -163.002 1438.92
vn 0.140101 -0.203658 -0.968966
v 7.37318 -162.924 1438.64
vn 0.188097 -0.254944 0.948485
v 7.24099 -162.197 1441.9
vn -0.544869 0.0566881 0.836603
v 7.26218 -160.475 1442.05
vn 0.0188697 0.0233452 -0.999549
v 7.75976 -160.063 1438.61
vn -0.230879 -0.0999379 0.967836
v 8.14276 -157.457 1442.58
vn -0.12974 -0.140399 0.981558
v 8.58586 -156.737 1442.75
vn 0.289936 -0.215553 0.932456
v 8.73146 -157.572 1442.55
vn 0.120785 -0.174003 0.977309
v 8.10319 -156.051 1442.62
vn -0.348977 -0.0795435 0.93375
v 8.28089 -155.922 1442.67
vn 0.101469 -0.0671126 -0.992572
v 8.81483 -156.089 1438.58
vn 0.46203 -0.0957932 -0.881675
v 9.11321 -156.13 1438.67
vn 0.462034 -0.175181 0.869389
v 9.42487 -154.721 1442.8
vn -0.390074 -0.0108351 0.92072
v 8.68871 -152.979 1443.14
vn -0.278817 -0.0869565 0.956399
v 8.81517 -153.928 1443.16
vn 0.30223 -0.141445 0.942683
v 9.11042 -153.982 1443.17
vn 0.428569 -0.140266 0.892555
v 9.33811 -153.578 1443.06
vn -0.419361 0.0512266 0.906373
v 8.95447 -152.387 1443.28
vn -0.270739 -0.0610777 0.960713
v 9.01755 -152.862 1443.28
vn 0.109866 -0.0659907 0.991753
v 9.74253 -152.248 1443.14
vn 0.31165 -0.0413149 -0.949298
v 9.59152 -150.355 1438.6
vn 0.433938 -0.0917035 -0.896263
v 9.96057 -150.842 1438.87
vn -0.194238 0.0619733 0.978995
v 9.19589 -150.291 1443.14
vn 0.325483 -0.0375927 -0.9448
v 10.1154 -149.201 1438.68
vn 0.0171319 0.00104049 0.999853
v 9.82194 -147.781 1443.12
vn 0.126775 0.0913626 -0.987715
v 10.5049 -145.53 1438.87
vn 0.256383 0.0794713 -0.963303
v 11.1244 -144.685 1439.06
vn -0.0889731 0.0311829 0.995546
v 10.6579 -142.537 1443.04
vn -0.0997335 -0.0520351 0.993653
v 11.1428 -139.975 1443.18
vn 0.347352 0.172165 -0.921795
v 11.8606 -140.028 1439.98
vn 0.200334 -0.0619484 0.977767
v 12.3654 -139.149 1443.01
vn 0.197082 -0.115134 0.973603
v 11.9516 -136.516 1443.5
vn 0.910423 -0.0270086 0.412797
v 12.8184 -137.288 1442.63
vn 0.0719161 -0.0228261 0.997149
v 11.977 -135.578 1443.59
vn 0.276205 -0.0833455 0.957478
v 12.123 -135.611 1443.55
vn 0.293827 -0.139872 0.945569
v 12.4988 -135.232 1443.46
vn 0.791738 -0.0570837 -0.608188
v 12.5914 -134.058 1442.27
vn 0.919415 0.0603554 -0.38863
v 12.7822 -134.472 1442.33
vn 0.563334 -0.238089 0.791182
v 12.8797 -134.866 1443.3
vn 0.823816 -0.152942 -0.545836
v 12.4747 -133.784 1441.93
vn 0.827601 -0.138874 -0.543866
v 12.7779 -132.869 1442.19
vn 0.810266 -0.145059 -0.567826
v 12.9816 -132.852 1442.52
vn 0.950375 -0.293676 -0.102672
v 13.2112 -133.146 1442.86
vn 0.601264 -0.458937 0.654109
v 13.2166 -133.299 1443.8
vn 0.167526 0.376664 -0.911076
v 13.0308 -131.568 1442.85
vn 0.85604 -0.204562 -0.474711
v 13.4708 -131.667 1442.92
vn 0.842638 0.0680561 -0.534162
v 13.795 -131.601 1443.5
vn -0.620137 0.251419 0.743114
v 13.1076 -131.27 1444.71
vn -0.121845 -0.371222 0.920515
v 13.2252 -131.453 1444.67
vn -0.0170996 0.35013 0.936545
v 13.4035 -131.321 1444.73
vn 0.601699 -0.336156 0.724539
v 13.8019 -131.614 1444.35
vn 0.754276 -0.345385 0.558369
v 13.9625 -131.508 1444.24
vn 0.0636781 0.700822 -0.710488
v 13.0351 -130.759 1443.24
vn 0.267206 0.96293 0.0369575
v 13.06 -130.643 1443.53
vn 0.311176 0.325582 -0.892841
v 13.3863 -131.307 1442.95
vn 0.591971 0.795148 0.131565
v 13.6084 -130.975 1443.56
vn 0.930416 -0.182335 -0.31793
v 13.7066 -131.459 1443.33
vn 0.902759 0.153755 -0.401728
v 13.7468 -131.291 1443.45
vn 0.557519 0.198975 -0.805966
v 13.8116 -131.177 1443.28
vn 0.688988 0.676033 -0.261294
v 13.7439 -131.049 1443.26
vn 0.958578 -0.137212 0.249602
v 13.774 -131.145 1443.43
vn 0.814024 0.578216 -0.0550466
v 13.7432 -131.115 1443.58
vn 0.867296 0.375731 -0.326532
v 13.866 -131.239 1443.74
vn 0.751133 0.651743 0.105031
v 13.8695 -131.229 1443.89
vn -0.758304 0.408542 0.508004
v 12.8328 -131.12 1444.37
vn -0.654698 0.335025 0.677591
v 12.9449 -131.116 1444.52
vn -0.643209 0.525249 0.557131
v 13.0069 -130.98 1444.48
vn -0.509591 0.423525 0.748962
v 13.1336 -131.129 1444.66
vn 0.445987 0.800186 0.400996
v 13.2934 -131.082 1444.5
vn 0.417966 -0.463979 -0.781042
v 8.2429 -162.367 1438.78
vn 0.822795 -0.526322 -0.214462
v 8.32764 -162.157 1438.74
vn 0.822795 -0.526322 -0.214462
v 8.37614 -162.142 1438.89
vn -0.0422854 0.0286186 -0.998696
v 8.89701 -161.336 1438.74
vn 0.746198 -0.641776 -0.176953
v 9.04379 -161.365 1438.89
vn 0.624645 -0.712566 0.319483
v 8.74265 -161.371 1439.36
vn 0.46491 -0.43647 0.770294
v 8.28028 -161.523 1441.55
vn 0.28933 -0.598155 -0.747328
v 9.34124 -161.094 1438.83
vn 0.079652 -0.506228 -0.858713
v 9.27358 -160.946 1438.72
vn -0.321294 0.14275 -0.936159
v 9.33052 -160.646 1438.73
vn 0.670664 -0.699128 0.247853
v 9.42633 -160.537 1441.33
vn -0.0935601 0.0926843 -0.99129
v 9.70747 -159.462 1438.83
vn -0.084616 0.00627992 -0.996394
v 9.3087 -157.531 1438.83
vn 0.112073 -0.216321 0.969868
v 9.74323 -157.844 1442.05
vn 0.146571 -0.0544064 -0.987703
v 9.07665 -157.142 1438.82
vn -0.24765 0.0184087 -0.968675
v 9.71172 -157.006 1438.72
vn 0.276398 -0.0321946 -0.960504
v 9.46502 -155.085 1438.84
vn -0.189281 0.0360617 -0.98126
v 9.67387 -155.594 1438.8
vn 0.21034 -0.0134798 -0.977535
v 10.6539 -148.791 1438.96
vn 0.452108 0.00115956 -0.891963
v 11.3952 -148.913 1439.05
vn 0.369473 -0.0195367 0.929036
v 12.1597 -146.706 1442.91
vn 0.652474 -0.0327736 0.757102
v 12.5489 -144.635 1442.78
vn 0.557086 0.0293635 -0.829936
v 12.0217 -144.002 1439.52
vn 0.161609 -0.0170939 0.986707
v 12.2453 -143.014 1442.89
vn 0.418939 -0.0141567 0.907904
v 12.4816 -143.377 1442.83
vn 0.773075 0.0701422 -0.630424
v 12.5511 -142.604 1440.15
vn 0.941497 0.0388409 -0.334776
v 12.9045 -142.697 1440.91
vn 0.758739 0.140277 -0.636111
v 12.361 -140.059 1440.35
vn 0.734142 0.14418 -0.663511
v 14.057 -131.601 1443.79
vn 0.0959086 -0.44903 -0.888354
v 9.68126 -160.882 1438.63
vn -0.343479 0.17529 -0.922657
v 9.61909 -160.725 1438.58
vn -0.321963 0.200749 -0.925224
v 10.3467 -159.301 1438.66
vn 0.0526348 -0.0870841 -0.99481
v 10.3476 -160.097 1438.52
vn 0.558021 -0.511748 -0.653242
v 10.744 -159.853 1438.58
vn 0.612485 -0.6947 0.377166
v 10.8282 -159.844 1438.72
vn 0.336081 -0.132392 -0.932482
v 10.9041 -159.577 1438.56
vn 0.0461043 -0.401331 0.914772
v 10.2145 -158.574 1441.91
vn 0.284325 -0.538595 0.793142
v 10.5385 -158.477 1441.93
vn 0.563107 -0.60747 0.560259
v 10.7336 -159.039 1441.57
vn 0.508871 -0.441227 0.739168
v 10.8252 -158.562 1441.71
vn 0.529269 -0.597673 0.602213
v 10.8642 -159.143 1441.35
vn 0.508314 -0.618258 0.599478
v 10.9425 -158.748 1441.69
vn -0.202502 -0.500825 0.841527
v 11.124 -158.605 1441.86
vn -0.148967 0.118803 -0.98168
v 10.3783 -158.338 1438.9
vn -0.101921 -0.285586 0.952918
v 10.4868 -157.958 1442.21
vn 0.305569 -0.462527 0.832284
v 10.5722 -158.306 1442.07
vn 0.519951 -0.371083 0.769382
v 10.7748 -158.039 1442.04
vn 0.341123 -0.439266 0.831072
v 11.0404 -157.448 1442.17
vn -0.410409 -0.274262 0.869681
v 11.0667 -158.106 1441.97
vn 0.120662 0.0224955 -0.992439
v 10.7211 -156.528 1439.01
vn -0.130319 0.15905 -0.978632
v 10.8976 -157.203 1438.87
vn 0.107283 0.129998 -0.985693
v 11.1043 -156.92 1438.94
vn 0.192175 -0.293968 0.936297
v 10.8129 -157.052 1442.44
vn 0.134563 0.0469978 -0.98979
v 11.0108 -155.804 1439.04
vn -0.0464743 -0.165314 0.985145
v 10.8106 -154.665 1442.91
vn 0.157358 -0.159271 0.974613
v 10.9303 -154.836 1442.86
vn 0.0496561 -0.166325 0.98482
v 11.3679 -154.138 1442.91
vn 0.266901 0.0777418 -0.960583
v 11.9776 -153.131 1439.45
vn 0.052818 -0.033751 0.998034
v 11.1871 -152.68 1443.1
vn 0.0399172 -0.00568481 0.999187
v 11.6591 -152.608 1443.13
vn 0.564502 0.00806723 -0.825392
v 11.7106 -152.332 1439.31
vn 0.440105 0.0699651 -0.895216
v 12.2132 -152.696 1439.54
vn -0.0663895 0.103948 0.992364
v 11.6756 -151.704 1443.01
vn 0.39475 0.0463666 -0.917618
v 12.1712 -150.5 1439.68
vn 0.0279308 0.0507619 0.99832
v 12.0452 -150.549 1442.92
vn 0.457068 0.0285987 -0.888972
v 11.9894 -149.846 1439.69
vn 0.448773 -0.0187213 -0.89345
v 12.1328 -149.089 1439.75
vn 0.650857 0.013832 -0.759074
v 12.4264 -148.35 1439.87
vn 0.819869 0.00893322 -0.572482
v 12.526 -149.124 1439.98
vn 0.985088 -0.0352264 -0.168404
v 12.6452 -148.921 1440.39
vn 0.989316 -0.0255257 -0.143534
v 12.7179 -148.559 1440.79
vn 0.962177 -0.0303623 -0.270726
v 12.749 -147.711 1440.35
vn 0.996634 -0.062919 -0.0525594
v 12.7635 -147.664 1440.64
vn 0.767208 -0.0146878 0.641231
v 12.6769 -145.944 1442.5
vn 0.998531 -0.016669 0.0515536
v 12.9377 -144.712 1441.84
vn 0.665711 -0.478871 -0.572287
v 11.2385 -159.437 1438.79
vn 0.636342 -0.358603 -0.682988
v 11.2894 -159.161 1438.7
vn 0.119583 -0.64007 0.758953
v 11.28 -158.587 1441.85
vn 0.122728 -0.350351 -0.928543
v 12.1453 -158.712 1438.64
vn 0.774955 -0.631954 0.00886766
v 12.137 -158.72 1438.79
vn 0.965731 -0.250359 -0.0684437
v 12.31 -158.367 1439.03
vn 0.915665 0.0807596 -0.393745
v 12.3188 -158.218 1439.01
vn 0.992925 -0.065978 -0.0987217
v 12.3812 -158.03 1439.28
vn -0.293306 -0.184095 0.938126
v 11.5447 -158.014 1442.2
vn 0.184688 0.145286 -0.971999
v 11.7543 -157.517 1438.88
vn 0.757445 0.169026 -0.63064
v 12.213 -157.722 1439.09
vn 0.984721 -0.0286694 -0.171766
v 12.4023 -157.357 1439.63
vn 0.75164 -0.614623 0.239323
v 12.3038 -157.69 1440.29
vn 0.95608 -0.275456 0.100172
v 12.3615 -157.776 1439.85
vn 0.946222 -0.320256 0.0458201
v 12.5065 -157.177 1440.81
vn 0.85423 -0.298386 0.425742
v 12.5398 -157.135 1442.02
vn -0.086615 -0.01895 0.996062
v 12.3378 -157.052 1442.29
vn 0.992762 -0.0192475 -0.118547
v 12.6895 -154.501 1440.38
vn 0.332513 -0.136161 0.933218
v 12.1937 -154.612 1442.84
vn 0.995478 -0.0417813 0.0853105
v 12.7343 -153.909 1442.1
vn 0.893508 0.0168482 -0.448731
v 12.6182 -153.809 1439.81
vn 0.843639 -0.05899 0.533661
v 12.6307 -153.338 1442.62
vn 0.47565 -0.0151687 0.879504
v 12.3588 -152.931 1442.9
vn 0.793749 0.0428319 -0.606735
v 12.522 -152.712 1439.79
vn 0.961404 0.0258314 -0.273927
v 12.6279 -151.904 1440.11
vn -0.814646 -0.575667 0.0704269
v 2.51189 -164.775 1439.71
vn -0.71894 -0.670043 0.184847
v 2.60182 -164.668 1440.45
vn -0.291352 -0.838336 0.460767
v 2.60182 -164.668 1440.45
vn -0.538049 0.333514 -0.774126
v 2.60337 -163.538 1439.81
vn -0.661901 0.0654839 -0.746726
v 3.60786 -156.124 1439.95
vn -0.655933 0.0608941 -0.752359
v 3.69216 -155.839 1439.9
vn 0.0806182 -0.00843748 -0.996709
v 4.71635 -153.574 1439.19
vn -0.402554 0.140215 -0.904594
v 5.81182 -145.021 1439.44
vn -0.825425 0.282529 -0.488724
v 5.81182 -145.021 1439.44
vn -0.0293292 -0.949924 0.311101
v 2.69747 -165.089 1439.29
vn -0.323136 -0.942479 -0.0855409
v 2.69747 -165.089 1439.29
vn -0.940195 0.096392 -0.326714
v 2.69867 -165.07 1439.08
vn -0.0747523 -0.814966 -0.574667
v 2.69867 -165.07 1439.08
vn -0.323136 -0.942479 -0.0855409
v 2.69867 -165.07 1439.08
vn -0.538049 0.333514 -0.774126
v 2.69867 -165.07 1439.08
vn -0.209685 -0.286522 -0.934846
v 2.69867 -165.07 1439.08
vn -0.323136 -0.942479 -0.0855409
v 2.84172 -165.124 1439.14
vn 0.219829 -0.940054 0.260717
v 2.84172 -165.124 1439.14
vn -0.538049 0.333514 -0.774126
v 2.87133 -164.96 1439.01
vn -0.190963 -0.0761859 -0.978636
v 2.87133 -164.96 1439.01
vn -0.0705426 -0.230556 -0.970499
v 3.19178 -165.028 1438.96
vn 0.439159 -0.876637 0.196591
v 3.19178 -165.028 1438.96
vn -0.792433 0.389859 0.469105
v 3.17057 -164.318 1441.32
vn 0.349018 -0.91727 0.191837
v 3.89398 -164.337 1442.01
vn -0.7068 0.1086 0.699028
v 3.86529 -160.622 1441.08
vn 0.35492 0.0479287 -0.933667
v 6.8549 -145.46 1438.91
vn -0.0433891 0.0941368 -0.994613
v 6.8549 -145.46 1438.91
vn -0.741238 0.136368 0.657244
v 6.99635 -142.391 1440.76
vn -0.358476 0.435699 -0.825628
v 8.52944 -136.681 1440.55
vn -0.742275 0.335352 0.580144
v 8.79989 -136.079 1440.93
vn -0.876732 0.467512 -0.113023
v 8.89058 -136.439 1441.47
vn -0.757628 0.356839 0.546502
v 9.14691 -136.041 1441.36
vn -0.405382 0.494409 -0.768912
v 8.99407 -135.786 1440.87
vn -0.764626 0.60502 -0.22203
v 9.29971 -135.342 1441.09
vn -0.755861 0.201937 0.622813
v 9.46466 -135.274 1441.68
vn 0.463775 -0.87853 -0.114444
v 5.02406 -164.061 1438.88
vn -0.172425 -0.55015 -0.817071
v 5.02406 -164.061 1438.88
vn 0.451886 -0.640916 0.620504
v 4.29581 -164.07 1442.21
vn -0.172425 -0.55015 -0.817071
v 4.88786 -163.972 1438.85
vn -0.172425 -0.55015 -0.817071
v 5.2061 -163.896 1438.73
vn 0.0653083 -0.146584 -0.98704
v 5.2061 -163.896 1438.73
vn 0.468275 -0.57743 0.668799
v 5.13839 -163.69 1439.88
vn -0.299255 0.12737 -0.945634
v 6.8344 -151.218 1438.68
vn 0.323527 0.0347972 -0.945579
v 7.03411 -150.163 1438.73
vn -0.924811 0.364 -0.11058
v 9.77958 -134.906 1441.46
vn -0.808707 0.542296 -0.227832
v 9.87161 -134.471 1441.39
vn -0.803504 0.283628 0.52339
v 9.98185 -134.242 1441.95
vn 0.308671 0.223565 -0.924522
v 11.0061 -133.326 1441.61
vn -0.260188 0.0159845 -0.965426
v 6.37563 -163.356 1438.64
vn 0.280003 -0.103607 -0.954392
v 6.37563 -163.356 1438.64
vn 0.0561793 0.172689 0.983373
v 5.98284 -163.201 1441.89
vn -0.473656 0.172799 0.863592
v 5.98284 -163.201 1441.89
vn -0.446749 0.149246 0.882123
v 6.02503 -162.158 1441.7
vn 0.280003 -0.103607 -0.954392
v 6.73784 -161.43 1438.54
vn -0.347146 -0.0111795 0.937745
v 6.35949 -160.38 1441.61
vn 0.788177 -0.143809 -0.598411
v 11.9962 -134.543 1441.48
vn 0.331604 0.147722 -0.931782
v 12.274 -132.305 1442.22
vn -0.0527568 -0.314886 0.947662
v 12.4762 -132.16 1444.23
vn -0.213034 0.86841 -0.44775
v 12.7493 -130.673 1443.55
vn -0.0715202 0.941127 0.3304
v 12.7493 -130.673 1443.55
vn 0.280003 -0.103607 -0.954392
v 6.99824 -163.136 1438.8
vn -0.288275 -0.187977 -0.938915
v 6.99824 -163.136 1438.8
vn 0.0501903 -0.650316 -0.758004
v 6.99824 -163.136 1438.8
vn 0.36597 -0.876392 0.313055
v 7.34461 -163.083 1438.78
vn -0.351029 -0.0766355 0.933223
v 7.26218 -160.475 1442.05
vn -0.158446 -0.0857678 0.983635
v 7.26218 -160.475 1442.05
vn 0.162881 0.0392249 0.985866
v 8.95447 -152.387 1443.28
vn 0.32437 -0.0562557 0.944256
v 9.01755 -152.862 1443.28
vn 0.809223 -0.0757578 0.582596
v 12.3654 -139.149 1443.01
vn 0.903951 -0.135655 0.405549
v 12.8797 -134.866 1443.3
vn 0.983461 -0.144045 -0.109796
v 12.8797 -134.866 1443.3
vn 0.30572 0.289855 -0.906928
v 12.7779 -132.869 1442.19
vn 0.778903 -0.0572695 -0.624524
v 13.2112 -133.146 1442.86
vn 0.63156 -0.353748 0.689923
v 13.2166 -133.299 1443.8
vn 0.329514 0.301656 -0.894664
v 13.4708 -131.667 1442.92
vn -0.17419 -0.313796 0.933376
v 13.1076 -131.27 1444.71
vn -0.0170996 0.35013 0.936545
v 13.1076 -131.27 1444.71
vn 0.251188 -0.339148 0.906578
v 13.4035 -131.321 1444.73
vn 0.48235 0.714625 0.506607
v 13.4035 -131.321 1444.73
vn 0.719916 0.618042 0.315823
v 13.9625 -131.508 1444.24
vn 0.956089 -0.200922 0.213366
v 13.7468 -131.291 1443.45
vn 0.956386 -0.290014 0.034893
v 13.8116 -131.177 1443.28
vn 0.871872 0.475127 0.118717
v 13.8116 -131.177 1443.28
vn 0.882846 0.457442 0.106437
v 13.774 -131.145 1443.43
vn 0.963152 -0.141579 0.228676
v 13.7432 -131.115 1443.58
vn 0.15822 0.904085 0.396983
v 13.0069 -130.98 1444.48
vn -0.0170996 0.35013 0.936545
v 13.1336 -131.129 1444.66
vn 0.302676 0.781129 0.5461
v 13.1336 -131.129 1444.66
vn 0.566258 -0.653986 0.501651
v 8.2429 -162.367 1438.78
vn 0.882439 -0.400023 -0.247553
v 8.2429 -162.367 1438.78
vn 0.278121 -0.227235 -0.933281
v 8.32764 -162.157 1438.74
vn 0.606688 -0.423297 -0.672866
v 8.32764 -162.157 1438.74
vn 0.63051 -0.599765 0.492686
v 8.37614 -162.142 1438.89
vn 0.505393 -0.510813 -0.695448
v 8.89701 -161.336 1438.74
vn 0.669602 -0.610799 0.42256
v 9.04379 -161.365 1438.89
vn 0.548145 -0.540332 -0.638419
v 9.04379 -161.365 1438.89
vn 0.647514 -0.652032 0.394437
v 9.34124 -161.094 1438.83
vn -0.288822 0.0975176 -0.952403
v 9.27358 -160.946 1438.72
vn 0.714716 -0.128686 -0.687474
v 9.07665 -157.142 1438.82
vn 0.538838 -0.0374486 -0.841576
v 9.71172 -157.006 1438.72
vn 0.895455 0.444431 0.0253325
v 14.057 -131.601 1443.79
vn 0.891968 -0.441189 0.0987189
v 14.057 -131.601 1443.79
vn 0.623315 -0.688347 0.371023
v 9.68126 -160.882 1438.63
vn 0.647879 -0.687177 -0.328696
v 9.68126 -160.882 1438.63
vn 0.0213998 -0.334274 -0.942233
v 9.61909 -160.725 1438.58
vn 0.668387 -0.660492 -0.342065
v 10.8282 -159.844 1438.72
vn 0.315637 -0.400639 0.860152
v 10.7336 -159.039 1441.57
vn -0.207052 -0.250845 0.945625
v 10.7336 -159.039 1441.57
vn -0.305142 -0.287356 0.907918
v 10.8252 -158.562 1441.71
vn -0.0549553 -0.67373 0.736931
v 10.8642 -159.143 1441.35
vn 0.755893 -0.647617 0.0960089
v 10.8642 -159.143 1441.35
vn -0.340116 -0.362117 0.867866
v 10.9425 -158.748 1441.69
vn -0.287239 -0.202468 0.936216
v 11.0404 -157.448 1442.17
vn 0.443278 0.0187164 0.896189
v 12.0452 -150.549 1442.92
vn 0.585794 -0.680615 0.440009
v 11.2385 -159.437 1438.79
vn 0.122728 -0.350351 -0.928543
v 11.2385 -159.437 1438.79
vn 0.623688 -0.781641 -0.00709545
v 11.2385 -159.437 1438.79
vn 0.122728 -0.350351 -0.928543
v 11.2894 -159.161 1438.7
vn 0.101002 0.0787881 -0.991762
v 11.2894 -159.161 1438.7
vn 0.621482 -0.598694 0.505297
v 11.28 -158.587 1441.85
vn 0.764951 -0.643394 0.0298828
v 11.28 -158.587 1441.85
vn -0.141092 0.145871 -0.979191
v 12.1453 -158.712 1438.64
vn 0.873696 -0.475732 -0.101654
v 12.1453 -158.712 1438.64
vn 0.611434 0.29015 -0.73618
v 12.1453 -158.712 1438.64
vn 0.51133 -0.640828 0.572609
v 12.137 -158.72 1438.79
vn 0.564604 -0.672916 0.477918
v 12.31 -158.367 1439.03
vn 0.113997 -0.559112 0.821218
v 11.5447 -158.014 1442.2
vn 0.605041 -0.569499 0.556414
v 11.5447 -158.014 1442.2
vn 0.755271 -0.65541 0.00209282
v 12.5398 -157.135 1442.02
vn 0.0407881 -0.312668 0.948986
v 12.3378 -157.052 1442.29
vn 0.704241 -0.264264 0.658946
v 12.3378 -157.052 1442.29
f 1//1 2//2 5//5
f 385//385 39//39 38//38
f 38//38 386//386 385//385
f 396//396 1//1 3//3
f 394//394 43//43 387//387
f 4//4 41//41 3//3
f 1//1 5//5 3//3
f 5//5 7//7 3//3
f 7//7 5//5 2//2
f 2//2 44//44 7//7
f 4//4 6//6 41//41
f 4//4 3//3 6//6
f 3//3 7//7 6//6
f 49//49 9//9 7//7
f 7//7 9//9 6//6
f 9//9 49//49 8//8
f 10//10 6//6 9//9
f 9//9 12//12 10//10
f 9//9 8//8 12//12
f 10//10 12//12 11//11
f 10//10 11//11 60//60
f 10//10 60//60 41//41
f 13//13 12//12 8//8
f 8//8 57//57 13//13
f 12//12 14//14 11//11
f 63//63 60//60 11//11
f 14//14 12//12 15//15
f 12//12 13//13 15//15
f 14//14 16//16 17//17
f 21//21 20//20 390//390
f 11//11 389//389 20//20
f 390//390 20//20 389//389
f 63//63 11//11 20//20
f 63//63 391//391 66//66
f 14//14 15//15 16//16
f 17//17 16//16 21//21
f 16//16 19//19 21//21
f 16//16 18//18 19//19
f 18//18 16//16 15//15
f 15//15 13//13 18//18
f 18//18 13//13 19//19
f 68//68 66//66 391//391
f 68//68 391//391 67//67
f 67//67 391//391 72//72
f 26//26 20//20 21//21
f 19//19 13//13 23//23
f 62//62 24//24 13//13
f 13//13 24//24 23//23
f 26//26 22//22 391//391
f 22//22 72//72 391//391
f 26//26 21//21 25//25
f 72//72 22//22 26//26
f 24//24 29//29 23//23
f 21//21 19//19 32//32
f 26//26 25//25 27//27
f 28//28 26//26 27//27
f 72//72 26//26 28//28
f 32//32 19//19 23//23
f 23//23 29//29 32//32
f 30//30 21//21 32//32
f 21//21 30//30 31//31
f 25//25 21//21 31//31
f 31//31 27//27 25//25
f 27//27 31//31 76//76
f 32//32 33//33 30//30
f 30//30 33//33 31//31
f 392//392 76//76 31//31
f 32//32 34//34 33//33
f 32//32 29//29 34//34
f 34//34 29//29 35//35
f 29//29 78//78 35//35
f 33//33 34//34 37//37
f 36//36 76//76 392//392
f 76//76 36//36 79//79
f 35//35 85//85 34//34
f 80//80 85//85 35//35
f 78//78 80//80 35//35
f 36//36 393//393 37//37
f 36//36 37//37 83//83
f 34//34 85//85 37//37
f 83//83 37//37 92//92
f 42//42 40//40 397//397
f 401//401 395//395 398//398
f 388//388 403//403 399//399
f 43//43 394//394 402//402
f 400//400 404//404 405//405
f 406//406 43//43 402//402
f 43//43 46//46 387//387
f 115//115 43//43 406//406
f 2//2 407//407 44//44
f 7//7 44//44 45//45
f 50//50 45//45 44//44
f 44//44 407//407 50//50
f 50//50 407//407 52//52
f 115//115 110//110 43//43
f 110//110 108//108 43//43
f 48//48 52//52 407//407
f 48//48 46//46 47//47
f 47//47 46//46 43//43
f 52//52 54//54 53//53
f 408//408 43//43 108//108
f 48//48 54//54 52//52
f 47//47 106//106 48//48
f 48//48 106//106 107//107
f 48//48 107//107 54//54
f 108//108 422//422 408//408
f 45//45 49//49 7//7
f 50//50 51//51 45//45
f 45//45 51//51 49//49
f 50//50 52//52 53//53
f 51//51 50//50 53//53
f 53//53 55//55 51//51
f 54//54 55//55 53//53
f 10//10 41//41 6//6
f 49//49 51//51 56//56
f 55//55 56//56 51//51
f 103//103 405//405 404//404
f 8//8 49//49 409//409
f 121//121 59//59 56//56
f 121//121 56//56 55//55
f 60//60 103//103 404//404
f 57//57 8//8 409//409
f 57//57 56//56 58//58
f 59//59 57//57 58//58
f 58//58 56//56 59//59
f 57//57 62//62 13//13
f 61//61 62//62 57//57
f 59//59 61//61 57//57
f 59//59 62//62 61//61
f 103//103 60//60 63//63
f 59//59 64//64 62//62
f 63//63 66//66 68//68
f 103//103 63//63 65//65
f 68//68 65//65 63//63
f 65//65 73//73 103//103
f 103//103 73//73 125//125
f 64//64 71//71 62//62
f 67//67 72//72 68//68
f 68//68 73//73 65//65
f 71//71 64//64 127//127
f 72//72 73//73 68//68
f 73//73 74//74 126//126
f 62//62 69//69 24//24
f 29//29 24//24 69//69
f 69//69 70//70 29//29
f 69//69 62//62 71//71
f 69//69 71//71 70//70
f 70//70 71//71 127//127
f 127//127 29//29 70//70
f 72//72 28//28 73//73
f 28//28 27//27 73//73
f 73//73 27//27 76//76
f 74//74 73//73 76//76
f 74//74 410//410 133//133
f 75//75 127//127 77//77
f 412//412 29//29 75//75
f 29//29 127//127 75//75
f 139//139 136//136 82//82
f 412//412 75//75 80//80
f 75//75 81//81 80//80
f 36//36 83//83 79//79
f 411//411 79//79 82//82
f 81//81 75//75 77//77
f 83//83 84//84 79//79
f 82//82 79//79 84//84
f 85//85 80//80 81//81
f 86//86 81//81 77//77
f 83//83 87//87 84//84
f 82//82 84//84 87//87
f 85//85 81//81 89//89
f 85//85 88//88 37//37
f 85//85 89//89 88//88
f 91//91 88//88 89//89
f 95//95 89//89 81//81
f 86//86 90//90 81//81
f 81//81 90//90 96//96
f 100//100 87//87 83//83
f 88//88 92//92 37//37
f 92//92 94//94 98//98
f 92//92 88//88 94//94
f 88//88 91//91 414//414
f 89//89 93//93 91//91
f 89//89 415//415 93//93
f 83//83 413//413 100//100
f 100//100 413//413 417//417
f 97//97 91//91 93//93
f 414//414 91//91 416//416
f 93//93 415//415 97//97
f 81//81 96//96 95//95
f 90//90 148//148 96//96
f 96//96 146//146 95//95
f 148//148 146//146 96//96
f 414//414 416//416 101//101
f 99//99 414//414 101//101
f 98//98 94//94 418//418
f 154//154 98//98 418//418
f 101//101 152//152 99//99
f 418//418 430//430 154//154
f 154//154 100//100 417//417
f 102//102 97//97 415//415
f 95//95 146//146 419//419
f 416//416 147//147 101//101
f 147//147 152//152 101//101
f 105//105 405//405 103//103
f 104//104 115//115 406//406
f 420//420 104//104 406//406
f 420//420 114//114 159//159
f 159//159 104//104 420//420
f 115//115 290//290 110//110
f 107//107 116//116 54//54
f 106//106 109//109 107//107
f 107//107 109//109 116//116
f 109//109 117//117 116//116
f 112//112 108//108 110//110
f 422//422 108//108 112//112
f 112//112 109//109 422//422
f 111//111 117//117 109//109
f 109//109 112//112 111//111
f 112//112 110//110 212//212
f 110//110 290//290 212//212
f 113//113 105//105 103//103
f 113//113 103//103 119//119
f 120//120 113//113 119//119
f 423//423 424//424 421//421
f 113//113 120//120 425//425
f 425//425 120//120 174//174
f 425//425 174//174 158//158
f 158//158 174//174 162//162
f 54//54 116//116 55//55
f 117//117 118//118 116//116
f 118//118 55//55 116//116
f 111//111 118//118 117//117
f 111//111 112//112 161//161
f 120//120 119//119 123//123
f 123//123 119//119 122//122
f 120//120 123//123 174//174
f 121//121 55//55 118//118
f 111//111 163//163 118//118
f 118//118 163//163 121//121
f 163//163 169//169 121//121
f 119//119 103//103 122//122
f 122//122 103//103 125//125
f 123//123 122//122 125//125
f 123//123 125//125 124//124
f 124//124 174//174 123//123
f 121//121 64//64 59//59
f 129//129 124//124 125//125
f 129//129 174//174 124//124
f 178//178 127//127 121//121
f 121//121 179//179 178//178
f 121//121 127//127 64//64
f 125//125 73//73 126//126
f 125//125 126//126 129//129
f 130//130 127//127 178//178
f 128//128 126//126 74//74
f 126//126 427//427 129//129
f 131//131 129//129 427//427
f 127//127 130//130 77//77
f 129//129 131//131 132//132
f 128//128 74//74 428//428
f 130//130 134//134 77//77
f 74//74 133//133 428//428
f 131//131 411//411 132//132
f 428//428 133//133 410//410
f 132//132 411//411 194//194
f 77//77 134//134 137//137
f 190//190 193//193 134//134
f 134//134 193//193 195//195
f 135//135 134//134 195//195
f 136//136 194//194 411//411
f 137//137 134//134 135//135
f 135//135 195//195 197//197
f 199//199 194//194 136//136
f 82//82 136//136 411//411
f 135//135 197//197 138//138
f 141//141 138//138 197//197
f 137//137 141//141 143//143
f 135//135 138//138 137//137
f 138//138 141//141 137//137
f 141//141 197//197 198//198
f 143//143 77//77 137//137
f 141//141 200//200 151//151
f 136//136 139//139 140//140
f 199//199 136//136 140//140
f 140//140 142//142 199//199
f 140//140 139//139 142//142
f 141//141 151//151 143//143
f 82//82 87//87 139//139
f 77//77 143//143 151//151
f 142//142 139//139 144//144
f 87//87 100//100 156//156
f 156//156 139//139 87//87
f 139//139 156//156 205//205
f 139//139 205//205 144//144
f 144//144 201//201 142//142
f 90//90 86//86 151//151
f 151//151 145//145 90//90
f 90//90 145//145 148//148
f 86//86 77//77 151//151
f 144//144 208//208 201//201
f 441//441 144//144 205//205
f 146//146 148//148 149//149
f 419//419 146//146 149//149
f 153//153 97//97 102//102
f 419//419 149//149 431//431
f 429//429 97//97 153//153
f 145//145 151//151 148//148
f 151//151 150//150 148//148
f 149//149 148//148 150//150
f 209//209 150//150 151//151
f 429//429 153//153 430//430
f 154//154 430//430 207//207
f 430//430 153//153 207//207
f 157//157 154//154 207//207
f 149//149 150//150 209//209
f 155//155 100//100 154//154
f 157//157 155//155 154//154
f 156//156 100//100 155//155
f 156//156 155//155 432//432
f 209//209 431//431 149//149
f 151//151 203//203 209//209
f 210//210 209//209 203//203
f 153//153 209//209 207//207
f 159//159 425//425 158//158
f 159//159 115//115 104//104
f 159//159 158//158 160//160
f 112//112 212//212 161//161
f 162//162 433//433 158//158
f 165//165 433//433 162//162
f 435//435 164//164 111//111
f 164//164 168//168 111//111
f 162//162 174//174 170//170
f 162//162 170//170 165//165
f 166//166 169//169 163//163
f 169//169 166//166 168//168
f 167//167 169//169 168//168
f 168//168 163//163 111//111
f 163//163 168//168 166//166
f 437//437 219//219 439//439
f 219//219 437//437 436//436
f 169//169 167//167 121//121
f 170//170 174//174 171//171
f 165//165 170//170 172//172
f 172//172 170//170 171//171
f 173//173 165//165 172//172
f 171//171 173//173 172//172
f 173//173 171//171 175//175
f 165//165 173//173 220//220
f 167//167 168//168 179//179
f 121//121 167//167 179//179
f 174//174 175//175 171//171
f 175//175 174//174 177//177
f 173//173 175//175 177//177
f 220//220 173//173 177//177
f 219//219 176//176 439//439
f 219//219 180//180 176//176
f 449//449 181//181 180//180
f 182//182 178//178 179//179
f 176//176 179//179 439//439
f 179//179 176//176 180//180
f 180//180 182//182 179//179
f 182//182 180//180 181//181
f 450//450 224//224 181//181
f 181//181 224//224 182//182
f 178//178 182//182 130//130
f 182//182 187//187 130//130
f 182//182 184//184 187//187
f 182//182 183//183 184//184
f 182//182 224//224 183//183
f 183//183 185//185 184//184
f 185//185 187//187 184//184
f 183//183 224//224 185//185
f 177//177 174//174 194//194
f 174//174 129//129 132//132
f 174//174 132//132 194//194
f 185//185 186//186 187//187
f 229//229 186//186 185//185
f 186//186 229//229 233//233
f 186//186 188//188 187//187
f 189//189 188//188 186//186
f 189//189 186//186 233//233
f 189//189 233//233 238//238
f 130//130 190//190 134//134
f 130//130 187//187 190//190
f 188//188 190//190 187//187
f 188//188 193//193 190//190
f 188//188 189//189 191//191
f 189//189 192//192 191//191
f 189//189 238//238 192//192
f 188//188 191//191 193//193
f 192//192 193//193 191//191
f 196//196 192//192 240//240
f 193//193 196//196 195//195
f 193//193 192//192 196//196
f 195//195 196//196 197//197
f 196//196 198//198 197//197
f 245//245 194//194 199//199
f 243//243 198//198 196//196
f 243//243 244//244 198//198
f 198//198 200//200 141//141
f 200//200 198//198 244//244
f 201//201 199//199 142//142
f 245//245 199//199 201//201
f 200//200 244//244 204//204
f 204//204 244//244 249//249
f 200//200 203//203 151//151
f 200//200 204//204 203//203
f 204//204 249//249 251//251
f 201//201 208//208 206//206
f 202//202 201//201 206//206
f 203//203 204//204 210//210
f 432//432 205//205 156//156
f 205//205 432//432 441//441
f 251//251 442//442 204//204
f 208//208 157//157 207//207
f 207//207 268//268 208//208
f 280//280 209//209 210//210
f 280//280 211//211 209//209
f 207//207 209//209 211//211
f 268//268 207//207 443//443
f 282//282 211//211 280//280
f 470//470 269//269 444//444
f 268//268 443//443 269//269
f 213//213 159//159 160//160
f 214//214 159//159 213//213
f 115//115 159//159 214//214
f 445//445 434//434 438//438
f 217//217 446//446 165//165
f 447//447 217//217 215//215
f 448//448 214//214 213//213
f 214//214 216//216 115//115
f 448//448 216//216 214//214
f 290//290 426//426 216//216
f 215//215 217//217 285//285
f 448//448 473//473 216//216
f 218//218 161//161 212//212
f 218//218 212//212 291//291
f 217//217 165//165 220//220
f 161//161 218//218 450//450
f 299//299 220//220 177//177
f 299//299 217//217 220//220
f 218//218 221//221 450//450
f 221//221 218//218 223//223
f 218//218 291//291 223//223
f 177//177 226//226 299//299
f 225//225 224//224 450//450
f 225//225 450//450 221//221
f 222//222 221//221 223//223
f 298//298 223//223 291//291
f 226//226 177//177 194//194
f 226//226 227//227 299//299
f 483//483 227//227 301//301
f 221//221 222//222 225//225
f 230//230 225//225 222//222
f 222//222 231//231 230//230
f 231//231 222//222 223//223
f 227//227 226//226 236//236
f 236//236 301//301 227//227
f 230//230 229//229 185//185
f 225//225 185//185 224//224
f 225//225 230//230 185//185
f 228//228 231//231 223//223
f 232//232 231//231 228//228
f 226//226 194//194 236//236
f 230//230 234//234 229//229
f 230//230 231//231 234//234
f 452//452 231//231 232//232
f 235//235 452//452 232//232
f 452//452 235//235 451//451
f 301//301 236//236 237//237
f 234//234 233//233 229//229
f 235//235 238//238 451//451
f 235//235 240//240 238//238
f 238//238 240//240 192//192
f 236//236 194//194 239//239
f 237//237 236//236 239//239
f 237//237 239//239 303//303
f 194//194 241//241 239//239
f 196//196 240//240 246//246
f 246//246 240//240 308//308
f 241//241 194//194 242//242
f 246//246 243//243 196//196
f 245//245 242//242 194//194
f 243//243 246//246 244//244
f 247//247 249//249 244//244
f 247//247 246//246 250//250
f 246//246 247//247 244//244
f 201//201 202//202 245//245
f 202//202 312//312 245//245
f 247//247 250//250 249//249
f 251//251 250//250 246//246
f 251//251 246//246 254//254
f 248//248 454//454 453//453
f 248//248 253//253 455//455
f 250//250 251//251 249//249
f 440//440 255//255 252//252
f 202//202 253//253 312//312
f 253//253 202//202 252//252
f 253//253 258//258 455//455
f 455//455 258//258 259//259
f 440//440 256//256 255//255
f 206//206 456//456 202//202
f 255//255 256//256 252//252
f 208//208 456//456 206//206
f 253//253 252//252 457//457
f 252//252 257//257 457//457
f 252//252 256//256 257//257
f 256//256 261//261 257//257
f 251//251 254//254 458//458
f 208//208 459//459 456//456
f 459//459 208//208 260//260
f 261//261 457//457 257//257
f 442//442 251//251 259//259
f 457//457 261//261 272//272
f 457//457 272//272 262//262
f 210//210 281//281 280//280
f 263//263 283//283 281//281
f 210//210 263//263 281//281
f 442//442 259//259 264//264
f 264//264 460//460 442//442
f 471//471 461//461 265//265
f 264//264 259//259 462//462
f 460//460 264//264 462//462
f 266//266 462//462 259//259
f 462//462 266//266 267//267
f 259//259 267//267 266//266
f 260//260 208//208 268//268
f 268//268 270//270 260//260
f 269//269 275//275 268//268
f 459//459 260//260 270//270
f 270//270 268//268 275//275
f 459//459 270//270 274//274
f 275//275 269//269 271//271
f 271//271 269//269 284//284
f 275//275 271//271 277//277
f 284//284 279//279 271//271
f 261//261 466//466 272//272
f 262//262 272//272 273//273
f 262//262 273//273 278//278
f 464//464 279//279 284//284
f 272//272 466//466 465//465
f 465//465 466//466 276//276
f 465//465 276//276 469//469
f 278//278 277//277 279//279
f 278//278 273//273 277//277
f 274//274 270//270 275//275
f 468//468 467//467 275//275
f 277//277 468//468 275//275
f 277//277 271//271 279//279
f 262//262 278//278 313//313
f 279//279 485//485 278//278
f 282//282 280//280 281//281
f 281//281 283//283 282//282
f 269//269 470//470 284//284
f 284//284 470//470 472//472
f 463//463 284//284 472//472
f 464//464 284//284 463//463
f 464//464 485//485 279//279
f 290//290 216//216 473//473
f 286//286 287//287 474//474
f 217//217 475//475 285//285
f 290//290 473//473 477//477
f 288//288 475//475 217//217
f 287//287 286//286 289//289
f 290//290 477//477 479//479
f 480//480 478//478 292//292
f 480//480 476//476 478//478
f 290//290 479//479 481//481
f 295//295 212//212 290//290
f 291//291 212//212 295//295
f 293//293 292//292 478//478
f 482//482 288//288 294//294
f 288//288 296//296 294//294
f 482//482 294//294 315//315
f 294//294 296//296 315//315
f 292//292 293//293 314//314
f 290//290 481//481 487//487
f 489//489 314//314 293//293
f 295//295 323//323 291//291
f 321//321 291//291 491//491
f 298//298 291//291 321//321
f 296//296 288//288 217//217
f 321//321 329//329 298//298
f 297//297 296//296 217//217
f 300//300 296//296 297//297
f 217//217 299//299 297//297
f 329//329 339//339 298//298
f 299//299 301//301 297//297
f 297//297 301//301 302//302
f 297//297 302//302 300//300
f 300//300 302//302 303//303
f 296//296 484//484 303//303
f 303//303 328//328 296//296
f 298//298 228//228 223//223
f 303//303 302//302 301//301
f 228//228 298//298 232//232
f 298//298 235//235 232//232
f 339//339 235//235 298//298
f 343//343 235//235 339//339
f 237//237 303//303 301//301
f 343//343 240//240 235//235
f 343//343 349//349 240//240
f 303//303 239//239 242//242
f 304//304 303//303 242//242
f 241//241 242//242 239//239
f 304//304 242//242 307//307
f 350//350 304//304 307//307
f 349//349 305//305 240//240
f 305//305 308//308 240//240
f 307//307 310//310 352//352
f 306//306 309//309 305//305
f 242//242 245//245 307//307
f 307//307 245//245 310//310
f 305//305 309//309 308//308
f 248//248 309//309 306//306
f 311//311 312//312 253//253
f 359//359 253//253 248//248
f 311//311 253//253 359//359
f 308//308 309//309 246//246
f 309//309 248//248 453//453
f 245//245 312//312 310//310
f 310//310 312//312 311//311
f 486//486 259//259 258//258
f 267//267 259//259 486//486
f 313//313 457//457 262//262
f 314//314 489//489 317//317
f 317//317 315//315 316//316
f 319//319 372//372 487//487
f 372//372 290//290 487//487
f 295//295 290//290 372//372
f 322//322 321//321 491//491
f 316//316 315//315 296//296
f 314//314 317//317 318//318
f 318//318 317//317 320//320
f 490//490 488//488 318//318
f 320//320 317//317 335//335
f 490//490 318//318 360//360
f 360//360 318//318 320//320
f 319//319 499//499 372//372
f 360//360 320//320 361//361
f 295//295 325//325 323//323
f 321//321 330//330 329//329
f 330//330 321//321 322//322
f 324//324 330//330 322//322
f 324//324 322//322 491//491
f 325//325 326//326 323//323
f 493//493 492//492 496//496
f 496//496 333//333 493//493
f 496//496 327//327 333//333
f 494//494 327//327 496//496
f 327//327 494//494 362//362
f 328//328 316//316 296//296
f 317//317 316//316 335//335
f 335//335 369//369 320//320
f 316//316 328//328 335//335
f 329//329 330//330 337//337
f 331//331 330//330 324//324
f 337//337 330//330 331//331
f 332//332 337//337 331//331
f 324//324 332//332 331//331
f 333//333 497//497 493//493
f 368//368 497//497 333//333
f 511//511 327//327 362//362
f 368//368 333//333 327//327
f 337//337 339//339 329//329
f 328//328 303//303 334//334
f 328//328 334//334 338//338
f 328//328 338//338 335//335
f 336//336 335//335 338//338
f 369//369 335//335 336//336
f 342//342 369//369 336//336
f 340//340 339//339 337//337
f 497//497 368//368 376//376
f 332//332 514//514 337//337
f 338//338 334//334 303//303
f 336//336 338//338 342//342
f 369//369 342//342 346//346
f 340//340 343//343 339//339
f 341//341 340//340 337//337
f 514//514 341//341 337//337
f 341//341 514//514 378//378
f 340//340 341//341 343//343
f 378//378 344//344 341//341
f 382//382 344//344 378//378
f 338//338 303//303 304//304
f 345//345 338//338 304//304
f 338//338 345//345 342//342
f 342//342 345//345 350//350
f 346//346 342//342 350//350
f 344//344 343//343 341//341
f 344//344 347//347 343//343
f 343//343 347//347 349//349
f 344//344 349//349 347//347
f 382//382 498//498 344//344
f 346//346 350//350 348//348
f 348//348 353//353 346//346
f 353//353 354//354 384//384
f 382//382 381//381 358//358
f 350//350 345//345 304//304
f 352//352 348//348 350//350
f 348//348 352//352 353//353
f 350//350 351//351 352//352
f 381//381 379//379 359//359
f 358//358 498//498 382//382
f 381//381 359//359 358//358
f 350//350 307//307 351//351
f 352//352 351//351 307//307
f 352//352 356//356 353//353
f 353//353 356//356 354//354
f 354//354 357//357 355//355
f 354//354 356//356 357//357
f 354//354 355//355 377//377
f 377//377 355//355 359//359
f 355//355 357//357 359//359
f 357//357 356//356 359//359
f 498//498 358//358 305//305
f 352//352 310//310 311//311
f 352//352 311//311 356//356
f 358//358 306//306 305//305
f 311//311 359//359 356//356
f 248//248 358//358 359//359
f 358//358 248//248 306//306
f 500//500 502//502 363//363
f 495//495 295//295 372//372
f 503//503 320//320 369//369
f 506//506 503//503 369//369
f 501//501 507//507 364//364
f 365//365 364//364 507//507
f 509//509 510//510 499//499
f 510//510 372//372 499//499
f 370//370 366//366 508//508
f 370//370 508//508 369//369
f 507//507 366//366 365//365
f 366//366 367//367 365//365
f 365//365 367//367 372//372
f 373//373 372//372 367//367
f 372//372 374//374 495//495
f 375//375 512//512 504//504
f 374//374 513//513 505//505
f 505//505 495//495 374//374
f 375//375 515//515 512//512
f 369//369 346//346 370//370
f 346//346 380//380 370//370
f 366//366 370//370 367//367
f 370//370 371//371 367//367
f 367//367 371//371 373//373
f 373//373 371//371 374//374
f 372//372 373//373 374//374
f 515//515 375//375 381//381
f 375//375 379//379 381//381
f 379//379 375//375 374//374
f 378//378 515//515 381//381
f 370//370 380//380 371//371
f 374//374 377//377 359//359
f 374//374 371//371 377//377
f 371//371 380//380 377//377
f 374//374 359//359 379//379
f 382//382 378//378 381//381
f 346//346 383//383 380//380
f 380//380 383//383 384//384
f 384//384 377//377 380//380
f 383//383 346//346 353//353
f 383//383 353//353 384//384
f 377//377 384//384 354//354
