# Wavafront OBJ file of BodyParts3D
# BodyParts3D, Copyright(C) 2010-2011 The Database Center for Life Science licensed under CC Attribution-Share Alike 2.1 Japan.
vn -0.575959 0.724488 -0.378668
v 25.3577 -125.59 1493.07
vn -0.979854 0.0848812 -0.18078
v 25.5482 -123.925 1501.93
vn -0.05532 -0.884883 0.462517
v 25.3577 -123.553 1502.75
vn 0.226979 -0.803362 0.550537
v 25.1623 -122.895 1503.99
vn -0.998851 -0.0125751 -0.0462336
v 25.1516 -122.895 1504.22
vn -0.998851 -0.0125751 -0.0462336
v 25.1516 -122.689 1504.17
vn -0.794377 0.464353 -0.391588
v 25.3979 -122.277 1504.2
vn -0.799112 0.446959 -0.402055
v 25.0985 -122.071 1505.02
vn -0.0973028 -0.995045 -0.0204343
v 24.9457 -122.071 1505.75
vn -0.776577 -0.499253 -0.384285
v 25.2289 -122.483 1504.61
vn -0.880141 -0.382115 -0.281674
v 25.1516 -122.363 1504.61
vn -0.933202 -0.328065 -0.146657
v 25.1516 -122.483 1504.88
vn -0.439651 -0.897744 0.0276116
v 25.1516 -121.77 1505.84
vn 0.60872 -0.74721 0.266718
v 25.3577 -122.137 1505.02
vn -0.173333 -0.984458 0.0282518
v 25.3577 -122.105 1505.43
vn -0.439651 -0.897744 0.0276116
v 24.9247 -121.659 1505.84
vn -0.439651 -0.897744 0.0276116
v 24.9457 -121.659 1506.18
vn -0.229293 -0.955767 -0.18421
v 24.4914 -121.453 1506.87
vn -0.0791006 -0.771705 -0.631042
v 24.3277 -121.041 1507.67
vn 0.134056 -0.767144 -0.627312
v 24.5336 -121.087 1507.7
vn 0.134056 -0.767144 -0.627312
v 24.5336 -120.919 1507.49
vn -0.97863 0.112415 0.172183
v 24.7123 -120.835 1507.08
vn -0.641827 -0.10832 -0.75916
v 24.7284 -120.629 1507.29
vn -0.0992021 -0.977085 -0.188319
v 24.7397 -121.512 1506.87
vn -0.0992021 -0.977085 -0.188319
v 24.7397 -121.453 1506.57
vn -0.179405 -0.747816 0.639207
v 24.7397 -121.247 1507.19
vn -0.691602 -0.209239 0.691308
v 24.7397 -120.912 1507.29
vn 0.341117 -0.727699 -0.595057
v 24.7397 -120.991 1507.7
vn -0.997919 -0.0151338 0.0626728
v 24.9457 -121.247 1506.28
vn 0.428371 -0.747068 0.508319
v 25.3577 -121.373 1506.26
vn -0.892604 0.143604 -0.42736
v 23.9156 -120.228 1509.14
vn -0.865611 0.236551 -0.441317
v 24.1803 -120.423 1508.52
vn -0.74815 -0.568177 0.342705
v 24.3277 -120.865 1508.11
vn -0.586954 -0.647685 0.485787
v 24.3277 -120.556 1508.52
vn 0.276477 -0.812325 0.513506
v 24.3389 -120.217 1509.14
vn 0.440312 -0.771455 0.459329
v 25.1588 -120.629 1507.9
vn -0.916349 0.098934 -0.387964
v 25.2884 -118.775 1507.08
vn -0.853506 0.206927 -0.478235
v 24.0492 -120.011 1508.93
vn -0.854679 0.515316 0.0630388
v 24.3277 -119.549 1508.93
vn -0.887013 0.211497 -0.41046
v 24.7284 -118.775 1508.52
vn -0.897907 0.191352 -0.396419
v 25.1944 -118.363 1507.49
vn -0.835167 0.503978 -0.220232
v 25.925 -127.427 1493.9
vn -0.808815 0.530042 -0.254705
v 25.9757 -127.253 1494.1
vn -0.0904021 -0.46506 -0.880651
v 26.1817 -127.477 1493.9
vn -0.708798 0.599475 -0.3718
v 26.1817 -127.221 1493.76
vn -0.702517 -0.636663 0.318009
v 25.9064 -127.015 1494.93
vn -0.932745 0.353797 -0.0693867
v 25.9757 -127.091 1494.93
vn -0.644393 -0.583987 0.493676
v 25.9757 -127.015 1495.02
vn 0.394677 -0.763834 0.510674
v 26.1817 -127.015 1494.93
vn -0.602182 0.725953 -0.33222
v 25.5637 -125.573 1492.74
vn -0.276128 -0.960133 -0.0435665
v 26.0449 -125.779 1492.87
vn -0.215013 -0.96294 0.162835
v 26.513 -125.779 1493.48
vn -0.698494 0.304541 -0.64758
v 26.5953 -125.985 1493.9
vn -0.698494 0.304541 -0.64758
v 26.7997 -125.985 1493.68
vn 0.454651 -0.821424 -0.344319
v 26.7997 -125.62 1493.48
vn -0.823337 0.547747 -0.148623
v 26.1958 -126.397 1495.34
vn -0.942832 0.0428044 -0.330509
v 26.1953 -126.397 1496.16
vn -0.942832 0.0428044 -0.330509
v 26.1817 -125.985 1496.26
vn 0.445058 -0.748635 0.491395
v 26.3876 -126.56 1495.34
vn -0.798622 0.565978 -0.204623
v 26.9171 -125.367 1495.13
vn -0.990918 -0.00264283 -0.134445
v 26.0539 -125.779 1497.19
vn -0.906282 -0.360526 0.22062
v 26.0931 -125.573 1497.4
vn -0.850593 -0.481687 0.210877
v 26.1817 -125.779 1497.43
vn -0.82674 -0.557378 0.0763643
v 25.9757 -125.367 1498.2
vn -0.969476 -0.237173 0.0621658
v 25.9757 -125.091 1499.25
vn -0.696588 -0.186062 0.692926
v 25.7157 -124.955 1493.69
vn -0.461639 -0.462488 0.756964
v 25.9757 -124.955 1493.91
vn -0.666197 -0.220781 0.712346
v 26.7997 -123.719 1495.06
vn -0.949876 0.241669 0.19832
v 27.1296 -124.749 1494.93
vn -0.969476 -0.237173 0.0621658
v 25.929 -124.955 1499.05
vn -0.722858 -0.639824 -0.260962
v 25.7696 -124.943 1499.46
vn -0.979854 0.0848812 -0.18078
v 25.9757 -124.749 1499.23
vn -0.130534 -0.861104 0.491387
v 26.1817 -124.065 1501.11
vn -0.979854 0.0848812 -0.18078
v 25.566 -123.719 1501.93
vn 0.270182 -0.829603 0.488631
v 25.5637 -123.566 1502.75
vn 0.366851 -0.816559 0.445704
v 25.7696 -123.355 1502.55
vn -0.799155 0.0940552 0.593722
v 26.9044 -123.307 1495.13
vn -0.832255 0.42261 -0.358821
v 25.7423 -123.101 1502.55
vn -0.287938 0.0249431 0.957324
v 27.0056 -122.912 1502.34
vn 0.796471 -0.603552 0.0368661
v 25.5637 -122.34 1504.4
vn 0.472425 -0.711025 0.520824
v 26.3876 -121.332 1505.64
vn -0.763412 0.468075 -0.445094
v 26.1473 -119.393 1505.02
vn -0.459162 0.742186 -0.48819
v 26.1817 -118.962 1505.64
vn -0.581039 0.745281 -0.327033
v 26.5937 -119.076 1504.81
vn 0.00264186 -0.0977108 0.995211
v 25.7696 -118.981 1509.26
vn 0.0301039 -0.519708 0.853814
v 26.1817 -118.981 1509.24
vn 0.327748 -0.925395 0.190329
v 27.0056 -118.709 1509.14
vn 0.452815 -0.824303 0.339828
v 27.0056 -118.667 1509.35
vn -0.433985 0.346311 0.831701
v 26.6441 -116.921 1508.73
vn 0.752472 -0.404257 -0.519964
v 27.2422 -125.985 1494.1
vn 0.555853 -0.726781 0.403506
v 27.6236 -125.816 1495.13
vn -0.532443 0.740535 -0.410015
v 28.4477 -122.277 1494.71
vn -0.682929 -0.101101 0.723454
v 27.6236 -122.847 1495.96
vn -0.633793 0.733399 -0.245829
v 28.0357 -122.298 1495.34
vn -0.950242 0.302604 -0.0739719
v 28.0888 -122.895 1496.99
vn 0.427767 -0.719795 0.546727
v 27.2117 -121.865 1504.02
vn 0.624485 -0.765031 -0.157313
v 27.8033 -121.865 1503.37
vn -0.695637 0.665112 -0.271506
v 28.298 -121.247 1497.81
vn -0.590811 0.712508 -0.378516
v 28.4477 -120.423 1498.99
vn 0.708025 -0.698365 -0.104822
v 28.7132 -121.041 1503.37
vn -0.750243 0.547673 -0.370391
v 28.4477 -119.396 1501.52
vn 0.507749 -0.724472 0.466187
v 28.2416 -118.775 1507.45
vn 0.459512 -0.844178 0.276064
v 28.0357 -118.557 1508.11
vn -0.567909 0.719626 -0.399522
v 28.4075 -117.333 1506.05
vn -0.601542 0.704886 -0.375877
v 28.4477 -117.841 1504.81
vn -0.524951 0.324198 0.78697
v 27.5565 -117.951 1509.55
vn -0.695475 0.718424 -0.0134832
v 28.0872 -115.479 1508.93
vn -0.511153 0.267673 0.816746
v 28.1927 -115.479 1509.14
vn 0.20668 0.36419 -0.908102
v 28.8596 -122.689 1494.57
vn 0.777495 -0.270299 -0.567838
v 30.2646 -121.453 1495.75
vn 0.603351 -0.670969 0.431008
v 28.8596 -120.991 1503.58
vn 0.525748 -0.776492 0.347347
v 28.8596 -120.077 1504.81
vn 0.569326 -0.698125 0.434154
v 29.8897 -119.761 1503.58
vn 0.602732 -0.740046 0.298404
v 29.9717 -119.393 1504.2
vn 0.594681 -0.800948 -0.0695382
v 29.937 -119.393 1504.4
vn 0.631123 -0.696115 0.342211
v 30.4249 -118.981 1504.4
vn 0.581385 -0.755517 0.30197
v 29.2717 -117.676 1508.11
vn -0.649684 0.659281 -0.378497
v 29.8462 -116.715 1504.61
vn 0.581288 -0.751639 0.311679
v 30.5077 -121.496 1499.25
vn 0.154196 0.44978 -0.879728
v 31.9496 -118.775 1497.12
vn 0.602342 -0.710615 0.363608
v 30.8215 -119.599 1502.96
vn 0.565847 -0.666967 0.484739
v 30.9197 -119.234 1503.37
vn 0.645132 -0.763862 -0.0178542
v 30.5924 -118.981 1504.61
vn 0.636446 -0.587045 0.500314
v 31.1807 -117.951 1504.4
vn 0.819577 -0.534304 -0.206913
v 30.9631 -118.363 1504.61
vn 0.577898 -0.712858 0.397325
v 30.8504 -116.921 1507.29
vn -0.606363 0.690518 -0.394345
v 30.9197 -116.363 1503.17
vn -0.570584 0.681483 -0.458274
v 31.7437 -114.846 1504.2
vn -0.647973 0.635853 -0.419312
v 30.7136 -114.971 1505.84
vn -0.53947 0.687499 -0.486126
v 30.7136 -114.235 1507.49
vn -0.646309 0.687137 -0.331854
v 31.05 -114.243 1506.46
vn 0.457911 -0.672673 0.581231
v 31.1276 -115.067 1510.17
vn -0.279317 0.0131344 0.960109
v 31.1257 -114.655 1510.41
vn -0.734318 0.564951 0.376307
v 30.7136 -112.751 1509.96
vn -0.517265 0.838302 -0.172299
v 31.3316 -112.184 1510.17
vn -0.694979 0.483302 0.532375
v 31.3316 -112.389 1510.44
vn 0.827418 -0.411382 -0.382287
v 32.2796 -120.011 1498.02
vn 0.886713 -0.444017 -0.128798
v 32.9058 -119.393 1498.84
vn 0.930212 -0.331948 -0.156578
v 33.0907 -118.569 1498.43
vn 0.957449 -0.185554 -0.221044
v 33.0843 -118.569 1498.84
vn 0.892726 -0.450581 -0.00416885
v 33.39 -118.569 1499.46
vn 0.810961 -0.580614 -0.0723194
v 33.3031 -118.775 1500.28
vn 0.813355 -0.578339 0.0630716
v 33.3917 -118.569 1499.8
vn -0.437634 0.789718 -0.429909
v 32.1557 -117.539 1498.99
vn -0.360968 0.849818 -0.384071
v 32.8034 -117.333 1498.84
vn -0.467706 0.862902 -0.191448
v 32.9587 -117.127 1498.63
vn 0.87929 -0.466495 -0.0960858
v 33.2516 -118.157 1499.25
vn 0.832038 -0.295343 -0.469559
v 33.2645 -117.951 1498.22
vn -0.492756 0.812035 0.312714
v 33.1856 -117.148 1499.05
vn -0.152353 0.845645 -0.511539
v 33.5976 -117.012 1498.63
vn 0.886264 -0.44167 -0.139513
v 33.7473 -117.745 1500.08
vn 0.535042 -0.715601 0.44905
v 32.9796 -117.927 1502.34
vn 0.832858 -0.552285 -0.0364534
v 32.5018 -116.097 1505.43
vn -0.492344 0.717725 -0.492411
v 32.5676 -114.449 1504.13
vn -0.615068 0.720822 -0.319543
v 32.7737 -114.351 1503.99
vn -0.536366 0.749154 -0.38869
v 33.1856 -114.296 1503.17
vn 0.514658 -0.746534 0.421681
v 33.1856 -114.898 1507.29
vn 0.422282 -0.606712 0.673482
v 32.3617 -113.625 1510.81
vn 0.58294 -0.669912 0.459782
v 32.7737 -113.649 1510.38
vn 0.330909 0.460991 0.823399
v 32.3617 -113.419 1510.71
vn 0.308325 0.483702 0.819126
v 33.0128 -113.419 1510.38
vn -0.0307152 0.799041 0.600491
v 32.7737 -111.51 1509.35
vn -0.564725 0.77639 -0.279828
v 32.9796 -111.421 1508.93
vn -0.562266 0.723233 -0.400987
v 33.3917 -111.318 1508.52
vn -0.200687 0.322179 0.925162
v 33.5976 -111.08 1509.14
vn -0.558804 0.777618 -0.288183
v 33.6312 -110.947 1508.93
vn 0.609165 0.307576 -0.730968
v 33.8696 -117.127 1498.84
vn -0.429307 0.858619 0.280123
v 33.8036 -116.839 1499.05
vn 0.626751 -0.689323 0.363341
v 34.0097 -112.875 1509.76
vn -0.0215498 0.418474 0.907973
v 34.0097 -112.595 1509.81
vn 0.540788 -0.724852 0.426776
v 34.4117 -112.595 1509.55
vn 0.369105 -0.689764 0.622886
v 34.4216 -112.389 1509.81
vn -0.484714 0.761445 -0.43041
v 34.8336 -111.771 1506.07
vn -0.493362 0.766014 -0.412089
v 34.2156 -110.437 1509.14
vn -0.730366 0.546195 0.410166
v 34.258 -110.535 1509.35
vn -0.800605 0.460267 0.383649
v 34.7119 -109.917 1509.55
vn -0.0600618 0.752899 -0.65539
v 35.4516 -115.068 1500.9
vn 0.344233 -0.789821 0.507628
v 35.4516 -115.683 1503.99
vn 0.737129 -0.675126 -0.0290802
v 36.1269 -115.479 1503.37
vn -0.675694 0.0557729 0.735069
v 35.4516 -111.359 1510.54
vn -0.223493 -0.164003 0.960809
v 35.8534 -110.947 1510.79
vn 0.223327 -0.61003 0.760256
v 36.0696 -110.955 1510.79
vn -0.621509 0.00820043 0.783364
v 35.4516 -109.711 1510.52
vn 0.00257946 -0.362379 0.932027
v 36.8937 -110.118 1510.99
vn -0.782093 -0.0938111 0.61606
v 36.6378 -107.033 1512.44
vn 0.754948 -0.642166 -0.132952
v 37.7177 -113.831 1504.58
vn 0.776609 -0.603334 -0.181291
v 37.9785 -113.419 1504.2
vn -0.053299 -0.792339 0.607748
v 38.5416 -110.947 1509.14
vn 0.223264 -0.710154 0.667709
v 37.0997 -110.123 1510.95
vn 0.168484 -0.79877 0.577563
v 38.5416 -108.389 1513.05
vn -0.631174 -0.367074 0.683283
v 37.5997 -105.797 1514.08
vn -0.45728 0.811346 -0.364161
v 37.5117 -105.56 1513.88
vn -0.712245 0.701482 -0.0251049
v 37.5117 -105.553 1514.08
vn 0.183574 0.916372 -0.355758
v 37.7177 -105.422 1514.08
vn -0.642387 -0.31925 0.69672
v 37.7208 -105.591 1514.29
vn -0.445777 -0.266468 0.854563
v 37.9236 -105.797 1514.34
vn 0.418886 0.877087 -0.235058
v 37.9236 -105.486 1514.08
vn -0.369119 0.715881 0.592677
v 37.9236 -105.486 1514.29
vn 0.692677 0.716391 0.0835631
v 38.3357 -105.805 1514.08
vn -0.359227 -0.433636 0.826387
v 38.5416 -106.415 1514.44
vn -0.0366439 -0.0415114 0.998466
v 38.5416 -106.209 1514.49
vn 0.821004 -0.355947 -0.446379
v 39.0454 -111.977 1504.81
vn 0.760849 -0.648662 0.0185849
v 39.5717 -111.84 1505.84
vn 0.588844 -0.793935 0.151426
v 38.7541 -113.007 1506.87
vn 0.867229 -0.488184 -0.0979263
v 39.8243 -111.977 1507.29
vn 0.361512 0.629678 -0.687615
v 39.5717 -111.145 1505.64
vn 0.784249 -0.36537 -0.501456
v 40.1237 -111.359 1506.05
vn 0.636911 0.406564 -0.65502
v 39.9837 -111.153 1505.95
vn -0.139282 -0.832969 0.535503
v 39.9837 -111.17 1509.55
vn 0.138134 0.828655 -0.542449
v 38.7477 -109.828 1507.08
vn -0.420465 -0.464437 0.779428
v 39.3657 -107.651 1513.94
vn 0.0325668 -0.151921 0.987856
v 39.3657 -107.239 1514.16
vn 0.684392 0.685314 0.248902
v 39.3657 -107.033 1514.14
vn -0.381641 -0.624107 0.681792
v 39.6292 -108.269 1513.67
vn -0.350521 -0.148529 0.924702
v 39.5717 -107.445 1514.16
vn -0.00652792 0.125966 0.992013
v 39.5717 -107.239 1514.13
vn -0.553505 -0.579444 0.598228
v 39.7776 -108.166 1513.88
vn 0.549514 0.790433 0.270648
v 39.7776 -107.237 1513.88
vn -0.482114 -0.684299 0.547084
v 39.9837 -108.341 1513.88
vn -0.479371 -0.520457 0.706632
v 39.9837 -108.063 1514.22
vn -0.293077 -0.729593 0.617899
v 40.1897 -108.322 1514.08
vn -0.379759 -0.220984 0.898304
v 40.1897 -107.857 1514.41
vn 0.518891 0.789274 0.328328
v 40.1897 -107.524 1514.08
vn 0.537356 0.830338 -0.14761
v 38.7477 -106.317 1513.05
vn 0.759741 0.395279 -0.516284
v 40.3956 -110.822 1506.67
vn 0.615033 0.574198 -0.540398
v 40.3956 -110.389 1507.08
vn 0.742238 -0.662902 0.0982053
v 40.6194 -110.535 1507.49
vn 0.888074 -0.453783 -0.0735239
v 40.7417 -110.329 1507.7
vn 0.764721 -0.641041 0.0653281
v 40.7587 -110.329 1507.9
vn 0.384673 -0.838366 0.386224
v 40.6194 -110.535 1510.38
vn 0.990054 -0.13311 -0.0455509
v 40.7964 -109.711 1510.79
vn 0.510619 0.7623 -0.397703
v 40.8077 -108.83 1509.96
vn 0.229321 -0.748888 0.621754
v 40.6017 -108.711 1513.67
vn 0.638472 -0.642102 0.424332
v 40.8158 -108.887 1513.26
vn 0.715619 0.678745 -0.164911
v 40.3956 -107.63 1512.23
vn 0.986235 -0.163696 0.0233035
v 40.9573 -108.475 1511.82
vn -0.187765 -0.616983 0.764249
v 40.3956 -108.063 1514.36
vn 0.55151 0.633934 0.542185
v 40.3956 -107.857 1514.37
vn 0.750951 0.647549 0.129433
v 40.7803 -107.857 1513.47
vn 0.704162 -0.482827 0.520609
v 40.8189 -108.269 1513.88
vn 0.960201 -0.255887 0.111968
v 41.0603 -108.475 1512.85
vn -0.479716 -0.488172 0.729082
v 25.3577 -125.59 1493.07
vn -0.276128 -0.960133 -0.0435665
v 25.3577 -125.59 1493.07
vn -0.287938 0.0249431 0.957324
v 25.5482 -123.925 1501.93
vn 0.314542 -0.865899 0.38895
v 25.5482 -123.925 1501.93
vn -0.0423476 -0.67738 -0.734413
v 25.3577 -123.553 1502.75
vn -0.429053 -0.0461082 -0.902102
v 25.3577 -123.553 1502.75
vn -0.782237 0.490069 -0.384628
v 25.3577 -123.553 1502.75
vn -0.998851 -0.0125751 -0.0462336
v 25.1623 -122.895 1503.99
vn 0.796471 -0.603552 0.0368661
v 25.1623 -122.895 1503.99
vn -0.832441 0.376847 -0.406236
v 25.1623 -122.895 1503.99
vn 0.796471 -0.603552 0.0368661
v 25.1516 -122.895 1504.22
vn -0.614602 0.207034 0.761184
v 25.1516 -122.895 1504.22
vn -0.646956 0.280893 0.708906
v 25.1516 -122.689 1504.17
vn -0.786988 0.441469 -0.430992
v 25.1516 -122.689 1504.17
vn -0.673335 0.352157 0.650081
v 25.3979 -122.277 1504.2
vn 0.144206 -0.907472 -0.394587
v 25.3979 -122.277 1504.2
vn -0.716379 -0.460552 -0.524111
v 25.3979 -122.277 1504.2
vn -0.992615 -0.110747 -0.0495078
v 25.0985 -122.071 1505.02
vn -0.173333 -0.984458 0.0282518
v 25.0985 -122.071 1505.02
vn -0.97865 -0.00183393 -0.205524
v 25.0985 -122.071 1505.02
vn -0.0865144 -0.336988 0.937526
v 25.0985 -122.071 1505.02
vn -0.97865 -0.00183393 -0.205524
v 24.9457 -122.071 1505.75
vn 0.209469 -0.493569 0.844104
v 24.9457 -122.071 1505.75
vn 0.144206 -0.907472 -0.394587
v 25.2289 -122.483 1504.61
vn 0.605129 -0.721281 0.337006
v 25.2289 -122.483 1504.61
vn -0.815757 0.417157 -0.400651
v 25.1516 -122.363 1504.61
vn 0.791958 -0.566568 0.227605
v 25.1516 -122.483 1504.88
vn -0.0865144 -0.336988 0.937526
v 25.1516 -122.483 1504.88
vn 0.260442 -0.590815 0.763614
v 25.1516 -121.77 1505.84
vn -0.247932 -0.965736 0.0767045
v 25.3577 -122.137 1505.02
vn -0.0865144 -0.336988 0.937526
v 25.3577 -122.137 1505.02
vn 0.488277 -0.799697 0.349386
v 25.3577 -122.105 1505.43
vn -0.97865 -0.00183393 -0.205524
v 24.9247 -121.659 1505.84
vn -0.113029 -0.230798 0.966414
v 24.9247 -121.659 1505.84
vn -0.787357 0.467461 -0.401931
v 24.9247 -121.659 1505.84
vn -0.997919 -0.0151338 0.0626728
v 24.9247 -121.659 1505.84
vn -0.997919 -0.0151338 0.0626728
v 24.9457 -121.659 1506.18
vn 0.422221 -0.748813 0.51089
v 24.9457 -121.659 1506.18
vn -0.0230443 -0.234664 0.971803
v 24.9457 -121.659 1506.18
vn -0.179405 -0.747816 0.639207
v 24.4914 -121.453 1506.87
vn -0.691602 -0.209239 0.691308
v 24.4914 -121.453 1506.87
vn -0.939178 0.261346 0.222807
v 24.4914 -121.453 1506.87
vn -0.784067 0.429576 -0.447998
v 24.4914 -121.453 1506.87
vn -0.775909 -0.0969422 -0.623351
v 24.4914 -121.453 1506.87
vn -0.568673 -0.187098 -0.801003
v 24.3277 -121.041 1507.67
vn -0.869859 -0.458682 0.181535
v 24.3277 -121.041 1507.67
vn -0.847198 0.312092 -0.429947
v 24.3277 -121.041 1507.67
vn -0.257491 -0.898472 0.355594
v 24.3277 -121.041 1507.67
vn 0.3479 -0.735425 0.581477
v 24.5336 -121.087 1507.7
vn -0.257491 -0.898472 0.355594
v 24.5336 -121.087 1507.7
vn -0.641827 -0.10832 -0.75916
v 24.5336 -120.919 1507.49
vn -0.152729 -0.970647 -0.185789
v 24.5336 -120.919 1507.49
vn -0.744506 0.481066 -0.462911
v 24.7123 -120.835 1507.08
vn -0.819957 0.365713 -0.440369
v 24.7284 -120.629 1507.29
vn -0.992344 -0.0394722 0.117031
v 24.7284 -120.629 1507.29
vn -0.179405 -0.747816 0.639207
v 24.7397 -121.512 1506.87
vn 0.490782 -0.728651 0.477704
v 24.7397 -121.512 1506.87
vn -0.775909 -0.0969422 -0.623351
v 24.7397 -121.453 1506.57
vn -0.246612 -0.69668 -0.673661
v 24.7397 -121.453 1506.57
vn -0.691602 -0.209239 0.691308
v 24.7397 -121.247 1507.19
vn 0.437854 -0.683409 0.584154
v 24.7397 -121.247 1507.19
vn 0.130369 -0.28722 0.948951
v 24.7397 -121.247 1507.19
vn -0.97863 0.112415 0.172183
v 24.7397 -120.912 1507.29
vn -0.152729 -0.970647 -0.185789
v 24.7397 -120.912 1507.29
vn -0.70644 -0.0280999 -0.707215
v 24.7397 -120.912 1507.29
vn 0.130369 -0.28722 0.948951
v 24.7397 -120.912 1507.29
vn 0.59254 -0.791178 -0.151437
v 24.7397 -120.912 1507.29
vn 0.413481 -0.720671 0.556477
v 24.7397 -120.912 1507.29
vn -0.152729 -0.970647 -0.185789
v 24.7397 -120.991 1507.7
vn 0.524866 -0.814912 0.245833
v 24.7397 -120.991 1507.7
vn -0.825046 0.354894 -0.439715
v 24.9457 -121.247 1506.28
vn -0.775909 -0.0969422 -0.623351
v 24.9457 -121.247 1506.28
vn -0.0230443 -0.234664 0.971803
v 24.9457 -121.247 1506.28
vn -0.246612 -0.69668 -0.673661
v 24.9457 -121.247 1506.28
vn -0.0230443 -0.234664 0.971803
v 25.3577 -121.373 1506.26
vn -0.246612 -0.69668 -0.673661
v 25.3577 -121.373 1506.26
vn 0.0326146 -0.981406 -0.189151
v 25.3577 -121.373 1506.26
vn -0.670528 -0.739905 -0.0541562
v 23.9156 -120.228 1509.14
vn 0.0236946 -0.876359 0.481075
v 23.9156 -120.228 1509.14
vn 0.00264186 -0.0977108 0.995211
v 23.9156 -120.228 1509.14
vn -0.856337 0.516315 -0.0102869
v 23.9156 -120.228 1509.14
vn -0.364382 0.465556 0.806526
v 23.9156 -120.228 1509.14
vn -0.74815 -0.568177 0.342705
v 24.1803 -120.423 1508.52
vn -0.670528 -0.739905 -0.0541562
v 24.1803 -120.423 1508.52
vn -0.257491 -0.898472 0.355594
v 24.3277 -120.865 1508.11
vn 0.352423 -0.743719 0.568049
v 24.3277 -120.865 1508.11
vn -0.670528 -0.739905 -0.0541562
v 24.3277 -120.556 1508.52
vn 0.217408 -0.834003 0.507121
v 24.3277 -120.556 1508.52
vn 0.00264186 -0.0977108 0.995211
v 24.3389 -120.217 1509.14
vn 0.0270623 -0.640422 0.767547
v 25.1588 -120.629 1507.9
vn -0.854679 0.515316 0.0630388
v 24.0492 -120.011 1508.93
vn -0.377972 0.52511 0.762493
v 24.3277 -119.549 1508.93
vn -0.848422 0.511544 0.136025
v 24.7284 -118.775 1508.52
vn -0.43398 0.494801 0.752884
v 24.7284 -118.775 1508.52
vn -0.693766 0.719732 -0.0259738
v 24.7284 -118.775 1508.52
vn -0.579544 0.740519 -0.340236
v 25.1944 -118.363 1507.49
vn -0.0904021 -0.46506 -0.880651
v 25.925 -127.427 1493.9
vn -0.181245 -0.932388 0.312735
v 25.925 -127.427 1493.9
vn -0.73464 -0.665774 0.130572
v 25.9757 -127.253 1494.1
vn 0.250137 -0.89695 0.364572
v 26.1817 -127.477 1493.9
vn 0.791681 -0.285289 -0.540232
v 26.1817 -127.477 1493.9
vn -0.0904021 -0.46506 -0.880651
v 26.1817 -127.221 1493.76
vn -0.698494 0.304541 -0.64758
v 26.1817 -127.221 1493.76
vn -0.943186 0.320678 0.0869829
v 26.1817 -127.221 1493.76
vn 0.645024 -0.368719 -0.669321
v 26.1817 -127.221 1493.76
vn 0.804748 -0.461205 -0.373724
v 26.1817 -127.221 1493.76
vn -0.817836 0.530901 -0.222011
v 25.9064 -127.015 1494.93
vn -0.793367 -0.033746 0.607807
v 25.9064 -127.015 1494.93
vn 0.139382 -0.877899 0.458111
v 25.9757 -127.091 1494.93
vn -0.702517 -0.636663 0.318009
v 25.9757 -127.091 1494.93
vn -0.793367 -0.033746 0.607807
v 25.9757 -127.015 1495.02
vn 0.272117 -0.722871 0.635145
v 25.9757 -127.015 1495.02
vn -0.300755 -0.353822 0.885639
v 25.9757 -127.015 1495.02
vn -0.324446 -0.912829 -0.247949
v 25.5637 -125.573 1492.74
vn 0.232377 0.319378 -0.918694
v 25.5637 -125.573 1492.74
vn 0.333618 0.20465 -0.920227
v 26.0449 -125.779 1492.87
vn 0.454651 -0.821424 -0.344319
v 26.0449 -125.779 1492.87
vn 0.645571 -0.177584 -0.742766
v 26.0449 -125.779 1492.87
vn -0.303342 -0.582457 0.75414
v 26.513 -125.779 1493.48
vn -0.37964 -0.855566 -0.351967
v 26.513 -125.779 1493.48
vn 0.454651 -0.821424 -0.344319
v 26.513 -125.779 1493.48
vn -0.944324 0.177195 0.277225
v 26.513 -125.779 1493.48
vn 0.249237 -0.450299 -0.857387
v 26.513 -125.779 1493.48
vn -0.769184 -0.316634 0.555066
v 26.513 -125.779 1493.48
vn -0.37964 -0.855566 -0.351967
v 26.5953 -125.985 1493.9
vn -0.949035 0.240845 0.203291
v 26.5953 -125.985 1493.9
vn -0.37964 -0.855566 -0.351967
v 26.7997 -125.985 1493.68
vn 0.526325 -0.399946 -0.75035
v 26.7997 -125.985 1493.68
vn 0.577982 -0.316953 -0.751982
v 26.7997 -125.62 1493.48
vn -0.793367 -0.033746 0.607807
v 26.1958 -126.397 1495.34
vn -0.300755 -0.353822 0.885639
v 26.1958 -126.397 1495.34
vn -0.647656 -0.761933 -0.000419777
v 26.1958 -126.397 1495.34
vn -0.647656 -0.761933 -0.000419777
v 26.1953 -126.397 1496.16
vn -0.819151 0.573577 -0.000530931
v 26.1953 -126.397 1496.16
vn 0.569867 -0.729077 0.379075
v 26.1953 -126.397 1496.16
vn -0.807134 0.543951 -0.229461
v 26.1817 -125.985 1496.26
vn -0.300755 -0.353822 0.885639
v 26.3876 -126.56 1495.34
vn -0.647656 -0.761933 -0.000419777
v 26.3876 -126.56 1495.34
vn -0.87321 0.466102 -0.142312
v 26.9171 -125.367 1495.13
vn -0.854375 0.0864188 -0.512421
v 26.9171 -125.367 1495.13
vn 0.601616 -0.645827 0.470071
v 26.0539 -125.779 1497.19
vn -0.834143 0.490929 -0.251385
v 26.0539 -125.779 1497.19
vn -0.836587 -0.299389 0.458789
v 26.0539 -125.779 1497.19
vn -0.0137085 -0.999878 0.0075178
v 26.0539 -125.779 1497.19
vn -0.839812 0.475377 -0.262171
v 26.0931 -125.573 1497.4
vn -0.0137085 -0.999878 0.0075178
v 26.1817 -125.779 1497.43
vn 0.570409 -0.738925 0.358641
v 26.1817 -125.779 1497.43
vn -0.821349 0.504479 -0.266247
v 25.9757 -125.367 1498.2
vn -0.969476 -0.237173 0.0621658
v 25.9757 -125.367 1498.2
vn -0.722858 -0.639824 -0.260962
v 25.9757 -125.091 1499.25
vn -0.130534 -0.861104 0.491387
v 25.9757 -125.091 1499.25
vn -0.699326 -0.691445 0.181236
v 25.9757 -125.091 1499.25
vn 0.584001 -0.735889 0.34265
v 25.9757 -125.091 1499.25
vn -0.572754 0.727502 -0.377749
v 25.7157 -124.955 1493.69
vn -0.672259 -0.300944 0.676387
v 27.1296 -124.749 1494.93
vn -0.722858 -0.639824 -0.260962
v 25.929 -124.955 1499.05
vn -0.845765 0.446836 -0.29158
v 25.929 -124.955 1499.05
vn -0.130534 -0.861104 0.491387
v 25.7696 -124.943 1499.46
vn -0.794863 0.557288 -0.240046
v 25.7696 -124.943 1499.46
vn -0.805171 0.521688 -0.282031
v 25.9757 -124.749 1499.23
vn 0.204647 -0.926827 0.314819
v 25.9757 -124.749 1499.23
vn -0.760642 0.632369 -0.146744
v 26.1817 -124.065 1501.11
vn 0.442143 -0.815834 0.372726
v 26.1817 -124.065 1501.11
vn -0.287938 0.0249431 0.957324
v 25.566 -123.719 1501.93
vn -0.772884 0.545141 -0.324764
v 25.566 -123.719 1501.93
vn 0.367469 -0.849516 0.378536
v 25.566 -123.719 1501.93
vn -0.926179 -0.0995318 0.363711
v 25.566 -123.719 1501.93
vn -0.0423476 -0.67738 -0.734413
v 25.5637 -123.566 1502.75
vn 0.624485 -0.765031 -0.157313
v 25.5637 -123.566 1502.75
vn -0.926179 -0.0995318 0.363711
v 25.7696 -123.355 1502.55
vn -0.0423476 -0.67738 -0.734413
v 25.7696 -123.355 1502.55
vn 0.624485 -0.765031 -0.157313
v 25.7696 -123.355 1502.55
vn -0.429053 -0.0461082 -0.902102
v 25.7696 -123.355 1502.55
vn -0.587274 0.729816 -0.349968
v 26.9044 -123.307 1495.13
vn -0.672623 0.715743 0.187856
v 26.9044 -123.307 1495.13
vn -0.926179 -0.0995318 0.363711
v 25.7423 -123.101 1502.55
vn -0.429053 -0.0461082 -0.902102
v 25.7423 -123.101 1502.55
vn 0.536315 -0.741391 0.403367
v 27.0056 -122.912 1502.34
vn 0.548434 -0.783369 0.292495
v 27.0056 -122.912 1502.34
vn -0.646956 0.280893 0.708906
v 25.5637 -122.34 1504.4
vn 0.411736 -0.730038 0.545452
v 25.5637 -122.34 1504.4
vn 0.144206 -0.907472 -0.394587
v 25.5637 -122.34 1504.4
vn 0.515482 -0.649822 0.558579
v 25.7696 -118.981 1509.26
vn -0.398002 0.457865 0.794955
v 25.7696 -118.981 1509.26
vn 0.0207441 -0.441926 0.896812
v 25.7696 -118.981 1509.26
vn 0.38573 -0.870939 0.304429
v 26.1817 -118.981 1509.24
vn 0.017143 -0.333201 0.9427
v 27.0056 -118.667 1509.35
vn -0.706703 0.698617 0.111824
v 26.6441 -116.921 1508.73
vn 0.79366 -0.601062 -0.0939567
v 27.6236 -125.816 1495.13
vn -0.0137085 -0.999878 0.0075178
v 27.6236 -125.816 1495.13
vn 0.139973 0.438292 -0.887867
v 28.4477 -122.277 1494.71
vn -0.911406 -0.0371931 0.409824
v 27.6236 -122.847 1495.96
vn -0.781352 0.623211 0.033121
v 27.6236 -122.847 1495.96
vn -0.670344 0.715897 -0.195271
v 28.0357 -122.298 1495.34
vn 0.592735 -0.789013 0.161628
v 27.8033 -121.865 1503.37
vn 0.489399 -0.74931 0.44612
v 27.8033 -121.865 1503.37
vn -0.971419 0.0046659 0.237325
v 28.298 -121.247 1497.81
vn -0.987901 0.154485 -0.0136459
v 28.4477 -120.423 1498.99
vn 0.130369 -0.28722 0.948951
v 28.2416 -118.775 1507.45
vn 0.00174097 -0.27764 0.960684
v 27.5565 -117.951 1509.55
vn 0.454733 -0.622321 0.63713
v 27.5565 -117.951 1509.55
vn -0.242976 0.00970461 0.969984
v 27.5565 -117.951 1509.55
vn -0.711039 0.601376 0.364377
v 28.1927 -115.479 1509.14
vn 0.695545 -0.186898 -0.693748
v 28.8596 -122.689 1494.57
vn 0.680804 -0.656349 -0.325134
v 28.8596 -120.991 1503.58
vn 0.738428 -0.650443 -0.177899
v 29.8897 -119.761 1503.58
vn 0.689982 -0.561482 -0.456796
v 30.4249 -118.981 1504.4
vn 0.632711 0.0310164 -0.773767
v 31.9496 -118.775 1497.12
vn -0.239685 0.733011 -0.636589
v 31.9496 -118.775 1497.12
vn 0.856626 -0.513879 -0.0460451
v 30.5924 -118.981 1504.61
vn 0.807441 -0.542482 -0.231844
v 31.1807 -117.951 1504.4
vn 0.20011 -0.49713 0.844285
v 31.1257 -114.655 1510.41
vn -0.65691 0.418988 0.626832
v 30.7136 -112.751 1509.96
vn -0.581899 0.716482 -0.384769
v 30.7136 -112.751 1509.96
vn -0.68223 0.584485 0.439249
v 31.3316 -112.184 1510.17
vn -0.0307152 0.799041 0.600491
v 31.3316 -112.184 1510.17
vn -0.279317 0.0131344 0.960109
v 31.3316 -112.389 1510.44
vn -0.0307152 0.799041 0.600491
v 31.3316 -112.389 1510.44
vn 0.298261 0.491278 0.818343
v 31.3316 -112.389 1510.44
vn 0.881737 -0.0293374 -0.470829
v 33.39 -118.569 1499.46
vn -0.660481 0.717886 0.220011
v 32.8034 -117.333 1498.84
vn 0.873656 0.0516731 -0.483793
v 33.2516 -118.157 1499.25
vn -0.343683 0.852449 -0.39397
v 33.1856 -117.148 1499.05
vn 0.634205 0.272348 -0.72361
v 33.5976 -117.012 1498.63
vn 0.851302 0.0240033 -0.524127
v 33.7473 -117.745 1500.08
vn 0.420511 -0.770375 0.479263
v 32.5018 -116.097 1505.43
vn 0.836569 -0.547675 0.01433
v 33.1856 -114.898 1507.29
vn -0.315258 0.0165454 0.948862
v 32.3617 -113.625 1510.81
vn 0.30581 0.4045 0.861893
v 32.3617 -113.625 1510.81
vn 0.597346 -0.620782 0.507748
v 33.0128 -113.419 1510.38
vn 0.576659 -0.14303 0.804368
v 33.0128 -113.419 1510.38
vn 0.148182 0.461038 0.87492
v 32.7737 -111.51 1509.35
vn -0.512598 0.855505 -0.0731781
v 32.7737 -111.51 1509.35
vn -0.308076 0.821041 0.480605
v 32.7737 -111.51 1509.35
vn -0.559464 0.716196 0.417209
v 33.5976 -111.08 1509.14
vn -0.509079 0.758282 0.407243
v 33.6312 -110.947 1508.93
vn -0.16865 0.936101 -0.308661
v 33.8036 -116.839 1499.05
vn -0.406821 0.813647 -0.415302
v 33.8036 -116.839 1499.05
vn 0.44385 0.586358 -0.67763
v 33.8036 -116.839 1499.05
vn 0.576659 -0.14303 0.804368
v 34.0097 -112.875 1509.76
vn 0.0871993 -0.174403 0.980806
v 34.0097 -112.875 1509.76
vn 0.576659 -0.14303 0.804368
v 34.0097 -112.595 1509.81
vn 0.0871993 -0.174403 0.980806
v 34.0097 -112.595 1509.81
vn 0.0871993 -0.174403 0.980806
v 34.4216 -112.389 1509.81
vn -0.472234 0.215901 0.854624
v 34.4216 -112.389 1509.81
vn -0.717008 0.585122 0.378856
v 34.2156 -110.437 1509.14
vn -0.500905 0.167286 0.849182
v 34.258 -110.535 1509.35
vn -0.4806 0.767053 -0.425034
v 34.7119 -109.917 1509.55
vn -0.713655 0.0545503 0.69837
v 34.7119 -109.917 1509.55
vn 0.0482721 -0.581751 0.811933
v 35.4516 -111.359 1510.54
vn -0.386772 -0.416575 0.822723
v 35.4516 -109.711 1510.52
vn -0.466207 -0.444385 0.764966
v 36.8937 -110.118 1510.99
vn -0.58092 -0.386854 0.716154
v 36.6378 -107.033 1512.44
vn -0.675916 0.684483 -0.273168
v 36.6378 -107.033 1512.44
vn -0.3204 -0.680162 0.659336
v 38.5416 -108.389 1513.05
vn -0.717811 -0.258985 0.646277
v 37.5117 -105.553 1514.08
vn -0.439671 0.691211 0.573513
v 37.5117 -105.553 1514.08
vn -0.536465 0.843383 -0.0301833
v 37.7177 -105.422 1514.08
vn -0.404696 0.70407 0.583529
v 37.7177 -105.422 1514.08
vn -0.404696 0.70407 0.583529
v 37.7208 -105.591 1514.29
vn -0.150335 0.122558 0.981009
v 37.7208 -105.591 1514.29
vn 0.546048 0.830585 0.109363
v 37.9236 -105.486 1514.29
vn -0.0981894 0.190431 0.976778
v 37.9236 -105.486 1514.29
vn 0.706018 0.648606 0.28434
v 38.5416 -106.209 1514.49
vn 0.55582 0.354918 -0.75173
v 39.0454 -111.977 1504.81
vn -0.140842 -0.739484 0.658276
v 38.7541 -113.007 1506.87
vn 0.603683 -0.774112 0.190573
v 40.1237 -111.359 1506.05
vn 0.746475 0.20591 -0.632753
v 40.1237 -111.359 1506.05
vn 0.940489 -0.305573 -0.14868
v 40.1237 -111.359 1506.05
vn 0.295219 0.0739444 0.952564
v 39.3657 -107.033 1514.14
vn 0.412743 0.701948 0.580442
v 39.5717 -107.239 1514.13
vn 0.178274 0.550925 0.815292
v 40.1897 -107.857 1514.41
vn 0.213392 -0.0456848 0.975898
v 40.1897 -107.857 1514.41
vn 0.940489 -0.305573 -0.14868
v 40.3956 -110.822 1506.67
vn 0.940489 -0.305573 -0.14868
v 40.6194 -110.535 1507.49
vn 0.890109 0.155232 -0.428495
v 40.6194 -110.535 1507.49
vn 0.873415 -0.0328741 -0.485867
v 40.7417 -110.329 1507.7
vn 0.993346 0.0806273 -0.0822394
v 40.7417 -110.329 1507.7
vn 0.657466 0.619561 -0.428815
v 40.7417 -110.329 1507.7
vn 0.998515 0.0299552 -0.045505
v 40.7587 -110.329 1507.9
vn 0.972713 -0.230806 0.023629
v 40.6194 -110.535 1510.38
vn 0.670515 -0.727174 0.147064
v 40.7964 -109.711 1510.79
vn 0.998613 -0.0049291 -0.0524208
v 40.8077 -108.83 1509.96
vn 0.795317 0.592088 -0.13001
v 40.9573 -108.475 1511.82
vn 0.213392 -0.0456848 0.975898
v 40.3956 -108.063 1514.36
vn 0.49284 -0.554233 0.670771
v 40.3956 -108.063 1514.36
vn 0.74382 -0.0312547 0.667649
v 40.3956 -108.063 1514.36
vn 0.213392 -0.0456848 0.975898
v 40.3956 -107.857 1514.37
vn 0.74382 -0.0312547 0.667649
v 40.3956 -107.857 1514.37
vn 0.898934 0.349025 0.264762
v 40.8189 -108.269 1513.88
vn 0.74382 -0.0312547 0.667649
v 40.8189 -108.269 1513.88
vn 0.883174 0.468437 -0.0238943
v 41.0603 -108.475 1512.85
f 50//50 1//1 92//92
f 242//242 67//67 66//66
f 1//1 395//395 92//92
f 3//3 75//75 4//4
f 72//72 2//2 74//74
f 244//244 79//79 405//405
f 6//6 249//249 5//5
f 10//10 12//12 11//11
f 250//250 80//80 252//252
f 253//253 421//421 254//254
f 101//101 255//255 7//7
f 101//101 251//251 255//255
f 256//256 254//254 421//421
f 96//96 4//4 75//75
f 4//4 96//96 422//422
f 96//96 112//112 422//422
f 265//265 257//257 423//423
f 16//16 13//13 17//17
f 267//267 8//8 7//7
f 11//11 12//12 259//259
f 260//260 15//15 9//9
f 274//274 261//261 263//263
f 270//270 275//275 264//264
f 10//10 11//11 258//258
f 266//266 14//14 268//268
f 15//15 260//260 271//271
f 272//272 262//262 269//269
f 14//14 112//112 273//273
f 7//7 8//8 276//276
f 29//29 277//277 278//278
f 279//279 270//270 30//30
f 25//25 24//24 18//18
f 21//21 20//20 19//19
f 23//23 292//292 286//286
f 281//281 297//297 26//26
f 27//27 282//282 301//301
f 22//22 283//283 304//304
f 20//20 21//21 28//28
f 293//293 305//305 310//310
f 284//284 294//294 312//312
f 312//312 294//294 295//295
f 296//296 22//22 304//304
f 292//292 23//23 306//306
f 40//40 312//312 295//295
f 285//285 313//313 299//299
f 311//311 36//36 290//290
f 316//316 314//314 280//280
f 317//317 300//300 315//315
f 298//298 102//102 302//302
f 440//440 307//307 303//303
f 308//308 117//117 311//311
f 117//117 36//36 311//311
f 38//38 32//32 31//31
f 324//324 287//287 33//33
f 288//288 32//32 40//40
f 33//33 34//34 324//324
f 328//328 319//319 325//325
f 320//320 329//329 35//35
f 32//32 38//38 40//40
f 330//330 85//85 321//321
f 291//291 326//326 289//289
f 327//327 290//290 36//36
f 40//40 295//295 288//288
f 36//36 329//329 327//327
f 35//35 329//329 36//36
f 424//424 35//35 36//36
f 40//40 41//41 37//37
f 332//332 322//322 39//39
f 425//425 333//333 323//323
f 334//334 332//332 39//39
f 333//333 425//425 335//335
f 425//425 89//89 335//335
f 45//45 42//42 43//43
f 47//47 43//43 42//42
f 338//338 343//343 44//44
f 341//341 350//350 339//339
f 341//341 49//49 350//350
f 60//60 43//43 56//56
f 340//340 351//351 46//46
f 351//351 48//48 46//46
f 43//43 348//348 56//56
f 349//349 352//352 371//371
f 353//353 350//350 49//49
f 49//49 59//59 353//353
f 354//354 378//378 372//372
f 341//341 91//91 49//49
f 355//355 51//51 243//243
f 109//109 357//357 356//356
f 243//243 51//51 52//52
f 67//67 242//242 360//360
f 54//54 344//344 53//53
f 361//361 368//368 366//366
f 367//367 345//345 69//69
f 43//43 60//60 45//45
f 362//362 358//358 55//55
f 363//363 367//367 69//69
f 380//380 69//69 345//345
f 445//445 370//370 359//359
f 369//369 90//90 346//346
f 370//370 90//90 369//369
f 364//364 370//370 369//369
f 396//396 68//68 365//365
f 430//430 342//342 347//347
f 445//445 90//90 370//370
f 58//58 57//57 61//61
f 373//373 379//379 374//374
f 375//375 60//60 56//56
f 58//58 381//381 57//57
f 376//376 91//91 382//382
f 91//91 59//59 49//49
f 59//59 91//91 376//376
f 377//377 383//383 380//380
f 63//63 62//62 384//384
f 62//62 63//63 64//64
f 385//385 431//431 387//387
f 380//380 383//383 386//386
f 380//380 386//386 389//389
f 390//390 65//65 70//70
f 71//71 397//397 391//391
f 392//392 73//73 399//399
f 64//64 63//63 393//393
f 67//67 360//360 68//68
f 67//67 68//68 66//66
f 68//68 77//77 66//66
f 68//68 93//93 77//77
f 94//94 395//395 415//415
f 380//380 389//389 95//95
f 400//400 401//401 398//398
f 401//401 400//400 403//403
f 389//389 398//398 401//401
f 388//388 404//404 394//394
f 95//95 389//389 401//401
f 388//388 419//419 404//404
f 402//402 404//404 245//245
f 404//404 419//419 245//245
f 401//401 406//406 78//78
f 76//76 407//407 420//420
f 417//417 408//408 411//411
f 412//412 409//409 246//246
f 95//95 401//401 78//78
f 413//413 97//97 410//410
f 247//247 418//418 414//414
f 251//251 95//95 78//78
f 251//251 78//78 248//248
f 95//95 251//251 101//101
f 76//76 420//420 436//436
f 422//422 112//112 266//266
f 7//7 276//276 101//101
f 437//437 96//96 75//75
f 112//112 14//14 266//266
f 276//276 312//312 101//101
f 312//312 82//82 101//101
f 273//273 81//81 264//264
f 30//30 270//270 81//81
f 112//112 81//81 273//273
f 270//270 264//264 81//81
f 24//24 25//25 318//318
f 309//309 102//102 117//117
f 30//30 102//102 298//298
f 105//105 101//101 84//84
f 118//118 101//101 105//105
f 312//312 40//40 82//82
f 82//82 40//40 37//37
f 82//82 37//37 41//41
f 83//83 82//82 337//337
f 84//84 82//82 104//104
f 104//104 82//82 83//83
f 84//84 101//101 82//82
f 426//426 331//331 86//86
f 103//103 427//427 36//36
f 103//103 87//87 427//427
f 87//87 88//88 427//427
f 86//86 428//428 426//426
f 103//103 36//36 117//117
f 103//103 88//88 87//87
f 429//429 337//337 336//336
f 107//107 337//337 429//429
f 430//430 347//347 90//90
f 445//445 110//110 90//90
f 93//93 68//68 396//396
f 69//69 380//380 95//95
f 95//95 433//433 69//69
f 109//109 356//356 432//432
f 434//434 435//435 416//416
f 434//434 98//98 435//435
f 94//94 92//92 395//395
f 433//433 95//95 438//438
f 437//437 111//111 96//96
f 144//144 98//98 99//99
f 438//438 95//95 439//439
f 101//101 439//439 95//95
f 99//99 156//156 144//144
f 99//99 101//101 156//156
f 111//111 112//112 96//96
f 100//100 446//446 436//436
f 436//436 420//420 100//100
f 30//30 81//81 102//102
f 83//83 337//337 104//104
f 105//105 84//84 104//104
f 117//117 102//102 171//171
f 106//106 89//89 425//425
f 441//441 426//426 428//428
f 117//117 88//88 103//103
f 117//117 442//442 88//88
f 130//130 104//104 337//337
f 106//106 108//108 89//89
f 429//429 444//444 107//107
f 134//134 107//107 444//444
f 106//106 454//454 108//108
f 90//90 110//110 430//430
f 430//430 119//119 388//388
f 432//432 120//120 109//109
f 445//445 449//449 110//110
f 119//119 152//152 388//388
f 111//111 113//113 114//114
f 446//446 100//100 447//447
f 100//100 420//420 447//447
f 111//111 114//114 112//112
f 127//127 101//101 118//118
f 419//419 122//122 113//113
f 115//115 112//112 114//114
f 112//112 115//115 123//123
f 116//116 115//115 114//114
f 115//115 448//448 123//123
f 123//123 81//81 112//112
f 126//126 171//171 102//102
f 102//102 81//81 126//126
f 118//118 105//105 129//129
f 105//105 104//104 131//131
f 337//337 107//107 130//130
f 442//442 117//117 132//132
f 130//130 107//107 455//455
f 106//106 136//136 454//454
f 133//133 458//458 443//443
f 137//137 430//430 110//110
f 137//137 138//138 430//430
f 144//144 435//435 98//98
f 419//419 388//388 152//152
f 448//448 125//125 123//123
f 113//113 122//122 114//114
f 122//122 116//116 114//114
f 122//122 124//124 116//116
f 448//448 452//452 125//125
f 122//122 419//419 121//121
f 122//122 121//121 152//152
f 152//152 121//121 419//419
f 152//152 124//124 122//122
f 452//452 153//153 125//125
f 152//152 467//467 124//124
f 101//101 127//127 156//156
f 128//128 127//127 118//118
f 171//171 126//126 157//157
f 157//157 126//126 81//81
f 129//129 105//105 131//131
f 128//128 118//118 129//129
f 164//164 131//131 104//104
f 130//130 164//164 104//104
f 132//132 453//453 442//442
f 132//132 158//158 453//453
f 469//469 458//458 133//133
f 163//163 455//455 135//135
f 136//136 456//456 454//454
f 455//455 163//163 130//130
f 459//459 162//162 457//457
f 138//138 143//143 430//430
f 148//148 137//137 110//110
f 148//148 110//110 449//449
f 430//430 143//143 119//119
f 138//138 141//141 143//143
f 137//137 139//139 138//138
f 138//138 139//139 140//140
f 138//138 140//140 461//461
f 119//119 178//178 152//152
f 178//178 119//119 179//179
f 119//119 143//143 142//142
f 179//179 119//119 142//142
f 142//142 143//143 151//151
f 142//142 151//151 179//179
f 143//143 141//141 151//151
f 146//146 450//450 92//92
f 137//137 148//148 139//139
f 146//146 92//92 94//94
f 435//435 144//144 145//145
f 146//146 94//94 462//462
f 450//450 146//146 150//150
f 146//146 149//149 168//168
f 146//146 462//462 149//149
f 464//464 145//145 144//144
f 146//146 478//478 150//150
f 140//140 139//139 147//147
f 465//465 148//148 449//449
f 464//464 144//144 177//177
f 463//463 461//461 140//140
f 463//463 466//466 461//461
f 139//139 148//148 147//147
f 147//147 179//179 151//151
f 465//465 167//167 148//148
f 479//479 464//464 177//177
f 147//147 148//148 179//179
f 125//125 153//153 468//468
f 451//451 125//125 468//468
f 81//81 123//123 157//157
f 177//177 144//144 156//156
f 127//127 155//155 156//156
f 155//155 127//127 154//154
f 154//154 127//127 128//128
f 155//155 154//154 173//173
f 173//173 154//154 128//128
f 173//173 156//156 155//155
f 131//131 128//128 129//129
f 169//169 117//117 171//171
f 169//169 132//132 117//117
f 171//171 157//157 178//178
f 159//159 158//158 132//132
f 470//470 161//161 160//160
f 169//169 159//159 132//132
f 159//159 471//471 158//158
f 128//128 131//131 173//173
f 130//130 163//163 164//164
f 473//473 170//170 165//165
f 160//160 161//161 460//460
f 160//160 460//460 470//470
f 161//161 473//473 460//460
f 161//161 170//170 473//473
f 169//169 471//471 159//159
f 481//481 483//483 472//472
f 164//164 173//173 131//131
f 163//163 135//135 474//474
f 164//164 163//163 166//166
f 474//474 166//166 163//163
f 477//477 475//475 476//476
f 167//167 465//465 480//480
f 167//167 480//480 177//177
f 467//467 178//178 157//157
f 467//467 152//152 178//178
f 177//177 156//156 173//173
f 178//178 182//182 171//171
f 169//169 171//171 172//172
f 482//482 485//485 484//484
f 486//486 165//165 170//170
f 171//171 182//182 172//172
f 164//164 166//166 174//174
f 487//487 477//477 476//476
f 476//476 175//175 487//487
f 175//175 176//176 487//487
f 173//173 164//164 174//174
f 173//173 174//174 489//489
f 486//486 490//490 488//488
f 165//165 486//486 488//488
f 490//490 486//486 180//180
f 491//491 172//172 182//182
f 180//180 183//183 490//490
f 490//490 183//183 185//185
f 179//179 148//148 187//187
f 178//178 179//179 204//204
f 202//202 148//148 167//167
f 187//187 148//148 202//202
f 181//181 491//491 182//182
f 183//183 180//180 181//181
f 182//182 184//184 181//181
f 181//181 184//184 183//183
f 178//178 189//189 182//182
f 184//184 182//182 189//189
f 492//492 493//493 494//494
f 495//495 173//173 489//489
f 177//177 173//173 192//192
f 173//173 495//495 192//192
f 187//187 186//186 179//179
f 179//179 186//186 204//204
f 506//506 167//167 177//177
f 187//187 203//203 186//186
f 507//507 188//188 178//178
f 178//178 188//188 190//190
f 189//189 190//190 184//184
f 493//493 496//496 200//200
f 190//190 189//189 178//178
f 177//177 192//192 210//210
f 493//493 200//200 494//494
f 494//494 200//200 191//191
f 192//192 495//495 193//193
f 494//494 191//191 497//497
f 497//497 191//191 195//195
f 194//194 210//210 192//192
f 192//192 193//193 499//499
f 501//501 500//500 498//498
f 196//196 201//201 502//502
f 191//191 196//196 195//195
f 210//210 194//194 197//197
f 501//501 198//198 500//500
f 194//194 503//503 197//197
f 502//502 201//201 504//504
f 197//197 224//224 210//210
f 191//191 200//200 196//196
f 197//197 199//199 224//224
f 503//503 199//199 197//197
f 201//201 196//196 200//200
f 199//199 503//503 505//505
f 212//212 201//201 200//200
f 199//199 213//213 224//224
f 213//213 199//199 505//505
f 186//186 203//203 205//205
f 187//187 202//202 207//207
f 203//203 187//187 508//508
f 231//231 205//205 203//203
f 204//204 186//186 205//205
f 205//205 230//230 204//204
f 209//209 204//204 230//230
f 206//206 177//177 210//210
f 206//206 506//506 177//177
f 506//506 206//206 208//208
f 206//206 226//226 208//208
f 226//226 206//206 210//210
f 227//227 203//203 508//508
f 506//506 208//208 509//509
f 208//208 226//226 225//225
f 509//509 208//208 225//225
f 510//510 515//515 516//516
f 507//507 209//209 188//188
f 188//188 209//209 496//496
f 209//209 214//214 496//496
f 214//214 209//209 219//219
f 209//209 221//221 219//219
f 226//226 210//210 232//232
f 232//232 210//210 224//224
f 224//224 239//239 235//235
f 214//214 200//200 496//496
f 211//211 200//200 214//214
f 211//211 212//212 200//200
f 217//217 211//211 214//214
f 211//211 215//215 212//212
f 212//212 215//215 216//216
f 218//218 213//213 512//512
f 216//216 511//511 212//212
f 224//224 218//218 239//239
f 213//213 218//218 224//224
f 217//217 214//214 219//219
f 217//217 219//219 220//220
f 220//220 211//211 217//217
f 220//220 215//215 211//211
f 220//220 219//219 221//221
f 215//215 220//220 222//222
f 222//222 216//216 215//215
f 218//218 512//512 223//223
f 512//512 238//238 223//223
f 513//513 238//238 512//512
f 237//237 220//220 221//221
f 222//222 220//220 237//237
f 526//526 529//529 514//514
f 218//218 223//223 239//239
f 511//511 201//201 212//212
f 225//225 226//226 517//517
f 229//229 203//203 227//227
f 229//229 227//227 228//228
f 518//518 517//517 226//226
f 229//229 523//523 203//203
f 231//231 521//521 524//524
f 524//524 521//521 519//519
f 209//209 230//230 234//234
f 520//520 226//226 232//232
f 524//524 236//236 231//231
f 205//205 231//231 522//522
f 231//231 236//236 522//522
f 232//232 235//235 525//525
f 522//522 236//236 241//241
f 233//233 221//221 209//209
f 237//237 221//221 233//233
f 233//233 209//209 234//234
f 241//241 234//234 522//522
f 235//235 232//232 224//224
f 235//235 533//533 525//525
f 527//527 233//233 240//240
f 531//531 239//239 238//238
f 528//528 532//532 530//530
f 239//239 223//223 238//238
f 234//234 240//240 233//233
f 240//240 234//234 241//241
f 239//239 531//531 533//533
f 235//235 239//239 533//533
