# Wavafront OBJ file of BodyParts3D
# BodyParts3D, Copyright(C) 2010-2011 The Database Center for Life Science licensed under CC Attribution-Share Alike 2.1 Japan.
vn -0.813359 -0.546488 0.199495
v -42.2492 -109.299 1509.96
vn -0.997216 -0.0743725 0.00546742
v -42.315 -108.887 1510.38
vn -0.98982 -0.11134 -0.0886549
v -42.183 -109.711 1510.99
vn -0.828148 -0.537002 0.160623
v -42.075 -109.299 1510.38
vn -0.988847 -0.0825821 -0.123946
v -42.1154 -109.093 1511.41
vn -0.917927 -0.323122 0.230221
v -42.2104 -108.902 1513.05
vn -0.575158 0.746749 -0.334005
v -42.0193 -108.269 1510.99
vn -0.975375 -0.21638 0.0427063
v -42.2474 -108.475 1511.82
vn -0.903345 0.414644 -0.109721
v -42.2345 -108.269 1511.61
vn -0.998779 0.0488879 0.00704242
v -42.3504 -108.475 1512.85
vn -0.902676 -0.065646 0.425283
v -42.1057 -108.269 1513.88
vn -0.854438 0.509662 0.100901
v -42.0703 -107.857 1513.47
vn -0.803915 -0.399476 -0.440612
v -40.6509 -111.977 1505.23
vn -0.615242 -0.772713 0.15618
v -40.7684 -111.866 1505.84
vn -0.891037 -0.199268 -0.407855
v -40.638 -112.595 1506.67
vn -0.857697 -0.474668 -0.197601
v -40.6895 -111.977 1506.46
vn -0.460288 -0.858995 0.224192
v -40.5624 -112.738 1507.08
vn 0.0427103 -0.820945 0.569407
v -40.5624 -112.389 1507.64
vn -0.600573 -0.797505 0.0574274
v -41.2399 -111.565 1505.84
vn -0.721063 0.322928 -0.613013
v -41.3716 -111.153 1506.05
vn -0.705635 0.116063 -0.699005
v -40.9373 -111.565 1505.43
vn -0.447144 0.5767 -0.683724
v -40.9743 -111.153 1505.7
vn -0.927613 -0.326968 -0.180624
v -41.8032 -110.741 1506.87
vn -0.448089 -0.837344 0.313163
v -41.5924 -111.153 1506.7
vn -0.412253 0.731167 -0.543546
v -41.3863 -110.329 1506.88
vn -0.959999 -0.227227 -0.163617
v -41.5199 -111.565 1508.52
vn -0.958003 -0.104259 -0.267135
v -41.4716 -110.947 1508.11
vn -0.783895 -0.609246 0.119699
v -41.5924 -110.517 1508.11
vn -0.884012 -0.449539 0.128208
v -41.7984 -110.585 1510.58
vn -0.174239 -0.86754 0.465849
v -41.3863 -111.153 1509.65
vn -0.274638 -0.783391 0.557559
v -42.0043 -108.509 1513.88
vn 0.000993753 -0.824842 0.565362
v -41.7984 -108.727 1513.67
vn -0.641397 0.757485 -0.121765
v -42.0043 -107.857 1512.27
vn -0.737425 -0.137429 0.6613
v -41.8131 -107.857 1514.29
vn -0.0223704 -0.570693 0.820859
v -41.7984 -108.269 1514.22
vn -0.602784 0.78841 0.122728
v -41.7984 -107.614 1513.67
vn 0.389704 -0.570381 0.723047
v -41.3863 -108.068 1514.29
vn -0.0876016 -0.330826 0.939617
v -41.3863 -107.857 1514.41
vn 0.420369 -0.478385 0.770998
v -40.7684 -107.445 1514.12
vn -0.622813 0.739314 0.255967
v -40.7684 -107.116 1514.08
vn -0.606751 0.794066 -0.0362387
v -40.7684 -106.925 1513.05
vn 0.34703 -0.693606 0.631254
v -40.5624 -108.269 1513.49
vn -0.800601 -0.573047 -0.175087
v -39.1203 -113.556 1504.2
vn -0.728944 -0.683972 -0.028682
v -39.2121 -113.625 1505.02
vn -0.484221 -0.853427 0.192852
v -39.3264 -113.559 1506.05
vn 0.147464 0.814319 -0.561372
v -39.3264 -112.183 1504.04
vn -0.826118 -0.319886 -0.463899
v -38.8194 -113.419 1503.17
vn -0.690673 -0.723024 -0.0144061
v -40.3563 -112.281 1505.23
vn -0.684349 0.111048 -0.720649
v -40.1133 -112.183 1504.61
vn -0.212567 -0.812038 0.543516
v -39.1203 -110.123 1510.28
vn 0.516786 -0.471536 0.714553
v -39.3264 -108.652 1512.64
vn 0.341798 -0.511539 0.788354
v -39.9444 -107.033 1514.13
vn 0.461406 -0.414713 0.784294
v -39.7383 -106.415 1514.41
vn -0.32216 0.865391 -0.383811
v -39.5324 -106.111 1512.85
vn -0.545797 0.81177 0.207689
v -39.3968 -105.591 1514.29
vn -0.471873 0.867218 -0.158962
v -39.3264 -105.55 1514.08
vn -0.278801 0.404584 0.870966
v -39.1203 -105.591 1514.38
vn 0.562336 -0.433874 0.70394
v -38.7695 -105.591 1514.08
vn 0.212877 0.806186 -0.55204
v -38.9144 -105.413 1514.08
vn -0.511758 0.0962497 0.853721
v -39.9493 -106.415 1514.5
vn -0.849614 -0.121049 -0.513326
v -37.1135 -115.067 1501.11
vn -0.709393 0.064485 -0.701857
v -38.0904 -113.831 1502.29
vn -0.823762 -0.129687 -0.551904
v -37.3903 -115.067 1501.52
vn -0.693855 0.226329 -0.683623
v -37.2663 -114.687 1501.52
vn -0.488575 -0.801171 0.345573
v -37.6784 -114.895 1504.81
vn 0.620253 -0.349183 0.702394
v -38.2964 -110.137 1510.99
vn -0.489431 -0.766668 0.415545
v -37.0697 -111.359 1510.38
vn -0.404948 -0.791772 0.45729
v -38.7084 -109.812 1511.2
vn 0.848524 -0.00446369 0.529139
v -37.8756 -107.857 1511.41
vn 0.317466 0.774236 -0.547517
v -37.8843 -107.651 1511.28
vn 0.63142 -0.44113 0.637741
v -38.4517 -106.209 1513.47
vn 0.241163 0.79998 -0.549429
v -38.5023 -105.956 1513.47
vn 0.0839644 0.745153 -0.661586
v -36.4424 -115.067 1501.07
vn 0.0873845 0.740209 -0.666674
v -36.8544 -113.625 1502.45
vn 0.502665 0.776582 -0.379801
v -35.8244 -113.501 1503.17
vn 0.0115814 -0.678581 0.734434
v -36.0303 -112.268 1509.76
vn 0.0115814 -0.678581 0.734434
v -35.8244 -112.183 1509.83
vn 0.45361 0.026011 0.890821
v -36.8544 -111.39 1510.58
vn 0.407607 0.788095 -0.461263
v -35.8186 -110.123 1509.35
vn 0.729046 -0.0225906 0.684092
v -37.0097 -108.681 1510.58
vn 0.783251 0.581133 0.220914
v -36.0303 -109.994 1509.76
vn -0.808795 -0.308817 -0.500483
v -33.9704 -118.363 1497.73
vn -0.823006 -0.333187 -0.460051
v -35.1597 -117.127 1498.84
vn -0.539341 0.400742 -0.74062
v -35.0568 -116.921 1498.84
vn -0.335983 0.612744 -0.715304
v -35.2064 -116.797 1499.05
vn -0.0315647 0.830513 -0.556105
v -34.776 -116.921 1498.84
vn -0.80141 -0.307276 -0.51315
v -34.5884 -117.539 1498.2
vn -0.390136 0.534857 -0.749481
v -34.5884 -116.932 1498.63
vn -0.410346 0.30736 -0.858572
v -34.3824 -117.539 1498.07
vn 0.536586 0.797124 -0.276892
v -34.3824 -117.067 1499.25
vn 0.595526 0.798288 0.0899209
v -34.1763 -117.26 1498.84
vn 0.319416 0.740674 -0.59108
v -33.8026 -117.539 1498.22
vn -0.698694 -0.692555 0.179426
v -34.2649 -116.921 1504.2
vn -0.730637 -0.657309 0.184702
v -34.1763 -117.08 1503.78
vn -0.535335 -0.710507 0.456723
v -34.0412 -117.127 1504.2
vn -0.690122 -0.63181 0.352913
v -33.9704 -117.274 1503.99
vn -0.405086 -0.774023 0.486614
v -35.2064 -115.903 1504.61
vn -0.556223 -0.723504 0.40885
v -35.0004 -115.926 1504.81
vn -0.632999 -0.694574 0.341877
v -34.7337 -116.303 1504.61
vn -0.46209 -0.709749 0.531722
v -34.5884 -116.265 1504.81
vn -0.3202 -0.68776 0.651505
v -34.1763 -116.509 1504.75
vn -0.707993 -0.654903 0.264288
v -33.8336 -116.097 1505.64
vn 0.56179 0.717758 -0.411359
v -34.1763 -111.785 1508.32
vn -0.646704 -0.689771 0.325559
v -35.2064 -112.972 1509.76
vn -0.0946802 0.446884 0.889567
v -35.0004 -113.009 1509.96
vn 0.536785 0.755265 -0.376081
v -34.7943 -111.038 1508.93
vn 0.607231 0.76519 0.213902
v -34.7943 -111.103 1509.14
vn -0.0324036 0.569356 0.821452
v -34.3824 -111.565 1509.35
vn 0.570577 0.743947 -0.347828
v -34.2304 -111.359 1509.14
vn -0.699437 -0.11813 -0.704864
v -32.3223 -120.423 1496.19
vn -0.373016 0.288964 -0.88168
v -32.3223 -120.217 1496.23
vn -0.820933 -0.480946 -0.30783
v -33.3524 -120.453 1498.02
vn -0.428374 0.300348 -0.852224
v -33.3524 -118.981 1497.09
vn -0.129838 0.566833 -0.813537
v -33.3524 -118.569 1497.27
vn -0.681551 -0.673292 0.286647
v -32.9403 -118.727 1503.17
vn -0.411314 -0.615483 0.672311
v -32.3223 -119.187 1503.37
vn 0.0300642 0.630142 -0.775898
v -33.5583 -118.157 1497.69
vn 0.60988 0.791941 -0.0295906
v -33.5583 -117.775 1498.63
vn 0.521167 0.798389 -0.301595
v -33.5583 -117.682 1498.22
vn 0.683677 0.728566 0.0421482
v -33.3524 -117.923 1498.43
vn 0.547744 0.787468 -0.282614
v -33.306 -117.951 1498.63
vn -0.597662 -0.615365 0.513932
v -33.7644 -117.544 1503.99
vn -0.52372 -0.614375 0.590136
v -33.7644 -117.333 1504.16
vn -0.337703 -0.59618 0.728372
v -33.3524 -117.771 1503.99
vn -0.643853 -0.639174 0.420606
v -33.4473 -116.921 1505.43
vn -0.818781 -0.370283 -0.438734
v -33.325 -116.921 1505.23
vn -0.380291 -0.65541 0.652546
v -33.3524 -116.658 1505.02
vn -0.612547 -0.667561 0.423259
v -32.7344 -116.454 1506.87
vn -0.675326 -0.647192 0.353663
v -32.7344 -116.324 1507.08
vn -0.558697 -0.674954 0.481971
v -33.3524 -115.308 1507.9
vn -0.620991 -0.730769 0.283455
v -33.5896 -114.655 1508.52
vn -0.236549 0.476793 0.846589
v -33.7644 -113.633 1510.79
vn -0.213072 0.549777 0.807679
v -32.7344 -112.183 1510.26
vn 0.595525 0.801724 0.050884
v -32.5284 -112.233 1510.17
vn 0.566734 0.749571 0.341989
v -32.5284 -112.327 1510.38
vn -0.80938 -0.259486 -0.52685
v -30.9206 -123.307 1495.96
vn -0.85621 -0.503931 -0.113832
v -31.7188 -122.483 1496.78
vn -0.864125 -0.496028 -0.085114
v -31.9104 -121.987 1496.99
vn -0.840507 -0.347827 -0.415408
v -31.9055 -121.865 1496.78
vn -0.307462 -0.761533 0.570557
v -31.9104 -121.659 1498.89
vn -0.534152 -0.695485 0.480607
v -30.8443 -120.835 1502.75
vn -0.362437 -0.578153 0.731012
v -30.782 -120.629 1502.96
vn -0.369473 -0.54851 0.750084
v -30.8804 -120.217 1503.17
vn -0.758451 -0.65165 -0.0102646
v -31.7044 -118.981 1504.36
vn -0.545019 -0.662221 0.514217
v -31.0864 -119.846 1503.37
vn -0.572827 -0.705922 0.416586
v -31.7044 -118.642 1505.23
vn -0.583364 -0.666131 0.46471
v -31.9302 -117.745 1506.26
vn -0.582908 -0.623222 0.521357
v -32.1164 -117.333 1506.6
vn -0.629885 -0.673907 0.386129
v -32.1164 -116.951 1507.29
vn -0.632889 -0.762855 0.132305
v -30.5494 -117.745 1508.32
vn -0.562881 -0.707672 0.427042
v -30.6419 -117.539 1507.9
vn -0.506769 -0.634881 0.583191
v -32.1164 -116.509 1507.67
vn 0.602663 0.685108 -0.409175
v -31.2924 -115.5 1506.67
vn 0.665271 0.73013 -0.155965
v -30.6744 -114.169 1509.35
vn 0.352792 0.0113384 0.935633
v -31.0263 -113.831 1509.76
vn -0.779606 -0.598559 -0.184231
v -29.3627 -125.161 1494.72
vn -0.656565 -0.69769 0.286622
v -29.0264 -125.635 1495.34
vn -0.558495 -0.65317 0.511323
v -28.9123 -125.367 1495.75
vn -0.807775 -0.425687 -0.407787
v -29.8504 -124.543 1494.93
vn -0.58358 -0.71332 0.388083
v -29.6595 -124.543 1496.16
vn -0.760485 -0.64669 0.0587668
v -29.5784 -124.955 1495.34
vn -0.611631 -0.713273 0.342271
v -29.2324 -124.822 1496.16
vn 0.932459 0.138412 0.333709
v -29.0569 -123.719 1496.16
vn 0.826305 0.505489 -0.248397
v -28.9668 -123.719 1496.78
vn -0.472314 0.123817 -0.87269
v -30.0667 -122.689 1494.51
vn -0.757563 -0.280526 -0.589409
v -30.2624 -122.762 1494.72
vn 0.667075 0.70277 -0.247236
v -29.8504 -122.05 1494.93
vn 0.930289 0.13571 0.340802
v -29.1792 -122.895 1496.16
vn 0.730633 0.666191 -0.149548
v -28.8896 -122.689 1495.54
vn 0.936512 0.139014 0.321903
v -29.3917 -122.895 1496.78
vn 0.726794 -0.217566 0.651488
v -29.2324 -121.736 1496.99
vn 0.730824 -0.375698 0.569866
v -29.0264 -122.277 1496.58
vn -0.545362 -0.784046 0.2964
v -29.873 -122.895 1500.08
vn 0.790632 0.52698 -0.311758
v -29.6749 -120.423 1500.9
vn -0.532286 -0.666813 0.521566
v -30.0564 -120.911 1503.17
vn -0.55199 -0.746141 0.372263
v -29.2324 -120.932 1504.4
vn -0.588379 -0.72458 0.358878
v -30.0013 -118.775 1507.08
vn -0.499336 -0.714467 0.490103
v -29.8504 -118.841 1507.29
vn 0.575103 0.753569 -0.318417
v -28.8461 -118.157 1505.64
vn 0.516127 0.706256 -0.484577
v -29.4384 -117.359 1506.26
vn -0.496526 -0.779051 0.382806
v -29.9198 -117.539 1509.55
vn -0.189613 -0.503187 0.843119
v -28.8264 -117.951 1509.55
vn -0.806715 -0.429953 -0.405403
v -28.0688 -126.809 1494.31
vn -0.735616 -0.451873 -0.504658
v -27.7903 -126.918 1493.9
vn -0.702926 -0.535301 -0.468346
v -27.546 -127.427 1493.9
vn -0.326718 0.192829 -0.925242
v -27.5844 -126.809 1493.85
vn -0.57557 -0.722256 -0.383491
v -27.3784 -127.56 1493.9
vn -0.73603 -0.502294 -0.453828
v -27.3784 -127.427 1493.65
vn -0.501373 -0.774347 0.386021
v -27.3784 -127.427 1494.19
vn -0.415316 -0.857444 0.303814
v -27.2288 -127.427 1494.31
vn -0.538647 -0.726153 0.427272
v -27.1791 -127.427 1494.51
vn -0.545283 -0.738851 0.395937
v -27.3784 -127.221 1494.62
vn -0.426257 -0.699346 0.573778
v -27.2398 -127.221 1494.72
vn -0.549226 -0.763268 0.340253
v -27.1838 -127.221 1494.93
vn -0.521655 -0.744248 0.417097
v -27.3784 -126.809 1495.26
vn -0.738405 -0.407069 -0.537636
v -28.2651 -126.191 1493.9
vn -0.617623 -0.376279 -0.69062
v -27.9964 -126.191 1493.66
vn 0.927035 0.134037 0.350199
v -27.8467 -126.191 1493.9
vn -0.639017 -0.289126 -0.712786
v -27.9964 -125.779 1493.45
vn 0.860289 0.400909 -0.31492
v -27.7437 -126.397 1493.9
vn 0.131041 -0.447852 -0.884453
v -27.7467 -125.779 1493.48
vn 0.877041 0.433911 -0.206206
v -27.5844 -126.569 1494.51
vn -0.612293 -0.719267 0.328255
v -28.4083 -125.779 1495.94
vn 0.88848 0.0480132 0.456397
v -27.4919 -126.191 1495.96
vn -0.501323 -0.742146 0.444853
v -27.5844 -126.191 1496.33
vn 0.673071 -0.687417 0.272827
v -27.2834 -126.603 1495.54
vn -0.565932 -0.766304 0.304136
v -27.3784 -126.603 1495.78
vn -0.483517 -0.670845 0.562298
v -27.3784 -126.476 1496.16
vn 0.839149 0.499033 -0.216323
v -27.3784 -126.397 1495.59
vn 0.853663 0.512025 -0.0953389
v -27.3784 -126.334 1495.75
vn -0.398678 -0.654976 0.641921
v -27.5146 -126.191 1496.37
vn -0.555936 -0.777018 0.29526
v -27.4931 -126.191 1496.57
vn -0.220811 -0.705767 0.673153
v -27.5071 -125.367 1497.81
vn 0.123234 -0.888402 0.442217
v -27.1981 -126.191 1496.57
vn 0.798087 0.581702 -0.157101
v -27.3784 -125.985 1496.46
vn -0.467889 -0.746999 0.472304
v -27.3784 -125.985 1497.21
vn -0.65949 -0.645831 -0.384676
v -27.4255 -125.573 1498.02
vn -0.579703 -0.73243 0.357059
v -27.3784 -125.573 1498.09
vn 0.105439 -0.993749 -0.0366888
v -27.2142 -125.573 1498.22
vn -0.522896 -0.75218 0.401004
v -27.1835 -125.573 1498.43
vn -0.367313 -0.726381 0.580906
v -27.265 -125.367 1498.63
vn -0.784398 -0.565413 0.255005
v -27.1981 -125.367 1498.84
vn -0.605811 -0.775697 0.176883
v -27.2121 -125.161 1499.25
vn 0.617757 0.741003 -0.263232
v -27.5844 -124.137 1494.51
vn -0.534812 -0.75171 0.385886
v -28.4083 -124.692 1498.22
vn -0.51913 -0.786425 0.334723
v -27.8342 -124.131 1500.49
vn -0.000736088 -0.552894 0.833251
v -27.3784 -124.429 1500.08
vn -0.553059 -0.831382 0.054129
v -27.3784 -124.416 1500.28
vn 0.761139 0.538955 -0.360826
v -27.2941 -124.337 1500.08
vn 0.651821 -0.382185 0.65503
v -28.8204 -122.895 1495.84
vn 0.574043 0.713143 -0.40237
v -28.8204 -122.214 1496.37
vn -0.333487 -0.59325 0.732694
v -27.5844 -121.844 1504.81
vn -0.53042 -0.786918 0.315302
v -28.4083 -121.316 1505.02
vn 0.82106 0.379426 -0.426493
v -27.5634 -120.423 1504.61
vn -0.457016 -0.746967 0.482883
v -27.3784 -120.963 1506.26
vn 0.524458 0.755373 -0.392881
v -27.3784 -119.187 1505.45
vn -0.47371 -0.706886 0.525273
v -28.4083 -119.362 1507.7
vn 0.411148 0.321495 0.852994
v -27.7903 -117.071 1508.73
vn 0.629139 0.763449 -0.146047
v -27.3784 -117.267 1508.32
vn -0.387855 -0.859571 0.332727
v -27.1723 -127.454 1494.31
vn 0.599587 -0.776316 -0.194497
v -27.1386 -127.427 1494.1
vn 0.821454 0.511958 -0.251221
v -27.1723 -127.376 1494.1
vn -0.522283 0.522319 0.674094
v -27.1723 -127.37 1494.31
vn 0.999477 -0.0297573 0.0126639
v -27.1723 -127.221 1494.47
vn 0.785228 0.520354 -0.335632
v -27.1723 -127.191 1494.51
vn -0.517472 -0.746764 0.417811
v -27.1723 -127.229 1494.93
vn -0.498168 0.549687 0.670576
v -27.1723 -127.16 1494.72
vn 0.794378 -0.0198373 -0.6071
v -27.1723 -127.015 1494.88
vn -0.567953 -0.378123 -0.731063
v -27.1723 -125.893 1492.87
vn -0.606957 -0.274977 -0.745648
v -27.1723 -125.573 1492.7
vn 0.38773 0.749051 -0.537204
v -26.6574 -125.573 1493.07
vn 0.480449 0.339436 0.808673
v -27.1723 -126.386 1496.16
vn 0.0499977 -0.696128 -0.716175
v -27.1723 -125.555 1498.02
vn 0.997513 -0.0671125 0.0215227
v -27.1723 -125.528 1498.22
vn 0.233863 -0.858219 0.456912
v -27.1723 -125.367 1498.37
vn -0.702092 -0.702991 -0.113454
v -27.1723 -125.326 1498.43
vn 0.243491 -0.284086 0.927366
v -27.1723 -125.287 1498.63
vn 0.993207 -0.104216 0.0517664
v -27.1723 -125.161 1498.76
vn 0.640222 -0.677799 0.36153
v -27.0964 -125.161 1499.05
vn -0.0651484 -0.501791 0.862532
v -27.1723 -125.016 1499.05
vn 0.353785 0.763569 -0.540185
v -26.995 -124.955 1493.69
vn 0.348303 -0.702745 0.62035
v -27.1723 -124.802 1494.1
vn -0.234147 -0.760047 0.606221
v -27.1723 -124.955 1499.7
vn -0.512732 -0.809991 0.284641
v -27.1723 -124.543 1500.54
vn -0.497989 -0.680496 0.537524
v -27.1723 -124.131 1501.26
vn 0.0931354 -0.727596 0.679654
v -26.9664 -124.955 1499.69
vn -0.502087 -0.809418 0.30455
v -26.9664 -124.749 1500.33
vn 0.420231 -0.205217 -0.883907
v -26.9615 -124.543 1500.28
vn 0.952694 0.214996 -0.214828
v -26.91 -124.543 1500.49
vn -0.421836 -0.801442 0.423963
v -26.9664 -124.423 1500.9
vn -0.412979 -0.751069 0.515114
v -26.9664 -124.337 1501.15
vn 0.885804 0.411353 -0.214803
v -26.9664 -124.057 1501.11
vn -0.342423 -0.681572 0.646688
v -27.0765 -124.131 1501.31
vn -0.58201 -0.693481 0.424675
v -27.1723 -124.084 1501.31
vn -0.466597 -0.8401 0.276621
v -27.0241 -124.131 1501.52
vn -0.507096 -0.726699 0.463426
v -27.1723 -123.665 1502.14
vn -0.529364 -0.750793 0.395074
v -27.1723 -123.392 1502.75
vn -0.323322 -0.680079 0.657993
v -26.9664 -124.183 1501.31
vn 0.883224 -0.421594 0.205362
v -26.9049 -124.131 1501.31
vn -0.465595 0.337159 0.818258
v -26.9664 -123.979 1501.31
vn 0.304353 0.114256 -0.945682
v -26.9664 -123.925 1501.35
vn 0.281353 -0.461599 0.841289
v -26.9229 -123.513 1502.14
vn 0.85603 0.392476 -0.336415
v -26.7604 -124.165 1501.52
vn -0.220505 -0.949588 0.222845
v -26.7604 -124.165 1501.72
vn -0.43716 -0.799381 -0.412166
v -26.7604 -123.617 1502.75
vn 0.50998 -0.836691 -0.19967
v -26.7604 -123.513 1502.55
vn 0.467187 -0.856271 -0.220311
v -26.5543 -123.513 1502.79
vn 0.455558 -0.889851 -0.0251421
v -26.5333 -123.513 1503.17
vn 0.763735 0.506158 -0.400641
v -27.1723 -122.864 1502.55
vn -0.443758 -0.753799 0.484629
v -26.7604 -123.173 1503.58
vn -0.612877 -0.782322 0.11115
v -26.7604 -122.728 1504.2
vn 0.984818 -0.168571 0.0414501
v -26.498 -123.307 1503.17
vn -0.563262 -0.773409 0.290818
v -26.5543 -122.919 1503.99
vn -0.652633 -0.7562 0.0472345
v -26.5543 -122.906 1504.2
vn 0.976393 -0.167129 0.136838
v -26.5141 -122.895 1503.78
vn 0.330226 -0.918923 -0.21571
v -26.4872 -122.895 1503.99
vn -0.246327 -0.439772 0.863669
v -26.5543 -122.689 1504.28
vn -0.53135 -0.84669 0.0279819
v -26.5543 -122.499 1504.4
vn 0.579236 0.408713 -0.705294
v -26.527 -122.483 1504.2
vn 0.791993 0.460651 -0.400684
v -26.5543 -122.27 1504.4
vn 0.204321 -0.96492 -0.164869
v -26.3484 -122.895 1504.1
vn 0.0825043 -0.961084 -0.26365
v -26.3484 -122.483 1504.59
vn 0.0825043 -0.961084 -0.26365
v -26.5543 -122.507 1504.61
vn -0.308684 -0.51063 0.802478
v -26.5543 -122.277 1504.94
vn -0.351929 -0.696558 0.625262
v -26.5543 -122.179 1505.02
vn 0.810808 0.422147 -0.405442
v -26.4562 -122.071 1504.81
vn 0.0482224 -0.877294 -0.477524
v -26.3484 -122.608 1504.81
vn 0.651881 -0.666045 -0.362539
v -26.2207 -122.483 1504.81
vn -0.307534 -0.476606 0.823571
v -26.3484 -122.483 1504.91
vn -0.377587 -0.730531 0.568992
v -26.3484 -122.071 1505.72
vn -0.276479 -0.645511 0.711952
v -26.1613 -121.865 1506.05
vn -0.375934 -0.846125 0.377818
v -26.1424 -122.356 1505.43
vn 0.796874 0.434409 -0.419858
v -26.3146 -121.247 1506.05
vn 0.854024 0.349311 -0.385518
v -26.0667 -121.659 1506.05
vn 0.596589 -0.274006 0.754323
v -26.2325 -121.453 1506.26
vn -0.475433 -0.846751 0.238697
v -26.1424 -121.493 1506.67
vn -0.422119 -0.727793 0.540494
v -26.1424 -120.94 1507.29
vn 0.798272 0.40827 -0.442806
v -25.9991 -120.835 1507.08
vn 0.276009 -0.887768 -0.368357
v -25.9363 -121.561 1506.87
vn 0.796957 0.410298 -0.4433
v -25.9363 -121.453 1506.61
vn 0.461059 -0.819616 -0.340079
v -25.7447 -121.453 1506.87
vn 0.869422 0.255109 -0.423114
v -26.4562 -119.599 1507.29
vn -0.405712 -0.845329 0.347587
v -26.7604 -119.187 1509.23
vn 0.926532 0.0638902 -0.370752
v -26.0184 -118.775 1508.52
vn 0.570453 0.432169 0.698436
v -26.1424 -118.775 1508.77
vn 0.421705 0.437149 0.794396
v -26.3129 -118.157 1508.52
vn 0.464243 0.734848 -0.494446
v -25.9814 -118.157 1508.32
vn -0.273579 -0.635015 0.722434
v -25.5244 -120.276 1509.14
vn 0.492573 -0.864381 -0.101083
v -25.3183 -120.629 1508.64
vn 0.816777 0.311652 -0.485539
v -25.2846 -120.423 1508.73
vn -0.126589 -0.715817 0.686718
v -25.3183 -120.313 1509.14
vn 0.823582 0.375788 -0.424848
v -25.2178 -120.217 1509.14
vn -0.154953 -0.443165 0.882946
v -25.3183 -120.217 1509.21
vn -0.867892 -0.486243 0.101643
v -42.2492 -109.299 1509.96
vn -0.649481 0.658955 -0.379411
v -42.315 -108.887 1510.38
vn -0.376392 -0.795273 0.475259
v -42.2104 -108.902 1513.05
vn -0.659399 -0.751643 -0.0150387
v -40.638 -112.595 1506.67
vn -0.465529 -0.812163 0.351674
v -40.5624 -112.738 1507.08
vn -0.871262 -0.172938 -0.459342
v -41.2399 -111.565 1505.84
vn -0.602784 0.61242 -0.511462
v -41.8032 -110.741 1506.87
vn -0.991134 -0.0284437 -0.129788
v -41.8032 -110.741 1506.87
vn -0.896466 -0.441056 -0.0426459
v -41.5924 -111.153 1506.7
vn -0.806409 -0.588646 -0.0565777
v -41.5199 -111.565 1508.52
vn -0.420093 -0.835276 0.354734
v -41.5199 -111.565 1508.52
vn -0.261098 -0.850057 0.457417
v -41.7984 -110.585 1510.58
vn -0.788887 -0.333553 0.516139
v -42.0043 -108.509 1513.88
vn -0.73651 0.615895 0.279688
v -41.8131 -107.857 1514.29
vn -0.254927 -0.169046 0.952069
v -41.8131 -107.857 1514.29
vn -0.21853 0.53494 0.81614
v -41.8131 -107.857 1514.29
vn -0.726315 -0.219609 0.651336
v -41.7984 -108.269 1514.22
vn -0.21853 0.53494 0.81614
v -41.3863 -107.857 1514.41
vn 0.584565 -0.386474 0.713387
v -41.3863 -107.857 1514.41
vn 0.35578 0.104701 0.928686
v -41.3863 -107.857 1514.41
vn 0.35578 0.104701 0.928686
v -40.7684 -107.445 1514.12
vn -0.511758 0.0962497 0.853721
v -40.7684 -107.445 1514.12
vn -0.21853 0.53494 0.81614
v -40.7684 -107.116 1514.08
vn 0.35578 0.104701 0.928686
v -40.7684 -107.116 1514.08
vn -0.511758 0.0962497 0.853721
v -40.7684 -107.116 1514.08
vn -0.803854 -0.247262 -0.541
v -39.2121 -113.625 1505.02
vn -0.530105 0.373057 -0.761458
v -39.3264 -112.183 1504.04
vn -0.498827 -0.765854 0.405758
v -39.1203 -110.123 1510.28
vn -0.405209 -0.7893 0.461314
v -39.3264 -108.652 1512.64
vn -0.278801 0.404584 0.870966
v -39.3968 -105.591 1514.29
vn 0.526912 -0.377305 0.761581
v -39.1203 -105.591 1514.38
vn -0.140382 0.887675 0.438549
v -39.1203 -105.591 1514.38
vn 0.569703 0.463506 0.678676
v -39.1203 -105.591 1514.38
vn 0.569703 0.463506 0.678676
v -38.7695 -105.591 1514.08
vn 0.775145 0.630652 -0.0377902
v -38.7695 -105.591 1514.08
vn 0.937152 0.187974 0.293959
v -38.7695 -105.591 1514.08
vn -0.266555 0.962109 0.0574025
v -38.9144 -105.413 1514.08
vn 0.569703 0.463506 0.678676
v -38.9144 -105.413 1514.08
vn 0.775145 0.630652 -0.0377902
v -38.9144 -105.413 1514.08
vn -0.702785 0.575634 0.418019
v -39.9493 -106.415 1514.5
vn 0.325476 -0.410785 0.851658
v -39.9493 -106.415 1514.5
vn -0.278801 0.404584 0.870966
v -39.9493 -106.415 1514.5
vn -0.243045 0.620929 -0.745236
v -37.1135 -115.067 1501.11
vn -0.0233695 0.689146 -0.724246
v -38.0904 -113.831 1502.29
vn -0.0541981 0.705712 -0.706423
v -37.2663 -114.687 1501.52
vn 0.287911 0.0165095 0.957515
v -38.2964 -110.137 1510.99
vn -0.444605 -0.764372 0.466972
v -38.2964 -110.137 1510.99
vn 0.725925 0.681163 -0.0951366
v -37.8843 -107.651 1511.28
vn 0.935872 0.227558 0.269
v -37.8843 -107.651 1511.28
vn 0.965365 0.174396 0.194052
v -38.4517 -106.209 1513.47
vn 0.958663 0.192288 0.209738
v -38.5023 -105.956 1513.47
vn 0.775145 0.630652 -0.0377902
v -38.5023 -105.956 1513.47
vn 0.473386 0.735892 -0.484117
v -35.8244 -113.501 1503.17
vn -0.502162 -0.749952 0.430587
v -36.0303 -112.268 1509.76
vn -0.289609 -0.139432 0.946935
v -36.0303 -112.268 1509.76
vn 0.524604 0.146318 0.838679
v -35.8244 -112.183 1509.83
vn -0.289609 -0.139432 0.946935
v -35.8244 -112.183 1509.83
vn -0.497477 -0.768611 0.402187
v -36.8544 -111.39 1510.58
vn 0.0115814 -0.678581 0.734434
v -36.8544 -111.39 1510.58
vn 0.755817 0.639297 0.141562
v -35.8186 -110.123 1509.35
vn 0.546441 0.0484588 0.836095
v -37.0097 -108.681 1510.58
vn 0.808442 0.579494 0.103002
v -37.0097 -108.681 1510.58
vn 0.610398 0.0846372 0.78756
v -36.0303 -109.994 1509.76
vn -0.401567 0.336362 -0.851824
v -33.9704 -118.363 1497.73
vn -0.578141 0.353386 -0.73544
v -35.1597 -117.127 1498.84
vn 0 0.955855 -0.293837
v -35.0568 -116.921 1498.84
vn 0.457336 0.807543 0.372449
v -34.776 -116.921 1498.84
vn 0.571427 0.774819 -0.270421
v -34.776 -116.921 1498.84
vn -0.489348 0.374378 -0.787642
v -34.5884 -117.539 1498.2
vn 0.476803 0.86572 -0.152277
v -34.5884 -116.932 1498.63
vn 0 0.998506 -0.0546382
v -34.5884 -116.932 1498.63
vn 0.180811 0.690446 -0.700422
v -34.3824 -117.539 1498.07
vn -0.264471 -0.723998 0.637089
v -34.1763 -117.08 1503.78
vn -0.850748 -0.314556 -0.421048
v -33.8336 -116.097 1505.64
vn -0.60959 -0.61424 0.501108
v -35.0004 -113.009 1509.96
vn -0.289609 -0.139432 0.946935
v -35.0004 -113.009 1509.96
vn 0.556232 0.792586 0.249827
v -34.7943 -111.038 1508.93
vn 0.251054 0.37063 0.894207
v -34.7943 -111.103 1509.14
vn 0.396469 0.875582 0.275987
v -34.2304 -111.359 1509.14
vn 0.0911854 0.678605 0.728821
v -34.2304 -111.359 1509.14
vn 0.325037 0.914961 0.23916
v -34.2304 -111.359 1509.14
vn -0.821734 -0.303221 -0.482504
v -33.3524 -118.981 1497.09
vn -0.807617 -0.343007 -0.479687
v -33.4473 -116.921 1505.43
vn -0.724026 -0.687177 0.0597852
v -33.3524 -116.658 1505.02
vn -0.841642 -0.466887 -0.271395
v -33.3524 -116.658 1505.02
vn -0.608561 -0.65395 0.449448
v -33.7644 -113.633 1510.79
vn -0.166969 -0.443096 0.880788
v -33.7644 -113.633 1510.79
vn 0.388443 0.0983519 0.916209
v -33.7644 -113.633 1510.79
vn 0.349412 0.883 0.313403
v -32.7344 -112.183 1510.26
vn -0.182679 0.448806 0.874758
v -32.5284 -112.327 1510.38
vn 0.34963 -0.0354576 0.936217
v -32.5284 -112.327 1510.38
vn -0.665491 -0.703201 0.250262
v -31.9104 -121.659 1498.89
vn -0.460302 -0.783306 0.417796
v -30.5494 -117.745 1508.32
vn -0.377327 -0.494041 0.783293
v -30.5494 -117.745 1508.32
vn -0.668456 -0.714332 -0.207114
v -30.6419 -117.539 1507.9
vn 0.726762 0.657831 0.197674
v -31.0263 -113.831 1509.76
vn 0.845686 0.519238 -0.12332
v -29.0569 -123.719 1496.16
vn 0.837979 0.535106 -0.107023
v -29.0569 -123.719 1496.16
vn 0.480449 0.339436 0.808673
v -29.0569 -123.719 1496.16
vn 0.662924 0.468354 -0.584104
v -29.0569 -123.719 1496.16
vn 0.403644 0.181423 -0.896748
v -29.0569 -123.719 1496.16
vn 0.460839 -0.139603 -0.876435
v -28.9668 -123.719 1496.78
vn 0.747126 0.624972 -0.226302
v -28.9668 -123.719 1496.78
vn -0.798792 -0.54857 0.246989
v -28.9668 -123.719 1496.78
vn 0.104425 0.617415 -0.779676
v -29.8504 -122.05 1494.93
vn 0.645804 -0.42391 0.63501
v -29.1792 -122.895 1496.16
vn 0.98217 0.114977 -0.148736
v -28.8896 -122.689 1495.54
vn 0.876022 0.451699 -0.168977
v -29.3917 -122.895 1496.78
vn 0.813909 -0.321021 0.484249
v -29.3917 -122.895 1496.78
vn 0.972774 -0.163043 0.164705
v -29.3917 -122.895 1496.78
vn 0.972774 -0.163043 0.164705
v -29.2324 -121.736 1496.99
vn 0.769764 0.637684 -0.0286652
v -29.2324 -121.736 1496.99
vn -0.55198 -0.754212 0.355643
v -29.873 -122.895 1500.08
vn -0.702092 -0.702991 -0.113454
v -29.873 -122.895 1500.08
vn 0.243491 -0.284086 0.927366
v -29.873 -122.895 1500.08
vn 0.611181 0.777903 -0.14603
v -29.873 -122.895 1500.08
vn -0.0651484 -0.501791 0.862532
v -29.873 -122.895 1500.08
vn 0.466758 0.788634 -0.400241
v -29.873 -122.895 1500.08
vn 0.972774 -0.163043 0.164705
v -29.6749 -120.423 1500.9
vn 0.655813 0.685877 -0.315409
v -29.6749 -120.423 1500.9
vn 0.801854 0.416514 -0.428422
v -29.6749 -120.423 1500.9
vn 0.304353 0.114256 -0.945682
v -29.6749 -120.423 1500.9
vn 0.454123 0.383988 0.803944
v -29.6749 -120.423 1500.9
vn -0.284921 -0.486842 0.825715
v -29.2324 -120.932 1504.4
vn -0.189613 -0.503187 0.843119
v -29.9198 -117.539 1509.55
vn 0.40462 0.324442 0.854997
v -28.8264 -117.951 1509.55
vn -0.589366 -0.734732 0.335881
v -28.0688 -126.809 1494.31
vn -0.326718 0.192829 -0.925242
v -27.7903 -126.918 1493.9
vn -0.0559203 -0.327705 -0.943124
v -27.7903 -126.918 1493.9
vn -0.591785 -0.733202 0.334971
v -27.546 -127.427 1493.9
vn 0.850151 0.421967 -0.314941
v -27.5844 -126.809 1493.85
vn -0.0559203 -0.327705 -0.943124
v -27.5844 -126.809 1493.85
vn -0.46486 -0.807075 0.364053
v -27.3784 -127.56 1493.9
vn 0.599587 -0.776316 -0.194497
v -27.3784 -127.56 1493.9
vn -0.326718 0.192829 -0.925242
v -27.3784 -127.427 1493.65
vn 0.789845 0.459632 -0.406058
v -27.3784 -127.427 1493.65
vn 0.666896 -0.658133 -0.349444
v -27.3784 -127.427 1493.65
vn 0.187426 -0.975401 -0.116033
v -27.3784 -127.427 1494.19
vn -0.522283 0.522319 0.674094
v -27.3784 -127.427 1494.19
vn -0.249078 0.968048 -0.02905
v -27.3784 -127.427 1494.19
vn -0.522283 0.522319 0.674094
v -27.2288 -127.427 1494.31
vn -0.589827 0.589867 -0.551508
v -27.2288 -127.427 1494.31
vn -0.968616 0.0839905 0.233941
v -27.2288 -127.427 1494.31
vn -0.433525 -0.895038 0.104705
v -27.1791 -127.427 1494.51
vn 0.187426 -0.975401 -0.116033
v -27.1791 -127.427 1494.51
vn 0.999477 -0.0297573 0.0126639
v -27.1791 -127.427 1494.51
vn -0.968616 0.0839905 0.233941
v -27.1791 -127.427 1494.51
vn 0.984399 -0.0280497 0.173702
v -27.1791 -127.427 1494.51
vn 0.400344 0.2653 0.87712
v -27.3784 -127.221 1494.62
vn -0.498168 0.549687 0.670576
v -27.3784 -127.221 1494.62
vn -0.213185 0.965852 -0.147247
v -27.3784 -127.221 1494.62
vn 0.794378 -0.0198373 -0.6071
v -27.3784 -127.221 1494.62
vn -0.498168 0.549687 0.670576
v -27.2398 -127.221 1494.72
vn -0.567963 -0.808431 0.154456
v -27.2398 -127.221 1494.72
vn -0.557588 0.615253 -0.557279
v -27.2398 -127.221 1494.72
vn -0.958917 0.111691 0.260775
v -27.2398 -127.221 1494.72
vn 0.951083 -0.0271004 0.307744
v -27.2398 -127.221 1494.72
vn 0.158325 -0.983256 -0.0902229
v -27.2398 -127.221 1494.72
vn 0.834728 -0.164118 -0.525637
v -27.1838 -127.221 1494.93
vn -0.958917 0.111691 0.260775
v -27.1838 -127.221 1494.93
vn 0.895412 0.0938274 0.435239
v -27.3784 -126.809 1495.26
vn 0.725563 0.687851 0.020477
v -27.3784 -126.809 1495.26
vn 0.673071 -0.687417 0.272827
v -27.3784 -126.809 1495.26
vn 0.958097 -0.0522712 -0.281635
v -27.3784 -126.809 1495.26
vn 0.131041 -0.447852 -0.884453
v -27.9964 -126.191 1493.66
vn 0.684129 -0.592012 -0.426017
v -27.9964 -126.191 1493.66
vn -0.0559203 -0.327705 -0.943124
v -27.9964 -126.191 1493.66
vn 0.781008 0.377197 -0.497744
v -27.9964 -126.191 1493.66
vn 0.684129 -0.592012 -0.426017
v -27.8467 -126.191 1493.9
vn 0.863978 0.450533 -0.224858
v -27.8467 -126.191 1493.9
vn 0.131041 -0.447852 -0.884453
v -27.9964 -125.779 1493.45
vn -0.0237587 -0.986773 0.160358
v -27.9964 -125.779 1493.45
vn 0.684129 -0.592012 -0.426017
v -27.7467 -125.779 1493.48
vn -0.0237587 -0.986773 0.160358
v -27.7467 -125.779 1493.48
vn 0.490577 -0.653278 0.576682
v -27.7467 -125.779 1493.48
vn 0.192511 -0.535183 0.822508
v -27.7467 -125.779 1493.48
vn 0.925774 0.130279 0.354923
v -27.7467 -125.779 1493.48
vn 0.400344 0.2653 0.87712
v -27.5844 -126.569 1494.51
vn 0.730926 0.12502 -0.670907
v -27.5844 -126.569 1494.51
vn 0.725563 0.687851 0.020477
v -27.5844 -126.569 1494.51
vn -0.21335 -0.435975 0.874304
v -28.4083 -125.779 1495.94
vn -0.269923 -0.632465 -0.726037
v -28.4083 -125.779 1495.94
vn -0.21335 -0.435975 0.874304
v -27.4919 -126.191 1495.96
vn -0.0248334 -0.592159 -0.805438
v -27.4919 -126.191 1495.96
vn 0.844384 0.526187 0.100712
v -27.4919 -126.191 1495.96
vn 0.662924 0.468354 -0.584104
v -27.4919 -126.191 1495.96
vn 0.480449 0.339436 0.808673
v -27.5844 -126.191 1496.33
vn 0.258698 0.878854 -0.400863
v -27.5844 -126.191 1496.33
vn 0 -1 0
v -27.5844 -126.191 1496.33
vn 0.763968 -0.581431 -0.279806
v -27.5844 -126.191 1496.33
vn 0.403644 0.181423 -0.896748
v -27.5844 -126.191 1496.33
vn 0.928177 0.286983 -0.236914
v -27.2834 -126.603 1495.54
vn 0.926036 0.0394886 0.375365
v -27.2834 -126.603 1495.54
vn 0.673071 -0.687417 0.272827
v -27.3784 -126.603 1495.78
vn 0.908172 0.043795 0.4163
v -27.3784 -126.603 1495.78
vn -0.21335 -0.435975 0.874304
v -27.3784 -126.603 1495.78
vn -0.0248334 -0.592159 -0.805438
v -27.3784 -126.476 1496.16
vn 0.184347 -0.844313 0.503141
v -27.3784 -126.476 1496.16
vn -0.871177 -0.482455 0.0910407
v -27.3784 -126.476 1496.16
vn 0.908172 0.043795 0.4163
v -27.3784 -126.334 1495.75
vn 0 -1 0
v -27.5146 -126.191 1496.37
vn -0.871177 -0.482455 0.0910407
v -27.5146 -126.191 1496.37
vn -0.848409 0.521863 0.0886615
v -27.5146 -126.191 1496.37
vn 0.545379 0.00985438 -0.838132
v -27.5146 -126.191 1496.37
vn -0.871177 -0.482455 0.0910407
v -27.4931 -126.191 1496.57
vn 0.763968 -0.581431 -0.279806
v -27.4931 -126.191 1496.57
vn -0.848409 0.521863 0.0886615
v -27.4931 -126.191 1496.57
vn 0 -0.895874 0.444308
v -27.4931 -126.191 1496.57
vn -0.65949 -0.645831 -0.384676
v -27.5071 -125.367 1497.81
vn 0.790875 0.581711 -0.190074
v -27.5071 -125.367 1497.81
vn 0.947482 -0.100258 0.303688
v -27.5071 -125.367 1497.81
vn 0.0499977 -0.696128 -0.716175
v -27.5071 -125.367 1497.81
vn 0.460839 -0.139603 -0.876435
v -27.5071 -125.367 1497.81
vn 0.258698 0.878854 -0.400863
v -27.1981 -126.191 1496.57
vn 0 -1 0
v -27.1981 -126.191 1496.57
vn 0.790234 0.581521 -0.193297
v -27.1981 -126.191 1496.57
vn 0.545379 0.00985438 -0.838132
v -27.1981 -126.191 1496.57
vn 0.947482 -0.100258 0.303688
v -27.1981 -126.191 1496.57
vn 0.763968 -0.581431 -0.279806
v -27.3784 -125.985 1496.46
vn 0.403644 0.181423 -0.896748
v -27.3784 -125.985 1496.46
vn -0.848409 0.521863 0.0886615
v -27.3784 -125.985 1496.46
vn 0.545379 0.00985438 -0.838132
v -27.3784 -125.985 1496.46
vn 0.947482 -0.100258 0.303688
v -27.3784 -125.985 1497.21
vn 0 -0.950535 0.310617
v -27.3784 -125.985 1497.21
vn 0.0499977 -0.696128 -0.716175
v -27.4255 -125.573 1498.02
vn -0.572504 -0.727296 0.378524
v -27.4255 -125.573 1498.02
vn 0.0357697 -0.998687 -0.0366789
v -27.4255 -125.573 1498.02
vn 0 -1 0
v -27.3784 -125.573 1498.09
vn 0.233863 -0.858219 0.456912
v -27.3784 -125.573 1498.09
vn 0.852879 -0.186506 -0.487661
v -27.3784 -125.573 1498.09
vn -0.545325 0.511254 0.664259
v -27.3784 -125.573 1498.09
vn -0.130475 0.983382 -0.126236
v -27.3784 -125.573 1498.09
vn -0.545325 0.511254 0.664259
v -27.2142 -125.573 1498.22
vn -0.583009 0.546583 -0.601122
v -27.2142 -125.573 1498.22
vn -0.984574 0.0956226 0.146526
v -27.2142 -125.573 1498.22
vn 0.999088 -0.0418322 -0.00854952
v -27.1835 -125.573 1498.43
vn 0.243052 -0.969339 -0.0361714
v -27.1835 -125.573 1498.43
vn 0.852879 -0.186506 -0.487661
v -27.1835 -125.573 1498.43
vn -0.984574 0.0956226 0.146526
v -27.1835 -125.573 1498.43
vn -0.784398 -0.565413 0.255005
v -27.1835 -125.573 1498.43
vn 0.640222 -0.677799 0.36153
v -27.1835 -125.573 1498.43
vn -0.784398 -0.565413 0.255005
v -27.265 -125.367 1498.63
vn 0.243491 -0.284086 0.927366
v -27.265 -125.367 1498.63
vn -0.51836 0.604782 -0.6046
v -27.265 -125.367 1498.63
vn -0.925173 0.231499 0.30077
v -27.265 -125.367 1498.63
vn -0.702092 -0.702991 -0.113454
v -27.1981 -125.367 1498.84
vn 0.993207 -0.104216 0.0517664
v -27.1981 -125.367 1498.84
vn -0.925173 0.231499 0.30077
v -27.1981 -125.367 1498.84
vn -0.0483222 -0.894086 0.44528
v -27.1981 -125.367 1498.84
vn -0.0651484 -0.501791 0.862532
v -27.1981 -125.367 1498.84
vn 0.823266 0.241334 -0.5138
v -27.1981 -125.367 1498.84
vn -0.798792 -0.54857 0.246989
v -27.1981 -125.367 1498.84
vn 0.640222 -0.677799 0.36153
v -27.1981 -125.367 1498.84
vn 0.917206 -0.394034 -0.0589146
v -27.1981 -125.367 1498.84
vn -0.0200647 -0.901241 0.432853
v -27.2121 -125.161 1499.25
vn 0.59294 0.803814 0.0480148
v -27.2121 -125.161 1499.25
vn -0.798792 -0.54857 0.246989
v -27.2121 -125.161 1499.25
vn 0.366619 -0.418036 0.831166
v -27.5844 -124.137 1494.51
vn 0.88455 0.405601 0.230345
v -27.5844 -124.137 1494.51
vn -0.65949 -0.645831 -0.384676
v -28.4083 -124.692 1498.22
vn -0.523123 -0.850339 0.0571471
v -27.3784 -124.429 1500.08
vn 0.739176 -0.671996 0.0451616
v -27.3784 -124.429 1500.08
vn 0.739176 -0.671996 0.0451616
v -27.3784 -124.416 1500.28
vn -0.517897 -0.706421 -0.482444
v -27.3784 -124.416 1500.28
vn 0.37262 -0.338754 0.863944
v -27.2941 -124.337 1500.08
vn 0.739176 -0.671996 0.0451616
v -27.2941 -124.337 1500.08
vn 0.420231 -0.205217 -0.883907
v -27.2941 -124.337 1500.08
vn -0.517897 -0.706421 -0.482444
v -27.2941 -124.337 1500.08
vn 0.98217 0.114977 -0.148736
v -28.8204 -122.895 1495.84
vn 0.795697 0.56867 0.20852
v -28.8204 -122.895 1495.84
vn 0.718132 -0.329956 0.612712
v -28.8204 -122.214 1496.37
vn 0.809857 0.579406 0.0917607
v -28.8204 -122.214 1496.37
vn 0.98217 0.114977 -0.148736
v -28.8204 -122.214 1496.37
vn -0.538178 -0.842621 0.018821
v -27.5844 -121.844 1504.81
vn -0.356459 -0.765512 0.535657
v -28.4083 -121.316 1505.02
vn 0.85046 0.202198 -0.485627
v -27.3784 -119.187 1505.45
vn -0.628027 -0.743228 -0.230639
v -28.4083 -119.362 1507.7
vn 0.632806 0.716728 0.293015
v -27.7903 -117.071 1508.73
vn 0.506793 -0.8615 -0.0312824
v -27.1723 -127.454 1494.31
vn 0.997757 -0.0095119 0.0662645
v -27.1723 -127.454 1494.31
vn 0.986799 0 0.161947
v -27.1386 -127.427 1494.1
vn 0.8112 0.545035 -0.211875
v -27.1386 -127.427 1494.1
vn 0.187426 -0.975401 -0.116033
v -27.1723 -127.376 1494.1
vn -0.249078 0.968048 -0.02905
v -27.1723 -127.376 1494.1
vn 0.999477 -0.0297573 0.0126639
v -27.1723 -127.376 1494.1
vn -0.249078 0.968048 -0.02905
v -27.1723 -127.37 1494.31
vn -0.589827 0.589867 -0.551508
v -27.1723 -127.37 1494.31
vn 0.998533 0 0.0541414
v -27.1723 -127.37 1494.31
vn 0.829929 0.557618 -0.0167335
v -27.1723 -127.37 1494.31
vn -0.589827 0.589867 -0.551508
v -27.1723 -127.221 1494.47
vn -0.968616 0.0839905 0.233941
v -27.1723 -127.221 1494.47
vn 0.80187 0.527043 -0.28148
v -27.1723 -127.221 1494.47
vn 1 0 0
v -27.1723 -127.221 1494.47
vn 0.400344 0.2653 0.87712
v -27.1723 -127.191 1494.51
vn -0.213185 0.965852 -0.147247
v -27.1723 -127.191 1494.51
vn 0.99613 -0.0140124 0.0867737
v -27.1723 -127.191 1494.51
vn 0.158325 -0.983256 -0.0902229
v -27.1723 -127.191 1494.51
vn 1 0 0
v -27.1723 -127.191 1494.51
vn 0.988382 0.0320291 0.148574
v -27.1723 -127.229 1494.93
vn 0.158325 -0.983256 -0.0902229
v -27.1723 -127.229 1494.93
vn -0.213185 0.965852 -0.147247
v -27.1723 -127.16 1494.72
vn -0.557588 0.615253 -0.557279
v -27.1723 -127.16 1494.72
vn 1 0 0
v -27.1723 -127.16 1494.72
vn -0.557588 0.615253 -0.557279
v -27.1723 -127.015 1494.88
vn -0.958917 0.111691 0.260775
v -27.1723 -127.015 1494.88
vn 0.973502 0.0481907 0.223543
v -27.1723 -127.015 1494.88
vn 0.725563 0.687851 0.020477
v -27.1723 -127.015 1494.88
vn -0.0237587 -0.986773 0.160358
v -27.1723 -125.893 1492.87
vn 0.348303 -0.702745 0.62035
v -27.1723 -125.893 1492.87
vn 0.539699 -0.386758 -0.747758
v -27.1723 -125.893 1492.87
vn 0.0099897 0.539503 -0.841924
v -27.1723 -125.573 1492.7
vn 0.428787 0.748488 -0.505873
v -27.1723 -125.573 1492.7
vn 0.539699 -0.386758 -0.747758
v -27.1723 -125.573 1492.7
vn 0.539699 -0.386758 -0.747758
v -26.6574 -125.573 1493.07
vn 0.197463 -0.734928 0.64876
v -26.6574 -125.573 1493.07
vn 0.92644 0.170437 0.335649
v -26.6574 -125.573 1493.07
vn 0.662924 0.468354 -0.584104
v -27.1723 -126.386 1496.16
vn 0.361548 -0.833376 0.418051
v -27.1723 -126.386 1496.16
vn 0.258698 0.878854 -0.400863
v -27.1723 -126.386 1496.16
vn 0.221945 -0.511587 -0.830072
v -27.1723 -126.386 1496.16
vn 0.460839 -0.139603 -0.876435
v -27.1723 -125.555 1498.02
vn 0.157871 -0.985931 -0.054933
v -27.1723 -125.555 1498.02
vn 0.987619 -0.155592 0.0199733
v -27.1723 -125.555 1498.02
vn 0.233863 -0.858219 0.456912
v -27.1723 -125.555 1498.02
vn -0.130475 0.983382 -0.126236
v -27.1723 -125.555 1498.02
vn 0.775098 0.557724 -0.29693
v -27.1723 -125.555 1498.02
vn -0.545325 0.511254 0.664259
v -27.1723 -125.528 1498.22
vn -0.130475 0.983382 -0.126236
v -27.1723 -125.528 1498.22
vn -0.583009 0.546583 -0.601122
v -27.1723 -125.528 1498.22
vn 0.852879 -0.186506 -0.487661
v -27.1723 -125.367 1498.37
vn -0.583009 0.546583 -0.601122
v -27.1723 -125.367 1498.37
vn -0.984574 0.0956226 0.146526
v -27.1723 -125.367 1498.37
vn 0.779529 0.535393 -0.325099
v -27.1723 -125.367 1498.37
vn 1 0 0
v -27.1723 -125.367 1498.37
vn 0.611181 0.777903 -0.14603
v -27.1723 -125.326 1498.43
vn 0.993207 -0.104216 0.0517664
v -27.1723 -125.326 1498.43
vn 0.777783 0.541916 -0.318403
v -27.1723 -125.326 1498.43
vn 0.999388 -0.0302128 0.0176583
v -27.1723 -125.326 1498.43
vn 0.611181 0.777903 -0.14603
v -27.1723 -125.287 1498.63
vn -0.51836 0.604782 -0.6046
v -27.1723 -125.287 1498.63
vn 0.993033 -0.0920503 0.0735628
v -27.1723 -125.287 1498.63
vn -0.51836 0.604782 -0.6046
v -27.1723 -125.161 1498.76
vn -0.925173 0.231499 0.30077
v -27.1723 -125.161 1498.76
vn -0.656936 -0.752067 -0.0531971
v -27.1723 -125.161 1498.76
vn 0.466758 0.788634 -0.400241
v -27.1723 -125.161 1498.76
vn 0.69932 0.704555 -0.120635
v -27.1723 -125.161 1498.76
vn 0.977629 0.172362 -0.120553
v -27.1723 -125.161 1498.76
vn 0.893589 0.360965 -0.26684
v -27.0964 -125.161 1499.05
vn 0.917206 -0.394034 -0.0589146
v -27.0964 -125.161 1499.05
vn 0.466758 0.788634 -0.400241
v -27.1723 -125.016 1499.05
vn 0.83675 0.427107 -0.342679
v -27.1723 -125.016 1499.05
vn 0.913308 0.290504 0.285439
v -26.995 -124.955 1493.69
vn -0.00890922 -0.53088 0.8474
v -27.1723 -124.802 1494.1
vn 0.913308 0.290504 0.285439
v -27.1723 -124.802 1494.1
vn 0.304353 0.114256 -0.945682
v -27.1723 -124.131 1501.26
vn 0.454123 0.383988 0.803944
v -27.1723 -124.131 1501.26
vn 0.423432 -0.685567 0.592202
v -27.1723 -124.131 1501.26
vn -0.465595 0.337159 0.818258
v -27.1723 -124.131 1501.26
vn -0.511189 0.802763 -0.307014
v -27.1723 -124.131 1501.26
vn 0.809957 0.521274 -0.268779
v -26.9664 -124.955 1499.69
vn 0.917206 -0.394034 -0.0589146
v -26.9664 -124.955 1499.69
vn 0.420231 -0.205217 -0.883907
v -26.9664 -124.749 1500.33
vn -0.517897 -0.706421 -0.482444
v -26.9664 -124.749 1500.33
vn 0.967343 -0.0761079 -0.241773
v -26.9664 -124.749 1500.33
vn 0.870708 -0.427515 0.243104
v -26.9664 -124.749 1500.33
vn 0.863397 0.362952 -0.350444
v -26.9615 -124.543 1500.28
vn 0.870708 -0.427515 0.243104
v -26.91 -124.543 1500.49
vn 0.883224 -0.421594 0.205362
v -26.91 -124.543 1500.49
vn 0.334467 -0.891848 0.30453
v -26.91 -124.543 1500.49
vn 0.870708 -0.427515 0.243104
v -26.9664 -124.423 1500.9
vn 0.334467 -0.891848 0.30453
v -26.9664 -124.423 1500.9
vn 0.883224 -0.421594 0.205362
v -26.9664 -124.337 1501.15
vn 0.522401 -0.612818 0.592917
v -26.9664 -124.337 1501.15
vn 0.334467 -0.891848 0.30453
v -26.9664 -124.337 1501.15
vn 0.454123 0.383988 0.803944
v -26.9664 -124.057 1501.11
vn -0.511189 0.802763 -0.307014
v -26.9664 -124.057 1501.11
vn -0.465595 0.337159 0.818258
v -27.0765 -124.131 1501.31
vn -0.426836 -0.89781 0.108388
v -27.0765 -124.131 1501.31
vn -0.612831 0.443779 -0.653834
v -27.0765 -124.131 1501.31
vn -0.875734 0.42853 0.222379
v -27.0765 -124.131 1501.31
vn 0.423432 -0.685567 0.592202
v -27.1723 -124.084 1501.31
vn 0.569316 -0.611571 -0.549418
v -27.1723 -124.084 1501.31
vn 0.569316 -0.611571 -0.549418
v -27.0241 -124.131 1501.52
vn -0.875734 0.42853 0.222379
v -27.0241 -124.131 1501.52
vn 0.281353 -0.461599 0.841289
v -27.1723 -123.665 1502.14
vn 0.50998 -0.836691 -0.19967
v -27.1723 -123.665 1502.14
vn -0.0690508 -0.912688 0.402782
v -27.1723 -123.665 1502.14
vn -0.0690508 -0.912688 0.402782
v -27.1723 -123.392 1502.75
vn -0.43716 -0.799381 -0.412166
v -27.1723 -123.392 1502.75
vn 0.522401 -0.612818 0.592917
v -26.9664 -124.183 1501.31
vn -0.204413 -0.974138 0.0962787
v -26.9664 -124.183 1501.31
vn 0.560679 -0.657722 -0.503032
v -26.9664 -124.183 1501.31
vn 0.522401 -0.612818 0.592917
v -26.9049 -124.131 1501.31
vn 0.898015 0.342849 -0.275724
v -26.9049 -124.131 1501.31
vn 0.560679 -0.657722 -0.503032
v -26.9049 -124.131 1501.31
vn -0.511189 0.802763 -0.307014
v -26.9664 -123.979 1501.31
vn 0.853077 0.349019 -0.387873
v -26.9664 -123.979 1501.31
vn -0.612831 0.443779 -0.653834
v -26.9664 -123.979 1501.31
vn 0.799836 0.461641 -0.383601
v -26.9664 -123.925 1501.35
vn 0.423432 -0.685567 0.592202
v -26.9664 -123.925 1501.35
vn 0.569316 -0.611571 -0.549418
v -26.9664 -123.925 1501.35
vn -0.612831 0.443779 -0.653834
v -26.9664 -123.925 1501.35
vn -0.875734 0.42853 0.222379
v -26.9664 -123.925 1501.35
vn 0.50998 -0.836691 -0.19967
v -26.9229 -123.513 1502.14
vn 0.873044 0.433237 -0.223829
v -26.9229 -123.513 1502.14
vn 0.560679 -0.657722 -0.503032
v -26.7604 -124.165 1501.52
vn 0.0845439 -0.996416 0.00258407
v -26.7604 -124.165 1501.52
vn 0.281353 -0.461599 0.841289
v -26.7604 -124.165 1501.72
vn 0.97019 0.242346 -0.00062849
v -26.7604 -124.165 1501.72
vn -0.424139 -0.797145 0.429728
v -26.7604 -123.617 1502.75
vn 0.467187 -0.856271 -0.220311
v -26.7604 -123.617 1502.75
vn -0.0690508 -0.912688 0.402782
v -26.7604 -123.513 1502.55
vn -0.43716 -0.799381 -0.412166
v -26.7604 -123.513 1502.55
vn 0.460431 -0.788993 -0.406809
v -26.7604 -123.513 1502.55
vn 0.749461 0.473924 -0.462281
v -26.7604 -123.513 1502.55
vn 0.98421 -0.168467 -0.0543182
v -26.5543 -123.513 1502.79
vn 0.709236 0.491894 -0.504999
v -26.5543 -123.513 1502.79
vn -0.414487 -0.801069 0.431843
v -26.5333 -123.513 1503.17
vn 0.984818 -0.168571 0.0414501
v -26.5333 -123.513 1503.17
vn 0.209626 -0.69466 0.688116
v -26.5333 -123.513 1503.17
vn 0.209626 -0.69466 0.688116
v -26.7604 -123.173 1503.58
vn 0.72478 -0.68626 0.0611589
v -26.7604 -123.173 1503.58
vn -0.259407 -0.455804 0.851441
v -26.7604 -122.728 1504.2
vn 0.776431 0.502697 -0.380066
v -26.498 -123.307 1503.17
vn 0.384031 -0.919892 -0.0794861
v -26.5543 -122.919 1503.99
vn -0.282455 -0.327278 0.901725
v -26.5543 -122.906 1504.2
vn 0.0821713 -0.99468 0.0621307
v -26.5543 -122.906 1504.2
vn 0.401708 -0.312433 0.860823
v -26.5543 -122.906 1504.2
vn 0.209626 -0.69466 0.688116
v -26.5141 -122.895 1503.78
vn 0.546943 -0.837124 0.00873019
v -26.5141 -122.895 1503.78
vn 0.882136 0.36955 -0.292006
v -26.5141 -122.895 1503.78
vn 0.579236 0.408713 -0.705294
v -26.4872 -122.895 1503.99
vn 0.978993 0.158656 -0.128068
v -26.4872 -122.895 1503.99
vn 0.401708 -0.312433 0.860823
v -26.5543 -122.689 1504.28
vn 0.721019 0.162127 0.673681
v -26.5543 -122.689 1504.28
vn 0.988684 -0.0836328 0.12454
v -26.5543 -122.689 1504.28
vn -0.245963 -0.516798 0.820014
v -26.5543 -122.499 1504.4
vn 0.990861 -0.0418533 0.128232
v -26.5543 -122.499 1504.4
vn 0.112336 -0.993034 -0.0355548
v -26.5543 -122.499 1504.4
vn 0.663114 0 -0.748519
v -26.5543 -122.499 1504.4
vn 0.86526 0.378165 -0.329114
v -26.527 -122.483 1504.2
vn 0.721019 0.162127 0.673681
v -26.527 -122.483 1504.2
vn 0.990861 -0.0418533 0.128232
v -26.527 -122.483 1504.2
vn 0.99129 0 0.131697
v -26.5543 -122.27 1504.4
vn 0.663114 0 -0.748519
v -26.5543 -122.27 1504.4
vn 0.401708 -0.312433 0.860823
v -26.3484 -122.895 1504.1
vn 0.579236 0.408713 -0.705294
v -26.3484 -122.895 1504.1
vn 0.721019 0.162127 0.673681
v -26.3484 -122.895 1504.1
vn 0.663114 0 -0.748519
v -26.3484 -122.483 1504.59
vn 0.793936 0.440959 -0.418595
v -26.3484 -122.483 1504.59
vn 0.651881 -0.666045 -0.362539
v -26.3484 -122.483 1504.59
vn -0.535257 -0.843761 0.0395827
v -26.5543 -122.507 1504.61
vn 0.421018 0.30085 0.855706
v -26.5543 -122.277 1504.94
vn 0.917537 -0.261897 0.299224
v -26.5543 -122.277 1504.94
vn -0.421882 -0.90601 0.0340878
v -26.5543 -122.179 1505.02
vn 0.917537 -0.261897 0.299224
v -26.5543 -122.179 1505.02
vn 0.0597386 -0.894679 -0.442696
v -26.5543 -122.179 1505.02
vn 0.48899 0.309675 0.815469
v -26.4562 -122.071 1504.81
vn 0.917537 -0.261897 0.299224
v -26.4562 -122.071 1504.81
vn 0.0597386 -0.894679 -0.442696
v -26.4562 -122.071 1504.81
vn -0.522572 -0.845604 0.108962
v -26.3484 -122.608 1504.81
vn -0.343663 -0.556101 0.756735
v -26.3484 -122.608 1504.81
vn 0.651881 -0.666045 -0.362539
v -26.3484 -122.608 1504.81
vn 0.501443 -0.512338 0.697183
v -26.3484 -122.608 1504.81
vn 0.501443 -0.512338 0.697183
v -26.2207 -122.483 1504.81
vn 0.781843 0.44683 -0.434816
v -26.2207 -122.483 1504.81
vn 0.553874 0.316543 0.770081
v -26.2207 -122.483 1504.81
vn 0.48899 0.309675 0.815469
v -26.3484 -122.483 1504.91
vn 0.501443 -0.512338 0.697183
v -26.3484 -122.483 1504.91
vn 0.750107 -0.344516 0.564489
v -26.1613 -121.865 1506.05
vn 0.0597386 -0.894679 -0.442696
v -26.1424 -122.356 1505.43
vn 0.906979 0.220052 -0.35912
v -26.1424 -122.356 1505.43
vn 0.855187 -0.392778 0.338203
v -26.1424 -122.356 1505.43
vn 0.844202 0.507839 0.171533
v -26.3146 -121.247 1506.05
vn 0.731883 -0.313316 -0.605128
v -26.3146 -121.247 1506.05
vn 0.750107 -0.344516 0.564489
v -26.0667 -121.659 1506.05
vn 0.844202 0.507839 0.171533
v -26.0667 -121.659 1506.05
vn -0.198719 -0.465421 0.862493
v -26.2325 -121.453 1506.26
vn 0.844202 0.507839 0.171533
v -26.2325 -121.453 1506.26
vn 0.731883 -0.313316 -0.605128
v -26.2325 -121.453 1506.26
vn -0.392669 -0.919672 -0.00392319
v -26.2325 -121.453 1506.26
vn 0.157243 -0.978965 -0.13001
v -26.2325 -121.453 1506.26
vn 0.119719 -0.958597 -0.258377
v -26.1424 -121.493 1506.67
vn 0.264946 -0.470989 0.841412
v -26.1424 -120.94 1507.29
vn 0.784895 0.120529 0.607793
v -26.1424 -120.94 1507.29
vn 0.492573 -0.864381 -0.101083
v -26.1424 -120.94 1507.29
vn 0.784895 0.120529 0.607793
v -25.9991 -120.835 1507.08
vn 0.492573 -0.864381 -0.101083
v -25.9991 -120.835 1507.08
vn -0.530871 -0.804336 0.26687
v -25.9363 -121.561 1506.87
vn -0.337583 -0.596117 0.72848
v -25.9363 -121.561 1506.87
vn 0.264946 -0.470989 0.841412
v -25.9363 -121.561 1506.87
vn 0.731883 -0.313316 -0.605128
v -25.9363 -121.453 1506.61
vn 0.238008 -0.926825 -0.290428
v -25.9363 -121.453 1506.61
vn 0.711278 0.467798 -0.524642
v -25.7447 -121.453 1506.87
vn 0.264946 -0.470989 0.841412
v -25.7447 -121.453 1506.87
vn 0.784895 0.120529 0.607793
v -25.7447 -121.453 1506.87
vn 0.359113 0.41063 0.838105
v -26.7604 -119.187 1509.23
vn -0.211206 -0.560489 0.800777
v -26.7604 -119.187 1509.23
vn -0.29513 -0.407608 0.864149
v -26.7604 -119.187 1509.23
vn 0.839326 0.342422 0.42223
v -26.0184 -118.775 1508.52
vn 0.927307 0.0078007 -0.37422
v -25.9814 -118.157 1508.32
vn 0.889223 0.095801 0.447331
v -25.9814 -118.157 1508.32
vn 0.532309 0.835523 0.136193
v -25.9814 -118.157 1508.32
vn 0.468122 0.461412 0.753632
v -25.9814 -118.157 1508.32
vn -0.35983 -0.81404 0.455918
v -25.3183 -120.629 1508.64
vn 0.826361 0.254565 -0.502319
v -25.3183 -120.629 1508.64
vn 0.628851 -0.658794 0.412962
v -25.3183 -120.629 1508.64
vn 0.987955 -0.116538 -0.1018
v -25.3183 -120.629 1508.64
vn 0.987955 -0.116538 -0.1018
v -25.2846 -120.423 1508.73
vn 0.562747 -0.589543 0.579444
v -25.3183 -120.313 1509.14
vn 0.622329 0.544072 0.562754
v -25.2178 -120.217 1509.14
vn 0.562747 -0.589543 0.579444
v -25.2178 -120.217 1509.14
vn 0.987955 -0.116538 -0.1018
v -25.2178 -120.217 1509.14
vn 0.405871 0.469888 0.783884
v -25.3183 -120.217 1509.21
vn 0.475889 -0.498549 0.724554
v -25.3183 -120.217 1509.21
f 24//24 28//28 1//1
f 4//4 8//8 1//1
f 1//1 8//8 2//2
f 4//4 5//5 8//8
f 7//7 335//335 9//9
f 9//9 2//2 8//8
f 28//28 5//5 4//4
f 4//4 1//1 28//28
f 5//5 3//3 10//10
f 29//29 6//6 3//3
f 336//336 345//345 32//32
f 10//10 8//8 5//5
f 3//3 6//6 10//10
f 336//336 32//32 31//31
f 7//7 9//9 33//33
f 8//8 10//10 9//9
f 12//12 33//33 9//9
f 33//33 12//12 36//36
f 10//10 12//12 9//9
f 6//6 11//11 10//10
f 6//6 346//346 11//11
f 10//10 11//11 12//12
f 48//48 19//19 13//13
f 48//48 14//14 19//19
f 16//16 14//14 48//48
f 27//27 15//15 26//26
f 15//15 27//27 16//16
f 337//337 17//17 343//343
f 30//30 344//344 338//338
f 17//17 18//18 30//30
f 17//17 97//97 18//18
f 20//20 21//21 339//339
f 23//23 20//20 339//339
f 23//23 339//339 342//342
f 14//14 24//24 19//19
f 22//22 21//21 20//20
f 25//25 22//22 20//20
f 339//339 21//21 13//13
f 46//46 22//22 25//25
f 21//21 49//49 13//13
f 49//49 21//21 360//360
f 360//360 21//21 22//22
f 23//23 342//342 334//334
f 28//28 24//24 14//14
f 20//20 340//340 25//25
f 27//27 28//28 16//16
f 28//28 14//14 16//16
f 27//27 26//26 3//3
f 29//29 3//3 26//26
f 30//30 345//345 344//344
f 32//32 345//345 30//30
f 18//18 32//32 30//30
f 25//25 340//340 335//335
f 2//2 341//341 1//1
f 25//25 335//335 7//7
f 5//5 27//27 3//3
f 27//27 5//5 28//28
f 18//18 42//42 32//32
f 31//31 32//32 35//35
f 42//42 37//37 32//32
f 35//35 32//32 37//37
f 54//54 7//7 33//33
f 25//25 54//54 46//46
f 25//25 7//7 54//54
f 41//41 33//33 36//36
f 11//11 346//346 350//350
f 350//350 34//34 11//11
f 11//11 347//347 12//12
f 12//12 347//347 36//36
f 347//347 40//40 36//36
f 37//37 38//38 35//35
f 38//38 348//348 35//35
f 349//349 351//351 356//356
f 37//37 42//42 39//39
f 37//37 39//39 352//352
f 357//357 353//353 354//354
f 41//41 36//36 40//40
f 60//60 358//358 355//355
f 41//41 40//40 55//55
f 373//373 55//55 40//40
f 54//54 33//33 41//41
f 47//47 43//43 13//13
f 63//63 43//43 47//47
f 44//44 65//65 337//337
f 44//44 112//112 65//65
f 97//97 45//45 65//65
f 63//63 47//47 62//62
f 62//62 13//13 49//49
f 360//360 62//62 49//49
f 62//62 47//47 13//13
f 43//43 48//48 13//13
f 16//16 48//48 43//43
f 359//359 15//15 16//16
f 44//44 16//16 43//43
f 45//45 337//337 65//65
f 45//45 97//97 17//17
f 337//337 45//45 17//17
f 50//50 42//42 18//18
f 42//42 50//50 51//51
f 362//362 361//361 68//68
f 59//59 46//46 54//54
f 51//51 39//39 42//42
f 39//39 51//51 52//52
f 374//374 39//39 52//52
f 52//52 53//53 374//374
f 57//57 363//363 375//375
f 374//374 53//53 364//364
f 52//52 51//51 53//53
f 51//51 364//364 53//53
f 54//54 41//41 56//56
f 56//56 41//41 55//55
f 370//370 54//54 56//56
f 56//56 55//55 370//370
f 370//370 55//55 365//365
f 71//71 58//58 51//51
f 51//51 58//58 364//364
f 367//367 371//371 366//366
f 61//61 112//112 63//63
f 43//43 63//63 112//112
f 61//61 63//63 64//64
f 64//64 63//63 62//62
f 377//377 74//74 378//378
f 74//74 377//377 46//46
f 46//46 75//75 74//74
f 50//50 18//18 97//97
f 66//66 80//80 51//51
f 78//78 394//394 379//379
f 361//361 67//67 380//380
f 391//391 380//380 67//67
f 380//380 68//68 361//361
f 68//68 380//380 362//362
f 70//70 46//46 72//72
f 80//80 69//69 51//51
f 79//79 46//46 70//70
f 395//395 393//393 381//381
f 72//72 46//46 59//59
f 51//51 69//69 71//71
f 384//384 383//383 382//382
f 69//69 80//80 382//382
f 383//383 69//69 382//382
f 368//368 385//385 372//372
f 369//369 383//383 384//384
f 61//61 83//83 112//112
f 86//86 85//85 376//376
f 376//376 378//378 86//86
f 73//73 86//86 378//378
f 112//112 44//44 43//43
f 98//98 100//100 50//50
f 50//50 97//97 98//98
f 74//74 73//73 378//378
f 75//75 86//86 73//73
f 75//75 73//73 74//74
f 76//76 77//77 392//392
f 103//103 75//75 79//79
f 107//107 393//393 81//81
f 387//387 67//67 361//361
f 389//389 394//394 78//78
f 67//67 387//387 391//391
f 389//389 396//396 394//394
f 389//389 411//411 396//396
f 81//81 393//393 395//395
f 87//87 82//82 112//112
f 397//397 89//89 117//117
f 398//398 376//376 85//85
f 84//84 402//402 398//398
f 84//84 398//398 85//85
f 399//399 85//85 86//86
f 88//88 402//402 84//84
f 83//83 87//87 112//112
f 89//89 402//402 88//88
f 400//400 91//91 403//403
f 86//86 404//404 399//399
f 89//89 397//397 402//402
f 90//90 91//91 401//401
f 386//386 90//90 401//401
f 92//92 117//117 405//405
f 118//118 91//91 90//90
f 92//92 405//405 403//403
f 95//95 94//94 96//96
f 93//93 94//94 95//95
f 65//65 140//140 406//406
f 122//122 96//96 94//94
f 122//122 123//123 96//96
f 123//123 95//95 96//96
f 95//95 123//123 127//127
f 65//65 406//406 97//97
f 94//94 99//99 97//97
f 94//94 93//93 99//99
f 93//93 95//95 99//99
f 127//127 50//50 100//100
f 100//100 97//97 99//99
f 98//98 97//97 100//100
f 102//102 361//361 417//417
f 95//95 100//100 99//99
f 95//95 101//101 100//100
f 101//101 127//127 100//100
f 101//101 95//95 127//127
f 102//102 125//125 130//130
f 130//130 361//361 102//102
f 130//130 387//387 361//361
f 131//131 150//150 104//104
f 105//105 132//132 133//133
f 408//408 104//104 419//419
f 79//79 75//75 46//46
f 130//130 131//131 387//387
f 131//131 104//104 387//387
f 387//387 104//104 408//408
f 390//390 388//388 409//409
f 105//105 411//411 389//389
f 106//106 103//103 79//79
f 107//107 410//410 393//393
f 105//105 108//108 411//411
f 109//109 103//103 106//106
f 107//107 412//412 410//410
f 413//413 411//411 108//108
f 413//413 108//108 133//133
f 133//133 108//108 105//105
f 139//139 138//138 112//112
f 111//111 110//110 113//113
f 425//425 112//112 138//138
f 112//112 110//110 166//166
f 112//112 415//415 110//110
f 82//82 415//415 112//112
f 114//114 113//113 397//397
f 119//119 114//114 117//117
f 111//111 113//113 114//114
f 112//112 425//425 65//65
f 141//141 115//115 425//425
f 115//115 141//141 116//116
f 124//124 116//116 145//145
f 114//114 397//397 117//117
f 119//119 117//117 92//92
f 120//120 91//91 118//118
f 120//120 119//119 91//91
f 119//119 92//92 403//403
f 119//119 403//403 91//91
f 118//118 121//121 120//120
f 118//118 90//90 121//121
f 121//121 90//90 386//386
f 119//119 120//120 167//167
f 120//120 121//121 167//167
f 386//386 231//231 121//121
f 231//231 167//167 121//121
f 425//425 115//115 94//94
f 115//115 116//116 122//122
f 122//122 94//94 115//115
f 123//123 122//122 127//127
f 116//116 124//124 122//122
f 122//122 124//124 127//127
f 127//127 124//124 145//145
f 145//145 144//144 418//418
f 126//126 416//416 407//407
f 126//126 144//144 416//416
f 418//418 144//144 126//126
f 144//144 146//146 125//125
f 148//148 125//125 147//147
f 126//126 407//407 418//418
f 128//128 125//125 148//148
f 128//128 130//130 125//125
f 129//129 130//130 128//128
f 128//128 149//149 129//129
f 129//129 149//149 130//130
f 152//152 130//130 149//149
f 152//152 131//131 130//130
f 179//179 75//75 153//153
f 75//75 103//103 153//153
f 150//150 419//419 104//104
f 134//134 103//103 109//109
f 134//134 414//414 422//422
f 422//422 135//135 134//134
f 423//423 133//133 132//132
f 425//425 137//137 160//160
f 137//137 139//139 136//136
f 139//139 166//166 136//136
f 425//425 138//138 137//137
f 139//139 137//137 138//138
f 110//110 165//165 166//166
f 110//110 111//111 165//165
f 165//165 111//111 114//114
f 438//438 165//165 114//114
f 114//114 119//119 438//438
f 139//139 112//112 166//166
f 173//173 141//141 425//425
f 276//276 142//142 141//141
f 276//276 175//175 142//142
f 141//141 142//142 116//116
f 116//116 142//142 143//143
f 175//175 143//143 142//142
f 143//143 145//145 116//116
f 144//144 145//145 233//233
f 144//144 233//233 146//146
f 125//125 146//146 147//147
f 177//177 148//148 147//147
f 177//177 128//128 148//148
f 177//177 149//149 128//128
f 178//178 152//152 149//149
f 147//147 146//146 177//177
f 131//131 152//152 151//151
f 131//131 428//428 150//150
f 150//150 181//181 419//419
f 153//153 180//180 179//179
f 458//458 182//182 420//420
f 103//103 180//180 153//153
f 154//154 103//103 134//134
f 424//424 421//421 155//155
f 135//135 429//429 134//134
f 429//429 154//154 134//134
f 161//161 157//157 160//160
f 160//160 157//157 158//158
f 156//156 196//196 157//157
f 161//161 156//156 157//157
f 158//158 203//203 162//162
f 196//196 166//166 165//165
f 159//159 166//166 196//196
f 161//161 160//160 137//137
f 136//136 159//159 137//137
f 137//137 159//159 161//161
f 166//166 159//159 136//136
f 196//196 156//156 159//159
f 161//161 159//159 156//156
f 162//162 160//160 158//158
f 163//163 198//198 168//168
f 160//160 162//162 425//425
f 162//162 203//203 425//425
f 168//168 170//170 163//163
f 430//430 441//441 164//164
f 425//425 225//225 173//173
f 172//172 442//442 439//439
f 172//172 171//171 442//442
f 164//164 441//441 174//174
f 452//452 443//443 444//444
f 439//439 230//230 172//172
f 604//604 172//172 230//230
f 604//604 171//171 172//172
f 173//173 276//276 141//141
f 231//231 169//169 167//167
f 605//605 75//75 445//445
f 453//453 445//445 75//75
f 289//289 454//454 234//234
f 145//145 143//143 175//175
f 145//145 175//175 176//176
f 145//145 176//176 233//233
f 146//146 233//233 235//235
f 236//236 453//453 75//75
f 235//235 177//177 146//146
f 149//149 177//177 178//178
f 177//177 235//235 178//178
f 152//152 178//178 237//237
f 317//317 426//426 237//237
f 236//236 75//75 179//179
f 152//152 237//237 151//151
f 428//428 610//610 150//150
f 238//238 421//421 459//459
f 103//103 239//239 180//180
f 103//103 154//154 239//239
f 429//429 239//239 154//154
f 238//238 155//155 421//421
f 239//239 429//429 611//611
f 184//184 188//188 183//183
f 196//196 184//184 183//183
f 188//188 185//185 183//183
f 186//186 468//468 461//461
f 188//188 187//187 185//185
f 463//463 466//466 189//189
f 460//460 463//463 189//189
f 189//189 191//191 460//460
f 192//192 460//460 191//191
f 192//192 157//157 460//460
f 190//190 189//189 240//240
f 240//240 189//189 466//466
f 190//190 240//240 477//477
f 469//469 464//464 242//242
f 616//616 478//478 471//471
f 474//474 243//243 472//472
f 617//617 473//473 619//619
f 479//479 618//618 244//244
f 620//620 475//475 623//623
f 480//480 624//624 476//476
f 191//191 193//193 192//192
f 625//625 202//202 245//245
f 625//625 242//242 202//202
f 511//511 482//482 627//627
f 486//486 247//247 483//483
f 628//628 484//484 634//634
f 242//242 464//464 202//202
f 194//194 157//157 192//192
f 246//246 157//157 194//194
f 157//157 246//246 195//195
f 195//195 207//207 203//203
f 487//487 246//246 194//194
f 485//485 248//248 492//492
f 485//485 512//512 248//248
f 635//635 488//488 637//637
f 493//493 638//638 489//489
f 632//632 639//639 494//494
f 495//495 640//640 513//513
f 496//496 206//206 527//527
f 199//199 250//250 249//249
f 199//199 165//165 250//250
f 165//165 438//438 644//644
f 157//157 196//196 183//183
f 197//197 196//196 199//199
f 498//498 504//504 201//201
f 199//199 196//196 165//165
f 196//196 197//197 184//184
f 502//502 499//499 506//506
f 503//503 431//431 202//202
f 462//462 500//500 465//465
f 464//464 501//501 200//200
f 464//464 200//200 202//202
f 202//202 200//200 503//503
f 503//503 200//200 501//501
f 641//641 507//507 505//505
f 642//642 262//262 508//508
f 645//645 261//261 251//251
f 203//203 158//158 157//157
f 195//195 203//203 157//157
f 208//208 205//205 203//203
f 525//525 497//497 202//202
f 525//525 202//202 209//209
f 202//202 431//431 209//209
f 209//209 431//431 210//210
f 533//533 204//204 528//528
f 529//529 516//516 514//514
f 517//517 530//530 515//515
f 208//208 211//211 205//205
f 210//210 431//431 518//518
f 252//252 432//432 520//520
f 650//650 519//519 433//433
f 525//525 209//209 210//210
f 528//528 526//526 533//533
f 214//214 531//531 651//651
f 547//547 652//652 521//521
f 534//534 548//548 522//522
f 425//425 203//203 212//212
f 212//212 203//203 205//205
f 430//430 164//164 215//215
f 535//535 532//532 538//538
f 523//523 552//552 539//539
f 524//524 434//434 553//553
f 540//540 554//554 536//536
f 212//212 216//216 425//425
f 215//215 164//164 549//549
f 216//216 225//225 425//425
f 213//213 225//225 216//216
f 542//542 217//217 593//593
f 537//537 555//555 550//550
f 541//541 531//531 214//214
f 549//549 164//164 543//543
f 551//551 544//544 556//556
f 545//545 253//253 558//558
f 654//654 546//546 435//435
f 225//225 220//220 173//173
f 446//446 223//223 263//263
f 218//218 225//225 559//559
f 218//218 220//220 225//225
f 219//219 561//561 560//560
f 219//219 560//560 655//655
f 656//656 254//254 569//569
f 219//219 655//655 570//570
f 255//255 562//562 657//657
f 663//663 571//571 563//563
f 566//566 660//660 564//564
f 658//658 565//565 661//661
f 662//662 567//567 664//664
f 572//572 665//665 568//568
f 220//220 221//221 173//173
f 575//575 573//573 222//222
f 436//436 666//666 659//659
f 256//256 579//579 447//447
f 576//576 257//257 448//448
f 668//668 449//449 672//672
f 580//580 669//669 258//258
f 673//673 577//577 675//675
f 581//581 676//676 578//578
f 582//582 266//266 588//588
f 670//670 666//666 436//436
f 677//677 223//223 446//446
f 583//583 260//260 450//450
f 678//678 451//451 683//683
f 589//589 679//679 436//436
f 684//684 584//584 164//164
f 590//590 437//437 585//585
f 588//588 266//266 263//263
f 645//645 167//167 224//224
f 686//686 591//591 509//509
f 510//510 168//168 198//198
f 509//509 591//591 439//439
f 439//439 591//591 230//230
f 679//679 670//670 436//436
f 226//226 276//276 173//173
f 446//446 263//263 227//227
f 228//228 264//264 226//226
f 173//173 594//594 228//228
f 226//226 173//173 228//228
f 263//263 266//266 227//227
f 693//693 174//174 229//229
f 266//266 598//598 227//227
f 599//599 596//596 595//595
f 174//174 693//693 164//164
f 265//265 226//226 271//271
f 265//265 274//274 226//226
f 455//455 281//281 688//688
f 284//284 276//276 275//275
f 282//282 718//718 741//741
f 283//283 732//732 289//289
f 606//606 602//602 440//440
f 224//224 169//169 603//603
f 169//169 224//224 167//167
f 226//226 274//274 276//276
f 289//289 732//732 454//454
f 276//276 274//274 275//275
f 276//276 277//277 175//175
f 277//277 176//176 175//175
f 176//176 290//290 293//293
f 293//293 291//291 176//176
f 232//232 305//305 608//608
f 454//454 609//609 234//234
f 310//310 311//311 235//235
f 233//233 310//310 235//235
f 236//236 179//179 180//180
f 327//327 236//236 180//180
f 327//327 180//180 239//239
f 234//234 609//609 834//834
f 317//317 237//237 178//178
f 150//150 323//323 181//181
f 830//830 238//238 459//459
f 831//831 182//182 458//458
f 467//467 470//470 241//241
f 612//612 467//467 241//241
f 621//621 613//613 614//614
f 629//629 613//613 621//621
f 613//613 629//629 481//481
f 615//615 469//469 242//242
f 622//622 615//615 242//242
f 621//621 626//626 629//629
f 490//490 481//481 629//629
f 633//633 491//491 630//630
f 636//636 639//639 632//632
f 636//636 632//632 631//631
f 530//530 517//517 653//653
f 643//643 646//646 647//647
f 262//262 642//642 648//648
f 649//649 685//685 687//687
f 214//214 557//557 541//541
f 259//259 586//586 574//574
f 254//254 667//667 671//671
f 569//569 254//254 671//671
f 674//674 569//569 671//671
f 674//674 680//680 569//569
f 681//681 569//569 680//680
f 684//684 681//681 680//680
f 684//684 164//164 693//693
f 681//681 684//684 693//693
f 682//682 694//694 587//587
f 261//261 645//645 224//224
f 687//687 685//685 592//592
f 267//267 264//264 228//228
f 270//270 264//264 267//267
f 268//268 695//695 600//600
f 601//601 696//696 597//597
f 264//264 270//270 226//226
f 271//271 226//226 270//270
f 699//699 229//229 174//174
f 699//699 174//174 272//272
f 271//271 273//273 265//265
f 271//271 278//278 273//273
f 708//708 456//456 689//689
f 733//733 714//714 690//690
f 710//710 280//280 691//691
f 709//709 692//692 729//729
f 269//269 697//697 699//699
f 703//703 698//698 700//700
f 699//699 272//272 269//269
f 701//701 279//279 705//705
f 706//706 726//726 723//723
f 727//727 269//269 272//272
f 730//730 727//727 272//272
f 704//704 702//702 707//707
f 711//711 724//724 275//275
f 724//724 284//284 275//275
f 715//715 734//734 716//716
f 731//731 712//712 735//735
f 717//717 736//736 713//713
f 286//286 719//719 737//737
f 745//745 721//721 720//720
f 728//728 739//739 725//725
f 284//284 724//724 740//740
f 730//730 732//732 283//283
f 727//727 730//730 283//283
f 742//742 283//283 738//738
f 289//289 738//738 283//283
f 722//722 746//746 285//285
f 290//290 277//277 743//743
f 744//744 747//747 287//287
f 287//287 288//288 744//744
f 743//743 751//751 290//290
f 749//749 292//292 752//752
f 295//295 752//752 292//292
f 753//753 762//762 754//754
f 738//738 289//289 748//748
f 750//750 748//748 289//289
f 757//757 750//750 289//289
f 290//290 176//176 277//277
f 289//289 234//234 757//757
f 176//176 298//298 233//233
f 756//756 770//770 457//457
f 755//755 763//763 758//758
f 291//291 293//293 294//294
f 756//756 759//759 297//297
f 756//756 297//297 770//770
f 234//234 764//764 757//757
f 300//300 234//234 306//306
f 296//296 758//758 763//763
f 296//296 301//301 758//758
f 758//758 301//301 760//760
f 767//767 761//761 779//779
f 780//780 765//765 299//299
f 766//766 764//764 774//774
f 781//781 775//775 768//768
f 764//764 234//234 774//774
f 771//771 769//769 776//776
f 772//772 302//302 303//303
f 234//234 300//300 774//774
f 776//776 777//777 771//771
f 773//773 778//778 782//782
f 306//306 783//783 300//300
f 298//298 607//607 233//233
f 298//298 785//785 607//607
f 305//305 232//232 304//304
f 788//788 312//312 233//233
f 312//312 310//310 233//233
f 302//302 307//307 303//303
f 785//785 794//794 607//607
f 232//232 795//795 309//309
f 304//304 232//232 309//309
f 801//801 791//791 786//786
f 787//787 792//792 789//789
f 313//313 314//314 306//306
f 308//308 796//796 784//784
f 797//797 798//798 802//802
f 799//799 783//783 306//306
f 791//791 801//801 800//800
f 310//310 312//312 311//311
f 804//804 790//790 793//793
f 314//314 805//805 306//306
f 809//809 803//803 806//806
f 234//234 313//313 306//306
f 313//313 234//234 322//322
f 809//809 315//315 803//803
f 311//311 811//811 235//235
f 810//810 807//807 812//812
f 313//313 322//322 320//320
f 808//808 825//825 813//813
f 316//316 178//178 235//235
f 316//316 235//235 814//814
f 320//320 322//322 318//318
f 815//815 826//826 816//816
f 826//826 319//319 816//816
f 316//316 822//822 178//178
f 823//823 317//317 178//178
f 319//319 826//826 321//321
f 320//320 318//318 827//827
f 824//824 828//828 817//817
f 829//829 820//820 818//818
f 819//819 821//821 329//329
f 838//838 426//426 317//317
f 838//838 328//328 426//426
f 318//318 322//322 839//839
f 839//839 322//322 330//330
f 832//832 328//328 333//333
f 322//322 234//234 834//834
f 325//325 830//830 847//847
f 832//832 427//427 328//328
f 322//322 324//324 332//332
f 844//844 833//833 325//325
f 844//844 325//325 847//847
f 322//322 834//834 324//324
f 833//833 835//835 325//325
f 330//330 322//322 332//332
f 611//611 836//836 239//239
f 326//326 837//837 238//238
f 326//326 238//238 830//830
f 325//325 326//326 830//830
f 326//326 325//325 837//837
f 328//328 331//331 333//333
f 331//331 328//328 838//838
f 843//843 840//840 845//845
f 846//846 841//841 842//842
f 843//843 845//845 848//848
