# https://github.com/mikedh/trimesh
v -35.69720000 -112.38900000 1479.68000000
v -35.67790000 -110.32900000 1476.18000000
v -35.43010000 -110.32900000 1484.01000000
v -36.21540000 -109.71100000 1481.33000000
v -35.87590000 -109.29900000 1481.33000000
v -35.61840000 -109.25200000 1481.12000000
v -36.29910000 -109.71100000 1482.15000000
v -36.33770000 -109.09300000 1482.15000000
v -36.37430000 -109.09300000 1482.57000000
v -36.16710000 -110.12300000 1482.15000000
v -36.19930000 -109.91700000 1481.95000000
v -36.23640000 -109.59700000 1482.77000000
v -36.16390000 -109.50500000 1481.74000000
v -36.03030000 -109.38300000 1481.54000000
v -36.03030000 -109.15400000 1481.74000000
v -36.03030000 -109.29900000 1483.05000000
v -36.03030000 -108.89200000 1482.15000000
v -36.03030000 -108.89800000 1482.57000000
v -35.82440000 -109.20700000 1481.54000000
v -35.61840000 -109.09300000 1481.55000000
v -34.45480000 -117.33300000 1466.29000000
v -34.53200000 -116.92100000 1465.88000000
v -34.38240000 -117.53900000 1466.24000000
v -34.17630000 -117.95100000 1466.44000000
v -33.82390000 -116.92100000 1466.09000000
v -34.61890000 -117.74500000 1466.70000000
v -34.52560000 -117.12700000 1466.70000000
v -34.38240000 -118.08100000 1466.70000000
v -34.63180000 -115.68500000 1465.67000000
v -34.76060000 -115.47900000 1466.29000000
v -34.58840000 -116.09700000 1465.45000000
v -34.38240000 -116.71500000 1465.50000000
v -34.17630000 -116.71500000 1465.60000000
v -33.83030000 -116.50900000 1466.09000000
v -34.87450000 -116.09700000 1470.82000000
v -34.66400000 -115.47900000 1470.41000000
v -34.90540000 -115.47900000 1471.85000000
v -34.97620000 -115.47900000 1472.68000000
v -34.96010000 -115.27300000 1472.47000000
v -34.79430000 -115.35200000 1471.65000000
v -34.79430000 -114.86100000 1465.45000000
v -34.50310000 -113.62500000 1466.50000000
v -34.86360000 -115.06700000 1470.41000000
v -34.99870000 -114.86100000 1472.47000000
v -35.00040000 -114.22500000 1472.47000000
v -34.88610000 -114.24300000 1473.09000000
v -34.67360000 -114.86100000 1471.85000000
v -35.10820000 -114.24300000 1474.12000000
v -35.00040000 -114.44900000 1473.50000000
v -34.58840000 -113.79000000 1481.12000000
v -34.42900000 -113.83100000 1483.39000000
v -35.01810000 -113.00700000 1467.53000000
v -34.94080000 -113.41900000 1467.32000000
v -34.96790000 -113.00700000 1467.32000000
v -34.95370000 -113.00700000 1468.15000000
v -34.79430000 -113.28700000 1466.91000000
v -34.79430000 -112.77700000 1467.32000000
v -34.79430000 -112.74100000 1467.73000000
v -34.79430000 -112.65900000 1468.15000000
v -34.56420000 -113.21300000 1467.12000000
v -34.44830000 -113.00700000 1467.73000000
v -34.58840000 -112.69600000 1468.15000000
v -35.00520000 -112.18300000 1469.79000000
v -34.97300000 -112.59500000 1468.56000000
v -34.79430000 -111.94600000 1469.18000000
v -34.79430000 -111.94900000 1469.79000000
v -34.58840000 -112.01500000 1469.38000000
v -35.18540000 -111.97700000 1470.62000000
v -35.17260000 -111.97700000 1471.24000000
v -34.58840000 -111.93000000 1470.00000000
v -35.09210000 -112.80100000 1471.85000000
v -35.09530000 -111.97700000 1471.65000000
v -35.24660000 -113.21300000 1477.21000000
v -35.20640000 -113.00700000 1480.12000000
v -33.81420000 -111.97700000 1486.89000000
v -35.06310000 -111.77100000 1471.44000000
v -35.00040000 -111.65400000 1471.24000000
v -35.00040000 -111.49900000 1470.62000000
v -34.88780000 -111.56500000 1471.44000000
v -34.79430000 -111.56500000 1470.79000000
v -34.79430000 -111.55000000 1471.24000000
v -34.79430000 -111.48600000 1471.44000000
v -34.58840000 -111.67800000 1471.24000000
v -35.12110000 -111.77100000 1471.85000000
v -35.05670000 -111.56500000 1471.65000000
v -35.20640000 -111.35900000 1471.99000000
v -35.20640000 -110.88100000 1472.68000000
v -34.59960000 -111.35900000 1471.85000000
v -34.79430000 -110.95300000 1472.47000000
v -35.38500000 -110.94700000 1474.33000000
v -35.24660000 -110.74100000 1473.91000000
v -35.00040000 -110.64300000 1473.91000000
v -34.79430000 -110.77700000 1473.91000000
v -34.58840000 -110.37100000 1479.06000000
v -34.38240000 -110.50400000 1479.27000000
v -34.01060000 -110.53500000 1479.68000000
v -34.17630000 -110.36600000 1479.68000000
v -33.85240000 -111.15300000 1478.86000000
v -34.17630000 -110.32900000 1482.43000000
v -35.29490000 -110.74100000 1484.21000000
v -33.97040000 -111.35900000 1486.43000000
v -35.41230000 -109.97900000 1475.56000000
v -34.79430000 -110.10200000 1479.68000000
v -35.41230000 -109.33600000 1480.92000000
v -35.20640000 -109.37400000 1480.92000000
v -34.79430000 -108.98500000 1481.12000000
v -34.58840000 -109.96800000 1479.89000000
v -34.19980000 -109.09300000 1481.33000000
v -35.20640000 -109.25600000 1481.54000000
v -35.00040000 -109.01100000 1481.54000000
v -34.79430000 -108.84100000 1481.54000000
v -34.38240000 -108.77000000 1481.54000000
v -35.41230000 -109.46800000 1483.18000000
v -35.20640000 -110.00500000 1484.01000000
v -33.29920000 -121.04100000 1470.82000000
v -32.73440000 -121.60900000 1470.82000000
v -32.27570000 -121.45300000 1477.21000000
v -32.32230000 -119.80500000 1468.77000000
v -33.00960000 -119.80500000 1475.36000000
v -32.73440000 -118.78100000 1482.98000000
v -33.76440000 -117.12700000 1466.25000000
v -33.69510000 -116.92100000 1466.29000000
v -33.55830000 -117.12700000 1466.27000000
v -33.35240000 -117.95100000 1466.59000000
v -32.82100000 -117.12700000 1466.50000000
v -32.73440000 -117.76400000 1466.91000000
v -32.88980000 -117.12700000 1485.24000000
v -32.64630000 -117.53900000 1485.24000000
v -32.73440000 -117.12700000 1484.96000000
v -32.44340000 -117.95100000 1485.45000000
v -32.30790000 -118.15700000 1485.45000000
v -32.32230000 -117.53900000 1485.59000000
v -33.35390000 -116.50900000 1467.32000000
v -33.25100000 -116.30300000 1467.53000000
v -33.14640000 -116.66200000 1467.12000000
v -33.14640000 -116.47400000 1467.53000000
v -33.03780000 -116.50900000 1467.73000000
v -32.94030000 -116.62500000 1467.53000000
v -32.85510000 -116.71500000 1467.73000000
v -32.90980000 -116.50900000 1468.15000000
v -32.59760000 -115.27300000 1470.41000000
v -33.31150000 -116.09700000 1484.63000000
v -33.35030000 -115.89100000 1484.42000000
v -33.14640000 -116.30300000 1484.74000000
v -33.14640000 -116.09700000 1485.07000000
v -33.55830000 -115.06700000 1484.38000000
v -33.35720000 -115.06700000 1484.63000000
v -32.58470000 -113.21300000 1488.95000000
v -33.62130000 -110.94700000 1482.57000000
v -33.69840000 -110.32900000 1482.15000000
v -33.37970000 -111.35900000 1482.57000000
v -30.59960000 -128.86900000 1478.45000000
v -31.04290000 -127.42700000 1477.83000000
v -30.88040000 -127.49500000 1477.00000000
v -30.71780000 -128.04500000 1478.86000000
v -31.29240000 -126.55000000 1475.56000000
v -30.75000000 -126.60300000 1481.33000000
v -30.84010000 -125.57300000 1480.71000000
v -30.52150000 -126.60300000 1480.71000000
v -30.63730000 -126.39700000 1481.74000000
v -30.56330000 -125.77900000 1481.74000000
v -30.88040000 -124.45200000 1473.50000000
v -30.63730000 -124.13100000 1473.71000000
v -31.89590000 -124.13100000 1475.56000000
v -30.60840000 -123.92500000 1474.94000000
v -31.19100000 -123.92500000 1481.12000000
v -31.00750000 -124.95500000 1480.71000000
v -31.91040000 -122.07100000 1471.13000000
v -31.70440000 -121.86500000 1471.08000000
v -31.28740000 -122.68900000 1471.65000000
v -30.80790000 -121.86500000 1476.80000000
v -31.35190000 -122.68900000 1481.74000000
v -31.24250000 -122.27700000 1485.45000000
v -31.91040000 -121.65900000 1470.95000000
v -31.78960000 -120.62900000 1470.00000000
v -31.86690000 -120.42300000 1470.82000000
v -31.70440000 -121.42600000 1471.03000000
v -31.59010000 -121.45300000 1471.24000000
v -31.65120000 -121.24700000 1471.03000000
v -31.70440000 -120.89500000 1470.62000000
v -30.50640000 -120.21700000 1486.89000000
v -32.00210000 -119.80500000 1469.18000000
v -32.11640000 -119.18700000 1469.47000000
v -31.91840000 -119.18700000 1469.79000000
v -32.02140000 -119.80500000 1470.21000000
v -31.91040000 -119.73600000 1470.62000000
v -31.93130000 -120.01100000 1471.65000000
v -31.83710000 -120.01100000 1472.27000000
v -31.70440000 -119.91600000 1471.65000000
v -31.81220000 -119.80500000 1474.33000000
v -31.71240000 -119.80500000 1474.53000000
v -31.81790000 -119.59900000 1474.12000000
v -31.70440000 -119.83600000 1473.30000000
v -31.63510000 -119.59900000 1474.12000000
v -31.70440000 -119.49600000 1474.33000000
v -31.49840000 -119.65700000 1474.53000000
v -31.73810000 -119.59900000 1475.36000000
v -31.79380000 -119.39300000 1475.36000000
v -31.75750000 -118.98100000 1476.18000000
v -31.69950000 -119.39300000 1474.94000000
v -31.56310000 -119.39300000 1475.97000000
v -31.69250000 -119.18700000 1475.77000000
v -31.70440000 -119.07300000 1476.18000000
v -31.41950000 -119.80500000 1476.18000000
v -31.39050000 -119.59900000 1475.56000000
v -31.49840000 -119.59900000 1476.05000000
v -31.49840000 -119.45700000 1476.18000000
v -31.40980000 -119.80500000 1476.59000000
v -31.49840000 -118.70200000 1477.62000000
v -30.94960000 -119.59900000 1477.00000000
v -31.40340000 -118.98100000 1478.45000000
v -31.35510000 -118.98100000 1479.06000000
v -31.29720000 -118.98100000 1479.48000000
v -31.29240000 -119.04100000 1479.27000000
v -31.28680000 -118.98100000 1479.48000000
v -30.91090000 -119.80500000 1479.68000000
v -31.08640000 -119.39300000 1479.70000000
v -31.08640000 -119.13700000 1479.27000000
v -31.08640000 -119.16800000 1479.68000000
v -30.76930000 -119.39300000 1479.06000000
v -30.67440000 -119.54900000 1479.68000000
v -31.11370000 -119.18700000 1479.89000000
v -31.08640000 -119.22200000 1479.89000000
v -31.05900000 -119.18700000 1479.89000000
v -31.08640000 -119.18700000 1479.94000000
v -31.08640000 -119.04000000 1480.09000000
v -30.81760000 -119.80500000 1480.09000000
v -30.71460000 -119.80500000 1480.71000000
v -30.75960000 -119.59900000 1480.92000000
v -30.52790000 -120.01100000 1481.33000000
v -30.49240000 -119.80500000 1480.30000000
v -30.67440000 -119.66100000 1480.30000000
v -30.55020000 -119.80500000 1481.12000000
v -30.67440000 -119.59900000 1479.91000000
v -30.78540000 -119.39300000 1481.54000000
v -30.74680000 -119.18700000 1482.36000000
v -30.86890000 -118.98100000 1481.95000000
v -30.57940000 -119.59900000 1482.36000000
v -30.57370000 -119.39300000 1481.95000000
v -30.67440000 -119.39300000 1482.21000000
v -30.67440000 -119.28200000 1482.57000000
v -30.67440000 -119.18200000 1481.95000000
v -30.62120000 -119.18700000 1482.77000000
v -30.67270000 -119.18700000 1482.98000000
v -31.99740000 -118.77500000 1486.07000000
v -30.54080000 -117.33300000 1473.71000000
v -32.11640000 -118.15700000 1485.71000000
v -31.49840000 -118.36300000 1485.90000000
v -31.49840000 -118.15700000 1485.82000000
v -31.29240000 -118.36300000 1485.79000000
v -31.17490000 -117.95100000 1486.89000000
v -31.70440000 -113.39200000 1477.62000000
v -30.67440000 -113.35900000 1485.04000000
v -31.70440000 -113.01500000 1487.72000000
v -32.11640000 -113.07600000 1489.16000000
v -28.97000000 -133.60700000 1483.60000000
v -29.81330000 -130.72300000 1480.71000000
v -29.43840000 -131.01100000 1480.30000000
v -28.85410000 -131.54700000 1484.21000000
v -30.26240000 -128.65800000 1477.83000000
v -29.02640000 -129.48700000 1478.46000000
v -30.05640000 -127.06100000 1475.97000000
v -30.46840000 -127.77300000 1477.00000000
v -29.64440000 -127.90100000 1477.00000000
v -29.23240000 -127.84700000 1477.21000000
v -30.26240000 -127.35900000 1481.33000000
v -30.41850000 -127.01500000 1481.95000000
v -30.11590000 -127.22100000 1482.36000000
v -30.16420000 -126.80900000 1482.36000000
v -30.05640000 -127.99900000 1481.95000000
v -29.39170000 -125.98500000 1477.42000000
v -29.46570000 -125.57300000 1489.16000000
v -29.38200000 -123.92500000 1479.89000000
v -30.36370000 -123.51300000 1487.72000000
v -30.26240000 -121.86500000 1487.79000000
v -30.05640000 -122.68900000 1488.07000000
v -30.05640000 -121.86500000 1487.72000000
v -29.43840000 -122.27700000 1487.49000000
v -29.43840000 -122.07100000 1487.40000000
v -29.23240000 -122.68900000 1487.82000000
v -29.15880000 -122.07100000 1487.30000000
v -29.23240000 -122.03600000 1487.30000000
v -29.85040000 -122.89500000 1488.18000000
v -29.23240000 -123.26800000 1488.13000000
v -28.87670000 -121.45300000 1482.36000000
v -29.64440000 -120.47400000 1485.45000000
v -29.64440000 -120.46700000 1485.66000000
v -29.63580000 -120.62900000 1485.86000000
v -29.50410000 -120.62900000 1486.27000000
v -29.64440000 -120.42300000 1486.11000000
v -29.43840000 -121.04100000 1486.17000000
v -29.32450000 -120.83500000 1485.86000000
v -30.46840000 -121.45300000 1487.69000000
v -30.26240000 -120.34300000 1486.89000000
v -29.48820000 -120.62900000 1486.48000000
v -29.17280000 -121.45300000 1486.89000000
v -29.06340000 -120.83500000 1489.98000000
v -30.37020000 -119.59900000 1481.95000000
v -28.94110000 -118.98100000 1495.34000000
v -30.05640000 -115.47900000 1493.55000000
v -29.64440000 -115.12000000 1493.48000000
v -29.23240000 -115.80500000 1494.93000000
v -29.02640000 -114.77900000 1485.04000000
v -30.05640000 -114.07400000 1489.78000000
v -27.99470000 -136.90300000 1486.27000000
v -27.80480000 -137.52100000 1487.51000000
v -27.92390000 -137.10900000 1486.89000000
v -27.62460000 -137.72700000 1487.72000000
v -27.79030000 -137.34900000 1486.89000000
v -27.79030000 -137.52100000 1487.26000000
v -27.58440000 -137.75700000 1487.30000000
v -28.36810000 -135.87300000 1485.86000000
v -28.82040000 -134.11600000 1483.60000000
v -27.72760000 -134.84300000 1486.89000000
v -28.20240000 -131.84400000 1480.92000000
v -27.79030000 -131.89600000 1481.12000000
v -27.37840000 -132.98900000 1481.82000000
v -27.99640000 -131.15600000 1480.51000000
v -27.67930000 -130.72300000 1480.92000000
v -27.37840000 -131.34100000 1491.64000000
v -28.61440000 -129.69300000 1478.73000000
v -28.35850000 -129.69300000 1479.06000000
v -27.58440000 -128.86900000 1491.18000000
v -28.79300000 -128.04500000 1478.03000000
v -27.99640000 -126.80900000 1490.28000000
v -27.37840000 -127.54100000 1490.39000000
v -28.75440000 -125.57300000 1480.09000000
v -28.54190000 -126.39700000 1481.33000000
v -28.82040000 -125.36700000 1489.42000000
v -28.40830000 -125.33900000 1489.16000000
v -27.79030000 -125.58000000 1489.57000000
v -27.59010000 -125.36700000 1489.57000000
v -27.75010000 -126.39700000 1489.78000000
v -28.61440000 -124.54300000 1488.71000000
v -27.58440000 -124.95500000 1488.83000000
v -27.99640000 -121.97300000 1476.39000000
v -28.82040000 -121.96600000 1478.65000000
v -27.79030000 -122.46800000 1478.24000000
v -27.70510000 -121.65900000 1476.18000000
v -28.51940000 -118.77500000 1496.78000000
v -27.41860000 -118.56900000 1499.05000000
v -28.74150000 -116.92100000 1496.16000000
v -27.58440000 -117.12700000 1497.62000000
v -28.40830000 -116.30300000 1495.85000000
v -27.58440000 -116.19200000 1495.75000000
v -27.37840000 -116.41500000 1496.16000000
v -27.37840000 -116.02100000 1495.54000000
v -28.20240000 -116.57100000 1496.37000000
v -27.99640000 -116.65500000 1496.57000000
v -28.82040000 -114.38900000 1488.75000000
v -28.40830000 -114.75600000 1491.22000000
v -26.14240000 -138.46900000 1486.69000000
v -26.34840000 -138.13900000 1486.15000000
v -26.34840000 -137.31500000 1485.66000000
v -26.34840000 -137.10900000 1485.47000000
v -26.34840000 -136.77600000 1484.83000000
v -26.07310000 -136.90300000 1485.45000000
v -25.93630000 -138.13900000 1486.27000000
v -26.76040000 -138.13400000 1486.48000000
v -25.60320000 -138.13900000 1486.69000000
v -26.63320000 -137.31500000 1489.57000000
v -26.55430000 -137.85100000 1488.95000000
v -26.03130000 -137.31500000 1490.81000000
v -25.86580000 -137.31500000 1491.01000000
v -25.93630000 -137.17400000 1491.01000000
v -25.64090000 -136.90300000 1492.25000000
v -26.76040000 -136.31300000 1484.42000000
v -26.34840000 -136.29000000 1484.42000000
v -26.31130000 -135.25500000 1491.22000000
v -25.75130000 -136.07900000 1493.28000000
v -25.66440000 -135.87300000 1493.69000000
v -27.17230000 -134.53800000 1483.18000000
v -26.69440000 -134.01900000 1483.39000000
v -27.17230000 -128.61400000 1491.22000000
v -26.96640000 -128.75100000 1491.01000000
v -26.96640000 -128.37900000 1490.81000000
v -26.34840000 -128.66300000 1491.14000000
v -27.00340000 -129.28100000 1491.42000000
v -26.34840000 -124.17300000 1485.66000000
v -27.17230000 -122.28500000 1477.62000000
v -26.84890000 -122.07100000 1477.83000000
v -26.55430000 -122.86100000 1478.86000000
v -26.34840000 -122.96700000 1479.27000000
v -26.34840000 -122.68900000 1478.70000000
v -25.93630000 -123.13500000 1479.68000000
v -25.93630000 -122.89500000 1479.40000000
v -25.81890000 -122.68900000 1479.48000000
v -25.60960000 -122.89500000 1479.68000000
v -26.55430000 -123.29500000 1480.30000000
v -26.91650000 -123.10100000 1496.78000000
v -26.34840000 -122.69400000 1499.87000000
v -25.58070000 -121.24700000 1502.75000000
v -27.17230000 -116.81600000 1496.78000000
v -26.96640000 -117.16700000 1498.02000000
v -26.14240000 -116.78700000 1498.43000000
v -27.17230000 -116.04700000 1495.75000000
v -26.76040000 -116.01800000 1495.54000000
v -26.79740000 -116.50900000 1496.99000000
v -26.76040000 -116.09800000 1496.37000000
v -26.76040000 -116.12700000 1496.57000000
v -26.55430000 -116.15300000 1496.57000000
v -26.55430000 -116.25600000 1496.78000000
v -26.34840000 -116.29500000 1496.78000000
v -26.14240000 -116.37800000 1497.81000000
v -25.93630000 -116.39100000 1497.40000000
v -25.73040000 -116.71500000 1498.40000000
v -25.48090000 -136.69700000 1486.27000000
v -24.90640000 -137.91800000 1488.75000000
v -24.70030000 -137.85400000 1488.75000000
v -24.63760000 -137.72700000 1488.33000000
v -24.56010000 -137.72700000 1488.75000000
v -24.49440000 -137.52100000 1488.62000000
v -24.28840000 -137.72700000 1489.13000000
v -24.21270000 -137.31500000 1488.95000000
v -25.52440000 -137.67000000 1490.39000000
v -24.70030000 -137.57100000 1490.19000000
v -24.28840000 -137.70300000 1490.19000000
v -24.28840000 -137.44500000 1490.60000000
v -25.31830000 -136.77600000 1492.87000000
v -25.11240000 -137.08100000 1492.45000000
v -24.90640000 -136.75000000 1492.66000000
v -24.70030000 -137.10900000 1491.67000000
v -24.70030000 -136.77900000 1492.45000000
v -25.13440000 -136.69700000 1493.28000000
v -24.08230000 -136.34100000 1492.45000000
v -25.52440000 -136.09000000 1493.69000000
v -25.52440000 -135.46100000 1493.84000000
v -25.31830000 -135.87300000 1494.04000000
v -24.90640000 -136.07900000 1493.81000000
v -24.90640000 -135.25500000 1493.95000000
v -24.08230000 -134.40500000 1493.69000000
v -24.19980000 -132.98900000 1492.45000000
v -24.37040000 -127.01500000 1493.48000000
v -24.26580000 -126.19100000 1487.72000000
v -25.31830000 -125.71900000 1494.31000000
v -24.49440000 -125.99300000 1494.93000000
v -25.52440000 -123.68500000 1480.92000000
v -24.90640000 -123.62400000 1481.12000000
v -24.03820000 -123.92500000 1481.95000000
v -23.97770000 -123.92500000 1502.55000000
v -25.52440000 -123.10100000 1479.99000000
v -25.35210000 -122.89500000 1480.09000000
v -25.11240000 -123.30700000 1480.52000000
v -24.70030000 -123.26300000 1481.12000000
v -24.80170000 -122.68900000 1502.55000000
v -24.03250000 -122.68900000 1504.61000000
v -25.45840000 -121.65900000 1480.09000000
v -24.52260000 -121.24700000 1485.24000000
v -24.64080000 -120.21700000 1504.40000000
v -25.04960000 -120.01100000 1486.48000000
v -24.08230000 -118.41900000 1503.58000000
v -25.23630000 -116.92100000 1491.01000000
v -24.28840000 -117.19600000 1497.81000000
v -24.28840000 -117.47600000 1500.28000000
v -24.70030000 -117.83000000 1501.72000000
v -25.52440000 -116.62600000 1496.78000000
v -25.52440000 -116.65500000 1498.02000000
v -23.75890000 -137.31500000 1490.19000000
v -23.87640000 -137.31500000 1490.60000000
v -23.87640000 -137.18100000 1491.01000000
v -23.67040000 -136.90300000 1490.20000000
v -23.87640000 -136.90300000 1491.56000000
v -23.46430000 -136.19000000 1492.66000000
v -23.35010000 -135.66700000 1492.25000000
v -23.36940000 -135.46100000 1492.87000000
v -23.25840000 -135.82800000 1492.66000000
v -23.87640000 -135.04900000 1493.89000000
v -23.33400000 -135.66700000 1493.07000000
v -23.40390000 -135.66700000 1493.28000000
v -23.37580000 -135.25500000 1493.48000000
v -23.63980000 -134.84300000 1493.69000000
v -23.42410000 -127.83900000 1493.90000000
v -23.25840000 -126.71400000 1495.34000000
v -23.67040000 -125.08800000 1500.28000000
v -22.85760000 -123.30700000 1483.39000000
v -22.33300000 -123.30700000 1484.63000000
v -23.13760000 -122.07100000 1506.87000000
v -23.75560000 -121.65900000 1506.26000000
v -23.67040000 -118.28100000 1503.58000000
v -21.61030000 -129.43700000 1494.10000000
v -21.61030000 -129.28100000 1494.55000000
v -20.99230000 -129.74600000 1494.10000000
v -21.40600000 -128.86900000 1495.13000000
v -20.99230000 -126.93600000 1488.33000000
v -20.78640000 -128.00100000 1498.22000000
v -20.78640000 -125.52300000 1486.89000000
v -20.99230000 -123.76500000 1490.39000000
v -21.02610000 -122.27700000 1495.75000000
v -22.22830000 -120.62900000 1509.00000000
v -21.97250000 -121.24700000 1509.14000000
v -21.40440000 -121.64900000 1509.55000000
v -21.01650000 -120.62900000 1511.41000000
v -20.76180000 -120.83500000 1511.61000000
v -21.42290000 -119.18700000 1499.87000000
v -20.58890000 -119.39300000 1503.17000000
v -20.08030000 -130.31100000 1495.75000000
v -19.75630000 -130.55400000 1495.54000000
v -19.65820000 -129.69300000 1496.57000000
v -19.96240000 -127.32500000 1503.58000000
v -19.69040000 -125.77900000 1488.54000000
v -19.13830000 -124.13100000 1508.69000000
v -20.37430000 -120.42300000 1512.15000000
v -20.09360000 -120.83500000 1512.44000000
v -19.97140000 -120.62900000 1512.64000000
v -19.82220000 -121.04100000 1512.44000000
v -19.96240000 -120.42300000 1512.44000000
v -19.75630000 -120.83500000 1512.73000000
v -19.34440000 -121.09700000 1512.64000000
v -18.52030000 -130.85600000 1496.57000000
v -18.52030000 -130.69100000 1496.78000000
v -18.52030000 -130.20600000 1497.19000000
v -18.10840000 -130.83100000 1496.37000000
v -17.69640000 -130.77300000 1496.99000000
v -17.69640000 -130.03600000 1497.81000000
v -17.49040000 -130.81800000 1496.78000000
v -18.93240000 -129.64000000 1497.60000000
v -18.10840000 -128.04500000 1492.11000000
v -18.52030000 -128.18500000 1503.99000000
v -17.69640000 -127.51500000 1505.84000000
v -17.49040000 -128.23900000 1504.61000000
v -18.52030000 -126.68500000 1506.46000000
v -18.20970000 -125.57300000 1498.63000000
v -17.69640000 -126.48500000 1507.08000000
v -18.52030000 -123.71900000 1509.45000000
v -17.69640000 -123.10100000 1510.15000000
v -18.83580000 -120.62900000 1512.64000000
v -17.53110000 -121.04100000 1511.61000000
v -17.43400000 -121.24700000 1511.61000000
v -18.93240000 -121.00800000 1512.85000000
v -18.72640000 -120.83500000 1512.94000000
v -16.66630000 -130.17100000 1496.16000000
v -17.28430000 -130.66600000 1496.99000000
v -17.07840000 -130.50500000 1496.37000000
v -16.93240000 -130.51700000 1496.57000000
v -16.87240000 -130.06800000 1497.60000000
v -16.66630000 -129.94500000 1497.60000000
v -16.04830000 -129.58600000 1496.57000000
v -16.46040000 -129.53700000 1498.43000000
v -16.87240000 -128.63500000 1503.17000000
v -16.25440000 -128.35900000 1502.96000000
v -15.92120000 -127.22100000 1494.31000000
v -15.67340000 -127.01500000 1503.78000000
v -16.46040000 -127.64700000 1505.02000000
v -15.70780000 -127.22100000 1504.61000000
v -15.84240000 -126.61400000 1505.64000000
v -17.07840000 -127.16400000 1506.26000000
v -15.84070000 -126.39700000 1504.61000000
v -15.68300000 -125.98500000 1505.64000000
v -17.07840000 -125.98500000 1507.50000000
v -16.04830000 -124.25900000 1508.11000000
v -15.91800000 -123.51300000 1507.90000000
v -15.74420000 -123.92500000 1507.90000000
v -16.08860000 -122.68900000 1508.93000000
v -16.16580000 -122.68900000 1509.35000000
v -17.28430000 -121.70300000 1511.20000000
v -16.67880000 -121.65900000 1510.17000000
v -15.34180000 -128.86900000 1495.96000000
v -14.76570000 -128.04500000 1495.96000000
v -14.71420000 -128.04500000 1496.16000000
v -14.69810000 -127.83900000 1496.16000000
v -15.22430000 -127.42800000 1497.81000000
v -15.23240000 -128.04500000 1500.28000000
v -15.33220000 -127.63300000 1500.69000000
v -15.63640000 -127.36700000 1501.31000000
v -15.63150000 -127.63300000 1503.17000000
v -15.56390000 -127.42700000 1502.96000000
v -15.56390000 -127.42700000 1503.37000000
v -15.55750000 -127.22100000 1503.99000000
v -15.63640000 -126.80900000 1505.02000000
v -15.63640000 -126.55300000 1505.02000000
v -35.67790000 -110.32900000 1476.18000000
v -35.43010000 -110.32900000 1484.01000000
v -36.21540000 -109.71100000 1481.33000000
v -35.87590000 -109.29900000 1481.33000000
v -35.82440000 -109.18100000 1480.51000000
v -35.82440000 -109.18100000 1480.51000000
v -35.61840000 -109.25200000 1481.12000000
v -36.33770000 -109.09300000 1482.15000000
v -36.37430000 -109.09300000 1482.57000000
v -36.37430000 -109.09300000 1482.57000000
v -36.03030000 -109.38300000 1481.54000000
v -36.03030000 -109.15400000 1481.74000000
v -36.03030000 -109.29900000 1483.05000000
v -36.03030000 -109.29900000 1483.05000000
v -36.03030000 -108.89800000 1482.57000000
v -35.61840000 -109.09300000 1481.55000000
v -34.38240000 -116.71500000 1465.50000000
v -34.38240000 -116.09700000 1465.38000000
v -34.38240000 -116.09700000 1465.38000000
v -34.38240000 -115.68500000 1465.62000000
v -33.83030000 -116.50900000 1466.09000000
v -34.66560000 -115.68500000 1470.62000000
v -34.79430000 -115.47900000 1470.78000000
v -34.87470000 -115.27300000 1472.06000000
v -34.79430000 -115.18700000 1471.85000000
v -34.58840000 -115.06700000 1465.35000000
v -34.54170000 -114.65500000 1465.47000000
v -34.54170000 -114.65500000 1465.47000000
v -34.79430000 -113.38500000 1466.50000000
v -34.79430000 -113.38500000 1466.50000000
v -34.96790000 -113.00700000 1467.32000000
v -34.95370000 -113.00700000 1468.15000000
v -34.79430000 -113.28700000 1466.91000000
v -34.79430000 -112.77700000 1467.32000000
v -34.79430000 -112.77700000 1467.32000000
v -34.79430000 -112.74100000 1467.73000000
v -34.79430000 -112.65900000 1468.15000000
v -34.79430000 -112.65900000 1468.15000000
v -34.79430000 -111.94600000 1469.18000000
v -34.79430000 -111.94900000 1469.79000000
v -34.58840000 -111.93000000 1470.00000000
v -35.00040000 -111.49900000 1470.62000000
v -35.00040000 -111.49900000 1470.62000000
v -34.88780000 -111.56500000 1471.44000000
v -34.79430000 -111.55000000 1471.24000000
v -34.79430000 -111.48600000 1471.44000000
v -35.09850000 -111.35900000 1471.65000000
v -35.09850000 -111.35900000 1471.65000000
v -35.20640000 -110.88100000 1472.68000000
v -35.00040000 -111.16800000 1471.65000000
v -35.00040000 -111.16800000 1471.65000000
v -35.00040000 -111.16800000 1471.65000000
v -35.24660000 -110.74100000 1473.91000000
v -34.58840000 -110.16100000 1482.36000000
v -33.97040000 -110.81300000 1482.77000000
v -33.97040000 -111.35900000 1486.43000000
v -35.41230000 -109.97900000 1475.56000000
v -35.41230000 -109.97900000 1475.56000000
v -35.20640000 -109.97900000 1476.39000000
v -34.19980000 -109.09300000 1481.33000000
v -35.20640000 -109.25600000 1481.54000000
v -35.00040000 -109.00700000 1481.74000000
v -34.38240000 -108.77000000 1481.54000000
v -34.17630000 -109.91700000 1482.39000000
v -32.73440000 -121.60900000 1470.82000000
v -33.69510000 -116.92100000 1466.29000000
v -33.55830000 -117.12700000 1466.27000000
v -33.55830000 -117.12700000 1466.27000000
v -32.82100000 -117.12700000 1466.50000000
v -32.82100000 -117.12700000 1466.50000000
v -32.88980000 -117.12700000 1485.24000000
v -32.73440000 -117.12700000 1484.96000000
v -33.35390000 -116.50900000 1467.32000000
v -33.25100000 -116.30300000 1467.53000000
v -33.35030000 -115.89100000 1484.42000000
v -33.14640000 -115.89100000 1484.58000000
v -32.73440000 -115.89100000 1484.80000000
v -32.73440000 -115.89100000 1484.80000000
v -32.73440000 -115.89100000 1484.80000000
v -32.32230000 -116.50900000 1484.97000000
v -33.69840000 -110.32900000 1482.15000000
v -33.37970000 -111.35900000 1482.57000000
v -33.35240000 -111.69800000 1486.89000000
v -30.59960000 -128.86900000 1478.45000000
v -31.29240000 -126.55000000 1475.56000000
v -31.29240000 -126.55000000 1475.56000000
v -30.75000000 -126.60300000 1481.33000000
v -31.70440000 -121.86500000 1471.08000000
v -31.28740000 -122.68900000 1471.65000000
v -31.28740000 -122.68900000 1471.65000000
v -30.80790000 -121.86500000 1476.80000000
v -31.70440000 -121.42600000 1471.03000000
v -31.59010000 -121.45300000 1471.24000000
v -32.00210000 -119.80500000 1469.18000000
v -32.11640000 -119.18700000 1469.47000000
v -32.11640000 -119.18700000 1469.47000000
v -31.91840000 -119.18700000 1469.79000000
v -31.91040000 -119.73600000 1470.62000000
v -31.91040000 -119.73600000 1470.62000000
v -31.83710000 -120.01100000 1472.27000000
v -31.94090000 -119.59900000 1473.91000000
v -31.94090000 -119.59900000 1473.91000000
v -31.85220000 -119.39300000 1473.91000000
v -31.85220000 -119.39300000 1473.91000000
v -31.70440000 -119.83600000 1473.30000000
v -31.70440000 -119.49600000 1474.33000000
v -31.73810000 -118.98100000 1475.97000000
v -31.69950000 -119.39300000 1474.94000000
v -31.69950000 -119.39300000 1474.94000000
v -31.70440000 -119.29300000 1475.36000000
v -31.70440000 -119.18700000 1475.78000000
v -31.70440000 -119.18700000 1475.78000000
v -31.70440000 -119.01900000 1475.97000000
v -31.66710000 -118.98100000 1475.97000000
v -31.70440000 -118.87100000 1476.18000000
v -31.32470000 -119.59900000 1476.18000000
v -31.43560000 -119.39300000 1475.97000000
v -31.49840000 -119.18700000 1476.01000000
v -31.49840000 -119.18700000 1476.01000000
v -31.70440000 -118.59600000 1477.62000000
v -31.70440000 -118.59600000 1477.62000000
v -31.29240000 -118.86800000 1478.45000000
v -31.29240000 -118.97200000 1479.48000000
v -31.29240000 -118.98100000 1479.48000000
v -31.11370000 -119.18700000 1479.89000000
v -31.05900000 -119.18700000 1479.89000000
v -31.08640000 -119.14800000 1479.89000000
v -31.08640000 -118.98100000 1480.05000000
v -31.05580000 -118.98100000 1480.09000000
v -30.84070000 -119.59900000 1480.09000000
v -30.84070000 -119.59900000 1480.09000000
v -30.88040000 -119.42600000 1480.51000000
v -30.81450000 -119.18700000 1480.71000000
v -30.86810000 -119.18700000 1480.92000000
v -30.86810000 -119.18700000 1480.92000000
v -30.86810000 -119.18700000 1480.92000000
v -30.67440000 -119.66100000 1480.30000000
v -30.64700000 -119.59900000 1480.51000000
v -30.67440000 -119.56900000 1480.51000000
v -30.67440000 -119.39300000 1480.84000000
v -30.87870000 -118.98100000 1481.54000000
v -30.86260000 -118.98100000 1481.74000000
v -30.88040000 -118.96200000 1481.74000000
v -30.88040000 -118.96900000 1481.95000000
v -30.53430000 -119.59900000 1482.77000000
v -30.67440000 -119.39300000 1482.21000000
v -30.67440000 -119.18700000 1481.93000000
v -30.67440000 -119.18200000 1481.95000000
v -30.60190000 -119.18700000 1482.36000000
v -30.60190000 -119.18700000 1482.36000000
v -30.67440000 -119.12200000 1482.57000000
v -30.67270000 -119.18700000 1482.98000000
v -31.99740000 -118.77500000 1486.07000000
v -30.90130000 -118.56900000 1486.07000000
v -32.11640000 -116.92100000 1485.19000000
v -31.29240000 -118.05400000 1485.86000000
v -32.11640000 -113.07600000 1489.16000000
v -30.13650000 -125.77900000 1474.94000000
v -29.46570000 -125.57300000 1489.16000000
v -30.26240000 -121.86500000 1487.79000000
v -30.26240000 -121.86500000 1487.79000000
v -29.64440000 -121.86500000 1487.56000000
v -29.23240000 -122.09900000 1487.30000000
v -29.04760000 -121.86500000 1487.72000000
v -29.85040000 -122.89500000 1488.18000000
v -30.18350000 -120.21700000 1483.80000000
v -29.85040000 -120.19500000 1484.01000000
v -29.85040000 -120.19500000 1484.01000000
v -29.64600000 -120.62900000 1485.86000000
v -29.64600000 -120.42300000 1485.45000000
v -29.64600000 -120.42300000 1485.45000000
v -29.64440000 -120.47400000 1485.45000000
v -29.62020000 -120.42300000 1485.66000000
v -29.58800000 -120.42300000 1485.86000000
v -29.64440000 -120.42300000 1486.11000000
v -29.43840000 -120.70600000 1485.66000000
v -29.43840000 -120.61200000 1486.07000000
v -29.43840000 -120.56200000 1486.27000000
v -30.46840000 -121.45300000 1487.69000000
v -29.27180000 -120.83500000 1487.10000000
v -29.23240000 -121.45300000 1487.60000000
v -29.19880000 -121.24700000 1487.30000000
v -29.23240000 -120.91400000 1487.10000000
v -29.23240000 -120.91000000 1487.30000000
v -29.23240000 -121.04100000 1487.36000000
v -29.05420000 -121.04100000 1487.51000000
v -29.23240000 -120.77100000 1486.69000000
v -29.23240000 -120.79600000 1487.10000000
v -29.23240000 -120.77300000 1487.51000000
v -29.02640000 -121.09400000 1487.30000000
v -30.41850000 -119.80500000 1481.12000000
v -30.46840000 -119.41600000 1482.36000000
v -30.46840000 -119.39300000 1482.43000000
v -29.85840000 -120.01100000 1487.30000000
v -30.05640000 -115.47900000 1493.55000000
v -29.64440000 -115.12000000 1493.48000000
v -29.23240000 -115.80500000 1494.93000000
v -29.23240000 -115.80500000 1494.93000000
v -29.23240000 -115.80500000 1494.93000000
v -27.80480000 -137.52100000 1487.51000000
v -27.92390000 -137.10900000 1486.89000000
v -28.36810000 -135.87300000 1485.86000000
v -28.82040000 -134.11600000 1483.60000000
v -27.37840000 -131.34100000 1491.64000000
v -27.99640000 -126.80900000 1490.28000000
v -28.82040000 -125.36700000 1489.42000000
v -27.99640000 -125.57300000 1489.37000000
v -27.59010000 -125.36700000 1489.57000000
v -27.79030000 -125.16100000 1489.67000000
v -27.75010000 -126.39700000 1489.78000000
v -28.40830000 -123.71900000 1488.81000000
v -28.40830000 -123.51300000 1488.66000000
v -27.79030000 -124.74900000 1489.07000000
v -27.99640000 -121.97300000 1476.39000000
v -28.74150000 -116.92100000 1496.16000000
v -28.40830000 -116.30300000 1495.85000000
v -28.20240000 -116.57100000 1496.37000000
v -26.34840000 -137.10900000 1485.47000000
v -26.34840000 -136.77600000 1484.83000000
v -25.93630000 -138.13900000 1486.27000000
v -25.60320000 -138.13900000 1486.69000000
v -26.03130000 -137.31500000 1490.81000000
v -26.03130000 -137.31500000 1490.81000000
v -25.86580000 -137.31500000 1491.01000000
v -25.64090000 -136.90300000 1492.25000000
v -26.34840000 -136.29000000 1484.42000000
v -27.17230000 -134.53800000 1483.18000000
v -27.17230000 -134.53800000 1483.18000000
v -27.17230000 -128.61400000 1491.22000000
v -26.96640000 -128.75100000 1491.01000000
v -26.96640000 -128.37900000 1490.81000000
v -26.34840000 -128.66300000 1491.14000000
v -27.00340000 -129.28100000 1491.42000000
v -27.17230000 -122.28500000 1477.62000000
v -26.34840000 -122.68900000 1478.70000000
v -25.93630000 -122.89500000 1479.40000000
v -26.14240000 -116.78700000 1498.43000000
v -26.14240000 -116.37800000 1497.81000000
v -24.28840000 -137.72700000 1489.13000000
v -24.28840000 -137.70300000 1490.19000000
v -24.28840000 -137.44500000 1490.60000000
v -25.31830000 -136.77600000 1492.87000000
v -25.11240000 -137.08100000 1492.45000000
v -24.64640000 -136.69700000 1492.87000000
v -25.52440000 -135.46100000 1493.84000000
v -25.31830000 -135.87300000 1494.04000000
v -24.28840000 -135.46100000 1494.01000000
v -24.28840000 -135.46100000 1494.01000000
v -24.28840000 -135.46100000 1494.01000000
v -24.90640000 -123.62400000 1481.12000000
v -24.03820000 -123.92500000 1481.95000000
v -23.75890000 -137.31500000 1490.19000000
v -23.25840000 -135.82800000 1492.66000000
v -23.40390000 -135.66700000 1493.28000000
v -23.37580000 -135.25500000 1493.48000000
v -22.85760000 -123.30700000 1483.39000000
v -20.78640000 -125.52300000 1486.89000000
v -21.01650000 -120.62900000 1511.41000000
v -20.37430000 -120.42300000 1512.15000000
v -19.97140000 -120.62900000 1512.64000000
v -19.97140000 -120.62900000 1512.64000000
v -17.53110000 -121.04100000 1511.61000000
v -18.72640000 -120.83500000 1512.94000000
v -18.72640000 -120.83500000 1512.94000000
v -18.72640000 -120.83500000 1512.94000000
v -15.74420000 -123.92500000 1507.90000000
v -16.67880000 -121.65900000 1510.17000000
v -14.69810000 -127.83900000 1496.16000000
v -15.23240000 -128.04500000 1500.28000000
v -15.33220000 -127.63300000 1500.69000000
v -35.82440000 -108.90800000 1482.15000000
v -35.00040000 -109.00700000 1481.74000000
v -36.03030000 -108.89200000 1482.15000000
v -36.03030000 -108.89800000 1482.57000000
v -35.61840000 -109.09300000 1481.55000000
v -35.20640000 -108.97700000 1481.74000000
v -35.00040000 -109.01100000 1481.54000000
v -34.58840000 -110.16100000 1482.36000000
v -33.97040000 -110.81300000 1482.77000000
v -33.35240000 -111.69800000 1486.89000000
v -36.03030000 -108.89800000 1482.57000000
v -35.82440000 -108.90800000 1482.15000000
v -35.41230000 -109.46800000 1483.18000000
v -33.62130000 -110.94700000 1482.57000000
v -34.58840000 -109.54000000 1482.15000000
v -34.38240000 -110.02000000 1482.36000000
v -34.17630000 -109.91700000 1482.39000000
v -34.58840000 -110.16100000 1482.36000000
v -34.17630000 -110.32900000 1482.43000000
v -35.00040000 -109.00700000 1481.74000000
v -34.79430000 -109.69400000 1482.15000000
v -34.79430000 -108.84100000 1481.54000000
v -34.38240000 -108.77000000 1481.54000000
v -32.32230000 -116.50900000 1484.97000000
v -32.11640000 -116.92100000 1485.19000000
v -32.88980000 -117.12700000 1485.24000000
v -32.52840000 -116.87400000 1485.04000000
v -32.32230000 -117.53900000 1485.59000000
v -32.73440000 -116.09700000 1484.71000000
v -32.74170000 -116.30300000 1484.83000000
v -31.49840000 -118.36300000 1485.90000000
v -31.49840000 -118.15700000 1485.82000000
v -31.29240000 -118.05400000 1485.86000000
v -32.73440000 -116.09700000 1484.71000000
v -32.74170000 -116.30300000 1484.83000000
v -32.84230000 -116.09700000 1484.83000000
v -32.94030000 -116.00200000 1484.83000000
v -33.14640000 -115.89100000 1484.58000000
v -33.14640000 -115.96300000 1484.83000000
v -33.14640000 -116.09700000 1485.07000000
v -31.29240000 -118.86800000 1478.45000000
v -31.29240000 -118.97200000 1479.48000000
v -31.70440000 -118.59600000 1477.62000000
v -31.40340000 -118.98100000 1478.45000000
v -31.35510000 -118.98100000 1479.06000000
v -31.29720000 -118.98100000 1479.48000000
v -31.05580000 -118.98100000 1480.09000000
v -31.05320000 -118.98100000 1480.30000000
v -31.08640000 -119.39300000 1479.70000000
v -31.08640000 -119.22200000 1479.89000000
v -31.05900000 -119.18700000 1479.89000000
v -31.08640000 -119.18700000 1479.94000000
v -31.08640000 -119.04000000 1480.09000000
v -30.93350000 -119.39300000 1480.30000000
v -30.94310000 -119.18700000 1480.71000000
v -30.84070000 -119.59900000 1480.09000000
v -30.88040000 -119.47200000 1480.30000000
v -30.88040000 -119.42600000 1480.51000000
v -30.88040000 -119.33600000 1480.71000000
v -30.88040000 -119.19900000 1480.92000000
v -30.91090000 -119.80500000 1479.68000000
v -30.88200000 -118.98100000 1480.92000000
v -30.64700000 -119.59900000 1480.51000000
v -30.88200000 -118.98100000 1480.92000000
v -30.88040000 -119.39300000 1480.07000000
v -30.88040000 -119.18700000 1480.44000000
v -30.91090000 -119.80500000 1479.68000000
v -30.93350000 -119.39300000 1480.30000000
v -30.94310000 -119.18700000 1480.71000000
v -30.86810000 -119.18700000 1480.92000000
v -30.88040000 -119.01300000 1481.12000000
v -30.88040000 -119.00000000 1481.33000000
v -30.89160000 -118.98100000 1481.95000000
v -30.88040000 -118.98300000 1481.54000000
v -30.88040000 -119.00600000 1481.74000000
v -30.88040000 -118.99300000 1481.95000000
v -30.88040000 -118.96200000 1481.74000000
v -30.88040000 -118.96900000 1481.95000000
v -30.88200000 -118.98100000 1480.92000000
v -30.67990000 -119.18700000 1481.95000000
v -30.67440000 -119.18700000 1481.93000000
v -30.86260000 -118.98100000 1481.12000000
v -30.87230000 -118.98100000 1481.33000000
v -30.86260000 -118.98100000 1481.74000000
v -30.86810000 -119.18700000 1480.92000000
v -30.88040000 -119.01300000 1481.12000000
v -30.88040000 -119.00000000 1481.33000000
v -30.88040000 -118.98300000 1481.54000000
v -30.88040000 -119.00600000 1481.74000000
v -30.87870000 -118.98100000 1481.54000000
v -30.67990000 -119.18700000 1481.95000000
v -30.89160000 -118.98100000 1481.95000000
v -30.88040000 -118.99300000 1481.95000000
v -30.86890000 -118.98100000 1481.95000000
v -30.88040000 -118.96900000 1481.95000000
v -30.67440000 -119.18200000 1481.95000000
v -30.67440000 -119.12200000 1482.57000000
v -30.78540000 -119.39300000 1481.54000000
v -30.67990000 -119.18700000 1481.95000000
v -30.74680000 -119.18700000 1482.36000000
v -30.67440000 -119.18700000 1481.93000000
v -30.67440000 -119.18200000 1481.95000000
v -30.67270000 -119.18700000 1482.98000000
v -30.90130000 -118.56900000 1486.07000000
v -29.85040000 -120.42300000 1487.26000000
v -29.46250000 -121.65900000 1487.72000000
v -29.85840000 -120.01100000 1487.30000000
v -31.29240000 -118.36300000 1485.79000000
v -31.29240000 -118.05400000 1485.86000000
v -29.64440000 -121.86500000 1487.56000000
v -29.43840000 -121.86500000 1487.82000000
v -30.26240000 -120.34300000 1486.89000000
v -29.43840000 -120.83500000 1487.27000000
v -29.23240000 -121.45300000 1487.60000000
v -29.23240000 -121.04100000 1487.36000000
v -29.43840000 -121.86500000 1487.82000000
v -29.23240000 -121.86500000 1487.90000000
v -29.85040000 -120.42300000 1487.26000000
v -29.46250000 -121.65900000 1487.72000000
v -29.27180000 -120.83500000 1487.10000000
v -29.23240000 -120.91400000 1487.10000000
v -29.23240000 -120.91000000 1487.30000000
v -28.61440000 -123.59300000 1488.54000000
v -28.40830000 -123.71900000 1488.81000000
v -28.40830000 -123.51300000 1488.66000000
v -29.43840000 -122.27700000 1487.49000000
v -29.23240000 -122.68900000 1487.82000000
v -29.23240000 -122.07100000 1487.68000000
v -29.04760000 -121.86500000 1487.72000000
v -29.23240000 -123.26800000 1488.13000000
v -28.61440000 -124.54300000 1488.71000000
v -27.79030000 -124.74900000 1489.07000000
v -29.64280000 -120.42300000 1485.45000000
v -28.87670000 -121.45300000 1482.36000000
v -29.64600000 -120.42300000 1485.45000000
v -29.62020000 -120.42300000 1485.66000000
v -29.58800000 -120.42300000 1485.86000000
v -29.64440000 -120.42300000 1486.11000000
v -28.20240000 -125.36700000 1489.30000000
v -27.99640000 -125.57300000 1489.37000000
v -27.99640000 -125.33400000 1489.57000000
v -27.99640000 -125.16100000 1489.44000000
v -28.40830000 -125.33900000 1489.16000000
v -27.79030000 -125.58000000 1489.57000000
v -28.61440000 -124.54300000 1488.71000000
v -27.79030000 -124.74900000 1489.07000000
v -28.20240000 -125.36700000 1489.30000000
v -27.99640000 -125.33400000 1489.57000000
v -27.99640000 -125.16100000 1489.44000000
v -27.79030000 -125.16100000 1489.67000000
v -28.61440000 -124.54300000 1488.71000000
v -24.70030000 -136.07900000 1493.57000000
v -24.28840000 -135.46100000 1494.01000000
v -24.64640000 -136.69700000 1492.87000000
v -25.13440000 -136.69700000 1493.28000000
v -24.08230000 -136.34100000 1492.45000000
v -24.90640000 -136.07900000 1493.81000000
f 576 574 6
f 577 5 20
f 5 19 20
f 104 629 576
f 6 104 576
f 7 10 12
f 12 9 7
f 8 15 13
f 13 7 8
f 7 9 8
f 16 18 579
f 578 580 17
f 7 13 11
f 10 7 11
f 12 100 9
f 15 14 13
f 563 564 566
f 559 562 538
f 838 840 839
f 559 838 839
f 839 840 566
f 567 565 566
f 567 566 568
f 569 568 570
f 443 447 444
f 447 821 444
f 475 821 447
f 476 447 448
f 392 391 445
f 445 446 392
f 440 446 445
f 392 446 478
f 583 9 100
f 582 578 17
f 17 580 585
f 19 581 582
f 19 582 20
f 582 17 20
f 392 478 449
f 449 451 341
f 100 3 583
f 16 113 18
f 115 156 35
f 28 26 23
f 23 26 21
f 26 27 21
f 27 22 21
f 24 23 32
f 32 23 22
f 23 21 22
f 24 28 23
f 24 587 33
f 24 33 25
f 121 123 24
f 25 121 24
f 121 25 122
f 25 33 34
f 25 34 122
f 115 35 26
f 27 26 35
f 28 116 115
f 28 115 26
f 28 24 635
f 31 22 30
f 22 27 30
f 31 30 29
f 27 53 30
f 30 41 29
f 478 489 449
f 30 53 41
f 32 22 31
f 449 341 392
f 455 454 406
f 457 406 454
f 454 453 457
f 341 451 455
f 33 587 588
f 33 589 34
f 34 589 590
f 455 451 479
f 35 156 40
f 593 35 40
f 593 40 43
f 35 592 27
f 27 592 36
f 593 36 592
f 27 36 53
f 36 43 53
f 36 593 43
f 164 38 37
f 455 479 454
f 164 37 655
f 453 456 457
f 460 459 458
f 38 39 37
f 462 460 463
f 463 460 458
f 39 594 37
f 39 38 44
f 164 119 38
f 40 595 47
f 594 47 595
f 39 47 594
f 38 119 117
f 73 38 117
f 461 464 822
f 463 819 425
f 599 42 597
f 596 598 591
f 598 141 591
f 598 42 141
f 41 53 600
f 141 61 62
f 53 43 52
f 43 55 52
f 43 40 55
f 55 47 71
f 40 47 55
f 44 38 45
f 44 45 71
f 44 47 39
f 45 38 46
f 45 46 71
f 47 44 71
f 49 46 38
f 38 48 49
f 38 73 48
f 48 46 49
f 1 50 51
f 172 50 73
f 1 51 100
f 54 53 52
f 601 52 57
f 600 53 56
f 463 469 819
f 54 603 53
f 464 465 466
f 58 57 52
f 52 59 58
f 52 55 59
f 602 64 607
f 607 64 65
f 42 599 60
f 463 458 823
f 463 823 824
f 822 464 466
f 604 606 62
f 606 608 62
f 62 608 609
f 60 141 42
f 141 60 61
f 60 605 61
f 61 605 62
f 64 71 63
f 64 55 71
f 65 64 63
f 63 66 65
f 67 62 609
f 70 67 609
f 823 468 824
f 611 141 67
f 62 67 141
f 69 68 71
f 71 68 63
f 63 68 78
f 69 72 76
f 66 63 78
f 46 48 71
f 71 48 69
f 69 48 72
f 48 84 72
f 611 83 252
f 611 252 141
f 48 73 90
f 74 50 1
f 50 74 73
f 77 69 76
f 85 76 72
f 68 69 78
f 69 77 78
f 612 611 610
f 612 80 611
f 79 77 76
f 466 465 468
f 77 81 613
f 612 615 80
f 77 79 82
f 81 77 82
f 468 465 470
f 614 85 617
f 825 819 469
f 80 83 611
f 615 83 80
f 616 83 615
f 86 48 90
f 86 87 620
f 86 90 87
f 89 621 619
f 72 84 85
f 85 84 617
f 84 86 617
f 86 84 48
f 620 618 86
f 89 619 92
f 88 616 622
f 88 622 89
f 89 92 93
f 616 88 83
f 89 93 252
f 83 88 252
f 88 89 252
f 87 90 91
f 90 102 91
f 623 92 619
f 627 92 623
f 93 92 628
f 629 93 628
f 629 252 93
f 629 94 98
f 95 98 94
f 95 94 103
f 97 95 103
f 97 98 95
f 97 103 107
f 97 107 108
f 97 96 98
f 96 97 108
f 96 150 98
f 96 630 150
f 825 467 819
f 624 625 99
f 99 625 651
f 470 465 432
f 651 625 149
f 101 3 100
f 626 114 572
f 113 114 626
f 100 75 101
f 113 626 653
f 825 471 467
f 98 252 629
f 94 629 103
f 104 6 105
f 105 6 109
f 109 6 586
f 103 629 104
f 104 105 103
f 110 106 105
f 631 110 105
f 106 110 111
f 105 106 107
f 107 103 105
f 107 106 112
f 112 106 111
f 108 107 112
f 150 630 633
f 468 470 824
f 470 432 471
f 465 464 432
f 432 431 471
f 471 431 467
f 434 484 482
f 434 480 433
f 481 472 480
f 110 632 111
f 483 472 481
f 483 473 472
f 439 486 484
f 436 473 474
f 499 440 474
f 445 474 440
f 447 476 826
f 487 476 448
f 446 477 478
f 446 440 499
f 499 477 446
f 150 633 634
f 114 584 572
f 114 113 16
f 635 168 655
f 168 635 174
f 656 115 116
f 174 635 24
f 174 24 118
f 119 164 117
f 73 117 172
f 172 117 166
f 24 124 118
f 122 133 637
f 636 123 121
f 34 133 122
f 124 24 123
f 123 125 124
f 135 639 638
f 638 643 135
f 118 124 126
f 125 126 124
f 126 640 182
f 664 639 139
f 639 135 138
f 183 139 140
f 118 126 182
f 664 139 183
f 172 120 50
f 127 129 128
f 128 130 127
f 478 477 490
f 477 499 491
f 120 128 642
f 120 130 128
f 132 641 130
f 491 490 477
f 448 450 522
f 488 450 452
f 120 131 130
f 131 247 130
f 130 247 132
f 120 245 131
f 489 478 490
f 723 248 247
f 248 132 247
f 489 451 449
f 452 495 494
f 434 482 480
f 133 34 134
f 644 136 643
f 136 644 137
f 644 141 140
f 644 591 141
f 138 135 643
f 136 138 643
f 138 137 139
f 136 137 138
f 137 644 140
f 137 140 139
f 139 639 138
f 246 140 141
f 51 50 143
f 51 645 146
f 120 143 50
f 144 142 120
f 120 142 143
f 496 481 480
f 496 483 481
f 497 482 484
f 498 473 483
f 146 645 646
f 498 485 473
f 499 474 516
f 827 821 475
f 485 474 473
f 647 146 646
f 147 146 648
f 516 474 485
f 826 476 541
f 142 144 145
f 448 522 487
f 491 499 521
f 522 450 488
f 489 492 451
f 390 147 649
f 489 490 828
f 491 493 490
f 490 493 828
f 492 502 451
f 479 451 502
f 493 503 828
f 452 494 551
f 251 649 650
f 251 390 649
f 146 100 51
f 146 147 100
f 390 100 147
f 253 303 98
f 255 101 148
f 148 101 75
f 653 626 727
f 495 453 454
f 150 151 98
f 652 653 253
f 652 651 149
f 149 653 652
f 253 98 652
f 153 655 154
f 655 262 263
f 154 655 263
f 263 262 264
f 153 152 155
f 154 152 153
f 260 654 154
f 260 154 263
f 152 257 155
f 270 267 157
f 655 153 164
f 262 655 162
f 153 155 164
f 155 159 164
f 159 657 158
f 161 166 167
f 158 657 167
f 267 160 157
f 160 161 167
f 157 160 167
f 160 269 161
f 170 187 163
f 454 479 506
f 480 482 497
f 117 164 159
f 158 167 117
f 159 158 117
f 167 166 117
f 174 169 168
f 655 168 659
f 169 659 168
f 655 659 162
f 187 165 163
f 118 175 174
f 169 174 177
f 175 662 174
f 180 175 176
f 175 664 176
f 178 660 658
f 662 178 658
f 170 663 187
f 179 662 175
f 662 179 178
f 663 179 187
f 179 175 180
f 176 179 180
f 187 179 176
f 188 165 187
f 165 190 191
f 165 188 193
f 165 191 171
f 171 191 200
f 208 212 216
f 216 227 273
f 274 245 173
f 274 293 245
f 181 723 749
f 293 274 275
f 277 181 749
f 182 175 118
f 184 665 140
f 664 183 185
f 664 185 176
f 176 185 186
f 185 183 186
f 176 186 187
f 670 668 189
f 666 667 669
f 140 339 184
f 496 480 497
f 496 497 509
f 337 189 668
f 675 189 337
f 483 496 498
f 671 673 192
f 193 672 165
f 165 672 190
f 671 192 190
f 674 675 194
f 496 511 498
f 192 195 190
f 516 498 511
f 190 195 191
f 337 194 675
f 194 337 196
f 485 498 516
f 676 194 196
f 516 518 499
f 678 196 337
f 499 518 521
f 827 475 500
f 500 484 486
f 541 476 487
f 679 197 661
f 679 198 197
f 488 452 551
f 501 493 491
f 524 493 501
f 524 505 493
f 551 494 553
f 553 494 495
f 683 199 203
f 677 199 683
f 495 454 527
f 503 504 828
f 828 504 829
f 493 505 503
f 198 171 197
f 198 681 171
f 171 681 206
f 206 681 201
f 206 201 207
f 680 678 205
f 205 202 680
f 503 507 504
f 830 506 502
f 687 682 205
f 479 502 506
f 505 507 503
f 203 207 201
f 207 203 208
f 508 507 505
f 530 506 830
f 507 833 831
f 203 688 683
f 508 524 529
f 684 689 210
f 203 199 208
f 529 507 508
f 210 685 684
f 171 206 204
f 171 204 208
f 678 337 205
f 506 526 454
f 526 506 530
f 337 687 205
f 507 529 833
f 207 208 686
f 687 210 689
f 687 337 210
f 497 512 509
f 484 512 497
f 690 208 199
f 209 685 210
f 691 685 209
f 208 211 212
f 212 213 214
f 208 690 211
f 512 484 533
f 692 691 209
f 496 509 510
f 510 511 496
f 510 514 511
f 511 514 516
f 512 515 509
f 515 513 509
f 513 510 509
f 513 514 510
f 212 214 216
f 217 222 223
f 217 214 222
f 218 215 692
f 214 213 222
f 514 513 532
f 695 694 219
f 515 532 513
f 219 694 218
f 512 533 515
f 692 209 210
f 693 692 215
f 514 532 535
f 514 518 516
f 514 520 518
f 520 514 539
f 484 517 531
f 217 216 214
f 224 216 217
f 484 500 517
f 692 210 220
f 218 692 220
f 219 218 220
f 696 219 220
f 697 219 696
f 696 220 221
f 517 557 531
f 220 210 285
f 221 220 285
f 223 222 225
f 500 557 517
f 225 222 226
f 519 521 518
f 519 518 520
f 519 523 521
f 523 519 546
f 500 475 558
f 541 558 826
f 521 501 491
f 501 521 524
f 523 524 521
f 525 524 523
f 505 524 508
f 529 524 525
f 834 529 525
f 527 454 526
f 527 526 530
f 525 555 834
f 554 528 555
f 528 832 835
f 555 528 834
f 697 696 698
f 698 696 699
f 528 554 556
f 832 528 556
f 484 531 533
f 533 534 515
f 515 534 532
f 532 534 536
f 536 535 532
f 533 531 534
f 534 537 536
f 531 557 537
f 531 537 534
f 538 536 537
f 535 538 514
f 538 535 536
f 538 539 514
f 228 233 273
f 227 216 700
f 227 700 232
f 707 701 234
f 540 539 538
f 538 562 540
f 233 228 229
f 520 539 543
f 540 543 539
f 544 543 540
f 557 500 558
f 541 487 560
f 560 487 561
f 487 564 563
f 566 565 839
f 564 487 566
f 540 565 544
f 562 565 540
f 568 544 565
f 761 702 709
f 567 568 565
f 568 569 544
f 229 704 233
f 233 705 235
f 233 235 230
f 568 566 542
f 542 570 568
f 542 547 570
f 546 520 543
f 546 519 520
f 543 545 546
f 544 545 543
f 703 710 706
f 569 545 544
f 566 487 522
f 566 522 542
f 542 522 488
f 547 488 548
f 542 488 547
f 547 548 570
f 569 570 548
f 569 552 545
f 548 836 569
f 836 548 551
f 523 546 549
f 227 228 273
f 273 233 230
f 231 234 285
f 231 707 234
f 231 708 707
f 231 285 708
f 285 761 708
f 285 234 221
f 761 709 708
f 761 298 706
f 761 706 710
f 549 525 523
f 546 545 549
f 525 549 555
f 548 488 551
f 550 545 552
f 555 549 550
f 230 235 236
f 550 549 545
f 836 551 553
f 836 553 554
f 240 236 241
f 554 550 552
f 554 555 550
f 495 837 553
f 554 553 556
f 837 495 527
f 242 237 717
f 712 717 237
f 559 557 558
f 538 537 557
f 557 559 538
f 713 711 712
f 237 713 712
f 714 713 237
f 541 838 558
f 230 240 238
f 236 240 230
f 558 838 559
f 239 298 716
f 563 560 561
f 563 561 487
f 73 1 90
f 715 230 238
f 706 239 717
f 706 298 239
f 74 1 73
f 719 242 239
f 2 90 1
f 2 1 4
f 1 10 4
f 720 763 721
f 763 243 721
f 1 100 10
f 243 737 244
f 722 738 241
f 241 236 722
f 239 242 717
f 721 718 720
f 244 721 243
f 100 12 10
f 90 2 102
f 120 173 245
f 294 250 248
f 10 11 4
f 181 248 723
f 294 248 181
f 11 13 4
f 140 246 339
f 573 13 14
f 650 725 251
f 248 250 249
f 5 573 14
f 571 573 575
f 575 573 5
f 726 251 725
f 5 14 19
f 724 251 726
f 390 299 100
f 299 148 75
f 75 100 299
f 299 300 148
f 303 253 452
f 253 254 304
f 148 301 255
f 766 254 727
f 254 766 304
f 148 765 301
f 98 303 252
f 653 254 253
f 653 727 254
f 257 313 256
f 312 256 313
f 372 773 258
f 257 256 259
f 258 654 260
f 257 654 258
f 258 313 257
f 260 264 261
f 261 264 321
f 264 265 321
f 257 159 155
f 261 258 260
f 159 257 259
f 265 264 262
f 262 728 265
f 262 162 728
f 263 264 260
f 324 728 271
f 265 728 324
f 319 324 271
f 266 657 159
f 270 657 266
f 259 266 159
f 160 267 269
f 267 270 268
f 369 172 166
f 269 267 268
f 268 259 269
f 259 369 269
f 369 166 269
f 259 270 266
f 270 259 268
f 271 728 165
f 269 166 161
f 173 120 172
f 172 369 173
f 165 728 163
f 171 271 165
f 171 208 273
f 273 271 171
f 271 273 327
f 272 274 173
f 729 283 274
f 283 729 329
f 776 284 735
f 338 337 668
f 273 208 216
f 276 275 274
f 276 274 283
f 276 283 730
f 735 277 731
f 279 277 278
f 278 277 735
f 280 735 284
f 280 278 735
f 282 279 733
f 278 733 279
f 733 281 282
f 667 336 669
f 336 667 339
f 210 337 285
f 273 736 740
f 286 273 740
f 286 290 287
f 740 290 286
f 287 290 739
f 291 739 290
f 273 286 291
f 285 746 742
f 292 288 746
f 291 289 295
f 741 737 285
f 746 288 743
f 291 290 289
f 744 747 745
f 748 745 747
f 291 295 296
f 748 747 292
f 285 292 746
f 292 285 379
f 292 379 748
f 277 749 731
f 294 181 277
f 277 732 294
f 291 296 335
f 759 764 750
f 764 759 297
f 335 296 734
f 296 751 734
f 296 752 751
f 760 753 379
f 752 755 751
f 758 757 379
f 757 748 379
f 756 759 754
f 297 759 756
f 297 760 379
f 756 760 297
f 297 390 251
f 764 297 251
f 339 246 447
f 230 715 273
f 715 736 273
f 762 298 285
f 762 285 763
f 243 763 285
f 285 737 243
f 761 285 298
f 764 251 724
f 141 252 246
f 246 252 303
f 302 301 765
f 351 766 344
f 766 767 344
f 342 768 300
f 300 340 342
f 769 785 786
f 304 350 253
f 350 452 253
f 304 766 351
f 310 311 306
f 307 310 306
f 305 309 307
f 309 310 307
f 311 308 306
f 311 309 359
f 310 309 311
f 359 309 305
f 311 359 352
f 311 352 308
f 305 773 372
f 305 307 312
f 771 314 772
f 771 770 314
f 797 317 373
f 305 312 313
f 772 314 256
f 369 256 314
f 258 315 317
f 316 317 315
f 317 372 258
f 317 316 319
f 256 369 259
f 258 261 315
f 261 321 315
f 318 322 319
f 321 318 315
f 315 318 316
f 316 318 319
f 370 173 369
f 370 320 173
f 324 322 265
f 322 324 319
f 265 322 321
f 321 322 318
f 173 320 272
f 774 323 729
f 325 729 323
f 374 774 378
f 774 374 323
f 374 325 323
f 271 327 319
f 319 327 328
f 319 328 464
f 329 729 325
f 326 333 775
f 376 333 326
f 376 326 775
f 273 328 327
f 464 328 273
f 464 273 335
f 330 776 775
f 334 284 330
f 330 284 776
f 330 775 333
f 780 331 777
f 331 780 332
f 778 335 779
f 335 783 779
f 335 273 291
f 782 783 734
f 783 782 781
f 335 734 783
f 339 380 336
f 380 339 381
f 338 668 784
f 804 338 784
f 389 337 338
f 337 379 285
f 297 435 390
f 381 339 447
f 448 246 450
f 391 340 299
f 392 341 340
f 450 303 452
f 300 299 340
f 341 343 785
f 340 341 342
f 343 341 394
f 303 450 246
f 495 452 350
f 351 344 347
f 348 786 785
f 344 345 347
f 345 344 787
f 347 397 351
f 345 393 346
f 345 396 347
f 345 346 396
f 346 400 396
f 347 396 397
f 343 348 785
f 345 787 349
f 787 343 349
f 394 349 343
f 393 345 349
f 393 349 394
f 351 350 304
f 352 353 358
f 352 358 360
f 367 356 305
f 353 352 359
f 353 359 305
f 353 305 354
f 356 355 305
f 355 354 305
f 353 354 357
f 357 354 788
f 789 357 788
f 353 357 358
f 357 407 790
f 789 407 357
f 791 790 407
f 791 407 410
f 308 361 770
f 361 314 770
f 352 362 308
f 308 362 361
f 361 363 314
f 361 362 792
f 793 362 415
f 793 415 364
f 794 365 363
f 365 369 363
f 364 415 366
f 365 794 795
f 365 795 369
f 372 367 305
f 368 367 798
f 796 797 373
f 367 368 356
f 789 796 407
f 373 407 796
f 407 373 319
f 369 314 363
f 795 370 369
f 426 371 370
f 426 428 371
f 370 371 320
f 371 427 320
f 430 774 815
f 319 373 317
f 431 774 430
f 431 378 774
f 375 799 803
f 376 799 375
f 376 775 799
f 377 800 378
f 377 801 800
f 378 431 377
f 464 335 432
f 780 801 377
f 802 432 778
f 377 332 780
f 335 778 432
f 379 434 433
f 434 337 389
f 389 385 437
f 389 437 434
f 385 443 437
f 379 337 434
f 297 379 433
f 433 435 297
f 436 391 435
f 382 804 384
f 380 381 805
f 804 382 338
f 382 389 338
f 386 383 382
f 382 383 389
f 384 386 382
f 386 385 383
f 383 385 389
f 805 381 447
f 806 805 387
f 447 387 805
f 386 388 385
f 387 388 806
f 388 387 447
f 385 388 441
f 443 385 441
f 391 299 390
f 391 390 435
f 391 392 340
f 447 246 448
f 395 393 394
f 395 398 393
f 395 394 341
f 807 455 406
f 395 341 455
f 453 495 350
f 351 453 350
f 396 400 399
f 399 397 396
f 397 453 351
f 397 399 401
f 397 401 456
f 397 456 453
f 393 398 346
f 398 400 346
f 399 400 401
f 398 402 400
f 400 402 401
f 398 404 402
f 402 808 405
f 404 398 395
f 401 402 403
f 405 403 402
f 401 403 456
f 405 456 403
f 405 457 456
f 457 405 808
f 406 457 808
f 406 808 807
f 408 362 352
f 352 409 408
f 352 360 410
f 409 352 410
f 411 409 410
f 411 413 409
f 409 809 408
f 413 411 412
f 411 410 412
f 412 410 319
f 412 319 414
f 414 413 412
f 417 408 809
f 417 809 458
f 414 822 413
f 822 414 461
f 414 319 461
f 408 415 362
f 408 416 415
f 415 416 418
f 418 422 415
f 418 460 422
f 408 810 416
f 811 416 810
f 458 459 417
f 417 459 418
f 459 460 418
f 366 415 420
f 420 419 366
f 370 366 419
f 812 813 421
f 813 415 422
f 421 813 423
f 423 813 422
f 422 425 423
f 462 422 460
f 423 425 814
f 422 462 425
f 462 463 425
f 424 370 419
f 407 319 410
f 424 426 370
f 426 424 428
f 816 430 815
f 371 428 427
f 428 424 429
f 428 429 817
f 818 430 816
f 818 431 430
f 461 319 464
f 467 431 818
f 432 802 431
f 433 480 472
f 472 435 433
f 436 435 472
f 472 473 436
f 437 443 438
f 820 443 444
f 484 434 437
f 439 437 438
f 444 821 820
f 439 484 437
f 391 436 445
f 445 436 474
f 441 442 443
f 441 388 442
f 388 447 442
f 442 447 443
f 593 592 35
f 565 562 559
f 554 552 569
f 558 475 447
f 305 313 258
f 291 286 287
f 270 157 167
f 257 152 154
f 559 839 565
f 569 836 554
f 447 826 558
f 258 773 305
f 287 739 291
f 167 657 270
f 154 654 257
f 845 843 841
f 846 845 841
f 847 846 842
f 841 843 844
f 842 846 841
f 850 854 849
f 852 849 848
f 853 849 852
f 853 850 849
f 851 853 852
f 858 855 861
f 863 862 860
f 860 855 863
f 861 855 860
f 856 855 858
f 858 859 856
f 856 859 857
f 857 855 856
f 857 863 855
f 870 864 869
f 873 865 872
f 864 870 867
f 868 867 866
f 871 872 865
f 868 871 865
f 868 865 867
f 864 867 865
f 876 875 874
f 880 876 877
f 880 875 876
f 877 876 874
f 877 879 880
f 878 879 877
f 884 883 881
f 884 881 885
f 885 882 886
f 881 882 885
f 888 887 893
f 889 890 891
f 893 887 891
f 891 890 892
f 893 891 892
f 902 900 895
f 896 901 894
f 897 894 898
f 898 903 897
f 898 895 899
f 898 894 895
f 895 900 899
f 896 894 897
f 907 905 908
f 908 906 909
f 906 908 905
f 906 904 909
f 917 913 914
f 915 913 916
f 917 918 913
f 916 921 915
f 916 920 921
f 910 919 911
f 911 919 912
f 912 917 914
f 919 917 912
f 914 913 915
f 926 922 925
f 927 922 926
f 923 922 927
f 928 923 927
f 930 923 928
f 924 930 929
f 929 930 928
f 933 932 931
f 932 935 931
f 934 931 935
f 934 936 931
f 942 937 940
f 941 939 938
f 939 940 938
f 943 940 937
f 939 942 940
f 950 951 946
f 948 952 944
f 952 947 944
f 950 946 952
f 949 948 944
f 952 946 945
f 945 947 952
f 955 959 954
f 953 958 959
f 953 961 960
f 957 959 956
f 959 957 954
f 960 958 953
f 959 962 953
f 959 955 962
f 969 968 965
f 967 965 968
f 966 967 968
f 964 971 972
f 963 964 965
f 967 970 963
f 963 970 971
f 967 963 965
f 971 964 963
f 977 978 976
f 975 974 973
f 973 978 975
f 978 973 976
f 979 983 980
f 979 982 983
f 983 982 985
f 984 981 980
f 980 981 979
f 988 989 987
f 991 989 986
f 989 988 990
f 989 990 986
f 995 992 997
f 993 992 996
f 994 996 992
f 995 994 992
f 992 993 997

