# Wavafront OBJ file of BodyParts3D
# BodyParts3D, Copyright(C) 2010-2011 The Database Center for Life Science licensed under CC Attribution-Share Alike 2.1 Japan.
vn -0.996682 0.0697676 -0.0419117
v -42.1894 -110.329 1510.99
vn -0.836797 -0.547424 0.00991142
v -40.7185 -114.449 1511.61
vn -0.884852 -0.39839 -0.241502
v -41.8289 -112.595 1509.96
vn -0.939519 -0.278441 0.199436
v -41.5328 -112.595 1512.02
vn -0.626685 -0.351368 0.695562
v -40.7684 -113.007 1512.56
vn -0.863871 0.0477427 -0.501445
v -41.6616 -111.153 1508.93
vn -0.80919 0.390718 -0.438807
v -41.7452 -110.535 1509.35
vn -0.627238 0.363385 -0.688856
v -41.3863 -110.741 1508.81
vn -0.648361 0.00654988 -0.761305
v -41.1804 -111.565 1508.42
vn -0.468448 0.458823 -0.755009
v -40.7684 -110.535 1508.44
vn -0.961575 -0.177861 0.209138
v -41.9351 -110.947 1511.82
vn -0.620389 -0.149742 0.769867
v -40.9743 -111.359 1512.72
vn -0.239033 0.754027 -0.611805
v -40.5624 -109.645 1509.14
vn -0.558264 0.637725 -0.530705
v -41.1804 -109.625 1509.55
vn -0.303778 0.866604 -0.395874
v -40.9743 -108.808 1510.79
vn -0.597789 0.734243 -0.321768
v -41.6744 -108.887 1511.82
vn -0.957922 -0.116668 0.262249
v -41.6579 -109.093 1513.67
vn -0.970876 -0.0752806 0.227447
v -41.5924 -108.071 1514.29
vn 0.486583 -0.378246 0.787507
v -41.1804 -108.145 1514.08
vn -0.760827 0.648954 -0.000669014
v -41.1804 -107.588 1514.08
vn 0.487277 -0.329667 0.808629
v -41.1804 -107.639 1514.29
vn 0.484763 -0.329494 0.810209
v -40.815 -107.857 1513.88
vn -0.214138 0.90045 -0.378597
v -40.9743 -107.651 1513.76
vn 0.828471 -0.466001 -0.310609
v -40.7684 -107.774 1513.88
vn -0.113206 0.966214 -0.231547
v -40.7287 -107.651 1513.67
vn -0.251047 -0.613779 -0.748499
v -40.7684 -107.651 1513.69
vn 0.36311 -0.37835 0.851471
v -40.7684 -107.651 1513.95
vn 0.358526 -0.367709 0.858049
v -40.4551 -107.857 1513.67
vn -0.111786 0.946579 -0.302476
v -40.5624 -107.651 1513.61
vn -0.101122 0.965202 -0.241161
v -40.5624 -107.617 1513.67
vn -0.594114 -0.477375 -0.647412
v -38.9144 -115.479 1507.97
vn -0.52559 -0.323597 -0.786791
v -39.3264 -114.449 1507.59
vn -0.386738 0.0502818 -0.920818
v -39.5324 -111.977 1507.36
vn 0.197609 0.0405016 0.979444
v -40.3563 -113.007 1512.59
vn -0.328209 0.357566 -0.874314
v -39.7383 -111.359 1507.57
vn -0.107676 0.349467 -0.930741
v -39.1203 -111.565 1507.34
vn -0.239965 0.599719 -0.763383
v -40.1504 -110.313 1508.32
vn -0.0491551 0.657813 -0.751576
v -39.1203 -110.344 1508.11
vn 0.417192 -0.241473 0.876151
v -40.1504 -111.359 1512.38
vn -0.0297462 0.839653 -0.542308
v -39.5324 -109.368 1509.35
vn 0.657371 -0.301541 0.690606
v -38.7532 -108.063 1512.44
vn 0.47424 -0.632353 -0.612557
v -40.3563 -107.783 1513.67
vn 0.12436 0.988823 -0.0822398
v -40.1597 -107.651 1513.47
vn -0.285783 -0.429569 -0.856621
v -40.3563 -107.651 1513.54
vn -0.152214 0.944166 -0.292201
v -40.3563 -107.585 1513.67
vn 0.40339 -0.406631 0.819712
v -40.1504 -107.745 1513.67
vn 0.312421 -0.558016 0.768772
v -40.1504 -107.651 1513.74
vn -0.734179 -0.615588 0.286415
v -37.2663 -118.767 1511.41
vn -0.724681 -0.615497 -0.309839
v -38.5023 -116.921 1509.27
vn -0.544194 -0.717797 -0.434304
v -37.4724 -118.157 1509.5
vn -0.521451 -0.593833 -0.612741
v -37.4724 -117.951 1509.3
vn -0.739506 -0.627718 -0.243108
v -37.4724 -117.676 1508.11
vn -0.644512 -0.665214 -0.376954
v -37.9367 -117.951 1509.55
vn -0.635939 -0.504956 0.58361
v -37.8843 -117.333 1512.04
vn 0.216322 0.0763556 0.973332
v -37.8843 -116.921 1512.09
vn 0.231771 -0.0487202 0.97155
v -38.2964 -115.685 1512.27
vn 0.576795 0.0297007 0.816349
v -38.0904 -115.479 1512.17
vn 0.502163 0.136788 0.853886
v -38.2964 -113.831 1512.27
vn 0.359487 0.253215 0.898138
v -38.0904 -112.595 1511.67
vn 0.56307 0.100292 0.820301
v -37.6804 -113.419 1511.61
vn 0.192561 0.553947 -0.809977
v -37.6784 -110.947 1507.76
vn 0.14152 0.780354 -0.609114
v -38.0904 -110.234 1508.32
vn 0.398182 -0.0528284 0.915784
v -38.5023 -110.535 1511.29
vn 0.130377 0.143584 0.981012
v -38.0904 -111.153 1511.26
vn 0.297879 0.0940084 0.949963
v -37.4724 -111.771 1511.35
vn 0.274681 0.854964 -0.439984
v -37.2663 -108.721 1510.79
vn 0.666951 -0.246151 0.703268
v -38.5023 -109.093 1511.88
vn 0.462016 0.862846 -0.20503
v -37.4724 -108.49 1511.2
vn 0.257475 -0.0911056 0.96198
v -37.4724 -108.681 1511.38
vn -0.0691633 0.937636 -0.340668
v -38.7084 -107.857 1512.09
vn 0.068146 0.864642 -0.497745
v -38.0904 -108.269 1511.45
vn 0.166268 0.538713 0.825919
v -37.8843 -108.475 1511.54
vn 0.364719 0.0166818 0.930968
v -37.5435 -108.475 1511.41
vn -0.818471 0.297082 0.49178
v -35.5652 -120.217 1512.64
vn -0.66803 -0.694182 -0.268043
v -36.4424 -118.878 1509.14
vn -0.532558 -0.724621 -0.437386
v -35.8164 -119.393 1508.52
vn -0.477369 -0.150879 0.865653
v -36.6483 -118.829 1512.23
vn -0.410292 -0.43615 -0.800896
v -37.0604 -116.921 1507.75
vn -0.277371 -0.397013 -0.874898
v -36.4424 -117.539 1507.79
vn -0.205129 0.339967 0.917793
v -36.6483 -117.539 1512.25
vn -0.482537 -0.589167 -0.648105
v -37.0604 -116.63 1507.49
vn -0.557377 -0.676989 -0.480643
v -36.6022 -116.715 1507.08
vn -0.1346 -0.258098 -0.956697
v -35.8244 -115.891 1506.73
vn 0.187009 0.332882 0.924239
v -36.6483 -115.273 1511.09
vn -0.139351 0.422151 0.895751
v -35.8244 -115.273 1511.09
vn -0.118433 0.0581348 -0.991259
v -36.6483 -114.243 1506.51
vn -0.204806 -0.258605 -0.944022
v -36.4424 -114.655 1506.54
vn 0.555719 0.0741036 0.828061
v -36.8544 -113.831 1510.87
vn 0.11576 0.208152 0.971222
v -36.0303 -113.625 1510.51
vn 0.0757581 0.345957 -0.935187
v -37.0604 -113.007 1506.8
vn 0.250822 0.374767 -0.892546
v -35.8244 -113.419 1506.87
vn 0.372435 0.640767 -0.671349
v -36.3823 -110.947 1508.32
vn 0.423085 0.657379 -0.62358
v -35.6184 -110.266 1509.55
vn 0.603742 0.78007 -0.164277
v -37.0604 -108.839 1510.79
vn 0.412819 0.794186 -0.445926
v -36.4424 -109.812 1509.55
vn 0.551736 0.00264176 0.834015
v -36.0303 -110.123 1510.43
vn 0.685858 0.723285 0.0803564
v -35.8138 -110.123 1509.96
vn 0.266045 -0.0422849 0.963033
v -37.0604 -109.299 1511.24
vn 0.763868 0.620275 0.178226
v -37.0604 -108.887 1511.26
vn -0.671332 -0.739785 -0.0450771
v -35.4123 -120.513 1511.82
vn -0.743781 -0.655672 0.129935
v -35.0116 -120.835 1513.26
vn -0.861318 0.0656599 0.503806
v -35.1146 -120.629 1513.47
vn -0.818471 0.297082 0.49178
v -35.2064 -120.251 1513.26
vn -0.351922 0.465173 0.812259
v -34.5884 -120.423 1513.61
vn -0.230173 -0.483672 -0.844441
v -35.4123 -119.187 1508.15
vn -0.258996 -0.560459 -0.786643
v -34.1763 -118.981 1507.92
vn -0.730168 0.512006 0.452443
v -35.2064 -120.011 1512.99
vn -0.299999 0.168481 0.938943
v -34.7943 -117.539 1512.95
vn -0.345218 0.38979 0.853749
v -34.6366 -117.127 1512.85
vn 0.0363708 -0.0693414 -0.99693
v -35.2064 -115.273 1506.49
vn -0.013538 -0.249994 -0.968153
v -35.0004 -115.891 1506.78
vn -0.197043 -0.131016 -0.971601
v -34.7943 -116.509 1506.69
vn -0.220374 0.325486 0.919508
v -35.0004 -113.831 1510.64
vn -0.370639 0.483601 0.792942
v -34.3824 -114.861 1511.41
vn 0.4309 0.522034 -0.736074
v -34.7943 -113.213 1507.45
vn 0.476073 0.586144 -0.655584
v -34.3824 -111.814 1508.93
vn 0.692103 0.693452 -0.200295
v -34.5884 -111.541 1509.35
vn 0.763534 0.639964 0.0863799
v -35.4123 -110.54 1509.76
vn 0.344924 0.152033 0.926236
v -35.4123 -110.741 1510.11
vn 0.578848 0.769624 0.269469
v -35.2064 -110.58 1509.96
vn 0.135545 0.410285 0.901828
v -34.5884 -111.153 1510.11
vn 0.597479 0.686551 -0.414326
v -34.3824 -111.153 1510.01
vn -0.217313 -0.725485 -0.653029
v -32.5284 -121.659 1509.35
vn -0.455713 -0.737829 -0.49793
v -33.5583 -118.981 1507.43
vn -0.357294 0.221574 0.907329
v -33.5583 -119.393 1513.6
vn 0.22446 0.0345842 -0.973869
v -33.7644 -116.921 1506.91
vn -0.115894 -0.392415 -0.912458
v -33.1464 -117.951 1506.91
vn 0.437602 0.204251 -0.875663
v -32.5756 -117.539 1507.29
vn -0.072869 -0.530446 -0.844581
v -32.3223 -117.333 1507.06
vn 0.214673 -0.119404 -0.96936
v -32.3223 -117.127 1506.98
vn -0.0286831 -0.316365 -0.948204
v -33.445 -116.715 1506.87
vn 0.308629 0.184954 -0.933028
v -32.7344 -116.509 1506.91
vn 0.383051 0.359477 -0.85091
v -33.7644 -115.067 1506.96
vn 0.506806 0.549677 -0.66408
v -33.3524 -112.748 1508.93
vn 0.596835 0.657323 -0.460124
v -33.3524 -112.564 1509.35
vn -0.317878 0.368571 0.873561
v -32.5284 -112.389 1511.06
vn 0.509596 0.698773 -0.502024
v -32.4548 -112.183 1510.79
vn 0.571088 0.612031 0.547062
v -32.3223 -112.389 1510.96
vn -0.330191 0.464803 0.821542
v -32.5284 -112.801 1511.23
vn -0.270542 0.306456 0.912629
v -33.6827 -111.771 1510.38
vn -0.567655 -0.791609 -0.226105
v -31.9441 -123.925 1513.05
vn -0.71971 -0.681936 0.130311
v -31.4646 -123.719 1515.94
vn -0.447084 0.269638 0.852884
v -30.6744 -123.719 1516.61
vn -0.141482 -0.612765 -0.777497
v -31.7044 -120.423 1508.26
vn 0.286973 -0.276532 -0.917157
v -31.2924 -119.393 1507.65
vn 0.25033 -0.283276 -0.925791
v -30.6744 -118.981 1508.04
vn -0.0502241 -0.523718 -0.85041
v -30.6744 -118.675 1507.9
vn -0.433716 0.0367259 0.900301
v -30.6744 -118.981 1514.78
vn 0.502138 0.263589 -0.823637
v -31.7044 -116.715 1507.35
vn 0.585831 0.507911 -0.631528
v -31.0864 -115.378 1508.52
vn 0.676185 0.600476 -0.426851
v -30.7857 -113.625 1512.02
vn 0.260632 0.692754 0.67243
v -30.6744 -113.7 1512.23
vn -0.0548645 0.594581 0.802162
v -30.6744 -114.655 1513.08
vn 0.563209 0.55833 0.60915
v -32.1164 -112.801 1511.1
vn 0.437722 0.559872 0.703522
v -32.0214 -113.007 1511.2
vn 0.72941 0.64417 -0.230232
v -31.6287 -113.419 1511.2
vn 0.631901 0.587317 -0.505727
v -31.4984 -113.374 1511.41
vn -0.197285 -0.846341 -0.494758
v -29.0264 -125.367 1513.47
vn -0.0555174 -0.786868 -0.614619
v -29.2324 -123.513 1510.77
vn -0.264835 -0.861029 -0.434156
v -29.4384 -123.727 1511.41
vn -0.192429 -0.826457 -0.529094
v -30.2624 -123.272 1510.99
vn -0.336751 0.410198 0.847547
v -29.0264 -123.101 1516.84
vn 0.0783407 -0.561497 -0.823762
v -30.2624 -121.194 1508.73
vn 0.390073 -0.256238 -0.884412
v -29.2324 -120.217 1509
vn -0.441616 0.247946 0.862264
v -29.8504 -120.835 1515.55
vn 0.191682 -0.511471 -0.837649
v -30.2624 -118.981 1508.07
vn 0.0642732 -0.501289 -0.86289
v -30.2624 -118.775 1507.94
vn 0.276683 -0.429554 -0.85961
v -29.2324 -119.805 1508.82
vn -0.439745 0.160682 0.883632
v -30.4684 -119.393 1514.95
vn 0.7011 0.339937 -0.626819
v -29.7007 -117.127 1508.73
vn -0.279407 0.2659 0.922621
v -29.4384 -117.951 1515.44
vn 0.723159 0.556608 -0.408936
v -30.3348 -116.097 1508.93
vn 0.705707 0.502823 -0.499146
v -29.8127 -116.097 1509.55
vn 0.733169 0.57872 -0.357138
v -29.8196 -115.479 1511.2
vn 0.741704 0.594923 0.309744
v -30.2929 -114.655 1510.38
vn 0.73325 0.579515 -0.355678
v -29.5446 -115.067 1512.02
vn -0.273896 -0.852835 -0.444583
v -27.3784 -127.427 1516.84
vn 0.371654 -0.411526 -0.832177
v -27.5844 -122.895 1510.53
vn -0.510991 0.28641 0.810468
v -27.7903 -123.101 1517.43
vn 0.339009 -0.279972 -0.898158
v -28.8204 -120.198 1509.14
vn 0.516652 -0.177134 -0.837672
v -28.5249 -119.805 1509.14
vn -0.36925 0.285611 0.884353
v -28.4083 -118.981 1516.04
vn -0.013724 0.602136 0.798276
v -28.121 -118.775 1515.94
vn 0.788329 0.596873 -0.14926
v -28.6144 -116.915 1510.99
vn 0.779521 0.437585 -0.448181
v -27.59 -118.363 1510.99
vn 0.798825 0.563933 -0.209424
v -27.6857 -117.127 1513.26
vn 0.260371 0.709622 0.654709
v -27.9964 -118.363 1515.58
vn -0.59376 -0.780434 0.195889
v -26.7604 -128.55 1520.26
vn -0.415871 -0.837513 0.354434
v -26.5543 -128.663 1520.25
vn -0.526435 -0.849715 -0.0291723
v -26.3484 -129.018 1519.65
vn -0.387511 -0.890863 -0.23706
v -26.1424 -129.086 1519.44
vn -0.293778 -0.955453 0.0283536
v -26.1424 -129.118 1519.65
vn 0.304619 -0.648096 0.697982
v -26.1424 -128.869 1519.92
vn -0.0771585 -0.811762 -0.578869
v -25.9363 -128.127 1517.38
vn -0.399525 0.0444447 0.915644
v -26.7604 -128.045 1520.53
vn 0.273784 -0.413155 0.868531
v -25.9363 -127.839 1520.62
vn -0.0751396 -0.836013 -0.54354
v -25.9363 -126.495 1515.11
vn 0.698026 -0.213148 -0.683614
v -25.9363 -123.513 1511.97
vn 0.278007 -0.695444 -0.662623
v -26.3484 -124.955 1512.98
vn 0.787421 0.199451 -0.583255
v -26.7748 -120.423 1510.99
vn -0.456813 0.311203 0.833352
v -27.1723 -120.217 1517.08
vn -0.178236 0.571087 0.801306
v -26.5543 -120.333 1517.38
vn 0.816356 0.509357 -0.272246
v -25.8092 -120.011 1512.85
vn -0.0738514 -0.955774 -0.284678
v -25.1124 -129.228 1518.82
vn 0.39433 -0.788764 0.471546
v -25.1124 -129.219 1519.03
vn -0.391906 0.238654 0.888512
v -24.4944 -125.985 1520.7
vn 0.493272 -0.236733 0.837042
v -24.2884 -126.191 1520.57
vn -0.223611 0.218641 0.949839
v -24.0823 -124.543 1520.59
vn -0.388191 0.246184 0.888088
v -24.0823 -123.925 1520.37
vn -0.258416 0.403152 0.877889
v -24.0823 -123.307 1520.25
vn 0.843099 0.213424 -0.493594
v -24.7406 -121.453 1513.67
vn 0.769054 0.633882 -0.0821576
v -24.7502 -120.835 1515.73
vn 0.822904 0.532028 -0.199439
v -24.3318 -121.453 1514.91
vn 0.799076 0.597726 -0.0648067
v -24.0823 -121.533 1517.79
vn 0.18375 -0.78199 -0.59559
v -23.6704 -128.638 1518.2
vn 0.591921 -0.63023 0.502434
v -23.3763 -128.457 1518.2
vn 0.511744 -0.683095 -0.521056
v -23.2584 -128.251 1517.99
vn 0.681673 -0.564477 -0.465498
v -22.5818 -127.427 1517.79
vn 0.799688 -0.548219 -0.244859
v -22.4344 -127.304 1518
vn 0.643916 -0.384217 0.661626
v -23.6704 -127.015 1519.79
vn 0.68639 -0.143911 0.712852
v -23.2584 -125.161 1519.99
vn 0.467005 -0.0162416 0.884106
v -23.8764 -124.543 1520.56
vn -0.00933326 0.297436 0.954696
v -23.6704 -123.719 1520.39
vn 0.731365 0.676699 -0.0847502
v -23.2584 -122.278 1517.79
vn 0.0706881 0.672294 0.736902
v -23.0524 -122.689 1519.69
vn 0.810007 -0.249136 -0.530867
v -21.7021 -125.779 1517.79
vn 0.877973 -0.110067 0.465885
v -21.7182 -124.955 1518.2
vn 0.828845 0.48412 -0.280436
v -21.6956 -124.543 1518
vn 0.816365 0.144926 0.559057
v -22.1817 -123.307 1519.03
vn 0.773518 0.595628 0.216557
v -22.2283 -123.099 1518.82
vn -0.620921 -0.473226 0.624911
v -40.7185 -114.449 1511.61
vn -0.64958 -0.292431 0.701805
v -41.5328 -112.595 1512.02
vn -0.160837 -0.424941 0.890818
v -41.5328 -112.595 1512.02
vn -0.0618646 -0.130041 0.989577
v -40.7684 -113.007 1512.56
vn 0.230465 -0.104128 0.967493
v -40.9743 -111.359 1512.72
vn -0.160837 -0.424941 0.890818
v -40.9743 -111.359 1512.72
vn 0.260963 -0.409942 0.873983
v -41.6579 -109.093 1513.67
vn -0.160837 -0.424941 0.890818
v -41.6579 -109.093 1513.67
vn -0.823752 0.56598 -0.0331442
v -41.5924 -108.071 1514.29
vn 0.340819 -0.430338 0.835854
v -41.5924 -108.071 1514.29
vn -0.207667 0.91884 -0.33557
v -41.1804 -107.588 1514.08
vn 0.225268 0.939327 0.258686
v -41.1804 -107.588 1514.08
vn -0.712794 0.680586 0.169491
v -41.1804 -107.639 1514.29
vn 0.219129 0.946778 0.235783
v -41.1804 -107.639 1514.29
vn -0.251047 -0.613779 -0.748499
v -40.815 -107.857 1513.88
vn 0.828471 -0.466001 -0.310609
v -40.815 -107.857 1513.88
vn -0.674703 -0.112966 0.729393
v -40.815 -107.857 1513.88
vn -0.251047 -0.613779 -0.748499
v -40.9743 -107.651 1513.76
vn -0.674703 -0.112966 0.729393
v -40.9743 -107.651 1513.76
vn 0 1 0
v -40.9743 -107.651 1513.76
vn 0.663946 -0.379829 0.644132
v -40.7684 -107.774 1513.88
vn 0.986646 -0.0848437 0.139035
v -40.7684 -107.774 1513.88
vn -0.288039 -0.796833 -0.531123
v -40.7684 -107.774 1513.88
vn 0.986646 -0.0848437 0.139035
v -40.7287 -107.651 1513.67
vn -0.288039 -0.796833 -0.531123
v -40.7287 -107.651 1513.67
vn 0.828471 -0.466001 -0.310609
v -40.7684 -107.651 1513.69
vn -0.134444 0.946318 -0.29395
v -40.7684 -107.651 1513.69
vn -0.288039 -0.796833 -0.531123
v -40.7684 -107.651 1513.69
vn -0.674703 -0.112966 0.729393
v -40.7684 -107.651 1513.95
vn 0.634609 -0.346263 0.690922
v -40.7684 -107.651 1513.95
vn 0.101087 0.978724 0.178553
v -40.7684 -107.651 1513.95
vn 0.986646 -0.0848437 0.139035
v -40.7684 -107.651 1513.95
vn 0 1 0
v -40.7684 -107.651 1513.95
vn 0.563634 0 0.826025
v -40.7684 -107.651 1513.95
vn -0.285783 -0.429569 -0.856621
v -40.4551 -107.857 1513.67
vn 0.47424 -0.632353 -0.612557
v -40.4551 -107.857 1513.67
vn -0.0971292 0.263891 0.95965
v -40.4551 -107.857 1513.67
vn -0.175813 0.906331 -0.384257
v -40.5624 -107.651 1513.61
vn -0.285783 -0.429569 -0.856621
v -40.5624 -107.651 1513.61
vn -0.0971292 0.263891 0.95965
v -40.5624 -107.651 1513.61
vn 0.139366 0.903468 0.405367
v -40.5624 -107.651 1513.61
vn 0.69032 0.581128 0.430985
v -38.7532 -108.063 1512.44
vn 0.373923 -0.49859 0.782042
v -40.3563 -107.783 1513.67
vn 0.563634 0 0.826025
v -40.3563 -107.783 1513.67
vn 0.165556 -0.894555 -0.415166
v -40.3563 -107.783 1513.67
vn -0.239458 -0.697364 -0.675532
v -40.3563 -107.783 1513.67
vn 0.108077 -0.583979 0.804542
v -40.3563 -107.783 1513.67
vn -0.313943 0 0.949442
v -40.3563 -107.783 1513.67
vn 0.165556 -0.894555 -0.415166
v -40.1597 -107.651 1513.47
vn -0.239458 -0.697364 -0.675532
v -40.1597 -107.651 1513.47
vn 0.139366 0.903468 0.405367
v -40.1597 -107.651 1513.47
vn -0.152712 0.889425 -0.430815
v -40.1597 -107.651 1513.47
vn 0.47424 -0.632353 -0.612557
v -40.3563 -107.651 1513.54
vn -0.146568 0.888368 -0.435109
v -40.3563 -107.651 1513.54
vn -0.239458 -0.697364 -0.675532
v -40.3563 -107.651 1513.54
vn 0.563634 0 0.826025
v -40.3563 -107.585 1513.67
vn 0.308197 0.951264 -0.0105278
v -40.3563 -107.585 1513.67
vn -0.313943 0 0.949442
v -40.3563 -107.585 1513.67
vn -0.0971292 0.263891 0.95965
v -40.1504 -107.745 1513.67
vn 0.165556 -0.894555 -0.415166
v -40.1504 -107.745 1513.67
vn 0.139366 0.903468 0.405367
v -40.1504 -107.745 1513.67
vn 0.223062 0.974774 -0.00761963
v -40.1504 -107.651 1513.74
vn -0.313943 0 0.949442
v -40.1504 -107.651 1513.74
vn 0.615878 0.641674 0.457109
v -40.1504 -107.651 1513.74
vn -0.42707 -0.449113 -0.784799
v -38.5023 -116.921 1509.27
vn -0.302332 -0.374009 -0.876762
v -37.4724 -117.676 1508.11
vn -0.0646986 -0.131799 0.989163
v -37.8843 -117.333 1512.04
vn 0.0406622 0.44425 0.89498
v -38.5023 -109.093 1511.88
vn 0.913409 0.280755 0.29472
v -37.4724 -108.49 1511.2
vn 0.484621 0.603336 0.633346
v -37.4724 -108.49 1511.2
vn 0.355498 0.933122 0.0539046
v -37.4724 -108.49 1511.2
vn 0.913409 0.280755 0.29472
v -37.4724 -108.681 1511.38
vn 0.484621 0.603336 0.633346
v -37.4724 -108.681 1511.38
vn 0.69032 0.581128 0.430985
v -38.7084 -107.857 1512.09
vn 0.166268 0.538713 0.825919
v -38.0904 -108.269 1511.45
vn 0.814632 -0.111909 0.569079
v -38.0904 -108.269 1511.45
vn 0.757935 0.514836 0.400597
v -38.0904 -108.269 1511.45
vn 0.355498 0.933122 0.0539046
v -38.0904 -108.269 1511.45
vn 0.442542 -0.158952 0.882548
v -37.8843 -108.475 1511.54
vn 0.913409 0.280755 0.29472
v -37.5435 -108.475 1511.41
vn 0.355498 0.933122 0.0539046
v -37.5435 -108.475 1511.41
vn 0.286974 0.617301 0.732519
v -37.5435 -108.475 1511.41
vn -0.765717 -0.54029 0.348947
v -35.5652 -120.217 1512.64
vn -0.120597 -0.288719 -0.949788
v -36.6022 -116.715 1507.08
vn -0.194205 -0.219144 -0.95617
v -36.6022 -116.715 1507.08
vn 0.706772 0.707246 0.0166328
v -35.6184 -110.266 1509.55
vn 0.716671 0.612433 0.333629
v -36.0303 -110.123 1510.43
vn 0.549006 0.729947 -0.407149
v -35.8138 -110.123 1509.96
vn 0.432311 -0.049352 0.900373
v -37.0604 -108.887 1511.26
vn 0.484621 0.603336 0.633346
v -37.0604 -108.887 1511.26
vn -0.768464 -0.601793 0.217505
v -35.1146 -120.629 1513.47
vn -0.376379 0.35577 0.855434
v -35.1146 -120.629 1513.47
vn -0.638272 -0.14992 0.755072
v -35.1146 -120.629 1513.47
vn -0.281048 0.570415 0.771776
v -35.2064 -120.251 1513.26
vn -0.439571 0.29741 0.84754
v -35.2064 -120.011 1512.99
vn -0.22056 0.0734468 -0.972604
v -35.0004 -115.891 1506.78
vn 0.286783 0.205136 -0.935775
v -34.7943 -116.509 1506.69
vn 0.722591 0.684926 -0.0934819
v -34.3824 -111.814 1508.93
vn 0.540332 0.697274 -0.47101
v -35.4123 -110.54 1509.76
vn 0.390924 0.397974 0.829937
v -35.2064 -110.58 1509.96
vn 0.543714 0.737621 -0.400362
v -35.2064 -110.58 1509.96
vn 0.347268 0.660239 0.66595
v -34.3824 -111.153 1510.01
vn -0.0635367 -0.451753 -0.889877
v -33.5583 -118.981 1507.43
vn 0.404911 0.181768 -0.896107
v -33.1464 -117.951 1506.91
vn -0.0454479 -0.510606 -0.858613
v -32.5756 -117.539 1507.29
vn 0.680321 0.693155 -0.238117
v -33.3524 -112.748 1508.93
vn 0.26948 0.600677 0.752707
v -32.5284 -112.389 1511.06
vn 0.184778 0.754836 0.629349
v -32.4548 -112.183 1510.79
vn 0.755204 0.630664 0.178689
v -32.4548 -112.183 1510.79
vn 0.278202 0.4536 0.846671
v -32.5284 -112.801 1511.23
vn 0.376063 0.917822 0.127199
v -32.5284 -112.801 1511.23
vn 0.318185 0.725562 0.610179
v -33.6827 -111.771 1510.38
vn 0.576312 0.726277 -0.374681
v -33.6827 -111.771 1510.38
vn 0.0562131 0.784837 0.617147
v -33.6827 -111.771 1510.38
vn -0.705611 -0.111951 0.6997
v -31.4646 -123.719 1515.94
vn 0.376063 0.917822 0.127199
v -30.7857 -113.625 1512.02
vn 0.372173 0.918135 0.136069
v -30.6744 -113.7 1512.23
vn 0.755762 0.643317 -0.12234
v -30.6744 -113.7 1512.23
vn 0.621332 0.609523 -0.49237
v -32.0214 -113.007 1511.2
vn 0.379918 0.917422 0.118317
v -32.0214 -113.007 1511.2
vn 0.56227 0.140048 -0.815009
v -30.2624 -118.775 1507.94
vn 0.659525 0.548984 -0.513462
v -30.2929 -114.655 1510.38
vn 0.469879 0.751039 0.463848
v -27.6857 -117.127 1513.26
vn -0.791322 -0.28723 0.53973
v -26.7604 -128.55 1520.26
vn -0.172208 -0.462772 0.86959
v -26.7604 -128.55 1520.26
vn 0.0793678 -0.56303 0.822617
v -26.5543 -128.663 1520.25
vn 0.241443 -0.715159 0.655937
v -26.1424 -129.118 1519.65
vn 0.310791 -0.121108 0.942731
v -24.4944 -125.985 1520.7
vn 0.451215 -0.875755 0.171634
v -23.6704 -128.638 1518.2
vn 0.658181 -0.693851 -0.292179
v -23.3763 -128.457 1518.2
vn 0.731663 -0.379713 0.566116
v -22.4344 -127.304 1518
vn 0.667314 0.047719 0.743246
v -23.6704 -123.719 1520.39
vn 0.712611 0.694113 0.101946
v -23.0524 -122.689 1519.69
vn 0.653215 0.11545 0.748319
v -23.0524 -122.689 1519.69
vn 0.764905 -0.283043 0.578625
v -21.7021 -125.779 1517.79
vn 0.997103 -0.0175339 0.0740162
v -21.7021 -125.779 1517.79
vn 0.820468 0.0447517 -0.569938
v -21.6956 -124.543 1518
vn 0.977957 0.131888 0.161884
v -21.6956 -124.543 1518
vn 0.777857 0.502469 -0.377443
v -22.2283 -123.099 1518.82
f 11//11 17//17 1//1
f 17//17 18//18 1//1
f 3//3 49//49 53//53
f 4//4 3//3 2//2
f 231//231 5//5 232//232
f 2//2 3//3 53//53
f 9//9 3//3 6//6
f 33//33 32//32 9//9
f 9//9 35//35 33//33
f 3//3 4//4 11//11
f 5//5 12//12 232//232
f 234//234 34//34 235//235
f 34//34 39//39 235//235
f 1//1 6//6 3//3
f 7//7 8//8 6//6
f 8//8 9//9 6//6
f 14//14 8//8 7//7
f 8//8 10//10 9//9
f 9//9 10//10 35//35
f 11//11 1//1 3//3
f 1//1 16//16 7//7
f 6//6 1//1 7//7
f 235//235 39//39 237//237
f 236//236 238//238 233//233
f 10//10 8//8 14//14
f 14//14 13//13 10//10
f 37//37 10//10 13//13
f 16//16 14//14 7//7
f 14//14 15//15 13//13
f 11//11 4//4 17//17
f 14//14 16//16 15//15
f 16//16 1//1 239//239
f 19//19 240//240 237//237
f 237//237 39//39 19//19
f 15//15 16//16 70//70
f 16//16 239//239 20//20
f 19//19 21//21 240//240
f 243//243 20//20 239//239
f 16//16 241//241 23//23
f 39//39 27//27 22//22
f 39//39 22//22 19//19
f 26//26 245//245 248//248
f 256//256 24//24 246//246
f 259//259 249//249 247//247
f 251//251 260//260 19//19
f 251//251 19//19 22//22
f 19//19 260//260 21//21
f 257//257 23//23 241//241
f 261//261 242//242 244//244
f 39//39 28//28 27//27
f 29//29 250//250 25//25
f 268//268 16//16 23//23
f 252//252 254//254 262//262
f 253//253 258//258 255//255
f 250//250 263//263 25//25
f 29//29 25//25 30//30
f 25//25 257//257 241//241
f 25//25 241//241 30//30
f 30//30 242//242 261//261
f 28//28 39//39 46//46
f 44//44 265//265 269//269
f 283//283 42//42 266//266
f 289//289 270//270 267//267
f 273//273 27//27 28//28
f 284//284 29//29 30//30
f 45//45 284//284 30//30
f 264//264 274//274 286//286
f 261//261 45//45 30//30
f 31//31 52//52 3//3
f 52//52 49//49 3//3
f 52//52 75//75 49//49
f 31//31 3//3 32//32
f 32//32 3//3 9//9
f 231//231 54//54 5//5
f 34//34 234//234 297//297
f 56//56 34//34 297//297
f 56//56 58//58 34//34
f 36//36 86//86 33//33
f 33//33 86//86 32//32
f 59//59 34//34 58//58
f 33//33 35//35 36//36
f 36//36 35//35 38//38
f 10//10 37//37 35//35
f 37//37 38//38 35//35
f 38//38 40//40 62//62
f 34//34 63//63 39//39
f 34//34 59//59 63//63
f 40//40 13//13 15//15
f 70//70 40//40 15//15
f 38//38 37//37 13//13
f 40//40 38//38 13//13
f 39//39 67//67 46//46
f 70//70 71//71 62//62
f 41//41 46//46 67//67
f 16//16 268//268 70//70
f 70//70 268//268 43//43
f 275//275 279//279 290//290
f 276//276 285//285 280//280
f 271//271 291//291 281//281
f 277//277 46//46 47//47
f 282//282 284//284 45//45
f 43//43 287//287 292//292
f 293//293 288//288 278//278
f 46//46 41//41 47//47
f 272//272 304//304 294//294
f 292//292 70//70 43//43
f 296//296 31//31 78//78
f 75//75 51//51 49//49
f 51//51 53//53 295//295
f 50//50 53//53 51//51
f 51//51 75//75 50//50
f 53//53 48//48 2//2
f 100//100 53//53 50//50
f 231//231 48//48 54//54
f 48//48 77//77 54//54
f 297//297 77//77 55//55
f 31//31 32//32 81//81
f 78//78 31//31 81//81
f 56//56 297//297 55//55
f 57//57 56//56 55//55
f 55//55 88//88 57//57
f 55//55 84//84 88//88
f 87//87 32//32 86//86
f 58//58 56//56 57//57
f 58//58 57//57 88//88
f 60//60 58//58 88//88
f 60//60 59//59 58//58
f 36//36 90//90 86//86
f 65//65 60//60 96//96
f 60//60 65//65 59//59
f 61//61 36//36 38//38
f 61//61 38//38 62//62
f 36//36 61//61 90//90
f 92//92 61//61 62//62
f 96//96 98//98 65//65
f 63//63 67//67 39//39
f 64//64 63//63 59//59
f 65//65 64//64 59//59
f 98//98 63//63 64//64
f 98//98 64//64 65//65
f 62//62 40//40 70//70
f 66//66 62//62 71//71
f 94//94 66//66 68//68
f 94//94 68//68 99//99
f 66//66 95//95 62//62
f 95//95 66//66 94//94
f 298//298 72//72 305//305
f 309//309 67//67 63//63
f 63//63 69//69 309//309
f 63//63 98//98 69//69
f 309//309 69//69 73//73
f 299//299 310//310 302//302
f 319//319 69//69 98//98
f 320//320 300//300 303//303
f 68//68 66//66 71//71
f 67//67 306//306 41//41
f 307//307 304//304 272//272
f 308//308 311//311 301//301
f 312//312 305//305 72//72
f 103//103 107//107 74//74
f 296//296 105//105 76//76
f 50//50 75//75 141//141
f 48//48 100//100 313//313
f 53//53 100//100 48//48
f 141//141 100//100 50//50
f 48//48 313//313 77//77
f 313//313 325//325 77//77
f 296//296 78//78 79//79
f 81//81 79//79 78//78
f 106//106 79//79 81//81
f 105//105 79//79 106//106
f 82//82 124//124 81//81
f 81//81 124//124 106//106
f 52//52 76//76 75//75
f 105//105 296//296 79//79
f 55//55 80//80 84//84
f 80//80 55//55 77//77
f 108//108 80//80 77//77
f 108//108 77//77 125//125
f 109//109 80//80 108//108
f 81//81 32//32 82//82
f 314//314 32//32 83//83
f 87//87 111//111 83//83
f 84//84 80//80 85//85
f 83//83 32//32 87//87
f 110//110 87//87 86//86
f 110//110 86//86 91//91
f 60//60 88//88 96//96
f 89//89 88//88 84//84
f 85//85 89//89 84//84
f 85//85 113//113 89//89
f 91//91 86//86 90//90
f 91//91 90//90 61//61
f 92//92 115//115 61//61
f 115//115 91//91 61//61
f 119//119 88//88 89//89
f 119//119 96//96 88//88
f 121//121 119//119 89//89
f 92//92 62//62 95//95
f 92//92 95//95 93//93
f 120//120 97//97 317//317
f 96//96 119//119 330//330
f 118//118 316//316 97//97
f 95//95 94//94 97//97
f 94//94 99//99 97//97
f 99//99 317//317 97//97
f 316//316 95//95 97//97
f 96//96 319//319 98//98
f 141//141 75//75 76//76
f 100//100 101//101 313//313
f 103//103 74//74 102//102
f 101//101 142//142 321//321
f 321//321 313//313 101//101
f 324//324 104//104 325//325
f 104//104 324//324 322//322
f 125//125 325//325 104//104
f 142//142 101//101 100//100
f 143//143 104//104 322//322
f 345//345 143//143 323//323
f 143//143 125//125 104//104
f 77//77 325//325 125//125
f 127//127 315//315 112//112
f 126//126 334//334 327//327
f 109//109 108//108 125//125
f 314//314 83//83 111//111
f 112//112 315//315 326//326
f 111//111 87//87 110//110
f 111//111 110//110 131//131
f 133//133 110//110 91//91
f 111//111 126//126 327//327
f 80//80 109//109 114//114
f 115//115 150//150 133//133
f 91//91 115//115 133//133
f 113//113 121//121 89//89
f 114//114 113//113 85//85
f 85//85 80//80 114//114
f 92//92 116//116 115//115
f 115//115 116//116 134//134
f 114//114 139//139 113//113
f 113//113 140//140 121//121
f 92//92 93//93 116//116
f 117//117 329//329 135//135
f 118//118 117//117 316//316
f 117//117 328//328 316//316
f 318//318 331//331 329//329
f 122//122 329//329 331//331
f 332//332 330//330 121//121
f 121//121 330//330 119//119
f 135//135 329//329 122//122
f 332//332 121//121 342//342
f 76//76 123//123 141//141
f 142//142 100//100 141//141
f 76//76 105//105 123//123
f 105//105 106//106 123//123
f 124//124 144//144 106//106
f 123//123 106//106 144//144
f 315//315 127//127 333//333
f 334//334 126//126 128//128
f 131//131 335//335 126//126
f 131//131 126//126 111//111
f 335//335 131//131 129//129
f 130//130 129//129 131//131
f 130//130 131//131 132//132
f 110//110 133//133 132//132
f 150//150 132//132 133//133
f 131//131 110//110 132//132
f 130//130 132//132 149//149
f 115//115 134//134 150//150
f 114//114 109//109 139//139
f 117//117 336//336 328//328
f 336//336 117//117 135//135
f 140//140 113//113 139//139
f 343//343 135//135 122//122
f 136//136 140//140 139//139
f 137//137 135//135 343//343
f 337//337 338//338 344//344
f 138//138 337//337 154//154
f 138//138 338//338 337//337
f 175//175 138//138 154//154
f 352//352 135//135 137//137
f 175//175 339//339 138//138
f 154//154 337//337 340//340
f 154//154 340//340 155//155
f 141//141 190//190 142//142
f 141//141 123//123 161//161
f 159//159 123//123 163//163
f 144//144 163//163 123//123
f 127//127 145//145 333//333
f 144//144 333//333 145//145
f 128//128 146//146 334//334
f 334//334 146//146 145//145
f 147//147 146//146 335//335
f 147//147 129//129 167//167
f 163//163 144//144 145//145
f 167//167 146//146 147//147
f 169//169 148//148 125//125
f 130//130 167//167 129//129
f 147//147 335//335 129//129
f 170//170 351//351 149//149
f 109//109 125//125 171//171
f 148//148 171//171 125//125
f 149//149 351//351 130//130
f 150//150 149//149 132//132
f 336//336 135//135 172//172
f 170//170 149//149 150//150
f 109//109 171//171 153//153
f 150//150 336//336 172//172
f 175//175 154//154 184//184
f 156//156 184//184 154//154
f 184//184 156//156 174//174
f 157//157 151//151 156//156
f 176//176 156//156 151//151
f 174//174 156//156 176//176
f 153//153 152//152 139//139
f 346//346 341//341 347//347
f 153//153 139//139 109//109
f 173//173 135//135 352//352
f 154//154 155//155 156//156
f 156//156 349//349 157//157
f 157//157 349//349 151//151
f 346//346 350//350 341//341
f 190//190 141//141 158//158
f 161//161 158//158 141//141
f 161//161 123//123 160//160
f 158//158 161//161 197//197
f 197//197 161//161 160//160
f 162//162 143//143 195//195
f 160//160 123//123 159//159
f 162//162 125//125 143//143
f 165//165 162//162 179//179
f 180//180 164//164 181//181
f 164//164 180//180 178//178
f 165//165 125//125 162//162
f 165//165 169//169 125//125
f 145//145 178//178 163//163
f 146//146 167//167 166//166
f 146//146 164//164 145//145
f 167//167 181//181 166//166
f 181//181 351//351 170//170
f 178//178 145//145 164//164
f 164//164 146//146 168//168
f 146//146 166//166 168//168
f 181//181 168//168 166//166
f 164//164 168//168 181//181
f 169//169 182//182 148//148
f 182//182 171//171 148//148
f 182//182 169//169 165//165
f 201//201 182//182 165//165
f 150//150 172//172 170//170
f 170//170 172//172 185//185
f 172//172 173//173 185//185
f 170//170 200//200 181//181
f 200//200 170//170 185//185
f 183//183 153//153 171//171
f 183//183 171//171 182//182
f 187//187 153//153 183//183
f 135//135 173//173 172//172
f 184//184 174//174 186//186
f 186//186 176//176 348//348
f 152//152 153//153 187//187
f 176//176 186//186 174//174
f 176//176 151//151 348//348
f 345//345 195//195 143//143
f 177//177 190//190 158//158
f 158//158 197//197 177//177
f 179//179 195//195 206//206
f 197//197 160//160 159//159
f 199//199 159//159 178//178
f 197//197 159//159 199//199
f 162//162 195//195 179//179
f 178//178 159//159 163//163
f 165//165 179//179 201//201
f 181//181 178//178 180//180
f 198//198 178//178 181//181
f 200//200 198//198 181//181
f 185//185 203//203 200//200
f 183//183 225//225 187//187
f 183//183 182//182 202//202
f 183//183 202//202 225//225
f 202//202 182//182 201//201
f 173//173 184//184 185//185
f 225//225 353//353 187//187
f 184//184 173//173 352//352
f 353//353 152//152 187//187
f 204//204 191//191 177//177
f 194//194 204//204 177//177
f 189//189 188//188 190//190
f 192//192 189//189 190//190
f 191//191 192//192 190//190
f 193//193 356//356 357//357
f 356//356 193//193 196//196
f 205//205 192//192 204//204
f 204//204 192//192 191//191
f 357//357 205//205 193//193
f 197//197 215//215 194//194
f 177//177 191//191 190//190
f 194//194 177//177 197//197
f 188//188 142//142 190//190
f 354//354 195//195 345//345
f 356//356 195//195 355//355
f 356//356 196//196 195//195
f 199//199 215//215 197//197
f 206//206 195//195 196//196
f 178//178 198//198 199//199
f 199//199 198//198 218//218
f 201//201 179//179 210//210
f 198//198 200//200 211//211
f 211//211 200//200 203//203
f 202//202 201//201 210//210
f 185//185 184//184 203//203
f 184//184 186//186 212//212
f 214//214 186//186 363//363
f 194//194 215//215 204//204
f 359//359 205//205 204//204
f 215//215 199//199 217//217
f 196//196 193//193 205//205
f 207//207 358//358 196//196
f 207//207 196//196 220//220
f 205//205 220//220 196//196
f 220//220 205//205 216//216
f 179//179 206//206 208//208
f 207//207 220//220 221//221
f 207//207 222//222 358//358
f 222//222 208//208 358//358
f 222//222 207//207 221//221
f 209//209 179//179 208//208
f 209//209 210//210 179//179
f 223//223 208//208 222//222
f 223//223 209//209 208//208
f 223//223 210//210 209//209
f 225//225 210//210 223//223
f 211//211 203//203 228//228
f 203//203 212//212 224//224
f 214//214 363//363 212//212
f 210//210 225//225 202//202
f 184//184 212//212 203//203
f 228//228 203//203 213//213
f 212//212 186//186 214//214
f 215//215 217//217 360//360
f 216//216 205//205 359//359
f 217//217 199//199 218//218
f 360//360 217//217 218//218
f 220//220 227//227 221//221
f 360//360 218//218 219//219
f 220//220 216//216 361//361
f 226//226 219//219 218//218
f 365//365 220//220 361//361
f 227//227 220//220 365//365
f 198//198 211//211 367//367
f 227//227 229//229 221//221
f 229//229 364//364 362//362
f 229//229 222//222 221//221
f 222//222 229//229 362//362
f 203//203 224//224 213//213
f 212//212 363//363 224//224
f 228//228 213//213 224//224
f 224//224 363//363 230//230
f 369//369 228//228 224//224
f 363//363 229//229 230//230
f 226//226 218//218 198//198
f 198//198 367//367 226//226
f 366//366 368//368 227//227
f 368//368 229//229 227//227
f 368//368 230//230 229//229
