# Wavafront OBJ file of BodyParts3D
# BodyParts3D, Copyright(C) 2010-2011 The Database Center for Life Science licensed under CC Attribution-Share Alike 2.1 Japan.
vn -0.960374 -0.119104 -0.251983
v 20.4137 -125.573 1517.79
vn -0.902216 -0.228409 0.365836
v 20.4539 -125.573 1518
vn -0.980845 0.0979941 0.168345
v 20.3638 -124.543 1518.2
vn -0.881391 0.350136 -0.317104
v 20.4137 -124.529 1518
vn -0.477759 -0.67608 -0.560947
v 22.0617 -128.298 1518
vn -0.520113 -0.779026 -0.350144
v 22.0617 -128.432 1518.2
vn -0.70732 -0.453012 -0.542659
v 20.7886 -126.809 1517.79
vn -0.754729 -0.423263 0.501231
v 21.1105 -127.015 1518.2
vn -0.760817 -0.269338 -0.590436
v 20.6921 -126.191 1517.59
vn -0.755933 -0.226314 0.614286
v 21.3165 -126.191 1519.03
vn -0.672642 -0.045182 0.738587
v 22.0617 -124.543 1520.16
vn -0.807323 0.529356 -0.260789
v 21.6497 -122.895 1517.56
vn -0.78825 0.481044 -0.383743
v 22.0118 -122.277 1517.59
vn -0.863707 0.44923 -0.228479
v 20.9303 -123.307 1518.62
vn -0.729811 0.00125414 0.683648
v 20.8916 -123.307 1519.03
vn -0.878694 0.445989 -0.170265
v 21.0317 -123.028 1518.82
vn -0.814889 0.449723 -0.365657
v 21.4191 -122.689 1518.2
vn -0.537693 0.833632 0.126267
v 22.2213 -122.277 1519.23
vn -0.651985 0.12897 0.747183
v 21.6497 -123.101 1519.74
vn -0.675102 0.70325 0.222882
v 21.6497 -122.789 1519.65
vn -0.514639 0.248959 0.820467
v 22.0091 -123.307 1520.06
vn -0.203911 0.614564 0.762057
v 21.8556 -122.648 1519.65
vn -0.639084 0.763073 0.0963894
v 21.8556 -122.483 1519.47
vn -0.307457 -0.80075 -0.514072
v 22.4736 -128.645 1518.2
vn -0.456232 -0.882107 -0.117218
v 23.1986 -129.075 1518.62
vn -0.498845 -0.679181 0.538393
v 23.2977 -129.039 1518.82
vn -0.588725 -0.434995 0.681309
v 22.4736 -127.015 1519.86
vn -0.261595 -0.220413 0.939674
v 23.7097 -127.015 1520.65
vn -0.401264 -0.0764095 0.91277
v 22.6797 -125.367 1520.54
vn 0.25357 0.2033 0.945712
v 23.0917 -125.573 1520.57
vn 0.258151 0.295285 0.919872
v 23.2977 -125.779 1520.61
vn 0.481588 0.299851 0.823506
v 23.2977 -125.367 1520.39
vn -0.494585 0.101452 0.863188
v 22.2677 -123.719 1520.32
vn -0.480367 0.0125655 0.876977
v 22.4736 -124.543 1520.49
vn -0.244671 0.135371 0.96011
v 22.4736 -124.131 1520.44
vn -0.177513 0.246424 0.952767
v 22.4736 -123.513 1520.37
vn -0.0516592 0.112673 0.992288
v 22.6797 -124.543 1520.58
vn 0.184156 0.221825 0.957539
v 22.6797 -123.925 1520.42
vn 0.490339 0.189246 0.850737
v 23.0917 -124.543 1520.41
vn -0.785368 0.610093 -0.104807
v 22.6797 -121.799 1515.94
vn 0.416762 0.247571 0.874653
v 22.8857 -123.307 1520.17
vn -0.733827 0.679268 -0.00966842
v 22.8857 -121.416 1516.76
vn -0.863759 0.489716 -0.118739
v 23.0192 -121.247 1517.38
vn -0.779429 0.622931 -0.066694
v 23.0917 -121.247 1516.82
vn -0.799425 0.578147 -0.163297
v 23.2059 -121.041 1516.97
vn -0.839041 0.527401 -0.133638
v 23.1325 -121.041 1517.38
vn -0.810823 0.571086 -0.128169
v 23.4087 -120.835 1516.76
vn -0.745096 0.666705 -0.0183209
v 23.5037 -120.769 1516.35
vn -0.72835 0.684626 -0.0281695
v 23.5037 -120.64 1516.97
vn -0.728843 0.673421 -0.123665
v 23.766 -120.423 1516.56
vn -0.681931 0.717598 0.141505
v 22.8422 -121.453 1517.79
vn 0.101972 0.68175 0.724444
v 23.2977 -121.453 1518.37
vn 0.144797 -0.919642 -0.365092
v 23.9156 -129.205 1518.82
vn -0.397929 -0.745586 0.534559
v 23.9156 -129.253 1519.03
vn -0.430423 -0.621844 0.654252
v 23.9308 -129.075 1519.23
vn 0.00619547 -0.852508 0.522677
v 24.7397 -129.092 1519.65
vn 0.379101 -0.903737 -0.198852
v 24.8498 -129.075 1519.44
vn 0.514279 -0.850666 0.109018
v 25.1516 -128.935 1519.65
vn -0.382927 -0.528033 0.757989
v 23.9156 -127.839 1520.32
vn -0.11898 -0.610014 0.783407
v 25.3577 -128.251 1520.52
vn -0.438829 -0.535339 -0.721694
v 25.1516 -124.139 1512.02
vn -0.748995 -0.0924989 -0.656087
v 24.3518 -122.895 1512.23
vn -0.826017 0.379347 -0.416883
v 24.4548 -120.217 1512.64
vn -0.515571 0.780834 0.352824
v 23.9156 -120.524 1517.38
vn -0.800099 0.58395 -0.137273
v 25.2434 -118.775 1513.88
vn -0.703768 0.709266 0.0406576
v 24.4573 -119.805 1515.94
vn 0.240361 -0.796885 0.554256
v 25.5637 -128.414 1520.26
vn 0.708038 -0.705969 -0.0170258
v 26.3876 -127.737 1518.62
vn 0.318533 0.256143 0.912648
v 25.5637 -128.045 1520.46
vn 0.0775345 -0.813753 -0.576017
v 26.5937 -124.596 1512.02
vn -0.607989 -0.0557353 -0.791987
v 26.7997 -120.423 1509.49
vn 0.555835 0.203849 0.805911
v 25.7696 -120.217 1517.15
vn -0.342503 0.770609 0.537451
v 25.9757 -118.471 1515.53
vn -0.810724 0.535032 -0.237628
v 26.5937 -117.225 1512.64
vn -0.79817 0.531627 -0.283368
v 26.8656 -117.127 1512.02
vn -0.680405 0.697298 0.225441
v 26.592 -116.921 1513.47
vn 0.525204 -0.826607 -0.20219
v 28.0151 -125.985 1515.11
vn 0.197502 -0.817625 -0.540817
v 28.0357 -123.804 1511.41
vn 0.0625941 -0.71818 -0.693036
v 28.6537 -122.895 1510.16
vn -0.404527 -0.307426 -0.861305
v 27.4177 -121.477 1509.35
vn -0.328603 -0.314259 -0.890652
v 27.6236 -120.217 1509.14
vn -0.601247 0.168655 -0.781062
v 28.6537 -118.981 1508.14
vn -0.648843 0.374661 -0.662293
v 28.4106 -117.127 1508.73
vn -0.787784 0.484564 -0.380255
v 27.2712 -117.333 1510.38
vn -0.796658 0.573987 -0.189406
v 27.4177 -116.795 1510.99
vn -0.14276 0.655271 0.741781
v 28.0357 -117.951 1515.46
vn -0.768566 0.634082 -0.0851274
v 28.4477 -115.507 1510.99
vn -0.764671 0.595133 -0.247173
v 28.2537 -115.067 1512.02
vn 0.236662 -0.833322 -0.499565
v 28.8596 -123.63 1511.41
vn 0.736166 -0.662015 0.140697
v 28.9031 -124.955 1515.11
vn 0.758431 -0.632088 0.158895
v 29.4213 -124.337 1516.56
vn -0.0220561 -0.54542 -0.837873
v 30.3017 -120.217 1508
vn 0.402297 0.29675 0.866081
v 30.0956 -120.217 1514.61
vn -0.238824 -0.252661 -0.937617
v 30.0956 -119.393 1507.63
vn -0.414633 -0.0883937 -0.905686
v 29.2173 -119.187 1508.11
vn -0.157541 -0.406081 -0.900155
v 29.0657 -119.021 1508.11
vn -0.0781948 0.634479 0.768975
v 29.2717 -115.235 1513.47
vn -0.72196 0.598642 -0.346989
v 28.961 -114.861 1510.17
vn -0.770986 0.636091 0.0311362
v 29.0657 -114.103 1512.44
vn -0.673195 0.727334 0.133393
v 29.2717 -113.81 1512.23
vn -0.581046 0.809956 -0.0797263
v 29.4776 -113.64 1512.02
vn -0.357525 0.792915 0.493418
v 29.4776 -113.668 1512.23
vn 0.152933 0.615332 0.773291
v 29.8897 -113.458 1512.02
vn 0.7074 -0.695955 0.123416
v 30.7136 -123.719 1513.22
vn 0.313109 -0.795402 -0.51894
v 31.3316 -121.96 1509.76
vn 0.298896 0.517788 0.801596
v 31.1257 -121.031 1514.7
vn -0.037282 -0.449559 -0.892472
v 31.1257 -116.921 1506.97
vn -0.514769 0.535844 -0.669242
v 30.5077 -114.602 1508.52
vn -0.0369632 0.539633 0.841089
v 31.3316 -112.389 1511.04
vn -0.470536 0.685362 0.555766
v 31.3316 -112.081 1510.79
vn -0.502788 0.661425 -0.556525
v 31.5377 -112.104 1510.58
vn -0.639254 0.589243 -0.494113
v 30.9793 -112.801 1511.2
vn 0.238328 0.477824 0.845508
v 31.1257 -113.007 1511.36
vn 0.520155 -0.808006 -0.276705
v 32.3617 -122.215 1511.2
vn 0.222359 -0.675341 -0.703187
v 32.1557 -120.968 1508.93
vn 0.68896 -0.724329 0.0260841
v 33.3917 -121.081 1512.02
vn 0.194063 -0.532407 -0.823943
v 32.3617 -119.019 1507.49
vn -0.10503 -0.152376 -0.982726
v 32.1557 -117.539 1506.85
vn -0.149614 -0.11037 -0.982565
v 32.3617 -116.509 1506.77
vn -0.292954 0.257613 -0.920768
v 32.3617 -115.479 1506.85
vn -0.487788 0.742554 -0.458995
v 32.1557 -111.952 1510.17
vn 0.264157 0.447411 0.854427
v 32.1557 -111.962 1510.58
vn -0.398921 0.874017 -0.277409
v 32.3617 -111.793 1510.38
vn 0.170983 0.333324 0.927179
v 32.5676 -111.977 1510.45
vn -0.0211727 0.363494 0.931356
v 32.7737 -111.359 1510.27
vn -0.786773 0.61679 -0.0236376
v 32.7737 -111.153 1510.17
vn -0.617233 0.703327 -0.352638
v 33.3974 -111.153 1509.76
vn 0.0285535 0.270439 0.962314
v 33.3917 -111.153 1510.11
vn 0.789218 -0.577801 0.208041
v 33.8986 -120.629 1513.26
vn 0.461954 0.412493 0.785142
v 33.9991 -120.423 1513.26
vn 0.762269 -0.638234 0.107719
v 34.2156 -120.217 1512.87
vn 0.53729 -0.668746 -0.513904
v 34.5129 -119.393 1508.52
vn 0.427456 -0.0817133 0.900336
v 35.0396 -118.981 1512.35
vn 0.432332 0.356568 0.82822
v 34.0097 -120.011 1512.96
vn 0.400358 -0.53565 -0.743501
v 34.8336 -117.254 1507.29
vn 0.283711 -0.394673 -0.873923
v 34.8336 -116.921 1507.01
vn 0.310154 0.238348 0.920323
v 35.0396 -117.745 1512.46
vn 0.2068 0.364494 0.907953
v 33.9839 -113.831 1510.58
vn -0.3609 0.118356 0.925064
v 34.8336 -113.831 1510.58
vn -0.28566 0.450274 -0.845962
v 35.0396 -113.007 1506.93
vn -0.431065 0.613135 -0.662003
v 34.6277 -110.741 1508.78
vn -0.234107 0.192957 0.95287
v 34.0097 -110.741 1510.09
vn -0.646591 0.750643 -0.135847
v 34.2485 -110.329 1509.96
vn -0.777109 0.543531 0.317294
v 34.7049 -109.917 1510.38
vn -0.48731 0.780088 -0.392418
v 34.8336 -109.96 1509.55
vn 0.719261 -0.689833 0.0824211
v 35.6175 -119.187 1510.99
vn 0.737227 -0.515942 0.436235
v 35.4533 -119.187 1511.82
vn 0.533788 -0.541782 -0.649263
v 36.0696 -117.333 1507.88
vn 0.717054 -0.613458 -0.330912
v 36.744 -117.127 1508.93
vn 0.636957 -0.550927 -0.539226
v 36.8485 -117.127 1509.14
vn 0.703323 -0.688148 -0.178298
v 36.4473 -118.157 1509.76
vn 0.241277 0.14335 0.959811
v 35.8121 -117.745 1512.23
vn 0.179173 0.347921 0.920243
v 35.6576 -117.539 1512.19
vn 0.211885 0.0667409 0.975013
v 36.0696 -117.745 1512.18
vn 0.65341 -0.492635 0.574775
v 36.2757 -117.745 1512.12
vn 0.106884 0.078143 0.991196
v 36.2757 -117.539 1512.12
vn 0.712158 -0.466018 0.525031
v 36.6876 -117.47 1511.82
vn 0.488757 -0.333769 -0.806049
v 36.4817 -115.479 1507.11
vn -0.325161 0.0285259 0.945228
v 36.6876 -116.509 1512.09
vn 0.0649911 0.0394164 -0.997107
v 35.8637 -113.831 1506.59
vn -0.555454 0.0992735 0.8256
v 36.2757 -114.861 1511.55
vn -0.514087 0.130886 0.847693
v 36.2757 -112.801 1511.49
vn -0.331689 0.242071 0.911803
v 36.8937 -112.595 1511.69
vn -0.201335 0.686306 -0.69889
v 36.2757 -110.535 1508.15
vn -0.300343 0.0611695 0.951868
v 36.2757 -111.359 1511.3
vn -0.572196 0.136881 0.808613
v 35.4516 -109.299 1511.08
vn -0.621868 0.310941 0.718745
v 35.486 -109.093 1510.99
vn -0.334815 0.0526483 0.940812
v 36.0696 -108.887 1511.32
vn -0.587971 -0.062415 0.806471
v 36.8937 -108.681 1511.68
vn -0.426529 0.14345 0.893026
v 36.4817 -108.475 1511.51
vn -0.0463917 0.883031 -0.467016
v 36.4817 -108.269 1511.4
vn -0.461704 0.175037 0.869592
v 36.8937 -108.475 1511.67
vn 0.57007 -0.457053 -0.682731
v 37.9236 -116.097 1509.3
vn 0.706821 -0.441407 -0.552778
v 38.3357 -115.575 1509.35
vn 0.693393 -0.522386 -0.496304
v 38.3357 -115.309 1509.14
vn 0.642187 -0.485317 -0.593349
v 38.0347 -116.303 1509.55
vn 0.163395 -0.211229 0.963683
v 37.0997 -116.303 1512.13
vn -0.0961621 -0.106372 0.989666
v 37.0997 -115.831 1512.23
vn -0.435641 0.148291 0.887821
v 37.0997 -113.625 1512.23
vn 0.374761 0.104801 -0.921179
v 38.0215 -111.977 1507.29
vn 0.0369575 0.485814 -0.873281
v 37.3056 -111.359 1507.39
vn -0.414146 -0.0996719 0.904737
v 37.0997 -110.535 1511.25
vn -0.460411 -0.0078423 0.887671
v 38.5416 -111.359 1512.18
vn -0.56223 -0.292608 0.773485
v 37.9236 -108.887 1512.65
vn -0.334269 0.419884 0.843778
v 37.0997 -108.18 1511.61
vn -0.743027 -0.0788657 0.664598
v 37.2944 -108.269 1512.02
vn -0.0451309 0.936169 -0.348641
v 37.3056 -108.171 1511.61
vn -0.249568 0.927736 -0.277528
v 37.3056 -108.142 1511.82
vn -0.998701 0.0418523 -0.0290563
v 37.3056 -108 1512.02
vn -0.998693 0.041852 -0.029339
v 37.3056 -107.711 1512.44
vn -0.173172 0.872626 -0.456657
v 37.5117 -108.063 1511.81
vn 0.734094 -0.511166 -0.447006
v 39.1516 -114.243 1508.93
vn 0.840811 -0.482755 -0.244915
v 39.9837 -113.625 1509.95
vn 0.721996 -0.544246 0.42722
v 38.9537 -114.861 1511.84
vn 0.746396 -0.131309 -0.652419
v 39.9918 -111.977 1508.52
vn -0.115663 -0.0179273 0.993127
v 39.1596 -113.007 1512.59
vn 0.503947 -0.331123 0.797744
v 39.5717 -113.007 1512.5
vn 0.432844 0.418803 -0.798279
v 39.3657 -110.535 1508.37
vn 0.776143 0.390257 -0.49528
v 40.3297 -110.329 1509.35
vn -0.485632 -0.268068 0.832046
v 38.7477 -110.535 1512.52
vn -0.185559 -0.286286 0.940004
v 39.3657 -110.535 1512.83
vn -0.293339 -0.111001 0.949542
v 39.5717 -111.359 1512.69
vn 0.212902 -0.109291 0.970942
v 39.7776 -111.771 1512.72
vn 0.0455267 -0.0979381 0.994151
v 39.7776 -111.359 1512.72
vn 0.366209 -0.153145 0.917844
v 39.9837 -111.359 1512.67
vn 0.610772 -0.252857 0.750347
v 40.1977 -111.771 1512.44
vn 0.327535 -0.299879 0.895987
v 40.1897 -110.535 1512.79
vn 0.13572 0.783209 -0.606764
v 39.1596 -109.783 1508.93
vn 0.359857 0.840252 -0.405561
v 39.7776 -108.756 1510.99
vn -0.345512 -0.335486 0.876396
v 40.1897 -108.887 1513.81
vn -0.432212 -0.356055 0.828503
v 38.9537 -107.759 1513.67
vn 0.175083 0.921182 -0.347518
v 38.9537 -107.651 1513.51
vn -0.467784 -0.361497 0.806534
v 39.1631 -107.857 1513.67
vn -0.439424 -0.412077 -0.798185
v 39.1596 -107.85 1513.67
vn -0.439424 -0.412077 -0.798185
v 39.1596 -107.651 1513.57
vn 0.20008 0.903218 -0.379692
v 39.3657 -107.739 1513.47
vn 0 1 0
v 39.3657 -107.651 1513.64
vn -0.479229 0.577019 0.661354
v 39.6526 -107.651 1514.08
vn -0.516742 0.787336 0.336273
v 39.7776 -107.569 1514.08
vn -0.322785 -0.423128 0.846624
v 39.9837 -108.475 1513.93
vn -0.0815491 -0.484454 0.871008
v 40.1897 -108.475 1513.94
vn 0.705608 0.657885 -0.263259
v 40.2838 -108.063 1514.08
vn -0.531792 -0.351927 0.770289
v 40.1946 -108.063 1514.29
vn 0.868318 -0.355033 0.346375
v 40.5003 -112.183 1511.82
vn 0.978155 -0.109622 -0.176625
v 40.7867 -111.771 1510.17
vn 0.982613 0.100572 -0.156069
v 40.8929 -110.741 1510.58
vn 0.84392 -0.206685 0.495056
v 40.6017 -110.329 1512.57
vn 0.706169 -0.483086 0.517641
v 40.8672 -110.329 1511.41
vn 0.94654 0.309699 -0.0902663
v 40.806 -109.711 1511.61
vn 0.737242 -0.325142 0.592247
v 40.3956 -108.681 1513.59
vn -0.658735 -0.57404 0.48636
v 22.0617 -128.432 1518.2
vn -0.850928 -0.355748 0.386478
v 20.7886 -126.809 1517.79
vn -0.649496 0.758139 0.0581497
v 22.0118 -122.277 1517.59
vn -0.904788 0.417334 -0.0848029
v 20.8916 -123.307 1519.03
vn -0.706257 0.614866 0.350914
v 20.8916 -123.307 1519.03
vn -0.621416 0.742464 0.250178
v 21.0317 -123.028 1518.82
vn -0.58007 0.808356 0.100393
v 21.4191 -122.689 1518.2
vn 0.0498093 0.697482 0.714869
v 22.2213 -122.277 1519.23
vn -0.518176 0.405412 0.753083
v 21.6497 -122.789 1519.65
vn -0.22074 0.715997 0.662285
v 21.8556 -122.483 1519.47
vn -0.48473 -0.79183 0.371541
v 23.1986 -129.075 1518.62
vn -0.0771836 -0.878718 -0.47106
v 23.1986 -129.075 1518.62
vn 0.0640818 0.681935 0.7286
v 22.4736 -123.513 1520.37
vn 0.0296932 0.691009 0.722236
v 22.8857 -123.307 1520.17
vn -0.514747 0.78033 0.355134
v 23.1325 -121.041 1517.38
vn -0.456274 0.813837 0.359838
v 23.2977 -121.453 1518.37
vn 0.118121 -0.982011 -0.147313
v 23.9156 -129.253 1519.03
vn 0.155422 0.0923647 0.983521
v 25.3577 -128.251 1520.52
vn 0.589599 -0.376138 0.714768
v 25.3577 -128.251 1520.52
vn 0.0223072 0.704024 0.709825
v 23.9156 -120.524 1517.38
vn 0.765691 -0.51335 0.387543
v 25.5637 -128.414 1520.26
vn 0.703726 -0.330861 0.62873
v 25.5637 -128.045 1520.46
vn -0.0552388 0.684157 0.72724
v 25.7696 -120.217 1517.15
vn -0.152859 -0.484001 -0.861613
v 28.6537 -118.981 1508.14
vn -0.77175 0.608264 -0.185516
v 28.4106 -117.127 1508.73
vn 0.437782 0.0277049 0.898654
v 28.0357 -117.951 1515.46
vn 0.380194 0.441989 0.812465
v 28.0357 -117.951 1515.46
vn 0.497401 0.236298 0.834719
v 29.4213 -124.337 1516.56
vn 0.726772 -0.354692 0.588214
v 29.4213 -124.337 1516.56
vn -0.382806 0.642605 0.663716
v 29.0657 -114.103 1512.44
vn -0.399094 0.903184 0.158058
v 29.8897 -113.458 1512.02
vn -0.451509 0.258788 -0.853914
v 31.1257 -116.921 1506.97
vn -0.75708 0.609508 -0.235224
v 30.5077 -114.602 1508.52
vn -0.537138 0.591799 -0.601047
v 31.3316 -112.081 1510.79
vn -0.212513 0.925789 -0.312654
v 31.3316 -112.081 1510.79
vn -0.212513 0.925789 -0.312654
v 31.5377 -112.104 1510.58
vn -0.19396 0.844965 0.498412
v 31.5377 -112.104 1510.58
vn -0.396703 0.897772 0.191395
v 30.9793 -112.801 1511.2
vn -0.281558 0.620748 0.731708
v 30.9793 -112.801 1511.2
vn -0.788094 0.609628 0.0852115
v 32.1557 -111.952 1510.17
vn -0.212513 0.925789 -0.312654
v 32.1557 -111.962 1510.58
vn -0.19396 0.844965 0.498412
v 32.1557 -111.962 1510.58
vn -0.0231155 0.46556 0.884714
v 32.3617 -111.793 1510.38
vn -0.19396 0.844965 0.498412
v 32.3617 -111.793 1510.38
vn -0.753492 0.584206 0.301585
v 32.3617 -111.793 1510.38
vn -0.0888082 0.45643 0.885316
v 32.7737 -111.153 1510.17
vn 0 1 0
v 32.7737 -111.153 1510.17
vn -0.43556 0.604129 -0.667319
v 32.7737 -111.153 1510.17
vn 0 1 0
v 33.3974 -111.153 1509.76
vn 0 1 0
v 33.3917 -111.153 1510.11
vn -0.694117 0.719775 -0.0111695
v 33.3917 -111.153 1510.11
vn 0.811139 -0.395866 0.430515
v 33.9991 -120.423 1513.26
vn 0.65122 0.10014 0.752253
v 34.2156 -120.217 1512.87
vn -0.777109 0.543531 0.317294
v 34.0097 -110.741 1510.09
vn -0.216871 0.3882 0.895694
v 34.2485 -110.329 1509.96
vn -0.777109 0.543531 0.317294
v 34.2485 -110.329 1509.96
vn -0.651972 0.133921 0.746323
v 34.7049 -109.917 1510.38
vn -0.629192 0.764785 -0.138642
v 34.7049 -109.917 1510.38
vn 0.384206 -0.038675 0.922437
v 36.2757 -117.745 1512.12
vn -0.61642 0.766096 -0.181996
v 35.486 -109.093 1510.99
vn -0.567091 0.793508 -0.220801
v 36.4817 -108.269 1511.4
vn -0.481833 0.429166 0.763972
v 36.4817 -108.269 1511.4
vn -0.692327 0.565143 0.448662
v 36.8937 -108.475 1511.67
vn 0.783235 -0.617251 0.0744635
v 38.0347 -116.303 1509.55
vn -0.625491 0.647826 0.434835
v 37.0997 -108.18 1511.61
vn -0.0458526 0.977916 -0.203906
v 37.0997 -108.18 1511.61
vn -0.625491 0.647826 0.434835
v 37.2944 -108.269 1512.02
vn -0.998701 0.0418523 -0.0290563
v 37.2944 -108.269 1512.02
vn -0.551465 0.723064 0.416011
v 37.3056 -108.142 1511.82
vn -0.998709 0.0418526 -0.0287737
v 37.3056 -108.142 1511.82
vn -0.323553 0.777267 -0.539601
v 37.3056 -108 1512.02
vn -0.0118177 0.886231 -0.463093
v 37.3056 -107.711 1512.44
vn -0.717262 -0.259329 0.646749
v 37.3056 -107.711 1512.44
vn -0.479229 0.577019 0.661354
v 37.3056 -107.711 1512.44
vn -0.170323 0.963343 0.207269
v 37.3056 -107.711 1512.44
vn 0.0398958 -0.526008 0.849544
v 40.1897 -108.887 1513.81
vn 0.740097 -0.286085 0.608615
v 40.1897 -108.887 1513.81
vn 0.361864 0.775573 0.517243
v 38.9537 -107.759 1513.67
vn -0.479229 0.577019 0.661354
v 38.9537 -107.759 1513.67
vn -0.199211 -0.449545 -0.870761
v 38.9537 -107.759 1513.67
vn 0.15779 -0.821532 -0.547894
v 38.9537 -107.759 1513.67
vn -0.29703 -0.670285 0.680067
v 38.9537 -107.759 1513.67
vn 0.294972 0.758198 0.581488
v 38.9537 -107.651 1513.51
vn -0.0859526 0.990793 0.104598
v 38.9537 -107.651 1513.51
vn 0.15779 -0.821532 -0.547894
v 38.9537 -107.651 1513.51
vn 0.294972 0.758198 0.581488
v 39.1631 -107.857 1513.67
vn -0.697523 0.640902 -0.320478
v 39.1631 -107.857 1513.67
vn -0.651349 -0.348082 -0.674228
v 39.1631 -107.857 1513.67
vn 0.306906 -0.421631 -0.85325
v 39.1631 -107.857 1513.67
vn -0.431386 -0.493533 0.755203
v 39.1596 -107.85 1513.67
vn 0.15779 -0.821532 -0.547894
v 39.1596 -107.651 1513.57
vn 0 1 0
v 39.1596 -107.651 1513.57
vn 0.306906 -0.421631 -0.85325
v 39.1596 -107.651 1513.57
vn 0.225453 0.734071 0.640555
v 39.3657 -107.739 1513.47
vn -0.697523 0.640902 -0.320478
v 39.3657 -107.739 1513.47
vn -0.697523 0.640902 -0.320478
v 39.3657 -107.651 1513.64
vn 0.306906 -0.421631 -0.85325
v 39.3657 -107.651 1513.64
vn -0.516742 0.787336 0.336273
v 39.3657 -107.651 1513.64
vn 0.287734 0.856587 -0.428331
v 39.3657 -107.651 1513.64
vn -0.0572424 0.995927 0.0696596
v 39.6526 -107.651 1514.08
vn -0.468472 -0.432732 0.770245
v 39.6526 -107.651 1514.08
vn -0.516742 0.787336 0.336273
v 39.6526 -107.651 1514.08
vn -0.167716 0.255541 0.95214
v 39.6526 -107.651 1514.08
vn 0.219612 0.892951 -0.39295
v 39.7776 -107.569 1514.08
vn 0.673529 0.689946 -0.265202
v 39.7776 -107.569 1514.08
vn 0.668679 0.684977 0.289266
v 39.7776 -107.569 1514.08
vn -0.167716 0.255541 0.95214
v 39.7776 -107.569 1514.08
vn 0.694982 -0.371241 0.615776
v 40.1897 -108.475 1513.94
vn 0.668679 0.684977 0.289266
v 40.2838 -108.063 1514.08
vn 0.953384 -0.0643594 0.294816
v 40.2838 -108.063 1514.08
vn 0.668679 0.684977 0.289266
v 40.1946 -108.063 1514.29
vn -0.167716 0.255541 0.95214
v 40.1946 -108.063 1514.29
vn -0.0715473 -0.641022 0.76418
v 40.1946 -108.063 1514.29
vn 0.557176 -0.538032 0.632517
v 40.1946 -108.063 1514.29
vn 0.907251 -0.151199 0.392472
v 40.1946 -108.063 1514.29
vn 0.706169 -0.483086 0.517641
v 40.7867 -111.771 1510.17
vn 0.984562 -0.142302 0.101921
v 40.7867 -111.771 1510.17
vn 0.995994 -0.000464486 0.089415
v 40.8672 -110.329 1511.41
vn 0.965422 -0.031009 0.258841
v 40.3956 -108.681 1513.59
vn 0.706169 -0.483086 0.517641
v 40.3956 -108.681 1513.59
vn 0.992511 0.122111 0.0031687
v 40.3956 -108.681 1513.59
f 9//9 7//7 1//1
f 9//9 1//1 62//62
f 232//232 10//10 2//2
f 1//1 232//232 2//2
f 1//1 2//2 3//3
f 2//2 10//10 3//3
f 3//3 10//10 15//15
f 1//1 3//3 4//4
f 3//3 14//14 4//4
f 3//3 234//234 14//14
f 6//6 5//5 24//24
f 5//5 7//7 61//61
f 5//5 6//6 7//7
f 231//231 8//8 232//232
f 27//27 8//8 231//231
f 8//8 27//27 10//10
f 7//7 9//9 61//61
f 9//9 62//62 61//61
f 8//8 10//10 232//232
f 10//10 27//27 29//29
f 29//29 11//11 10//10
f 1//1 4//4 62//62
f 10//10 11//11 15//15
f 11//11 33//33 21//21
f 11//11 34//34 33//33
f 33//33 36//36 21//21
f 12//12 4//4 14//14
f 17//17 12//12 14//14
f 13//13 12//12 17//17
f 13//13 42//42 12//12
f 16//16 14//14 234//234
f 17//17 14//14 16//16
f 236//236 235//235 20//20
f 236//236 20//20 237//237
f 23//23 237//237 20//20
f 18//18 237//237 23//23
f 238//238 240//240 22//22
f 15//15 11//11 19//19
f 15//15 19//19 239//239
f 19//19 11//11 21//21
f 239//239 19//19 21//21
f 22//22 240//240 239//239
f 239//239 21//21 22//22
f 36//36 22//22 21//21
f 243//243 238//238 22//22
f 25//25 6//6 24//24
f 241//241 26//26 231//231
f 26//26 241//241 54//54
f 247//247 242//242 53//53
f 26//26 54//54 55//55
f 242//242 70//70 53//53
f 55//55 27//27 26//26
f 70//70 242//242 24//24
f 70//70 24//24 61//61
f 24//24 5//5 61//61
f 231//231 26//26 27//27
f 29//29 27//27 28//28
f 28//28 27//27 59//59
f 55//55 59//59 27//27
f 60//60 28//28 59//59
f 11//11 29//29 34//34
f 31//31 29//29 28//28
f 31//31 30//30 29//29
f 30//30 37//37 29//29
f 30//30 39//39 37//37
f 31//31 32//32 30//30
f 30//30 32//32 39//39
f 35//35 33//33 34//34
f 35//35 36//36 33//33
f 29//29 37//37 34//34
f 34//34 37//37 35//35
f 38//38 35//35 37//37
f 38//38 36//36 35//35
f 38//38 41//41 36//36
f 39//39 38//38 37//37
f 39//39 41//41 38//38
f 62//62 4//4 63//63
f 63//63 4//4 40//40
f 4//4 12//12 40//40
f 63//63 40//40 85//85
f 40//40 12//12 85//85
f 233//233 44//44 42//42
f 18//18 233//233 237//237
f 52//52 238//238 244//244
f 243//243 244//244 238//238
f 42//42 65//65 12//12
f 42//42 48//48 65//65
f 233//233 51//51 44//44
f 51//51 43//43 44//44
f 43//43 51//51 46//46
f 245//245 51//51 64//64
f 46//46 45//45 44//44
f 43//43 46//46 44//44
f 44//44 45//45 49//49
f 45//45 46//46 49//49
f 49//49 245//245 64//64
f 44//44 48//48 42//42
f 44//44 47//47 48//48
f 49//49 47//47 44//44
f 48//48 47//47 49//49
f 49//49 50//50 48//48
f 246//246 51//51 18//18
f 18//18 51//51 233//233
f 51//51 246//246 64//64
f 53//53 57//57 247//247
f 55//55 54//54 56//56
f 56//56 247//247 57//57
f 70//70 57//57 53//53
f 57//57 68//68 58//58
f 55//55 56//56 59//59
f 60//60 59//59 56//56
f 57//57 58//58 56//56
f 58//58 67//67 56//56
f 67//67 60//60 56//56
f 31//31 28//28 248//248
f 248//248 69//69 31//31
f 80//80 61//61 62//62
f 63//63 71//71 62//62
f 80//80 62//62 71//71
f 250//250 52//52 244//244
f 50//50 66//66 48//48
f 50//50 49//49 66//66
f 49//49 64//64 73//73
f 39//39 72//72 41//41
f 72//72 39//39 32//32
f 48//48 66//66 65//65
f 12//12 65//65 85//85
f 66//66 49//49 73//73
f 76//76 66//66 73//73
f 76//76 65//65 66//66
f 244//244 73//73 250//250
f 251//251 58//58 68//68
f 251//251 68//68 91//91
f 252//252 251//251 91//91
f 249//249 251//251 252//252
f 77//77 57//57 70//70
f 79//79 70//70 61//61
f 80//80 71//71 81//81
f 244//244 253//253 73//73
f 63//63 85//85 84//84
f 85//85 65//65 75//75
f 74//74 75//75 65//65
f 88//88 75//75 74//74
f 65//65 88//88 74//74
f 76//76 88//88 65//65
f 57//57 77//77 68//68
f 90//90 68//68 77//77
f 68//68 90//90 91//91
f 104//104 90//90 77//77
f 69//69 258//258 31//31
f 70//70 79//79 78//78
f 70//70 89//89 77//77
f 70//70 78//78 89//89
f 80//80 79//79 61//61
f 95//95 80//80 81//81
f 94//94 80//80 95//95
f 71//71 63//63 83//83
f 71//71 83//83 82//82
f 254//254 81//81 71//71
f 81//81 254//254 96//96
f 63//63 84//84 83//83
f 97//97 73//73 86//86
f 86//86 73//73 253//253
f 98//98 84//84 85//85
f 83//83 84//84 98//98
f 87//87 98//98 85//85
f 85//85 75//75 87//87
f 87//87 75//75 88//88
f 112//112 87//87 88//88
f 73//73 97//97 76//76
f 88//88 76//76 99//99
f 76//76 97//97 260//260
f 101//101 88//88 100//100
f 100//100 88//88 99//99
f 105//105 89//89 79//79
f 89//89 105//105 114//114
f 89//89 114//114 77//77
f 104//104 77//77 114//114
f 78//78 79//79 89//89
f 79//79 117//117 115//115
f 105//105 79//79 115//115
f 80//80 94//94 92//92
f 92//92 79//79 80//80
f 93//93 72//72 32//32
f 93//93 32//32 31//31
f 96//96 254//254 107//107
f 95//95 81//81 96//96
f 72//72 93//93 256//256
f 262//262 82//82 83//83
f 83//83 108//108 262//262
f 96//96 119//119 95//95
f 118//118 95//95 119//119
f 110//110 98//98 87//87
f 101//101 112//112 88//88
f 100//100 260//260 102//102
f 101//101 100//100 102//102
f 103//103 102//102 97//97
f 261//261 101//101 102//102
f 97//97 102//102 260//260
f 101//101 261//261 268//268
f 104//104 116//116 90//90
f 91//91 90//90 116//116
f 116//116 129//129 91//91
f 31//31 106//106 93//93
f 118//118 94//94 95//95
f 117//117 92//92 94//94
f 79//79 92//92 117//117
f 118//118 119//119 160//160
f 96//96 107//107 119//119
f 119//119 262//262 120//120
f 262//262 108//108 120//120
f 98//98 264//264 111//111
f 83//83 98//98 111//111
f 113//113 103//103 97//97
f 97//97 257//257 113//113
f 110//110 87//87 269//269
f 113//113 109//109 269//269
f 109//109 110//110 269//269
f 122//122 109//109 113//113
f 122//122 110//110 109//109
f 83//83 111//111 121//121
f 266//266 265//265 271//271
f 126//126 255//255 270//270
f 103//103 113//113 269//269
f 105//105 115//115 132//132
f 114//114 151//151 104//104
f 151//151 116//116 104//104
f 31//31 130//130 106//106
f 132//132 115//115 117//117
f 130//130 134//134 106//106
f 134//134 93//93 106//106
f 93//93 134//134 133//133
f 93//93 133//133 256//256
f 118//118 117//117 94//94
f 136//136 117//117 118//118
f 119//119 120//120 160//160
f 120//120 108//108 140//140
f 138//138 113//113 257//257
f 138//138 122//122 113//113
f 138//138 124//124 122//122
f 121//121 111//111 123//123
f 124//124 273//273 122//122
f 272//272 274//274 267//267
f 128//128 124//124 138//138
f 139//139 128//128 138//138
f 140//140 108//108 141//141
f 108//108 127//127 145//145
f 141//141 108//108 145//145
f 270//270 275//275 126//126
f 124//124 125//125 273//273
f 125//125 276//276 273//273
f 276//276 125//125 128//128
f 128//128 125//125 124//124
f 126//126 263//263 255//255
f 279//279 277//277 280//280
f 278//278 127//127 108//108
f 142//142 128//128 139//139
f 127//127 281//281 143//143
f 151//151 114//114 132//132
f 132//132 114//114 105//105
f 131//131 129//129 116//116
f 283//283 147//147 133//133
f 282//282 259//259 129//129
f 258//258 130//130 31//31
f 282//282 129//129 131//131
f 283//283 133//133 134//134
f 283//283 134//134 130//130
f 117//117 148//148 132//132
f 116//116 151//151 146//146
f 131//131 116//116 146//146
f 146//146 147//147 131//131
f 136//136 118//118 160//160
f 117//117 136//136 135//135
f 148//148 117//117 135//135
f 137//137 256//256 133//133
f 257//257 137//137 138//138
f 140//140 160//160 120//120
f 156//156 139//139 138//138
f 164//164 141//141 145//145
f 140//140 141//141 164//164
f 145//145 127//127 143//143
f 285//285 128//128 142//142
f 286//286 284//284 144//144
f 142//142 139//139 287//287
f 164//164 145//145 208//208
f 145//145 143//143 288//288
f 287//287 166//166 167//167
f 287//287 139//139 166//166
f 290//290 145//145 288//288
f 194//194 146//146 151//151
f 157//157 147//147 146//146
f 157//157 146//146 194//194
f 155//155 133//133 147//147
f 155//155 147//147 157//157
f 148//148 149//149 132//132
f 132//132 150//150 151//151
f 150//150 176//176 151//151
f 150//150 132//132 149//149
f 149//149 148//148 192//192
f 153//153 138//138 137//137
f 133//133 152//152 137//137
f 152//152 153//153 137//137
f 133//133 154//154 152//152
f 154//154 153//153 152//152
f 289//289 154//154 133//133
f 289//289 156//156 154//154
f 156//156 153//153 154//154
f 156//156 138//138 153//153
f 289//289 157//157 156//156
f 158//158 135//135 136//136
f 136//136 160//160 158//158
f 148//148 135//135 158//158
f 156//156 161//161 139//139
f 161//161 156//156 159//159
f 161//161 159//159 179//179
f 177//177 159//159 156//156
f 177//177 178//178 159//159
f 178//178 179//179 159//159
f 161//161 162//162 139//139
f 161//161 179//179 162//162
f 181//181 140//140 164//164
f 140//140 181//181 160//160
f 162//162 165//165 139//139
f 163//163 165//165 162//162
f 163//163 162//162 179//179
f 164//164 208//208 181//181
f 163//163 182//182 165//165
f 165//165 166//166 139//139
f 171//171 208//208 145//145
f 168//168 166//166 165//165
f 168//168 167//167 166//166
f 291//291 145//145 290//290
f 208//208 171//171 187//187
f 209//209 208//208 187//187
f 182//182 168//168 165//165
f 168//168 170//170 167//167
f 168//168 182//182 170//170
f 169//169 172//172 170//170
f 172//172 169//169 186//186
f 292//292 167//167 170//170
f 170//170 172//172 185//185
f 185//185 292//292 170//170
f 295//295 293//293 297//297
f 176//176 150//150 173//173
f 158//158 192//192 148//148
f 173//173 150//150 175//175
f 149//149 175//175 150//150
f 192//192 175//175 149//149
f 173//173 175//175 176//176
f 175//175 174//174 176//176
f 174//174 193//193 176//176
f 174//174 175//175 193//193
f 294//294 194//194 151//151
f 294//294 193//193 194//194
f 178//178 177//177 196//196
f 156//156 157//157 194//194
f 156//156 194//194 177//177
f 196//196 179//179 178//178
f 160//160 181//181 180//180
f 180//180 158//158 160//160
f 163//163 179//179 196//196
f 196//196 183//183 163//163
f 198//198 181//181 208//208
f 180//180 181//181 198//198
f 183//183 182//182 163//163
f 183//183 200//200 182//182
f 202//202 200//200 183//183
f 170//170 182//182 169//169
f 169//169 184//184 186//186
f 182//182 184//184 169//169
f 184//184 182//182 200//200
f 187//187 171//171 296//296
f 296//296 188//188 187//187
f 299//299 295//295 297//297
f 300//300 298//298 189//189
f 191//191 187//187 188//188
f 298//298 190//190 189//189
f 188//188 301//301 191//191
f 191//191 301//301 302//302
f 209//209 187//187 191//191
f 184//184 303//303 186//186
f 209//209 191//191 302//302
f 209//209 302//302 212//212
f 184//184 211//211 303//303
f 192//192 193//193 175//175
f 158//158 195//195 192//192
f 224//224 194//194 193//193
f 194//194 224//224 197//197
f 194//194 197//197 177//177
f 180//180 195//195 158//158
f 192//192 195//195 193//193
f 193//193 195//195 225//225
f 198//198 195//195 180//180
f 196//196 202//202 183//183
f 177//177 197//197 196//196
f 196//196 197//197 203//203
f 197//197 224//224 206//206
f 197//197 206//206 203//203
f 199//199 195//195 198//198
f 225//225 195//195 199//199
f 201//201 200//200 202//202
f 203//203 202//202 196//196
f 203//203 204//204 202//202
f 204//204 201//201 202//202
f 205//205 204//204 203//203
f 205//205 207//207 204//204
f 207//207 201//201 204//204
f 205//205 203//203 206//206
f 205//205 206//206 207//207
f 206//206 227//227 207//207
f 201//201 210//210 200//200
f 199//199 198//198 208//208
f 209//209 199//199 208//208
f 199//199 209//209 229//229
f 200//200 210//210 184//184
f 207//207 306//306 201//201
f 220//220 184//184 210//210
f 207//207 227//227 307//307
f 220//220 210//210 221//221
f 227//227 230//230 307//307
f 307//307 230//230 338//338
f 211//211 184//184 213//213
f 316//316 313//313 308//308
f 304//304 309//309 218//218
f 314//314 305//305 330//330
f 215//215 214//214 310//310
f 321//321 311//311 315//315
f 312//312 320//320 331//331
f 322//322 314//314 330//330
f 217//217 322//322 330//330
f 212//212 216//216 209//209
f 313//313 316//316 324//324
f 325//325 317//317 326//326
f 214//214 215//215 318//318
f 327//327 319//319 323//323
f 213//213 331//331 320//320
f 328//328 332//332 219//219
f 334//334 216//216 329//329
f 334//334 209//209 216//216
f 220//220 213//213 184//184
f 220//220 223//223 213//213
f 213//213 223//223 331//331
f 209//209 335//335 222//222
f 339//339 336//336 341//341
f 342//342 337//337 333//333
f 220//220 221//221 343//343
f 222//222 229//229 209//209
f 230//230 344//344 338//338
f 229//229 340//340 349//349
f 349//349 340//340 345//345
f 224//224 193//193 225//225
f 225//225 199//199 226//226
f 199//199 229//229 226//226
f 206//206 224//224 227//227
f 227//227 224//224 225//225
f 228//228 350//350 346//346
f 347//347 226//226 348//348
f 225//225 351//351 227//227
f 229//229 349//349 348//348
f 348//348 226//226 229//229
